solid AutomaticCoilerV2-0-0
facet normal 0.0 1.0 0.0
  outer loop
    vertex 3.2914384238738745 58.37209925809858 508.2098901908619
    vertex 9.141438423873876 58.37209925809858 511.73764700442837
    vertex 16.691438423873876 58.37209925809858 508.2098901908619
  endloop
endfacet
facet normal 0.0 1.0 0.0
  outer loop
    vertex 9.141438423873876 58.37209925809858 511.73764700442837
    vertex 3.2914384238738745 58.37209925809858 508.2098901908619
    vertex 8.789356895856743 58.37209925809858 512.0078086628448
  endloop
endfacet
facet normal 0.0 1.0 0.0
  outer loop
    vertex 8.789356895856743 58.37209925809858 512.0078086628448
    vertex 3.2914384238738745 58.37209925809858 508.2098901908619
    vertex 8.519195237440329 58.37209925809858 512.359890190862
  endloop
endfacet
facet normal 0.0 1.0 0.0
  outer loop
    vertex 8.519195237440329 58.37209925809858 512.359890190862
    vertex 3.2914384238738745 58.37209925809858 508.2098901908619
    vertex 8.34936451918246 58.37209925809858 512.7698978141876
  endloop
endfacet
facet normal 0.0 1.0 0.0
  outer loop
    vertex 8.34936451918246 58.37209925809858 512.7698978141876
    vertex 3.2914384238738745 58.37209925809858 508.2098901908619
    vertex 3.2914384238738745 58.37209925809858 528.2098901908619
  endloop
endfacet
facet normal 0.0 1.0 0.0
  outer loop
    vertex 16.691438423873876 58.37209925809858 508.2098901908619
    vertex 9.141438423873876 58.37209925809858 511.73764700442837
    vertex 9.55144604719959 58.37209925809858 511.5678162861705
  endloop
endfacet
facet normal 0.0 1.0 0.0
  outer loop
    vertex 16.691438423873876 58.37209925809858 508.2098901908619
    vertex 9.55144604719959 58.37209925809858 511.5678162861705
    vertex 9.991438423873875 58.37209925809858 511.509890190862
  endloop
endfacet
facet normal 0.0 1.0 0.0
  outer loop
    vertex 8.34936451918246 58.37209925809858 512.7698978141876
    vertex 3.2914384238738745 58.37209925809858 528.2098901908619
    vertex 8.291438423873876 58.37209925809858 513.209890190862
  endloop
endfacet
facet normal 0.0 1.0 0.0
  outer loop
    vertex 8.291438423873876 58.37209925809858 513.209890190862
    vertex 3.2914384238738745 58.37209925809858 528.2098901908619
    vertex 8.349364519182458 58.37209925809858 513.6498825675362
  endloop
endfacet
facet normal 0.0 1.0 0.0
  outer loop
    vertex 8.349364519182458 58.37209925809858 513.6498825675362
    vertex 3.2914384238738745 58.37209925809858 528.2098901908619
    vertex 8.519195237440329 58.37209925809858 514.0598901908619
  endloop
endfacet
facet normal 0.0 1.0 0.0
  outer loop
    vertex 8.519195237440329 58.37209925809858 514.0598901908619
    vertex 3.2914384238738745 58.37209925809858 528.2098901908619
    vertex 8.789356895856743 58.37209925809858 514.411971718879
  endloop
endfacet
facet normal 0.0 1.0 0.0
  outer loop
    vertex 8.789356895856743 58.37209925809858 514.411971718879
    vertex 3.2914384238738745 58.37209925809858 528.2098901908619
    vertex 9.141438423873876 58.37209925809858 514.6821333772955
  endloop
endfacet
facet normal 0.0 1.0 0.0
  outer loop
    vertex 9.141438423873876 58.37209925809858 514.6821333772955
    vertex 3.2914384238738745 58.37209925809858 528.2098901908619
    vertex 9.551446047199589 58.37209925809858 514.8519640955534
  endloop
endfacet
facet normal 0.0 1.0 0.0
  outer loop
    vertex 9.551446047199589 58.37209925809858 514.8519640955534
    vertex 3.2914384238738745 58.37209925809858 528.2098901908619
    vertex 9.991438423873875 58.37209925809858 514.9098901908619
  endloop
endfacet
facet normal 0.0 1.0 0.0
  outer loop
    vertex 9.991438423873875 58.37209925809858 514.9098901908619
    vertex 3.2914384238738745 58.37209925809858 528.2098901908619
    vertex 8.789356895856743 58.372099258098565 522.0078086628447
  endloop
endfacet
facet normal 0.0 1.0 0.0
  outer loop
    vertex 9.991438423873875 58.37209925809858 514.9098901908619
    vertex 8.789356895856743 58.372099258098565 522.0078086628447
    vertex 9.141438423873876 58.372099258098565 521.7376470044283
  endloop
endfacet
facet normal 0.0 1.0 0.0
  outer loop
    vertex 9.991438423873875 58.37209925809858 514.9098901908619
    vertex 9.141438423873876 58.372099258098565 521.7376470044283
    vertex 9.55144604719959 58.372099258098565 521.5678162861703
  endloop
endfacet
facet normal 0.0 1.0 0.0
  outer loop
    vertex 9.991438423873875 58.37209925809858 514.9098901908619
    vertex 9.55144604719959 58.372099258098565 521.5678162861703
    vertex 9.991438423873875 58.372099258098565 521.5098901908618
  endloop
endfacet
facet normal 0.0 1.0 0.0
  outer loop
    vertex 8.789356895856743 58.372099258098565 522.0078086628447
    vertex 3.2914384238738745 58.37209925809858 528.2098901908619
    vertex 8.519195237440329 58.372099258098565 522.3598901908618
  endloop
endfacet
facet normal 0.0 1.0 0.0
  outer loop
    vertex 8.519195237440329 58.372099258098565 522.3598901908618
    vertex 3.2914384238738745 58.37209925809858 528.2098901908619
    vertex 8.34936451918246 58.372099258098565 522.7698978141875
  endloop
endfacet
facet normal 0.0 1.0 0.0
  outer loop
    vertex 8.34936451918246 58.372099258098565 522.7698978141875
    vertex 3.2914384238738745 58.37209925809858 528.2098901908619
    vertex 8.291438423873876 58.372099258098565 523.2098901908619
  endloop
endfacet
facet normal 0.0 1.0 0.0
  outer loop
    vertex 8.291438423873876 58.372099258098565 523.2098901908619
    vertex 3.2914384238738745 58.37209925809858 528.2098901908619
    vertex 8.349364519182458 58.372099258098565 523.6498825675361
  endloop
endfacet
facet normal 0.0 1.0 0.0
  outer loop
    vertex 8.349364519182458 58.372099258098565 523.6498825675361
    vertex 3.2914384238738745 58.37209925809858 528.2098901908619
    vertex 8.519195237440329 58.372099258098565 524.0598901908618
  endloop
endfacet
facet normal 0.0 1.0 0.0
  outer loop
    vertex 8.519195237440329 58.372099258098565 524.0598901908618
    vertex 3.2914384238738745 58.37209925809858 528.2098901908619
    vertex 8.789356895856743 58.372099258098565 524.4119717188789
  endloop
endfacet
facet normal 0.0 1.0 0.0
  outer loop
    vertex 8.789356895856743 58.372099258098565 524.4119717188789
    vertex 3.2914384238738745 58.37209925809858 528.2098901908619
    vertex 9.141438423873876 58.372099258098565 524.6821333772955
  endloop
endfacet
facet normal 0.0 1.0 0.0
  outer loop
    vertex 9.141438423873876 58.372099258098565 524.6821333772955
    vertex 3.2914384238738745 58.37209925809858 528.2098901908619
    vertex 9.551446047199589 58.372099258098565 524.8519640955533
  endloop
endfacet
facet normal 0.0 1.0 0.0
  outer loop
    vertex 9.551446047199589 58.372099258098565 524.8519640955533
    vertex 3.2914384238738745 58.37209925809858 528.2098901908619
    vertex 9.991438423873875 58.372099258098565 524.9098901908618
  endloop
endfacet
facet normal 0.0 1.0 0.0
  outer loop
    vertex 16.691438423873876 58.37209925809858 508.2098901908619
    vertex 11.633512328565292 58.37209925809858 512.7698978141876
    vertex 16.691438423873876 58.37209925809858 528.2098901908619
  endloop
endfacet
facet normal 0.0 1.0 0.0
  outer loop
    vertex 11.633512328565292 58.37209925809858 512.7698978141876
    vertex 16.691438423873876 58.37209925809858 508.2098901908619
    vertex 11.46368161030742 58.37209925809858 512.359890190862
  endloop
endfacet
facet normal 0.0 1.0 0.0
  outer loop
    vertex 11.46368161030742 58.37209925809858 512.359890190862
    vertex 16.691438423873876 58.37209925809858 508.2098901908619
    vertex 11.193519951891005 58.37209925809858 512.0078086628448
  endloop
endfacet
facet normal 0.0 1.0 0.0
  outer loop
    vertex 11.193519951891005 58.37209925809858 512.0078086628448
    vertex 16.691438423873876 58.37209925809858 508.2098901908619
    vertex 10.841438423873875 58.37209925809858 511.73764700442837
  endloop
endfacet
facet normal 0.0 1.0 0.0
  outer loop
    vertex 10.841438423873875 58.37209925809858 511.73764700442837
    vertex 16.691438423873876 58.37209925809858 508.2098901908619
    vertex 10.43143080054816 58.37209925809858 511.5678162861705
  endloop
endfacet
facet normal 0.0 1.0 0.0
  outer loop
    vertex 10.43143080054816 58.37209925809858 511.5678162861705
    vertex 16.691438423873876 58.37209925809858 508.2098901908619
    vertex 9.991438423873875 58.37209925809858 511.509890190862
  endloop
endfacet
facet normal 0.0 1.0 0.0
  outer loop
    vertex 16.691438423873876 58.37209925809858 528.2098901908619
    vertex 11.633512328565292 58.37209925809858 512.7698978141876
    vertex 11.691438423873874 58.37209925809858 513.209890190862
  endloop
endfacet
facet normal 0.0 1.0 0.0
  outer loop
    vertex 16.691438423873876 58.37209925809858 528.2098901908619
    vertex 11.691438423873874 58.37209925809858 513.209890190862
    vertex 11.63351232856529 58.37209925809858 513.6498825675362
  endloop
endfacet
facet normal 0.0 1.0 0.0
  outer loop
    vertex 16.691438423873876 58.37209925809858 528.2098901908619
    vertex 11.63351232856529 58.37209925809858 513.6498825675362
    vertex 11.46368161030742 58.37209925809858 514.0598901908619
  endloop
endfacet
facet normal 0.0 1.0 0.0
  outer loop
    vertex 16.691438423873876 58.37209925809858 528.2098901908619
    vertex 11.46368161030742 58.37209925809858 514.0598901908619
    vertex 11.193519951891005 58.37209925809858 514.411971718879
  endloop
endfacet
facet normal 0.0 1.0 0.0
  outer loop
    vertex 16.691438423873876 58.37209925809858 528.2098901908619
    vertex 11.193519951891005 58.37209925809858 514.411971718879
    vertex 10.841438423873873 58.37209925809858 514.6821333772955
  endloop
endfacet
facet normal 0.0 1.0 0.0
  outer loop
    vertex 16.691438423873876 58.37209925809858 528.2098901908619
    vertex 10.841438423873873 58.37209925809858 514.6821333772955
    vertex 10.431430800548158 58.37209925809858 514.8519640955534
  endloop
endfacet
facet normal 0.0 1.0 0.0
  outer loop
    vertex 16.691438423873876 58.37209925809858 528.2098901908619
    vertex 10.431430800548158 58.37209925809858 514.8519640955534
    vertex 9.991438423873875 58.37209925809858 514.9098901908619
  endloop
endfacet
facet normal 0.0 1.0 0.0
  outer loop
    vertex 16.691438423873876 58.37209925809858 528.2098901908619
    vertex 9.991438423873875 58.37209925809858 514.9098901908619
    vertex 11.193519951891005 58.372099258098565 522.0078086628447
  endloop
endfacet
facet normal 0.0 1.0 0.0
  outer loop
    vertex 11.193519951891005 58.372099258098565 522.0078086628447
    vertex 9.991438423873875 58.37209925809858 514.9098901908619
    vertex 10.841438423873875 58.372099258098565 521.7376470044283
  endloop
endfacet
facet normal 0.0 1.0 0.0
  outer loop
    vertex 10.841438423873875 58.372099258098565 521.7376470044283
    vertex 9.991438423873875 58.37209925809858 514.9098901908619
    vertex 10.43143080054816 58.372099258098565 521.5678162861703
  endloop
endfacet
facet normal 0.0 1.0 0.0
  outer loop
    vertex 10.43143080054816 58.372099258098565 521.5678162861703
    vertex 9.991438423873875 58.37209925809858 514.9098901908619
    vertex 9.991438423873875 58.372099258098565 521.5098901908618
  endloop
endfacet
facet normal 0.0 1.0 0.0
  outer loop
    vertex 16.691438423873876 58.37209925809858 528.2098901908619
    vertex 11.193519951891005 58.372099258098565 522.0078086628447
    vertex 11.46368161030742 58.372099258098565 522.3598901908618
  endloop
endfacet
facet normal 0.0 1.0 0.0
  outer loop
    vertex 16.691438423873876 58.37209925809858 528.2098901908619
    vertex 11.46368161030742 58.372099258098565 522.3598901908618
    vertex 11.633512328565292 58.372099258098565 522.7698978141875
  endloop
endfacet
facet normal 0.0 1.0 0.0
  outer loop
    vertex 16.691438423873876 58.37209925809858 528.2098901908619
    vertex 11.633512328565292 58.372099258098565 522.7698978141875
    vertex 11.691438423873874 58.372099258098565 523.2098901908619
  endloop
endfacet
facet normal 0.0 1.0 0.0
  outer loop
    vertex 16.691438423873876 58.37209925809858 528.2098901908619
    vertex 11.691438423873874 58.372099258098565 523.2098901908619
    vertex 11.63351232856529 58.372099258098565 523.6498825675361
  endloop
endfacet
facet normal 0.0 1.0 0.0
  outer loop
    vertex 16.691438423873876 58.37209925809858 528.2098901908619
    vertex 11.63351232856529 58.372099258098565 523.6498825675361
    vertex 11.46368161030742 58.372099258098565 524.0598901908618
  endloop
endfacet
facet normal 0.0 1.0 0.0
  outer loop
    vertex 16.691438423873876 58.37209925809858 528.2098901908619
    vertex 11.46368161030742 58.372099258098565 524.0598901908618
    vertex 11.193519951891005 58.372099258098565 524.4119717188789
  endloop
endfacet
facet normal 0.0 1.0 0.0
  outer loop
    vertex 16.691438423873876 58.37209925809858 528.2098901908619
    vertex 11.193519951891005 58.372099258098565 524.4119717188789
    vertex 10.841438423873873 58.372099258098565 524.6821333772955
  endloop
endfacet
facet normal 0.0 1.0 0.0
  outer loop
    vertex 16.691438423873876 58.37209925809858 528.2098901908619
    vertex 10.841438423873873 58.372099258098565 524.6821333772955
    vertex 10.431430800548158 58.372099258098565 524.8519640955533
  endloop
endfacet
facet normal 0.0 1.0 0.0
  outer loop
    vertex 16.691438423873876 58.37209925809858 528.2098901908619
    vertex 10.431430800548158 58.372099258098565 524.8519640955533
    vertex 9.991438423873875 58.372099258098565 524.9098901908618
  endloop
endfacet
facet normal 0.0 1.0 0.0
  outer loop
    vertex 16.691438423873876 58.37209925809858 528.2098901908619
    vertex 9.991438423873875 58.372099258098565 524.9098901908618
    vertex 3.2914384238738745 58.37209925809858 528.2098901908619
  endloop
endfacet
facet normal -0.0 -1.0 -0.0
  outer loop
    vertex 16.691438423873876 55.37209925809858 508.2098901908619
    vertex 10.841438423873875 55.37209925809858 511.73764700442837
    vertex 3.2914384238738745 55.37209925809858 508.2098901908619
  endloop
endfacet
facet normal -0.0 -1.0 -0.0
  outer loop
    vertex 10.841438423873875 55.37209925809858 511.73764700442837
    vertex 16.691438423873876 55.37209925809858 508.2098901908619
    vertex 11.193519951891005 55.37209925809858 512.0078086628448
  endloop
endfacet
facet normal -0.0 -1.0 -0.0
  outer loop
    vertex 11.193519951891005 55.37209925809858 512.0078086628448
    vertex 16.691438423873876 55.37209925809858 508.2098901908619
    vertex 11.46368161030742 55.37209925809858 512.359890190862
  endloop
endfacet
facet normal -0.0 -1.0 -0.0
  outer loop
    vertex 11.46368161030742 55.37209925809858 512.359890190862
    vertex 16.691438423873876 55.37209925809858 508.2098901908619
    vertex 11.633512328565292 55.37209925809858 512.7698978141876
  endloop
endfacet
facet normal -0.0 -1.0 -0.0
  outer loop
    vertex 11.633512328565292 55.37209925809858 512.7698978141876
    vertex 16.691438423873876 55.37209925809858 508.2098901908619
    vertex 16.691438423873876 55.37209925809858 528.2098901908619
  endloop
endfacet
facet normal -0.0 -1.0 -0.0
  outer loop
    vertex 3.2914384238738745 55.37209925809858 508.2098901908619
    vertex 10.841438423873875 55.37209925809858 511.73764700442837
    vertex 10.43143080054816 55.37209925809858 511.5678162861705
  endloop
endfacet
facet normal -0.0 -1.0 -0.0
  outer loop
    vertex 3.2914384238738745 55.37209925809858 508.2098901908619
    vertex 10.43143080054816 55.37209925809858 511.5678162861705
    vertex 9.991438423873875 55.37209925809858 511.509890190862
  endloop
endfacet
facet normal -0.0 -1.0 -0.0
  outer loop
    vertex 11.633512328565292 55.37209925809858 512.7698978141876
    vertex 16.691438423873876 55.37209925809858 528.2098901908619
    vertex 11.691438423873874 55.37209925809858 513.209890190862
  endloop
endfacet
facet normal -0.0 -1.0 -0.0
  outer loop
    vertex 11.691438423873874 55.37209925809858 513.209890190862
    vertex 16.691438423873876 55.37209925809858 528.2098901908619
    vertex 11.63351232856529 55.37209925809858 513.6498825675362
  endloop
endfacet
facet normal -0.0 -1.0 -0.0
  outer loop
    vertex 11.63351232856529 55.37209925809858 513.6498825675362
    vertex 16.691438423873876 55.37209925809858 528.2098901908619
    vertex 11.46368161030742 55.37209925809858 514.0598901908619
  endloop
endfacet
facet normal -0.0 -1.0 -0.0
  outer loop
    vertex 11.46368161030742 55.37209925809858 514.0598901908619
    vertex 16.691438423873876 55.37209925809858 528.2098901908619
    vertex 11.193519951891005 55.37209925809858 514.411971718879
  endloop
endfacet
facet normal -0.0 -1.0 -0.0
  outer loop
    vertex 11.193519951891005 55.37209925809858 514.411971718879
    vertex 16.691438423873876 55.37209925809858 528.2098901908619
    vertex 10.841438423873873 55.37209925809858 514.6821333772955
  endloop
endfacet
facet normal -0.0 -1.0 -0.0
  outer loop
    vertex 10.841438423873873 55.37209925809858 514.6821333772955
    vertex 16.691438423873876 55.37209925809858 528.2098901908619
    vertex 10.431430800548158 55.37209925809858 514.8519640955534
  endloop
endfacet
facet normal -0.0 -1.0 -0.0
  outer loop
    vertex 10.431430800548158 55.37209925809858 514.8519640955534
    vertex 16.691438423873876 55.37209925809858 528.2098901908619
    vertex 9.991438423873875 55.37209925809858 514.9098901908619
  endloop
endfacet
facet normal -0.0 -1.0 -0.0
  outer loop
    vertex 9.991438423873875 55.37209925809858 514.9098901908619
    vertex 16.691438423873876 55.37209925809858 528.2098901908619
    vertex 11.193519951891005 55.37209925809858 522.0078086628447
  endloop
endfacet
facet normal -0.0 -1.0 -0.0
  outer loop
    vertex 9.991438423873875 55.37209925809858 514.9098901908619
    vertex 11.193519951891005 55.37209925809858 522.0078086628447
    vertex 10.841438423873875 55.37209925809858 521.7376470044283
  endloop
endfacet
facet normal -0.0 -1.0 -0.0
  outer loop
    vertex 9.991438423873875 55.37209925809858 514.9098901908619
    vertex 10.841438423873875 55.37209925809858 521.7376470044283
    vertex 10.43143080054816 55.37209925809858 521.5678162861703
  endloop
endfacet
facet normal -0.0 -1.0 -0.0
  outer loop
    vertex 9.991438423873875 55.37209925809858 514.9098901908619
    vertex 10.43143080054816 55.37209925809858 521.5678162861703
    vertex 9.991438423873875 55.37209925809858 521.5098901908618
  endloop
endfacet
facet normal -0.0 -1.0 -0.0
  outer loop
    vertex 11.193519951891005 55.37209925809858 522.0078086628447
    vertex 16.691438423873876 55.37209925809858 528.2098901908619
    vertex 11.46368161030742 55.37209925809858 522.3598901908618
  endloop
endfacet
facet normal -0.0 -1.0 -0.0
  outer loop
    vertex 11.46368161030742 55.37209925809858 522.3598901908618
    vertex 16.691438423873876 55.37209925809858 528.2098901908619
    vertex 11.633512328565292 55.37209925809858 522.7698978141875
  endloop
endfacet
facet normal -0.0 -1.0 -0.0
  outer loop
    vertex 11.633512328565292 55.37209925809858 522.7698978141875
    vertex 16.691438423873876 55.37209925809858 528.2098901908619
    vertex 11.691438423873874 55.37209925809858 523.2098901908619
  endloop
endfacet
facet normal -0.0 -1.0 -0.0
  outer loop
    vertex 11.691438423873874 55.37209925809858 523.2098901908619
    vertex 16.691438423873876 55.37209925809858 528.2098901908619
    vertex 11.63351232856529 55.37209925809858 523.6498825675361
  endloop
endfacet
facet normal -0.0 -1.0 -0.0
  outer loop
    vertex 11.63351232856529 55.37209925809858 523.6498825675361
    vertex 16.691438423873876 55.37209925809858 528.2098901908619
    vertex 11.46368161030742 55.37209925809858 524.0598901908618
  endloop
endfacet
facet normal -0.0 -1.0 -0.0
  outer loop
    vertex 11.46368161030742 55.37209925809858 524.0598901908618
    vertex 16.691438423873876 55.37209925809858 528.2098901908619
    vertex 11.193519951891005 55.37209925809858 524.4119717188789
  endloop
endfacet
facet normal -0.0 -1.0 -0.0
  outer loop
    vertex 11.193519951891005 55.37209925809858 524.4119717188789
    vertex 16.691438423873876 55.37209925809858 528.2098901908619
    vertex 10.841438423873873 55.37209925809858 524.6821333772955
  endloop
endfacet
facet normal -0.0 -1.0 -0.0
  outer loop
    vertex 10.841438423873873 55.37209925809858 524.6821333772955
    vertex 16.691438423873876 55.37209925809858 528.2098901908619
    vertex 10.431430800548158 55.37209925809858 524.8519640955533
  endloop
endfacet
facet normal -0.0 -1.0 -0.0
  outer loop
    vertex 10.431430800548158 55.37209925809858 524.8519640955533
    vertex 16.691438423873876 55.37209925809858 528.2098901908619
    vertex 9.991438423873875 55.37209925809858 524.9098901908618
  endloop
endfacet
facet normal -0.0 -1.0 -0.0
  outer loop
    vertex 3.2914384238738745 55.37209925809858 508.2098901908619
    vertex 8.34936451918246 55.37209925809858 512.7698978141876
    vertex 3.2914384238738745 55.37209925809858 528.2098901908619
  endloop
endfacet
facet normal -0.0 -1.0 -0.0
  outer loop
    vertex 8.34936451918246 55.37209925809858 512.7698978141876
    vertex 3.2914384238738745 55.37209925809858 508.2098901908619
    vertex 8.519195237440329 55.37209925809858 512.359890190862
  endloop
endfacet
facet normal -0.0 -1.0 -0.0
  outer loop
    vertex 8.519195237440329 55.37209925809858 512.359890190862
    vertex 3.2914384238738745 55.37209925809858 508.2098901908619
    vertex 8.789356895856743 55.37209925809858 512.0078086628448
  endloop
endfacet
facet normal -0.0 -1.0 -0.0
  outer loop
    vertex 8.789356895856743 55.37209925809858 512.0078086628448
    vertex 3.2914384238738745 55.37209925809858 508.2098901908619
    vertex 9.141438423873876 55.37209925809858 511.73764700442837
  endloop
endfacet
facet normal -0.0 -1.0 -0.0
  outer loop
    vertex 9.141438423873876 55.37209925809858 511.73764700442837
    vertex 3.2914384238738745 55.37209925809858 508.2098901908619
    vertex 9.55144604719959 55.37209925809858 511.5678162861705
  endloop
endfacet
facet normal -0.0 -1.0 -0.0
  outer loop
    vertex 9.55144604719959 55.37209925809858 511.5678162861705
    vertex 3.2914384238738745 55.37209925809858 508.2098901908619
    vertex 9.991438423873875 55.37209925809858 511.509890190862
  endloop
endfacet
facet normal -0.0 -1.0 -0.0
  outer loop
    vertex 3.2914384238738745 55.37209925809858 528.2098901908619
    vertex 8.34936451918246 55.37209925809858 512.7698978141876
    vertex 8.291438423873876 55.37209925809858 513.209890190862
  endloop
endfacet
facet normal -0.0 -1.0 -0.0
  outer loop
    vertex 3.2914384238738745 55.37209925809858 528.2098901908619
    vertex 8.291438423873876 55.37209925809858 513.209890190862
    vertex 8.349364519182458 55.37209925809858 513.6498825675362
  endloop
endfacet
facet normal -0.0 -1.0 -0.0
  outer loop
    vertex 3.2914384238738745 55.37209925809858 528.2098901908619
    vertex 8.349364519182458 55.37209925809858 513.6498825675362
    vertex 8.519195237440329 55.37209925809858 514.0598901908619
  endloop
endfacet
facet normal -0.0 -1.0 -0.0
  outer loop
    vertex 3.2914384238738745 55.37209925809858 528.2098901908619
    vertex 8.519195237440329 55.37209925809858 514.0598901908619
    vertex 8.789356895856743 55.37209925809858 514.411971718879
  endloop
endfacet
facet normal -0.0 -1.0 -0.0
  outer loop
    vertex 3.2914384238738745 55.37209925809858 528.2098901908619
    vertex 8.789356895856743 55.37209925809858 514.411971718879
    vertex 9.141438423873876 55.37209925809858 514.6821333772955
  endloop
endfacet
facet normal -0.0 -1.0 -0.0
  outer loop
    vertex 3.2914384238738745 55.37209925809858 528.2098901908619
    vertex 9.141438423873876 55.37209925809858 514.6821333772955
    vertex 9.551446047199589 55.37209925809858 514.8519640955534
  endloop
endfacet
facet normal -0.0 -1.0 -0.0
  outer loop
    vertex 3.2914384238738745 55.37209925809858 528.2098901908619
    vertex 9.551446047199589 55.37209925809858 514.8519640955534
    vertex 9.991438423873875 55.37209925809858 514.9098901908619
  endloop
endfacet
facet normal -0.0 -1.0 -0.0
  outer loop
    vertex 3.2914384238738745 55.37209925809858 528.2098901908619
    vertex 9.991438423873875 55.37209925809858 514.9098901908619
    vertex 8.789356895856743 55.37209925809858 522.0078086628447
  endloop
endfacet
facet normal -0.0 -1.0 -0.0
  outer loop
    vertex 8.789356895856743 55.37209925809858 522.0078086628447
    vertex 9.991438423873875 55.37209925809858 514.9098901908619
    vertex 9.141438423873876 55.37209925809858 521.7376470044283
  endloop
endfacet
facet normal -0.0 -1.0 -0.0
  outer loop
    vertex 9.141438423873876 55.37209925809858 521.7376470044283
    vertex 9.991438423873875 55.37209925809858 514.9098901908619
    vertex 9.55144604719959 55.37209925809858 521.5678162861703
  endloop
endfacet
facet normal -0.0 -1.0 -0.0
  outer loop
    vertex 9.55144604719959 55.37209925809858 521.5678162861703
    vertex 9.991438423873875 55.37209925809858 514.9098901908619
    vertex 9.991438423873875 55.37209925809858 521.5098901908618
  endloop
endfacet
facet normal -0.0 -1.0 -0.0
  outer loop
    vertex 3.2914384238738745 55.37209925809858 528.2098901908619
    vertex 8.789356895856743 55.37209925809858 522.0078086628447
    vertex 8.519195237440329 55.37209925809858 522.3598901908618
  endloop
endfacet
facet normal -0.0 -1.0 -0.0
  outer loop
    vertex 3.2914384238738745 55.37209925809858 528.2098901908619
    vertex 8.519195237440329 55.37209925809858 522.3598901908618
    vertex 8.34936451918246 55.37209925809858 522.7698978141875
  endloop
endfacet
facet normal -0.0 -1.0 -0.0
  outer loop
    vertex 3.2914384238738745 55.37209925809858 528.2098901908619
    vertex 8.34936451918246 55.37209925809858 522.7698978141875
    vertex 8.291438423873876 55.37209925809858 523.2098901908619
  endloop
endfacet
facet normal -0.0 -1.0 -0.0
  outer loop
    vertex 3.2914384238738745 55.37209925809858 528.2098901908619
    vertex 8.291438423873876 55.37209925809858 523.2098901908619
    vertex 8.349364519182458 55.37209925809858 523.6498825675361
  endloop
endfacet
facet normal -0.0 -1.0 -0.0
  outer loop
    vertex 3.2914384238738745 55.37209925809858 528.2098901908619
    vertex 8.349364519182458 55.37209925809858 523.6498825675361
    vertex 8.519195237440329 55.37209925809858 524.0598901908618
  endloop
endfacet
facet normal -0.0 -1.0 -0.0
  outer loop
    vertex 3.2914384238738745 55.37209925809858 528.2098901908619
    vertex 8.519195237440329 55.37209925809858 524.0598901908618
    vertex 8.789356895856743 55.37209925809858 524.4119717188789
  endloop
endfacet
facet normal -0.0 -1.0 -0.0
  outer loop
    vertex 3.2914384238738745 55.37209925809858 528.2098901908619
    vertex 8.789356895856743 55.37209925809858 524.4119717188789
    vertex 9.141438423873876 55.37209925809858 524.6821333772955
  endloop
endfacet
facet normal -0.0 -1.0 -0.0
  outer loop
    vertex 3.2914384238738745 55.37209925809858 528.2098901908619
    vertex 9.141438423873876 55.37209925809858 524.6821333772955
    vertex 9.551446047199589 55.37209925809858 524.8519640955533
  endloop
endfacet
facet normal -0.0 -1.0 -0.0
  outer loop
    vertex 3.2914384238738745 55.37209925809858 528.2098901908619
    vertex 9.551446047199589 55.37209925809858 524.8519640955533
    vertex 9.991438423873875 55.37209925809858 524.9098901908618
  endloop
endfacet
facet normal -0.0 -1.0 -0.0
  outer loop
    vertex 3.2914384238738745 55.37209925809858 528.2098901908619
    vertex 9.991438423873875 55.37209925809858 524.9098901908618
    vertex 16.691438423873876 55.37209925809858 528.2098901908619
  endloop
endfacet
facet normal -1.0 0.0 0.0
  outer loop
    vertex 3.2914384238738745 58.37209925809858 528.2098901908619
    vertex 3.2914384238738745 55.37209925809858 508.2098901908619
    vertex 3.2914384238738745 55.37209925809858 528.2098901908619
  endloop
endfacet
facet normal -1.0 0.0 0.0
  outer loop
    vertex 3.2914384238738745 55.37209925809858 508.2098901908619
    vertex 3.2914384238738745 58.37209925809858 528.2098901908619
    vertex 3.2914384238738745 58.37209925809858 508.2098901908619
  endloop
endfacet
facet normal 0.0 0.0 1.0
  outer loop
    vertex 16.691438423873876 55.37209925809858 528.2098901908619
    vertex 3.2914384238738745 58.37209925809858 528.2098901908619
    vertex 3.2914384238738745 55.37209925809858 528.2098901908619
  endloop
endfacet
facet normal 0.0 0.0 1.0
  outer loop
    vertex 3.2914384238738745 58.37209925809858 528.2098901908619
    vertex 16.691438423873876 55.37209925809858 528.2098901908619
    vertex 16.691438423873876 58.37209925809858 528.2098901908619
  endloop
endfacet
facet normal 1.0 0.0 0.0
  outer loop
    vertex 16.691438423873876 58.37209925809858 508.2098901908619
    vertex 16.691438423873876 55.37209925809858 528.2098901908619
    vertex 16.691438423873876 55.37209925809858 508.2098901908619
  endloop
endfacet
facet normal 1.0 0.0 0.0
  outer loop
    vertex 16.691438423873876 55.37209925809858 528.2098901908619
    vertex 16.691438423873876 58.37209925809858 508.2098901908619
    vertex 16.691438423873876 58.37209925809858 528.2098901908619
  endloop
endfacet
facet normal -0.0 -0.0 -1.0
  outer loop
    vertex 16.691438423873876 58.37209925809858 508.2098901908619
    vertex 3.2914384238738745 55.37209925809858 508.2098901908619
    vertex 3.2914384238738745 58.37209925809858 508.2098901908619
  endloop
endfacet
facet normal -0.0 -0.0 -1.0
  outer loop
    vertex 3.2914384238738745 55.37209925809858 508.2098901908619
    vertex 16.691438423873876 58.37209925809858 508.2098901908619
    vertex 16.691438423873876 55.37209925809858 508.2098901908619
  endloop
endfacet
facet normal -0.3826834323650691 0.0 0.9238795325112954
  outer loop
    vertex 10.841438423873875 55.37209925809858 521.7376470044283
    vertex 10.43143080054816 58.372099258098565 521.5678162861703
    vertex 10.43143080054816 55.37209925809858 521.5678162861703
  endloop
endfacet
facet normal -0.3826834323650691 0.0 0.9238795325112954
  outer loop
    vertex 10.43143080054816 58.372099258098565 521.5678162861703
    vertex 10.841438423873875 55.37209925809858 521.7376470044283
    vertex 10.841438423873875 58.372099258098565 521.7376470044283
  endloop
endfacet
facet normal -0.6087614290087674 0.0 0.7933533402911994
  outer loop
    vertex 11.193519951891005 55.37209925809858 522.0078086628447
    vertex 10.841438423873875 58.372099258098565 521.7376470044283
    vertex 10.841438423873875 55.37209925809858 521.7376470044283
  endloop
endfacet
facet normal -0.6087614290087674 0.0 0.7933533402911994
  outer loop
    vertex 10.841438423873875 58.372099258098565 521.7376470044283
    vertex 11.193519951891005 55.37209925809858 522.0078086628447
    vertex 11.193519951891005 58.372099258098565 522.0078086628447
  endloop
endfacet
facet normal -0.7933533402912526 0.0 0.6087614290086979
  outer loop
    vertex 11.46368161030742 58.372099258098565 522.3598901908618
    vertex 11.193519951891005 55.37209925809858 522.0078086628447
    vertex 11.46368161030742 55.37209925809858 522.3598901908618
  endloop
endfacet
facet normal -0.7933533402912526 0.0 0.6087614290086979
  outer loop
    vertex 11.193519951891005 55.37209925809858 522.0078086628447
    vertex 11.46368161030742 58.372099258098565 522.3598901908618
    vertex 11.193519951891005 58.372099258098565 522.0078086628447
  endloop
endfacet
facet normal -0.9238795325112749 0.0 0.38268343236511887
  outer loop
    vertex 11.633512328565292 58.372099258098565 522.7698978141875
    vertex 11.46368161030742 55.37209925809858 522.3598901908618
    vertex 11.633512328565292 55.37209925809858 522.7698978141875
  endloop
endfacet
facet normal -0.9238795325112749 0.0 0.38268343236511887
  outer loop
    vertex 11.46368161030742 55.37209925809858 522.3598901908618
    vertex 11.633512328565292 58.372099258098565 522.7698978141875
    vertex 11.46368161030742 58.372099258098565 522.3598901908618
  endloop
endfacet
facet normal -0.9914448613738116 0.0 0.1305261922200433
  outer loop
    vertex 11.691438423873874 58.372099258098565 523.2098901908619
    vertex 11.633512328565292 55.37209925809858 522.7698978141875
    vertex 11.691438423873874 55.37209925809858 523.2098901908619
  endloop
endfacet
facet normal -0.9914448613738116 0.0 0.1305261922200433
  outer loop
    vertex 11.633512328565292 55.37209925809858 522.7698978141875
    vertex 11.691438423873874 58.372099258098565 523.2098901908619
    vertex 11.633512328565292 58.372099258098565 522.7698978141875
  endloop
endfacet
facet normal -0.9914448613738113 -0.0 -0.1305261922200464
  outer loop
    vertex 11.63351232856529 58.372099258098565 523.6498825675361
    vertex 11.691438423873874 55.37209925809858 523.2098901908619
    vertex 11.63351232856529 55.37209925809858 523.6498825675361
  endloop
endfacet
facet normal -0.9914448613738113 -0.0 -0.1305261922200464
  outer loop
    vertex 11.691438423873874 55.37209925809858 523.2098901908619
    vertex 11.63351232856529 58.372099258098565 523.6498825675361
    vertex 11.691438423873874 58.372099258098565 523.2098901908619
  endloop
endfacet
facet normal -0.923879532511276 -0.0 -0.38268343236511615
  outer loop
    vertex 11.46368161030742 58.372099258098565 524.0598901908618
    vertex 11.63351232856529 55.37209925809858 523.6498825675361
    vertex 11.46368161030742 55.37209925809858 524.0598901908618
  endloop
endfacet
facet normal -0.923879532511276 -0.0 -0.38268343236511615
  outer loop
    vertex 11.63351232856529 55.37209925809858 523.6498825675361
    vertex 11.46368161030742 58.372099258098565 524.0598901908618
    vertex 11.63351232856529 58.372099258098565 523.6498825675361
  endloop
endfacet
facet normal -0.793353340291251 -0.0 -0.6087614290086999
  outer loop
    vertex 11.193519951891005 58.372099258098565 524.4119717188789
    vertex 11.46368161030742 55.37209925809858 524.0598901908618
    vertex 11.193519951891005 55.37209925809858 524.4119717188789
  endloop
endfacet
facet normal -0.793353340291251 -0.0 -0.6087614290086999
  outer loop
    vertex 11.46368161030742 55.37209925809858 524.0598901908618
    vertex 11.193519951891005 58.372099258098565 524.4119717188789
    vertex 11.46368161030742 58.372099258098565 524.0598901908618
  endloop
endfacet
facet normal -0.6087614290087674 -0.0 -0.7933533402911994
  outer loop
    vertex 11.193519951891005 58.372099258098565 524.4119717188789
    vertex 10.841438423873873 55.37209925809858 524.6821333772955
    vertex 10.841438423873873 58.372099258098565 524.6821333772955
  endloop
endfacet
facet normal -0.6087614290087674 -0.0 -0.7933533402911994
  outer loop
    vertex 10.841438423873873 55.37209925809858 524.6821333772955
    vertex 11.193519951891005 58.372099258098565 524.4119717188789
    vertex 11.193519951891005 55.37209925809858 524.4119717188789
  endloop
endfacet
facet normal -0.3826834323650691 -0.0 -0.9238795325112954
  outer loop
    vertex 10.841438423873873 58.372099258098565 524.6821333772955
    vertex 10.431430800548158 55.37209925809858 524.8519640955533
    vertex 10.431430800548158 58.372099258098565 524.8519640955533
  endloop
endfacet
facet normal -0.3826834323650691 -0.0 -0.9238795325112954
  outer loop
    vertex 10.431430800548158 55.37209925809858 524.8519640955533
    vertex 10.841438423873873 58.372099258098565 524.6821333772955
    vertex 10.841438423873873 55.37209925809858 524.6821333772955
  endloop
endfacet
facet normal -0.1305261922199285 -0.0 -0.9914448613738268
  outer loop
    vertex 10.431430800548158 58.372099258098565 524.8519640955533
    vertex 9.991438423873875 55.37209925809858 524.9098901908618
    vertex 9.991438423873875 58.372099258098565 524.9098901908618
  endloop
endfacet
facet normal -0.1305261922199285 -0.0 -0.9914448613738268
  outer loop
    vertex 9.991438423873875 55.37209925809858 524.9098901908618
    vertex 10.431430800548158 58.372099258098565 524.8519640955533
    vertex 10.431430800548158 55.37209925809858 524.8519640955533
  endloop
endfacet
facet normal 0.13052619221992764 0.0 -0.9914448613738268
  outer loop
    vertex 9.991438423873875 58.372099258098565 524.9098901908618
    vertex 9.551446047199589 55.37209925809858 524.8519640955533
    vertex 9.551446047199589 58.372099258098565 524.8519640955533
  endloop
endfacet
facet normal 0.13052619221992764 0.0 -0.9914448613738268
  outer loop
    vertex 9.551446047199589 55.37209925809858 524.8519640955533
    vertex 9.991438423873875 58.372099258098565 524.9098901908618
    vertex 9.991438423873875 55.37209925809858 524.9098901908618
  endloop
endfacet
facet normal 0.38268343236507024 0.0 -0.923879532511295
  outer loop
    vertex 9.551446047199589 58.372099258098565 524.8519640955533
    vertex 9.141438423873876 55.37209925809858 524.6821333772955
    vertex 9.141438423873876 58.372099258098565 524.6821333772955
  endloop
endfacet
facet normal 0.38268343236507024 0.0 -0.923879532511295
  outer loop
    vertex 9.141438423873876 55.37209925809858 524.6821333772955
    vertex 9.551446047199589 58.372099258098565 524.8519640955533
    vertex 9.551446047199589 55.37209925809858 524.8519640955533
  endloop
endfacet
facet normal 0.6087614290087674 0.0 -0.7933533402911994
  outer loop
    vertex 9.141438423873876 58.372099258098565 524.6821333772955
    vertex 8.789356895856743 55.37209925809858 524.4119717188789
    vertex 8.789356895856743 58.372099258098565 524.4119717188789
  endloop
endfacet
facet normal 0.6087614290087674 0.0 -0.7933533402911994
  outer loop
    vertex 8.789356895856743 55.37209925809858 524.4119717188789
    vertex 9.141438423873876 58.372099258098565 524.6821333772955
    vertex 9.141438423873876 55.37209925809858 524.6821333772955
  endloop
endfacet
facet normal 0.7933533402912526 0.0 -0.6087614290086979
  outer loop
    vertex 8.519195237440329 58.372099258098565 524.0598901908618
    vertex 8.789356895856743 55.37209925809858 524.4119717188789
    vertex 8.519195237440329 55.37209925809858 524.0598901908618
  endloop
endfacet
facet normal 0.7933533402912526 0.0 -0.6087614290086979
  outer loop
    vertex 8.789356895856743 55.37209925809858 524.4119717188789
    vertex 8.519195237440329 58.372099258098565 524.0598901908618
    vertex 8.789356895856743 58.372099258098565 524.4119717188789
  endloop
endfacet
facet normal 0.9238795325112749 0.0 -0.38268343236511887
  outer loop
    vertex 8.349364519182458 58.372099258098565 523.6498825675361
    vertex 8.519195237440329 55.37209925809858 524.0598901908618
    vertex 8.349364519182458 55.37209925809858 523.6498825675361
  endloop
endfacet
facet normal 0.9238795325112749 0.0 -0.38268343236511887
  outer loop
    vertex 8.519195237440329 55.37209925809858 524.0598901908618
    vertex 8.349364519182458 58.372099258098565 523.6498825675361
    vertex 8.519195237440329 58.372099258098565 524.0598901908618
  endloop
endfacet
facet normal 0.9914448613738116 0.0 -0.1305261922200433
  outer loop
    vertex 8.291438423873876 58.372099258098565 523.2098901908619
    vertex 8.349364519182458 55.37209925809858 523.6498825675361
    vertex 8.291438423873876 55.37209925809858 523.2098901908619
  endloop
endfacet
facet normal 0.9914448613738116 0.0 -0.1305261922200433
  outer loop
    vertex 8.349364519182458 55.37209925809858 523.6498825675361
    vertex 8.291438423873876 58.372099258098565 523.2098901908619
    vertex 8.349364519182458 58.372099258098565 523.6498825675361
  endloop
endfacet
facet normal 0.9914448613738113 0.0 0.1305261922200464
  outer loop
    vertex 8.34936451918246 58.372099258098565 522.7698978141875
    vertex 8.291438423873876 55.37209925809858 523.2098901908619
    vertex 8.34936451918246 55.37209925809858 522.7698978141875
  endloop
endfacet
facet normal 0.9914448613738113 0.0 0.1305261922200464
  outer loop
    vertex 8.291438423873876 55.37209925809858 523.2098901908619
    vertex 8.34936451918246 58.372099258098565 522.7698978141875
    vertex 8.291438423873876 58.372099258098565 523.2098901908619
  endloop
endfacet
facet normal 0.923879532511276 0.0 0.38268343236511615
  outer loop
    vertex 8.519195237440329 58.372099258098565 522.3598901908618
    vertex 8.34936451918246 55.37209925809858 522.7698978141875
    vertex 8.519195237440329 55.37209925809858 522.3598901908618
  endloop
endfacet
facet normal 0.923879532511276 0.0 0.38268343236511615
  outer loop
    vertex 8.34936451918246 55.37209925809858 522.7698978141875
    vertex 8.519195237440329 58.372099258098565 522.3598901908618
    vertex 8.34936451918246 58.372099258098565 522.7698978141875
  endloop
endfacet
facet normal 0.7933533402912526 0.0 0.6087614290086979
  outer loop
    vertex 8.789356895856743 58.372099258098565 522.0078086628447
    vertex 8.519195237440329 55.37209925809858 522.3598901908618
    vertex 8.789356895856743 55.37209925809858 522.0078086628447
  endloop
endfacet
facet normal 0.7933533402912526 0.0 0.6087614290086979
  outer loop
    vertex 8.519195237440329 55.37209925809858 522.3598901908618
    vertex 8.789356895856743 58.372099258098565 522.0078086628447
    vertex 8.519195237440329 58.372099258098565 522.3598901908618
  endloop
endfacet
facet normal 0.6087614290087674 0.0 0.7933533402911994
  outer loop
    vertex 9.141438423873876 55.37209925809858 521.7376470044283
    vertex 8.789356895856743 58.372099258098565 522.0078086628447
    vertex 8.789356895856743 55.37209925809858 522.0078086628447
  endloop
endfacet
facet normal 0.6087614290087674 0.0 0.7933533402911994
  outer loop
    vertex 8.789356895856743 58.372099258098565 522.0078086628447
    vertex 9.141438423873876 55.37209925809858 521.7376470044283
    vertex 9.141438423873876 58.372099258098565 521.7376470044283
  endloop
endfacet
facet normal 0.3826834323650691 0.0 0.9238795325112954
  outer loop
    vertex 9.55144604719959 55.37209925809858 521.5678162861703
    vertex 9.141438423873876 58.372099258098565 521.7376470044283
    vertex 9.141438423873876 55.37209925809858 521.7376470044283
  endloop
endfacet
facet normal 0.3826834323650691 0.0 0.9238795325112954
  outer loop
    vertex 9.141438423873876 58.372099258098565 521.7376470044283
    vertex 9.55144604719959 55.37209925809858 521.5678162861703
    vertex 9.55144604719959 58.372099258098565 521.5678162861703
  endloop
endfacet
facet normal 0.13052619221992806 0.0 0.9914448613738268
  outer loop
    vertex 9.991438423873875 55.37209925809858 521.5098901908618
    vertex 9.55144604719959 58.372099258098565 521.5678162861703
    vertex 9.55144604719959 55.37209925809858 521.5678162861703
  endloop
endfacet
facet normal 0.13052619221992806 0.0 0.9914448613738268
  outer loop
    vertex 9.55144604719959 58.372099258098565 521.5678162861703
    vertex 9.991438423873875 55.37209925809858 521.5098901908618
    vertex 9.991438423873875 58.372099258098565 521.5098901908618
  endloop
endfacet
facet normal -0.13052619221992806 0.0 0.9914448613738268
  outer loop
    vertex 10.43143080054816 55.37209925809858 521.5678162861703
    vertex 9.991438423873875 58.372099258098565 521.5098901908618
    vertex 9.991438423873875 55.37209925809858 521.5098901908618
  endloop
endfacet
facet normal -0.13052619221992806 0.0 0.9914448613738268
  outer loop
    vertex 9.991438423873875 58.372099258098565 521.5098901908618
    vertex 10.43143080054816 55.37209925809858 521.5678162861703
    vertex 10.43143080054816 58.372099258098565 521.5678162861703
  endloop
endfacet
facet normal -0.3826834323650691 0.0 0.9238795325112954
  outer loop
    vertex 10.841438423873875 55.37209925809858 511.73764700442837
    vertex 10.43143080054816 58.37209925809858 511.5678162861705
    vertex 10.43143080054816 55.37209925809858 511.5678162861705
  endloop
endfacet
facet normal -0.3826834323650691 0.0 0.9238795325112954
  outer loop
    vertex 10.43143080054816 58.37209925809858 511.5678162861705
    vertex 10.841438423873875 55.37209925809858 511.73764700442837
    vertex 10.841438423873875 58.37209925809858 511.73764700442837
  endloop
endfacet
facet normal -0.6087614290087674 0.0 0.7933533402911994
  outer loop
    vertex 11.193519951891005 55.37209925809858 512.0078086628448
    vertex 10.841438423873875 58.37209925809858 511.73764700442837
    vertex 10.841438423873875 55.37209925809858 511.73764700442837
  endloop
endfacet
facet normal -0.6087614290087674 0.0 0.7933533402911994
  outer loop
    vertex 10.841438423873875 58.37209925809858 511.73764700442837
    vertex 11.193519951891005 55.37209925809858 512.0078086628448
    vertex 11.193519951891005 58.37209925809858 512.0078086628448
  endloop
endfacet
facet normal -0.7933533402912526 0.0 0.6087614290086979
  outer loop
    vertex 11.46368161030742 58.37209925809858 512.359890190862
    vertex 11.193519951891005 55.37209925809858 512.0078086628448
    vertex 11.46368161030742 55.37209925809858 512.359890190862
  endloop
endfacet
facet normal -0.7933533402912526 0.0 0.6087614290086979
  outer loop
    vertex 11.193519951891005 55.37209925809858 512.0078086628448
    vertex 11.46368161030742 58.37209925809858 512.359890190862
    vertex 11.193519951891005 58.37209925809858 512.0078086628448
  endloop
endfacet
facet normal -0.9238795325112749 0.0 0.38268343236511887
  outer loop
    vertex 11.633512328565292 58.37209925809858 512.7698978141876
    vertex 11.46368161030742 55.37209925809858 512.359890190862
    vertex 11.633512328565292 55.37209925809858 512.7698978141876
  endloop
endfacet
facet normal -0.9238795325112749 0.0 0.38268343236511887
  outer loop
    vertex 11.46368161030742 55.37209925809858 512.359890190862
    vertex 11.633512328565292 58.37209925809858 512.7698978141876
    vertex 11.46368161030742 58.37209925809858 512.359890190862
  endloop
endfacet
facet normal -0.9914448613738116 0.0 0.1305261922200433
  outer loop
    vertex 11.691438423873874 58.37209925809858 513.209890190862
    vertex 11.633512328565292 55.37209925809858 512.7698978141876
    vertex 11.691438423873874 55.37209925809858 513.209890190862
  endloop
endfacet
facet normal -0.9914448613738116 0.0 0.1305261922200433
  outer loop
    vertex 11.633512328565292 55.37209925809858 512.7698978141876
    vertex 11.691438423873874 58.37209925809858 513.209890190862
    vertex 11.633512328565292 58.37209925809858 512.7698978141876
  endloop
endfacet
facet normal -0.9914448613738113 -0.0 -0.1305261922200464
  outer loop
    vertex 11.63351232856529 58.37209925809858 513.6498825675362
    vertex 11.691438423873874 55.37209925809858 513.209890190862
    vertex 11.63351232856529 55.37209925809858 513.6498825675362
  endloop
endfacet
facet normal -0.9914448613738113 -0.0 -0.1305261922200464
  outer loop
    vertex 11.691438423873874 55.37209925809858 513.209890190862
    vertex 11.63351232856529 58.37209925809858 513.6498825675362
    vertex 11.691438423873874 58.37209925809858 513.209890190862
  endloop
endfacet
facet normal -0.923879532511276 -0.0 -0.38268343236511615
  outer loop
    vertex 11.46368161030742 58.37209925809858 514.0598901908619
    vertex 11.63351232856529 55.37209925809858 513.6498825675362
    vertex 11.46368161030742 55.37209925809858 514.0598901908619
  endloop
endfacet
facet normal -0.923879532511276 -0.0 -0.38268343236511615
  outer loop
    vertex 11.63351232856529 55.37209925809858 513.6498825675362
    vertex 11.46368161030742 58.37209925809858 514.0598901908619
    vertex 11.63351232856529 58.37209925809858 513.6498825675362
  endloop
endfacet
facet normal -0.793353340291251 -0.0 -0.6087614290086999
  outer loop
    vertex 11.193519951891005 58.37209925809858 514.411971718879
    vertex 11.46368161030742 55.37209925809858 514.0598901908619
    vertex 11.193519951891005 55.37209925809858 514.411971718879
  endloop
endfacet
facet normal -0.793353340291251 -0.0 -0.6087614290086999
  outer loop
    vertex 11.46368161030742 55.37209925809858 514.0598901908619
    vertex 11.193519951891005 58.37209925809858 514.411971718879
    vertex 11.46368161030742 58.37209925809858 514.0598901908619
  endloop
endfacet
facet normal -0.6087614290087674 -0.0 -0.7933533402911994
  outer loop
    vertex 11.193519951891005 58.37209925809858 514.411971718879
    vertex 10.841438423873873 55.37209925809858 514.6821333772955
    vertex 10.841438423873873 58.37209925809858 514.6821333772955
  endloop
endfacet
facet normal -0.6087614290087674 -0.0 -0.7933533402911994
  outer loop
    vertex 10.841438423873873 55.37209925809858 514.6821333772955
    vertex 11.193519951891005 58.37209925809858 514.411971718879
    vertex 11.193519951891005 55.37209925809858 514.411971718879
  endloop
endfacet
facet normal -0.3826834323650691 -0.0 -0.9238795325112954
  outer loop
    vertex 10.841438423873873 58.37209925809858 514.6821333772955
    vertex 10.431430800548158 55.37209925809858 514.8519640955534
    vertex 10.431430800548158 58.37209925809858 514.8519640955534
  endloop
endfacet
facet normal -0.3826834323650691 -0.0 -0.9238795325112954
  outer loop
    vertex 10.431430800548158 55.37209925809858 514.8519640955534
    vertex 10.841438423873873 58.37209925809858 514.6821333772955
    vertex 10.841438423873873 55.37209925809858 514.6821333772955
  endloop
endfacet
facet normal -0.1305261922199285 -0.0 -0.9914448613738268
  outer loop
    vertex 10.431430800548158 58.37209925809858 514.8519640955534
    vertex 9.991438423873875 55.37209925809858 514.9098901908619
    vertex 9.991438423873875 58.37209925809858 514.9098901908619
  endloop
endfacet
facet normal -0.1305261922199285 -0.0 -0.9914448613738268
  outer loop
    vertex 9.991438423873875 55.37209925809858 514.9098901908619
    vertex 10.431430800548158 58.37209925809858 514.8519640955534
    vertex 10.431430800548158 55.37209925809858 514.8519640955534
  endloop
endfacet
facet normal 0.13052619221992764 0.0 -0.9914448613738268
  outer loop
    vertex 9.991438423873875 58.37209925809858 514.9098901908619
    vertex 9.551446047199589 55.37209925809858 514.8519640955534
    vertex 9.551446047199589 58.37209925809858 514.8519640955534
  endloop
endfacet
facet normal 0.13052619221992764 0.0 -0.9914448613738268
  outer loop
    vertex 9.551446047199589 55.37209925809858 514.8519640955534
    vertex 9.991438423873875 58.37209925809858 514.9098901908619
    vertex 9.991438423873875 55.37209925809858 514.9098901908619
  endloop
endfacet
facet normal 0.38268343236507024 0.0 -0.923879532511295
  outer loop
    vertex 9.551446047199589 58.37209925809858 514.8519640955534
    vertex 9.141438423873876 55.37209925809858 514.6821333772955
    vertex 9.141438423873876 58.37209925809858 514.6821333772955
  endloop
endfacet
facet normal 0.38268343236507024 0.0 -0.923879532511295
  outer loop
    vertex 9.141438423873876 55.37209925809858 514.6821333772955
    vertex 9.551446047199589 58.37209925809858 514.8519640955534
    vertex 9.551446047199589 55.37209925809858 514.8519640955534
  endloop
endfacet
facet normal 0.6087614290087674 0.0 -0.7933533402911994
  outer loop
    vertex 9.141438423873876 58.37209925809858 514.6821333772955
    vertex 8.789356895856743 55.37209925809858 514.411971718879
    vertex 8.789356895856743 58.37209925809858 514.411971718879
  endloop
endfacet
facet normal 0.6087614290087674 0.0 -0.7933533402911994
  outer loop
    vertex 8.789356895856743 55.37209925809858 514.411971718879
    vertex 9.141438423873876 58.37209925809858 514.6821333772955
    vertex 9.141438423873876 55.37209925809858 514.6821333772955
  endloop
endfacet
facet normal 0.7933533402912526 0.0 -0.6087614290086979
  outer loop
    vertex 8.519195237440329 58.37209925809858 514.0598901908619
    vertex 8.789356895856743 55.37209925809858 514.411971718879
    vertex 8.519195237440329 55.37209925809858 514.0598901908619
  endloop
endfacet
facet normal 0.7933533402912526 0.0 -0.6087614290086979
  outer loop
    vertex 8.789356895856743 55.37209925809858 514.411971718879
    vertex 8.519195237440329 58.37209925809858 514.0598901908619
    vertex 8.789356895856743 58.37209925809858 514.411971718879
  endloop
endfacet
facet normal 0.9238795325112749 0.0 -0.38268343236511887
  outer loop
    vertex 8.349364519182458 58.37209925809858 513.6498825675362
    vertex 8.519195237440329 55.37209925809858 514.0598901908619
    vertex 8.349364519182458 55.37209925809858 513.6498825675362
  endloop
endfacet
facet normal 0.9238795325112749 0.0 -0.38268343236511887
  outer loop
    vertex 8.519195237440329 55.37209925809858 514.0598901908619
    vertex 8.349364519182458 58.37209925809858 513.6498825675362
    vertex 8.519195237440329 58.37209925809858 514.0598901908619
  endloop
endfacet
facet normal 0.9914448613738116 0.0 -0.1305261922200433
  outer loop
    vertex 8.291438423873876 58.37209925809858 513.209890190862
    vertex 8.349364519182458 55.37209925809858 513.6498825675362
    vertex 8.291438423873876 55.37209925809858 513.209890190862
  endloop
endfacet
facet normal 0.9914448613738116 0.0 -0.1305261922200433
  outer loop
    vertex 8.349364519182458 55.37209925809858 513.6498825675362
    vertex 8.291438423873876 58.37209925809858 513.209890190862
    vertex 8.349364519182458 58.37209925809858 513.6498825675362
  endloop
endfacet
facet normal 0.9914448613738113 0.0 0.1305261922200464
  outer loop
    vertex 8.34936451918246 58.37209925809858 512.7698978141876
    vertex 8.291438423873876 55.37209925809858 513.209890190862
    vertex 8.34936451918246 55.37209925809858 512.7698978141876
  endloop
endfacet
facet normal 0.9914448613738113 0.0 0.1305261922200464
  outer loop
    vertex 8.291438423873876 55.37209925809858 513.209890190862
    vertex 8.34936451918246 58.37209925809858 512.7698978141876
    vertex 8.291438423873876 58.37209925809858 513.209890190862
  endloop
endfacet
facet normal 0.923879532511276 0.0 0.38268343236511615
  outer loop
    vertex 8.519195237440329 58.37209925809858 512.359890190862
    vertex 8.34936451918246 55.37209925809858 512.7698978141876
    vertex 8.519195237440329 55.37209925809858 512.359890190862
  endloop
endfacet
facet normal 0.923879532511276 0.0 0.38268343236511615
  outer loop
    vertex 8.34936451918246 55.37209925809858 512.7698978141876
    vertex 8.519195237440329 58.37209925809858 512.359890190862
    vertex 8.34936451918246 58.37209925809858 512.7698978141876
  endloop
endfacet
facet normal 0.7933533402912526 0.0 0.6087614290086979
  outer loop
    vertex 8.789356895856743 58.37209925809858 512.0078086628448
    vertex 8.519195237440329 55.37209925809858 512.359890190862
    vertex 8.789356895856743 55.37209925809858 512.0078086628448
  endloop
endfacet
facet normal 0.7933533402912526 0.0 0.6087614290086979
  outer loop
    vertex 8.519195237440329 55.37209925809858 512.359890190862
    vertex 8.789356895856743 58.37209925809858 512.0078086628448
    vertex 8.519195237440329 58.37209925809858 512.359890190862
  endloop
endfacet
facet normal 0.6087614290087674 0.0 0.7933533402911994
  outer loop
    vertex 9.141438423873876 55.37209925809858 511.73764700442837
    vertex 8.789356895856743 58.37209925809858 512.0078086628448
    vertex 8.789356895856743 55.37209925809858 512.0078086628448
  endloop
endfacet
facet normal 0.6087614290087674 0.0 0.7933533402911994
  outer loop
    vertex 8.789356895856743 58.37209925809858 512.0078086628448
    vertex 9.141438423873876 55.37209925809858 511.73764700442837
    vertex 9.141438423873876 58.37209925809858 511.73764700442837
  endloop
endfacet
facet normal 0.3826834323650691 0.0 0.9238795325112954
  outer loop
    vertex 9.55144604719959 55.37209925809858 511.5678162861705
    vertex 9.141438423873876 58.37209925809858 511.73764700442837
    vertex 9.141438423873876 55.37209925809858 511.73764700442837
  endloop
endfacet
facet normal 0.3826834323650691 0.0 0.9238795325112954
  outer loop
    vertex 9.141438423873876 58.37209925809858 511.73764700442837
    vertex 9.55144604719959 55.37209925809858 511.5678162861705
    vertex 9.55144604719959 58.37209925809858 511.5678162861705
  endloop
endfacet
facet normal 0.13052619221992806 0.0 0.9914448613738268
  outer loop
    vertex 9.991438423873875 55.37209925809858 511.509890190862
    vertex 9.55144604719959 58.37209925809858 511.5678162861705
    vertex 9.55144604719959 55.37209925809858 511.5678162861705
  endloop
endfacet
facet normal 0.13052619221992806 0.0 0.9914448613738268
  outer loop
    vertex 9.55144604719959 58.37209925809858 511.5678162861705
    vertex 9.991438423873875 55.37209925809858 511.509890190862
    vertex 9.991438423873875 58.37209925809858 511.509890190862
  endloop
endfacet
facet normal -0.13052619221992806 0.0 0.9914448613738268
  outer loop
    vertex 10.43143080054816 55.37209925809858 511.5678162861705
    vertex 9.991438423873875 58.37209925809858 511.509890190862
    vertex 9.991438423873875 55.37209925809858 511.509890190862
  endloop
endfacet
facet normal -0.13052619221992806 0.0 0.9914448613738268
  outer loop
    vertex 9.991438423873875 58.37209925809858 511.509890190862
    vertex 10.43143080054816 55.37209925809858 511.5678162861705
    vertex 10.43143080054816 58.37209925809858 511.5678162861705
  endloop
endfacet
endsolid AutomaticCoilerV2-0-0
