0
SECTION
2
HEADER
9
$INSUNITS
70
4
9
$ACADVER
1
AC1014
9
$HANDSEED
5
FFFF
0
ENDSEC
0
SECTION
2
TABLES
0
TABLE
2
VPORT
5
8
100
AcDbSymbolTable
0
ENDTAB
0
TABLE
2
LTYPE
5
5
100
AcDbSymbolTable
0
LTYPE
5
14
100
AcDbSymbolTableRecord
100
AcDbLinetypeTableRecord
2
BYBLOCK
70
0
0
LTYPE
5
15
100
AcDbSymbolTableRecord
100
AcDbLinetypeTableRecord
2
BYLAYER
70
0
0
ENDTAB
0
TABLE
2
LAYER
5
2
100
AcDbSymbolTable
70
2
0
LAYER
5
50
100
AcDbSymbolTableRecord
100
AcDbLayerTableRecord
2
0
70
0
6
CONTINUOUS
0
ENDTAB
0
TABLE
2
STYLE
5
3
100
AcDbSymbolTable
70
1
0
STYLE
5
11
100
AcDbSymbolTableRecord
100
AcDbTextStyleTableRecord
2
STANDARD
70
0
0
ENDTAB
0
TABLE
2
VIEW
5
6
100
AcDbSymbolTable
70
0
0
ENDTAB
0
TABLE
2
UCS
5
7
100
AcDbSymbolTable
70
0
0
ENDTAB
0
TABLE
2
APPID
5
9
100
AcDbSymbolTable
70
2
0
APPID
5
12
100
AcDbSymbolTableRecord
100
AcDbRegAppTableRecord
2
ACAD
70
0
0
ENDTAB
0
TABLE
2
DIMSTYLE
5
A
100
AcDbSymbolTable
70
1
0
ENDTAB
0
TABLE
2
BLOCK_RECORD
5
1
100
AcDbSymbolTable
70
1
0
BLOCK_RECORD
5
1F
100
AcDbSymbolTableRecord
100
AcDbBlockTableRecord
2
*MODEL_SPACE
0
BLOCK_RECORD
5
1B
100
AcDbSymbolTableRecord
100
AcDbBlockTableRecord
2
*PAPER_SPACE
0
ENDTAB
0
ENDSEC
0
SECTION
2
BLOCKS
0
BLOCK
5
20
100
AcDbEntity
100
AcDbBlockBegin
2
*MODEL_SPACE
0
ENDBLK
5
21
100
AcDbEntity
100
AcDbBlockEnd
0
BLOCK
5
1C
100
AcDbEntity
100
AcDbBlockBegin
2
*PAPER_SPACE
0
ENDBLK
5
1D
100
AcDbEntity
100
AcDbBlockEnd
0
ENDSEC
0
SECTION
2
ENTITIES
0
CIRCLE
5
100
100
AcDbEntity
8
0
100
AcDbCircle
10
0
20
0
30
0
40
150
0
CIRCLE
5
101
100
AcDbEntity
8
0
100
AcDbCircle
10
0
20
0
30
0
40
50
0
CIRCLE
5
102
100
AcDbEntity
8
0
100
AcDbCircle
10
0
20
0
30
0
40
40
0
LINE
5
103
100
AcDbEntity
8
0
100
AcDbLine
10
0
20
0
30
0
11
31.819805153394647
21
31.819805153394633
31
0
0
LINE
5
104
100
AcDbEntity
8
0
100
AcDbLine
10
0
20
0
30
0
11
-28.284271247461913
21
-28.284271247461898
31
0
0
LINE
5
105
100
AcDbEntity
8
0
100
AcDbLine
10
0
20
0
30
0
11
-28.279812484248605
21
28.279812484248605
31
0
0
LINE
5
106
100
AcDbEntity
8
0
100
AcDbLine
10
0
20
0
30
0
11
39.995796090454434
21
0
31
0
0
LINE
5
107
100
AcDbEntity
8
0
100
AcDbLine
10
0
20
0
30
0
11
28.284271247461898
21
-28.284271247461913
31
0
0
LINE
5
108
100
AcDbEntity
8
0
100
AcDbLine
10
0
20
75
30
0
11
0
21
-60
31
0
0
LINE
5
109
100
AcDbEntity
8
0
100
AcDbLine
10
-65
20
0
30
0
11
65
21
0
31
0
0
CIRCLE
5
110
100
AcDbEntity
8
0
100
AcDbCircle
10
0
20
40.000000596046448
30
0
40
2.0999999999999992
0
CIRCLE
5
111
100
AcDbEntity
8
0
100
AcDbCircle
10
-28.279812484248605
20
28.279812484248605
30
0
40
2.0999999999999996
0
CIRCLE
5
112
100
AcDbEntity
8
0
100
AcDbCircle
10
-40.000000596046448
20
0
30
0
40
2.0999999999999996
0
CIRCLE
5
113
100
AcDbEntity
8
0
100
AcDbCircle
10
-28.284271247461913
20
-28.284271247461898
30
0
40
2.0999999999999996
0
CIRCLE
5
114
100
AcDbEntity
8
0
100
AcDbCircle
10
0
20
-40.000000596046448
30
0
40
2.0999999999999996
0
CIRCLE
5
115
100
AcDbEntity
8
0
100
AcDbCircle
10
28.284271247461898
20
-28.284271247461913
30
0
40
2.0999999999999996
0
CIRCLE
5
116
100
AcDbEntity
8
0
100
AcDbCircle
10
39.995796090454434
20
0
30
0
40
2.1000000000000001
0
CIRCLE
5
117
100
AcDbEntity
8
0
100
AcDbCircle
10
28.284271247461909
20
28.284271247461895
30
0
40
2.0999999999999996
0
CIRCLE
5
118
100
AcDbEntity
8
0
100
AcDbCircle
10
0
20
0
30
0
40
60
0
CIRCLE
5
119
100
AcDbEntity
8
0
100
AcDbCircle
10
0
20
0
30
0
40
80
0
CIRCLE
5
120
100
AcDbEntity
8
0
100
AcDbCircle
10
0
20
0
30
0
40
100
0
CIRCLE
5
121
100
AcDbEntity
8
0
100
AcDbCircle
10
0
20
0
30
0
40
120
0
LINE
5
122
100
AcDbEntity
8
0
100
AcDbLine
10
0
20
75
30
0
11
0
21
165
31
0
0
LINE
5
123
100
AcDbEntity
8
0
100
AcDbLine
10
0
20
0
30
0
11
67.998945002441744
21
164.16397525195703
31
0
0
LINE
5
124
100
AcDbEntity
8
0
100
AcDbLine
10
0
20
0
30
0
11
177.68980638171186
21
0
31
0
0
CIRCLE
5
125
100
AcDbEntity
8
0
100
AcDbCircle
10
22.961005941905391
20
55.4327719506772
30
0
40
1.4999999999999982
0
CIRCLE
5
126
100
AcDbEntity
8
0
100
AcDbCircle
10
-22.96100594190538
20
55.4327719506772
30
0
40
1.4999999999999982
0
CIRCLE
5
127
100
AcDbEntity
8
0
100
AcDbCircle
10
-55.432771950677221
20
22.96100594190538
30
0
40
1.4999999999999982
0
CIRCLE
5
128
100
AcDbEntity
8
0
100
AcDbCircle
10
-55.432771950677221
20
-22.961005941905373
30
0
40
1.4999999999999982
0
CIRCLE
5
129
100
AcDbEntity
8
0
100
AcDbCircle
10
-22.961005941905398
20
-55.4327719506772
30
0
40
1.4999999999999982
0
CIRCLE
5
130
100
AcDbEntity
8
0
100
AcDbCircle
10
22.961005941905377
20
-55.4327719506772
30
0
40
1.4999999999999982
0
CIRCLE
5
131
100
AcDbEntity
8
0
100
AcDbCircle
10
55.432771950677193
20
-22.961005941905405
30
0
40
1.4999999999999982
0
CIRCLE
5
132
100
AcDbEntity
8
0
100
AcDbCircle
10
55.432771950677207
20
22.96100594190537
30
0
40
1.4999999999999982
0
CIRCLE
5
133
100
AcDbEntity
8
0
100
AcDbCircle
10
0
20
80
30
0
40
1.4999999999999964
0
CIRCLE
5
134
100
AcDbEntity
8
0
100
AcDbCircle
10
-56.568542494923804
20
56.568542494923797
30
0
40
1.4999999999999964
0
CIRCLE
5
135
100
AcDbEntity
8
0
100
AcDbCircle
10
-80.000000000000014
20
-1.7763568394002505e-14
30
0
40
1.4999999999999964
0
CIRCLE
5
136
100
AcDbEntity
8
0
100
AcDbCircle
10
-56.568542494923818
20
-56.568542494923797
30
0
40
1.4999999999999964
0
CIRCLE
5
137
100
AcDbEntity
8
0
100
AcDbCircle
10
-9.7971743931788261e-15
20
-80
30
0
40
1.4999999999999964
0
CIRCLE
5
138
100
AcDbEntity
8
0
100
AcDbCircle
10
56.568542494923797
20
-56.568542494923797
30
0
40
1.4999999999999964
0
CIRCLE
5
139
100
AcDbEntity
8
0
100
AcDbCircle
10
80
20
-1.7763568394002505e-14
30
0
40
1.4999999999999964
0
CIRCLE
5
140
100
AcDbEntity
8
0
100
AcDbCircle
10
56.568542494923818
20
56.56854249492379
30
0
40
1.4999999999999964
0
CIRCLE
5
141
100
AcDbEntity
8
0
100
AcDbCircle
10
38.26834323650899
20
92.387953251128678
30
0
40
1.5000000000000002
0
CIRCLE
5
142
100
AcDbEntity
8
0
100
AcDbCircle
10
-38.268343236508976
20
92.387953251128678
30
0
40
1.5000000000000002
0
CIRCLE
5
143
100
AcDbEntity
8
0
100
AcDbCircle
10
-92.387953251128693
20
38.268343236508976
30
0
40
1.5000000000000002
0
CIRCLE
5
144
100
AcDbEntity
8
0
100
AcDbCircle
10
-92.387953251128693
20
-38.268343236508954
30
0
40
1.5000000000000002
0
CIRCLE
5
145
100
AcDbEntity
8
0
100
AcDbCircle
10
-38.268343236509004
20
-92.387953251128678
30
0
40
1.5000000000000002
0
CIRCLE
5
146
100
AcDbEntity
8
0
100
AcDbCircle
10
38.268343236508969
20
-92.387953251128678
30
0
40
1.5000000000000002
0
CIRCLE
5
147
100
AcDbEntity
8
0
100
AcDbCircle
10
92.387953251128678
20
-38.268343236509011
30
0
40
1.5000000000000002
0
CIRCLE
5
148
100
AcDbEntity
8
0
100
AcDbCircle
10
92.387953251128693
20
38.268343236508947
30
0
40
1.5000000000000002
0
CIRCLE
5
149
100
AcDbEntity
8
0
100
AcDbCircle
10
0
20
120
30
0
40
1.5
0
CIRCLE
5
150
100
AcDbEntity
8
0
100
AcDbCircle
10
-84.852813742385706
20
84.852813742385692
30
0
40
1.5
0
CIRCLE
5
151
100
AcDbEntity
8
0
100
AcDbCircle
10
-120.00000000000003
20
-2.6645352591003757e-14
30
0
40
1.5
0
CIRCLE
5
152
100
AcDbEntity
8
0
100
AcDbCircle
10
-84.852813742385706
20
-84.852813742385692
30
0
40
1.5
0
CIRCLE
5
153
100
AcDbEntity
8
0
100
AcDbCircle
10
-1.4695761589768237e-14
20
-120
30
0
40
1.5
0
CIRCLE
5
154
100
AcDbEntity
8
0
100
AcDbCircle
10
84.852813742385692
20
-84.852813742385692
30
0
40
1.5
0
CIRCLE
5
155
100
AcDbEntity
8
0
100
AcDbCircle
10
120
20
-2.6645352591003757e-14
30
0
40
1.5
0
CIRCLE
5
156
100
AcDbEntity
8
0
100
AcDbCircle
10
84.852813742385706
20
84.852813742385678
30
0
40
1.5
0
ENDSEC
0
SECTION
2
OBJECTS
0
DICTIONARY
5
C
100
AcDbDictionary
3
ACAD_GROUP
350
D
3
ACAD_MLINESTYLE
350
17
0
DICTIONARY
5
D
100
AcDbDictionary
0
DICTIONARY
5
1A
330
C
100
AcDbDictionary
0
DICTIONARY
5
17
100
AcDbDictionary
0
ENDSEC
0
EOF
