solid AutomaticCoiler
facet normal 0.0 0.0 -1.0
  outer loop
    vertex 99.34074180890568 110.48820326232706 78.99999924876964
    vertex 99.3407418089371 105.31182236027664 78.99999924876964
    vertex 99.00000007181207 107.90001281129979 78.99999924876964
  endloop
endfacet
facet normal 0.0 0.0 -1.0
  outer loop
    vertex 99.3407418089371 105.31182236027664 78.99999924876964
    vertex 99.34074180890568 110.48820326232706 78.99999924876964
    vertex 100.33974603393735 112.90001281130792 78.99999924876964
  endloop
endfacet
facet normal 0.0 0.0 -1.0
  outer loop
    vertex 99.3407418089371 105.31182236027664 78.99999924876964
    vertex 100.33974603393735 112.90001281130792 78.99999924876964
    vertex 100.33974603399803 102.90001281130792 78.99999924876964
  endloop
endfacet
facet normal 0.0 0.0 -1.0
  outer loop
    vertex 100.33974603399803 102.90001281130792 78.99999924876964
    vertex 100.33974603393735 112.90001281130792 78.99999924876964
    vertex 101.92893225990368 114.97108062318303 78.99999924876964
  endloop
endfacet
facet normal 0.0 0.0 -1.0
  outer loop
    vertex 100.33974603399803 102.90001281130792 78.99999924876964
    vertex 101.92893225990368 114.97108062318303 78.99999924876964
    vertex 101.92893225998951 100.82894499945208 78.99999924876964
  endloop
endfacet
facet normal 0.0 0.0 -1.0
  outer loop
    vertex 101.92893225998951 100.82894499945208 78.99999924876964
    vertex 101.92893225990368 114.97108062318303 78.99999924876964
    vertex 104.00000007175952 116.56026684917451 78.99999924876964
  endloop
endfacet
facet normal 0.0 0.0 -1.0
  outer loop
    vertex 101.92893225998951 100.82894499945208 78.99999924876964
    vertex 104.00000007175952 116.56026684917451 78.99999924876964
    vertex 104.00000007186462 99.23975877348573 78.99999924876964
  endloop
endfacet
facet normal 0.0 0.0 -1.0
  outer loop
    vertex 104.00000007186462 99.23975877348573 78.99999924876964
    vertex 104.00000007175952 116.56026684917451 78.99999924876964
    vertex 104.50000007181208 107.90001281136047 78.99999924876971
  endloop
endfacet
facet normal 0.0 0.0 -1.0
  outer loop
    vertex 104.50000007181208 107.90001281136047 78.99999924876971
    vertex 104.00000007175952 116.56026684917451 78.99999924876964
    vertex 104.65333385351127 109.0646985143218 78.99999924876971
  endloop
endfacet
facet normal 0.0 0.0 -1.0
  outer loop
    vertex 104.65333385351127 109.0646985143218 78.99999924876971
    vertex 104.00000007175952 116.56026684917451 78.99999924876964
    vertex 106.41180962072823 117.55927107423544 78.99999924876964
  endloop
endfacet
facet normal 0.0 0.0 -1.0
  outer loop
    vertex 104.65333385351127 109.0646985143218 78.99999924876971
    vertex 106.41180962072823 117.55927107423544 78.99999924876964
    vertex 105.10288575478211 110.15001281136045 78.99999924876971
  endloop
endfacet
facet normal 0.0 0.0 -1.0
  outer loop
    vertex 105.10288575478211 110.15001281136045 78.99999924876971
    vertex 106.41180962072823 117.55927107423544 78.99999924876964
    vertex 105.81801955647262 111.08199332669992 78.99999924876971
  endloop
endfacet
facet normal 0.0 0.0 -1.0
  outer loop
    vertex 105.81801955647262 111.08199332669992 78.99999924876971
    vertex 106.41180962072823 117.55927107423544 78.99999924876964
    vertex 106.75000007181207 111.79712712839044 78.99999924876971
  endloop
endfacet
facet normal 0.0 0.0 -1.0
  outer loop
    vertex 106.75000007181207 111.79712712839044 78.99999924876971
    vertex 106.41180962072823 117.55927107423544 78.99999924876964
    vertex 109.00000007175139 117.90001281136048 78.99999924876964
  endloop
endfacet
facet normal 0.0 0.0 -1.0
  outer loop
    vertex 106.75000007181207 111.79712712839044 78.99999924876971
    vertex 109.00000007175139 117.90001281136048 78.99999924876964
    vertex 107.83531436885073 112.24667902966128 78.99999924876971
  endloop
endfacet
facet normal 0.0 0.0 -1.0
  outer loop
    vertex 107.83531436885073 112.24667902966128 78.99999924876971
    vertex 109.00000007175139 117.90001281136048 78.99999924876964
    vertex 109.00000007181207 112.40001281136047 78.99999924876971
  endloop
endfacet
facet normal 0.0 0.0 -1.0
  outer loop
    vertex 109.00000007181207 112.40001281136047 78.99999924876971
    vertex 109.00000007175139 117.90001281136048 78.99999924876964
    vertex 111.58819052277867 117.55927107426687 78.99999924876964
  endloop
endfacet
facet normal 0.0 0.0 -1.0
  outer loop
    vertex 109.00000007181207 112.40001281136047 78.99999924876971
    vertex 111.58819052277867 117.55927107426687 78.99999924876964
    vertex 110.1646857747734 112.24667902966128 78.99999924876971
  endloop
endfacet
facet normal 0.0 0.0 -1.0
  outer loop
    vertex 110.1646857747734 112.24667902966128 78.99999924876971
    vertex 111.58819052277867 117.55927107426687 78.99999924876964
    vertex 111.25000007181205 111.79712712839044 78.99999924876971
  endloop
endfacet
facet normal 0.0 0.0 -1.0
  outer loop
    vertex 111.25000007181205 111.79712712839044 78.99999924876971
    vertex 111.58819052277867 117.55927107426687 78.99999924876964
    vertex 112.18198058715153 111.08199332669992 78.99999924876971
  endloop
endfacet
facet normal 0.0 0.0 -1.0
  outer loop
    vertex 112.18198058715153 111.08199332669992 78.99999924876971
    vertex 111.58819052277867 117.55927107426687 78.99999924876964
    vertex 114.00000007175953 116.56026684923519 78.99999924876964
  endloop
endfacet
facet normal 0.0 0.0 -1.0
  outer loop
    vertex 112.18198058715153 111.08199332669992 78.99999924876971
    vertex 114.00000007175953 116.56026684923519 78.99999924876964
    vertex 112.89711438884204 110.15001281136048 78.99999924876971
  endloop
endfacet
facet normal 0.0 0.0 -1.0
  outer loop
    vertex 112.89711438884204 110.15001281136048 78.99999924876971
    vertex 114.00000007175953 116.56026684923519 78.99999924876964
    vertex 113.34666629011288 109.0646985143218 78.99999924876971
  endloop
endfacet
facet normal 0.0 0.0 -1.0
  outer loop
    vertex 113.34666629011288 109.0646985143218 78.99999924876971
    vertex 114.00000007175953 116.56026684923519 78.99999924876964
    vertex 113.50000007181207 107.90001281136047 78.99999924876971
  endloop
endfacet
facet normal 0.0 0.0 -1.0
  outer loop
    vertex 104.00000007186462 99.23975877348573 78.99999924876964
    vertex 104.65333385351127 106.73532710839913 78.99999924876971
    vertex 106.41180962084547 98.24075454845408 78.99999924876964
  endloop
endfacet
facet normal 0.0 0.0 -1.0
  outer loop
    vertex 104.65333385351127 106.73532710839913 78.99999924876971
    vertex 104.00000007186462 99.23975877348573 78.99999924876964
    vertex 104.50000007181208 107.90001281136047 78.99999924876971
  endloop
endfacet
facet normal 0.0 0.0 -1.0
  outer loop
    vertex 106.41180962084547 98.24075454845408 78.99999924876964
    vertex 104.65333385351127 106.73532710839913 78.99999924876971
    vertex 105.10288575478211 105.65001281136047 78.99999924876971
  endloop
endfacet
facet normal 0.0 0.0 -1.0
  outer loop
    vertex 106.41180962084547 98.24075454845408 78.99999924876964
    vertex 105.10288575478211 105.65001281136047 78.99999924876971
    vertex 105.81801955647262 104.71803229602102 78.99999924876971
  endloop
endfacet
facet normal 0.0 0.0 -1.0
  outer loop
    vertex 106.41180962084547 98.24075454845408 78.99999924876964
    vertex 105.81801955647262 104.71803229602102 78.99999924876971
    vertex 106.7500000718121 104.0028984943305 78.99999924876971
  endloop
endfacet
facet normal 0.0 0.0 -1.0
  outer loop
    vertex 106.41180962084547 98.24075454845408 78.99999924876964
    vertex 106.7500000718121 104.0028984943305 78.99999924876971
    vertex 109.00000007187276 97.90001281136047 78.99999924876964
  endloop
endfacet
facet normal 0.0 0.0 -1.0
  outer loop
    vertex 109.00000007187276 97.90001281136047 78.99999924876964
    vertex 106.7500000718121 104.0028984943305 78.99999924876971
    vertex 107.83531436885073 103.55334659305967 78.99999924876971
  endloop
endfacet
facet normal 0.0 0.0 -1.0
  outer loop
    vertex 109.00000007187276 97.90001281136047 78.99999924876964
    vertex 107.83531436885073 103.55334659305967 78.99999924876971
    vertex 109.00000007181207 103.40001281136048 78.99999924876971
  endloop
endfacet
facet normal 0.0 0.0 -1.0
  outer loop
    vertex 109.00000007187276 97.90001281136047 78.99999924876964
    vertex 109.00000007181207 103.40001281136048 78.99999924876971
    vertex 110.1646857747734 103.55334659305967 78.99999924876971
  endloop
endfacet
facet normal 0.0 0.0 -1.0
  outer loop
    vertex 109.00000007187276 97.90001281136047 78.99999924876964
    vertex 110.1646857747734 103.55334659305967 78.99999924876971
    vertex 111.58819052289591 98.2407545484855 78.99999924876964
  endloop
endfacet
facet normal 0.0 0.0 -1.0
  outer loop
    vertex 111.58819052289591 98.2407545484855 78.99999924876964
    vertex 110.1646857747734 103.55334659305967 78.99999924876971
    vertex 111.25000007181208 104.0028984943305 78.99999924876971
  endloop
endfacet
facet normal 0.0 0.0 -1.0
  outer loop
    vertex 111.58819052289591 98.2407545484855 78.99999924876964
    vertex 111.25000007181208 104.0028984943305 78.99999924876971
    vertex 112.18198058715153 104.71803229602102 78.99999924876971
  endloop
endfacet
facet normal 0.0 0.0 -1.0
  outer loop
    vertex 111.58819052289591 98.2407545484855 78.99999924876964
    vertex 112.18198058715153 104.71803229602102 78.99999924876971
    vertex 114.00000007186463 99.23975877354643 78.99999924876964
  endloop
endfacet
facet normal 0.0 0.0 -1.0
  outer loop
    vertex 114.00000007186463 99.23975877354643 78.99999924876964
    vertex 112.18198058715153 104.71803229602102 78.99999924876971
    vertex 112.89711438884204 105.65001281136048 78.99999924876971
  endloop
endfacet
facet normal 0.0 0.0 -1.0
  outer loop
    vertex 114.00000007186463 99.23975877354643 78.99999924876964
    vertex 112.89711438884204 105.65001281136048 78.99999924876971
    vertex 113.34666629011288 106.73532710839913 78.99999924876971
  endloop
endfacet
facet normal 0.0 0.0 -1.0
  outer loop
    vertex 114.00000007186463 99.23975877354643 78.99999924876964
    vertex 113.34666629011288 106.73532710839913 78.99999924876971
    vertex 113.50000007181207 107.90001281136047 78.99999924876971
  endloop
endfacet
facet normal 0.0 0.0 -1.0
  outer loop
    vertex 114.00000007186463 99.23975877354643 78.99999924876964
    vertex 113.50000007181207 107.90001281136047 78.99999924876971
    vertex 114.00000007175953 116.56026684923519 78.99999924876964
  endloop
endfacet
facet normal 0.0 0.0 -1.0
  outer loop
    vertex 114.00000007186463 99.23975877354643 78.99999924876964
    vertex 114.00000007175953 116.56026684923519 78.99999924876964
    vertex 116.07106788363464 114.97108062326885 78.99999924876964
  endloop
endfacet
facet normal 0.0 0.0 -1.0
  outer loop
    vertex 114.00000007186463 99.23975877354643 78.99999924876964
    vertex 116.07106788363464 114.97108062326885 78.99999924876964
    vertex 116.07106788372047 100.82894499953791 78.99999924876964
  endloop
endfacet
facet normal 0.0 0.0 -1.0
  outer loop
    vertex 116.07106788372047 100.82894499953791 78.99999924876964
    vertex 116.07106788363464 114.97108062326885 78.99999924876964
    vertex 117.66025410962611 112.90001281141302 78.99999924876964
  endloop
endfacet
facet normal 0.0 0.0 -1.0
  outer loop
    vertex 116.07106788372047 100.82894499953791 78.99999924876964
    vertex 117.66025410962611 112.90001281141302 78.99999924876964
    vertex 117.6602541096868 102.90001281141302 78.99999924876964
  endloop
endfacet
facet normal 0.0 0.0 -1.0
  outer loop
    vertex 117.6602541096868 102.90001281141302 78.99999924876964
    vertex 117.66025410962611 112.90001281141302 78.99999924876964
    vertex 118.65925833468705 110.48820326244432 78.99999924876964
  endloop
endfacet
facet normal 0.0 0.0 -1.0
  outer loop
    vertex 117.6602541096868 102.90001281141302 78.99999924876964
    vertex 118.65925833468705 110.48820326244432 78.99999924876964
    vertex 118.65925833471847 105.31182236039388 78.99999924876964
  endloop
endfacet
facet normal 0.0 0.0 -1.0
  outer loop
    vertex 118.65925833471847 105.31182236039388 78.99999924876964
    vertex 118.65925833468705 110.48820326244432 78.99999924876964
    vertex 119.00000007181208 107.90001281142116 78.99999924876964
  endloop
endfacet
facet normal 0.13052619222607012 -0.991444861373018 0.0
  outer loop
    vertex 111.58819052289591 98.2407545484855 87.00000019569063
    vertex 109.00000007187276 97.90001281136047 78.99999924876964
    vertex 111.58819052289591 98.2407545484855 78.99999924876964
  endloop
endfacet
facet normal 0.13052619222607012 -0.991444861373018 0.0
  outer loop
    vertex 109.00000007187276 97.90001281136047 78.99999924876964
    vertex 111.58819052289591 98.2407545484855 87.00000019569063
    vertex 109.00000007187276 97.90001281136047 87.00000019569063
  endloop
endfacet
facet normal -0.9238795325089648 -0.3826834323706957 -0.0
  outer loop
    vertex 99.3407418089371 105.31182236027664 87.00000019569063
    vertex 100.33974603399803 102.90001281130792 78.99999924876964
    vertex 100.33974603399803 102.90001281130792 87.00000019569063
  endloop
endfacet
facet normal -0.9238795325089648 -0.3826834323706957 -0.0
  outer loop
    vertex 100.33974603399803 102.90001281130792 78.99999924876964
    vertex 99.3407418089371 105.31182236027664 87.00000019569063
    vertex 99.3407418089371 105.31182236027664 78.99999924876964
  endloop
endfacet
facet normal -0.9238795325136084 0.3826834323594848 0.0
  outer loop
    vertex 100.33974603393735 112.90001281130792 87.00000019569063
    vertex 99.34074180890568 110.48820326232706 78.99999924876964
    vertex 99.34074180890568 110.48820326232706 87.00000019569063
  endloop
endfacet
facet normal -0.9238795325136084 0.3826834323594848 0.0
  outer loop
    vertex 99.34074180890568 110.48820326232706 78.99999924876964
    vertex 100.33974603393735 112.90001281130792 87.00000019569063
    vertex 100.33974603393735 112.90001281130792 78.99999924876964
  endloop
endfacet
facet normal -0.1305261922140325 -0.991444861374603 -0.0
  outer loop
    vertex 109.00000007187276 97.90001281136047 87.00000019569063
    vertex 106.41180962084547 98.24075454845408 78.99999924876964
    vertex 109.00000007187276 97.90001281136047 78.99999924876964
  endloop
endfacet
facet normal -0.1305261922140325 -0.991444861374603 -0.0
  outer loop
    vertex 106.41180962084547 98.24075454845408 78.99999924876964
    vertex 109.00000007187276 97.90001281136047 87.00000019569063
    vertex 106.41180962084547 98.24075454845408 87.00000019569063
  endloop
endfacet
facet normal -0.7933533402949304 0.6087614290039051 0.0
  outer loop
    vertex 101.92893225990368 114.97108062318303 87.00000019569063
    vertex 100.33974603393735 112.90001281130792 78.99999924876964
    vertex 100.33974603393735 112.90001281130792 87.00000019569063
  endloop
endfacet
facet normal -0.7933533402949304 0.6087614290039051 0.0
  outer loop
    vertex 100.33974603393735 112.90001281130792 78.99999924876964
    vertex 101.92893225990368 114.97108062318303 87.00000019569063
    vertex 101.92893225990368 114.97108062318303 78.99999924876964
  endloop
endfacet
facet normal 0.9238795325136069 -0.38268343235948854 0.0
  outer loop
    vertex 118.65925833471847 105.31182236039388 78.99999924876964
    vertex 117.6602541096868 102.90001281141302 87.00000019569063
    vertex 117.6602541096868 102.90001281141302 78.99999924876964
  endloop
endfacet
facet normal 0.9238795325136069 -0.38268343235948854 0.0
  outer loop
    vertex 117.6602541096868 102.90001281141302 87.00000019569063
    vertex 118.65925833471847 105.31182236039388 78.99999924876964
    vertex 118.65925833471847 105.31182236039388 87.00000019569063
  endloop
endfacet
facet normal -0.6087614290135315 0.7933533402875438 0.0
  outer loop
    vertex 101.92893225990368 114.97108062318303 87.00000019569063
    vertex 104.00000007175952 116.56026684917451 78.99999924876964
    vertex 101.92893225990368 114.97108062318303 78.99999924876964
  endloop
endfacet
facet normal -0.6087614290135315 0.7933533402875438 0.0
  outer loop
    vertex 104.00000007175952 116.56026684917451 78.99999924876964
    vertex 101.92893225990368 114.97108062318303 87.00000019569063
    vertex 104.00000007175952 116.56026684917451 87.00000019569063
  endloop
endfacet
facet normal -0.3826834323706993 0.9238795325089632 0.0
  outer loop
    vertex 104.00000007175952 116.56026684917451 87.00000019569063
    vertex 106.41180962072823 117.55927107423544 78.99999924876964
    vertex 104.00000007175952 116.56026684917451 78.99999924876964
  endloop
endfacet
facet normal -0.3826834323706993 0.9238795325089632 0.0
  outer loop
    vertex 106.41180962072823 117.55927107423544 78.99999924876964
    vertex 104.00000007175952 116.56026684917451 87.00000019569063
    vertex 106.41180962072823 117.55927107423544 87.00000019569063
  endloop
endfacet
facet normal -0.13052619222607012 0.991444861373018 0.0
  outer loop
    vertex 106.41180962072823 117.55927107423544 87.00000019569063
    vertex 109.00000007175139 117.90001281136048 78.99999924876964
    vertex 106.41180962072823 117.55927107423544 78.99999924876964
  endloop
endfacet
facet normal -0.13052619222607012 0.991444861373018 0.0
  outer loop
    vertex 109.00000007175139 117.90001281136048 78.99999924876964
    vertex 106.41180962072823 117.55927107423544 87.00000019569063
    vertex 109.00000007175139 117.90001281136048 87.00000019569063
  endloop
endfacet
facet normal 0.1305261922140325 0.991444861374603 0.0
  outer loop
    vertex 109.00000007175139 117.90001281136048 87.00000019569063
    vertex 111.58819052277867 117.55927107426687 78.99999924876964
    vertex 109.00000007175139 117.90001281136048 78.99999924876964
  endloop
endfacet
facet normal 0.1305261922140325 0.991444861374603 0.0
  outer loop
    vertex 111.58819052277867 117.55927107426687 78.99999924876964
    vertex 109.00000007175139 117.90001281136048 87.00000019569063
    vertex 111.58819052277867 117.55927107426687 87.00000019569063
  endloop
endfacet
facet normal 0.0 0.0 1.0
  outer loop
    vertex 104.00000007186462 99.23975877348573 87.00000019569063
    vertex 104.65333385351127 106.73532710839913 87.00000019569063
    vertex 104.50000007181208 107.90001281136047 87.00000019569063
  endloop
endfacet
facet normal 0.0 0.0 1.0
  outer loop
    vertex 104.65333385351127 106.73532710839913 87.00000019569063
    vertex 104.00000007186462 99.23975877348573 87.00000019569063
    vertex 106.41180962084547 98.24075454845408 87.00000019569063
  endloop
endfacet
facet normal 0.0 0.0 1.0
  outer loop
    vertex 104.65333385351127 106.73532710839913 87.00000019569063
    vertex 106.41180962084547 98.24075454845408 87.00000019569063
    vertex 105.10288575478211 105.65001281136047 87.00000019569063
  endloop
endfacet
facet normal 0.0 0.0 1.0
  outer loop
    vertex 105.10288575478211 105.65001281136047 87.00000019569063
    vertex 106.41180962084547 98.24075454845408 87.00000019569063
    vertex 105.81801955647262 104.71803229602102 87.00000019569063
  endloop
endfacet
facet normal 0.0 0.0 1.0
  outer loop
    vertex 105.81801955647262 104.71803229602102 87.00000019569063
    vertex 106.41180962084547 98.24075454845408 87.00000019569063
    vertex 106.7500000718121 104.0028984943305 87.00000019569063
  endloop
endfacet
facet normal 0.0 0.0 1.0
  outer loop
    vertex 106.7500000718121 104.0028984943305 87.00000019569063
    vertex 106.41180962084547 98.24075454845408 87.00000019569063
    vertex 109.00000007187276 97.90001281136047 87.00000019569063
  endloop
endfacet
facet normal 0.0 0.0 1.0
  outer loop
    vertex 106.7500000718121 104.0028984943305 87.00000019569063
    vertex 109.00000007187276 97.90001281136047 87.00000019569063
    vertex 107.83531436885073 103.55334659305967 87.00000019569063
  endloop
endfacet
facet normal 0.0 0.0 1.0
  outer loop
    vertex 107.83531436885073 103.55334659305967 87.00000019569063
    vertex 109.00000007187276 97.90001281136047 87.00000019569063
    vertex 109.00000007181207 103.40001281136048 87.00000019569063
  endloop
endfacet
facet normal 0.0 0.0 1.0
  outer loop
    vertex 109.00000007181207 103.40001281136048 87.00000019569063
    vertex 109.00000007187276 97.90001281136047 87.00000019569063
    vertex 110.1646857747734 103.55334659305967 87.00000019569063
  endloop
endfacet
facet normal 0.0 0.0 1.0
  outer loop
    vertex 110.1646857747734 103.55334659305967 87.00000019569063
    vertex 109.00000007187276 97.90001281136047 87.00000019569063
    vertex 111.58819052289591 98.2407545484855 87.00000019569063
  endloop
endfacet
facet normal 0.0 0.0 1.0
  outer loop
    vertex 110.1646857747734 103.55334659305967 87.00000019569063
    vertex 111.58819052289591 98.2407545484855 87.00000019569063
    vertex 111.25000007181208 104.0028984943305 87.00000019569063
  endloop
endfacet
facet normal 0.0 0.0 1.0
  outer loop
    vertex 111.25000007181208 104.0028984943305 87.00000019569063
    vertex 111.58819052289591 98.2407545484855 87.00000019569063
    vertex 112.18198058715153 104.71803229602102 87.00000019569063
  endloop
endfacet
facet normal 0.0 0.0 1.0
  outer loop
    vertex 112.18198058715153 104.71803229602102 87.00000019569063
    vertex 111.58819052289591 98.2407545484855 87.00000019569063
    vertex 114.00000007186463 99.23975877354643 87.00000019569063
  endloop
endfacet
facet normal 0.0 0.0 1.0
  outer loop
    vertex 112.18198058715153 104.71803229602102 87.00000019569063
    vertex 114.00000007186463 99.23975877354643 87.00000019569063
    vertex 112.89711438884204 105.65001281136048 87.00000019569063
  endloop
endfacet
facet normal 0.0 0.0 1.0
  outer loop
    vertex 112.89711438884204 105.65001281136048 87.00000019569063
    vertex 114.00000007186463 99.23975877354643 87.00000019569063
    vertex 113.34666629011288 106.73532710839913 87.00000019569063
  endloop
endfacet
facet normal 0.0 0.0 1.0
  outer loop
    vertex 113.34666629011288 106.73532710839913 87.00000019569063
    vertex 114.00000007186463 99.23975877354643 87.00000019569063
    vertex 113.50000007181207 107.90001281136047 87.00000019569063
  endloop
endfacet
facet normal 0.0 0.0 1.0
  outer loop
    vertex 113.50000007181207 107.90001281136047 87.00000019569063
    vertex 114.00000007186463 99.23975877354643 87.00000019569063
    vertex 114.00000007175953 116.56026684923519 87.00000019569063
  endloop
endfacet
facet normal 0.0 0.0 1.0
  outer loop
    vertex 114.00000007175953 116.56026684923519 87.00000019569063
    vertex 114.00000007186463 99.23975877354643 87.00000019569063
    vertex 116.07106788363464 114.97108062326885 87.00000019569063
  endloop
endfacet
facet normal 0.0 0.0 1.0
  outer loop
    vertex 116.07106788363464 114.97108062326885 87.00000019569063
    vertex 114.00000007186463 99.23975877354643 87.00000019569063
    vertex 116.07106788372047 100.82894499953791 87.00000019569063
  endloop
endfacet
facet normal 0.0 0.0 1.0
  outer loop
    vertex 116.07106788363464 114.97108062326885 87.00000019569063
    vertex 116.07106788372047 100.82894499953791 87.00000019569063
    vertex 117.66025410962611 112.90001281141302 87.00000019569063
  endloop
endfacet
facet normal 0.0 0.0 1.0
  outer loop
    vertex 117.66025410962611 112.90001281141302 87.00000019569063
    vertex 116.07106788372047 100.82894499953791 87.00000019569063
    vertex 117.6602541096868 102.90001281141302 87.00000019569063
  endloop
endfacet
facet normal 0.0 0.0 1.0
  outer loop
    vertex 117.66025410962611 112.90001281141302 87.00000019569063
    vertex 117.6602541096868 102.90001281141302 87.00000019569063
    vertex 118.65925833468705 110.48820326244432 87.00000019569063
  endloop
endfacet
facet normal 0.0 0.0 1.0
  outer loop
    vertex 118.65925833468705 110.48820326244432 87.00000019569063
    vertex 117.6602541096868 102.90001281141302 87.00000019569063
    vertex 118.65925833471847 105.31182236039388 87.00000019569063
  endloop
endfacet
facet normal 0.0 0.0 1.0
  outer loop
    vertex 118.65925833468705 110.48820326244432 87.00000019569063
    vertex 118.65925833471847 105.31182236039388 87.00000019569063
    vertex 119.00000007181208 107.90001281142116 87.00000019569063
  endloop
endfacet
facet normal 0.0 0.0 1.0
  outer loop
    vertex 99.3407418089371 105.31182236027664 87.00000019569063
    vertex 99.34074180890568 110.48820326232706 87.00000019569063
    vertex 99.00000007181207 107.90001281129979 87.00000019569063
  endloop
endfacet
facet normal 0.0 0.0 1.0
  outer loop
    vertex 99.34074180890568 110.48820326232706 87.00000019569063
    vertex 99.3407418089371 105.31182236027664 87.00000019569063
    vertex 100.33974603393735 112.90001281130792 87.00000019569063
  endloop
endfacet
facet normal 0.0 0.0 1.0
  outer loop
    vertex 100.33974603393735 112.90001281130792 87.00000019569063
    vertex 99.3407418089371 105.31182236027664 87.00000019569063
    vertex 100.33974603399803 102.90001281130792 87.00000019569063
  endloop
endfacet
facet normal 0.0 0.0 1.0
  outer loop
    vertex 100.33974603393735 112.90001281130792 87.00000019569063
    vertex 100.33974603399803 102.90001281130792 87.00000019569063
    vertex 101.92893225990368 114.97108062318303 87.00000019569063
  endloop
endfacet
facet normal 0.0 0.0 1.0
  outer loop
    vertex 101.92893225990368 114.97108062318303 87.00000019569063
    vertex 100.33974603399803 102.90001281130792 87.00000019569063
    vertex 101.92893225998951 100.82894499945208 87.00000019569063
  endloop
endfacet
facet normal 0.0 0.0 1.0
  outer loop
    vertex 101.92893225990368 114.97108062318303 87.00000019569063
    vertex 101.92893225998951 100.82894499945208 87.00000019569063
    vertex 104.00000007175952 116.56026684917451 87.00000019569063
  endloop
endfacet
facet normal 0.0 0.0 1.0
  outer loop
    vertex 104.00000007175952 116.56026684917451 87.00000019569063
    vertex 101.92893225998951 100.82894499945208 87.00000019569063
    vertex 104.00000007186462 99.23975877348573 87.00000019569063
  endloop
endfacet
facet normal 0.0 0.0 1.0
  outer loop
    vertex 104.00000007175952 116.56026684917451 87.00000019569063
    vertex 104.00000007186462 99.23975877348573 87.00000019569063
    vertex 104.50000007181208 107.90001281136047 87.00000019569063
  endloop
endfacet
facet normal 0.0 0.0 1.0
  outer loop
    vertex 104.00000007175952 116.56026684917451 87.00000019569063
    vertex 104.50000007181208 107.90001281136047 87.00000019569063
    vertex 104.65333385351127 109.0646985143218 87.00000019569063
  endloop
endfacet
facet normal 0.0 0.0 1.0
  outer loop
    vertex 104.00000007175952 116.56026684917451 87.00000019569063
    vertex 104.65333385351127 109.0646985143218 87.00000019569063
    vertex 106.41180962072823 117.55927107423544 87.00000019569063
  endloop
endfacet
facet normal 0.0 0.0 1.0
  outer loop
    vertex 106.41180962072823 117.55927107423544 87.00000019569063
    vertex 104.65333385351127 109.0646985143218 87.00000019569063
    vertex 105.10288575478211 110.15001281136045 87.00000019569063
  endloop
endfacet
facet normal 0.0 0.0 1.0
  outer loop
    vertex 106.41180962072823 117.55927107423544 87.00000019569063
    vertex 105.10288575478211 110.15001281136045 87.00000019569063
    vertex 105.81801955647262 111.08199332669992 87.00000019569063
  endloop
endfacet
facet normal 0.0 0.0 1.0
  outer loop
    vertex 106.41180962072823 117.55927107423544 87.00000019569063
    vertex 105.81801955647262 111.08199332669992 87.00000019569063
    vertex 106.75000007181207 111.79712712839044 87.00000019569063
  endloop
endfacet
facet normal 0.0 0.0 1.0
  outer loop
    vertex 106.41180962072823 117.55927107423544 87.00000019569063
    vertex 106.75000007181207 111.79712712839044 87.00000019569063
    vertex 109.00000007175139 117.90001281136048 87.00000019569063
  endloop
endfacet
facet normal 0.0 0.0 1.0
  outer loop
    vertex 109.00000007175139 117.90001281136048 87.00000019569063
    vertex 106.75000007181207 111.79712712839044 87.00000019569063
    vertex 107.83531436885073 112.24667902966128 87.00000019569063
  endloop
endfacet
facet normal 0.0 0.0 1.0
  outer loop
    vertex 109.00000007175139 117.90001281136048 87.00000019569063
    vertex 107.83531436885073 112.24667902966128 87.00000019569063
    vertex 109.00000007181207 112.40001281136047 87.00000019569063
  endloop
endfacet
facet normal 0.0 0.0 1.0
  outer loop
    vertex 109.00000007175139 117.90001281136048 87.00000019569063
    vertex 109.00000007181207 112.40001281136047 87.00000019569063
    vertex 111.58819052277867 117.55927107426687 87.00000019569063
  endloop
endfacet
facet normal 0.0 0.0 1.0
  outer loop
    vertex 111.58819052277867 117.55927107426687 87.00000019569063
    vertex 109.00000007181207 112.40001281136047 87.00000019569063
    vertex 110.1646857747734 112.24667902966128 87.00000019569063
  endloop
endfacet
facet normal 0.0 0.0 1.0
  outer loop
    vertex 111.58819052277867 117.55927107426687 87.00000019569063
    vertex 110.1646857747734 112.24667902966128 87.00000019569063
    vertex 111.25000007181205 111.79712712839044 87.00000019569063
  endloop
endfacet
facet normal 0.0 0.0 1.0
  outer loop
    vertex 111.58819052277867 117.55927107426687 87.00000019569063
    vertex 111.25000007181205 111.79712712839044 87.00000019569063
    vertex 112.18198058715153 111.08199332669992 87.00000019569063
  endloop
endfacet
facet normal 0.0 0.0 1.0
  outer loop
    vertex 111.58819052277867 117.55927107426687 87.00000019569063
    vertex 112.18198058715153 111.08199332669992 87.00000019569063
    vertex 114.00000007175953 116.56026684923519 87.00000019569063
  endloop
endfacet
facet normal 0.0 0.0 1.0
  outer loop
    vertex 114.00000007175953 116.56026684923519 87.00000019569063
    vertex 112.18198058715153 111.08199332669992 87.00000019569063
    vertex 112.89711438884204 110.15001281136048 87.00000019569063
  endloop
endfacet
facet normal 0.0 0.0 1.0
  outer loop
    vertex 114.00000007175953 116.56026684923519 87.00000019569063
    vertex 112.89711438884204 110.15001281136048 87.00000019569063
    vertex 113.34666629011288 109.0646985143218 87.00000019569063
  endloop
endfacet
facet normal 0.0 0.0 1.0
  outer loop
    vertex 114.00000007175953 116.56026684923519 87.00000019569063
    vertex 113.34666629011288 109.0646985143218 87.00000019569063
    vertex 113.50000007181207 107.90001281136047 87.00000019569063
  endloop
endfacet
facet normal 0.6087614290135341 -0.7933533402875417 0.0
  outer loop
    vertex 116.07106788372047 100.82894499953791 87.00000019569063
    vertex 114.00000007186463 99.23975877354643 78.99999924876964
    vertex 116.07106788372047 100.82894499953791 78.99999924876964
  endloop
endfacet
facet normal 0.6087614290135341 -0.7933533402875417 0.0
  outer loop
    vertex 114.00000007186463 99.23975877354643 78.99999924876964
    vertex 116.07106788372047 100.82894499953791 87.00000019569063
    vertex 114.00000007186463 99.23975877354643 87.00000019569063
  endloop
endfacet
facet normal -0.79335334028754 -0.6087614290135362 -0.0
  outer loop
    vertex 100.33974603399803 102.90001281130792 87.00000019569063
    vertex 101.92893225998951 100.82894499945208 78.99999924876964
    vertex 101.92893225998951 100.82894499945208 87.00000019569063
  endloop
endfacet
facet normal -0.79335334028754 -0.6087614290135362 -0.0
  outer loop
    vertex 101.92893225998951 100.82894499945208 78.99999924876964
    vertex 100.33974603399803 102.90001281130792 87.00000019569063
    vertex 100.33974603399803 102.90001281130792 78.99999924876964
  endloop
endfacet
facet normal 0.7933533402949324 -0.6087614290039023 0.0
  outer loop
    vertex 117.6602541096868 102.90001281141302 78.99999924876964
    vertex 116.07106788372047 100.82894499953791 87.00000019569063
    vertex 116.07106788372047 100.82894499953791 78.99999924876964
  endloop
endfacet
facet normal 0.7933533402949324 -0.6087614290039023 0.0
  outer loop
    vertex 116.07106788372047 100.82894499953791 87.00000019569063
    vertex 117.6602541096868 102.90001281141302 78.99999924876964
    vertex 117.6602541096868 102.90001281141302 87.00000019569063
  endloop
endfacet
facet normal -0.991444861373018 -0.13052619222607012 -0.0
  outer loop
    vertex 99.00000007181207 107.90001281129979 87.00000019569063
    vertex 99.3407418089371 105.31182236027664 78.99999924876964
    vertex 99.3407418089371 105.31182236027664 87.00000019569063
  endloop
endfacet
facet normal -0.991444861373018 -0.13052619222607012 -0.0
  outer loop
    vertex 99.3407418089371 105.31182236027664 78.99999924876964
    vertex 99.00000007181207 107.90001281129979 87.00000019569063
    vertex 99.00000007181207 107.90001281129979 78.99999924876964
  endloop
endfacet
facet normal -0.3826834323594848 -0.9238795325136084 -0.0
  outer loop
    vertex 106.41180962084547 98.24075454845408 87.00000019569063
    vertex 104.00000007186462 99.23975877348573 78.99999924876964
    vertex 106.41180962084547 98.24075454845408 78.99999924876964
  endloop
endfacet
facet normal -0.3826834323594848 -0.9238795325136084 -0.0
  outer loop
    vertex 104.00000007186462 99.23975877348573 78.99999924876964
    vertex 106.41180962084547 98.24075454845408 87.00000019569063
    vertex 104.00000007186462 99.23975877348573 87.00000019569063
  endloop
endfacet
facet normal 0.3826834323706957 -0.9238795325089648 0.0
  outer loop
    vertex 114.00000007186463 99.23975877354643 87.00000019569063
    vertex 111.58819052289591 98.2407545484855 78.99999924876964
    vertex 114.00000007186463 99.23975877354643 78.99999924876964
  endloop
endfacet
facet normal 0.3826834323706957 -0.9238795325089648 0.0
  outer loop
    vertex 111.58819052289591 98.2407545484855 78.99999924876964
    vertex 114.00000007186463 99.23975877354643 87.00000019569063
    vertex 111.58819052289591 98.2407545484855 87.00000019569063
  endloop
endfacet
facet normal -0.6087614290039077 -0.7933533402949282 -0.0
  outer loop
    vertex 104.00000007186462 99.23975877348573 87.00000019569063
    vertex 101.92893225998951 100.82894499945208 78.99999924876964
    vertex 104.00000007186462 99.23975877348573 78.99999924876964
  endloop
endfacet
facet normal -0.6087614290039077 -0.7933533402949282 -0.0
  outer loop
    vertex 101.92893225998951 100.82894499945208 78.99999924876964
    vertex 104.00000007186462 99.23975877348573 87.00000019569063
    vertex 101.92893225998951 100.82894499945208 87.00000019569063
  endloop
endfacet
facet normal -0.991444861374603 0.1305261922140325 0.0
  outer loop
    vertex 99.34074180890568 110.48820326232706 87.00000019569063
    vertex 99.00000007181207 107.90001281129979 78.99999924876964
    vertex 99.00000007181207 107.90001281129979 87.00000019569063
  endloop
endfacet
facet normal -0.991444861374603 0.1305261922140325 0.0
  outer loop
    vertex 99.00000007181207 107.90001281129979 78.99999924876964
    vertex 99.34074180890568 110.48820326232706 87.00000019569063
    vertex 99.34074180890568 110.48820326232706 78.99999924876964
  endloop
endfacet
facet normal 0.991444861373018 0.13052619222607012 0.0
  outer loop
    vertex 118.65925833468705 110.48820326244432 78.99999924876964
    vertex 119.00000007181208 107.90001281142116 87.00000019569063
    vertex 119.00000007181208 107.90001281142116 78.99999924876964
  endloop
endfacet
facet normal 0.991444861373018 0.13052619222607012 0.0
  outer loop
    vertex 119.00000007181208 107.90001281142116 87.00000019569063
    vertex 118.65925833468705 110.48820326244432 78.99999924876964
    vertex 118.65925833468705 110.48820326244432 87.00000019569063
  endloop
endfacet
facet normal 0.991444861374603 -0.1305261922140325 0.0
  outer loop
    vertex 119.00000007181208 107.90001281142116 78.99999924876964
    vertex 118.65925833471847 105.31182236039388 87.00000019569063
    vertex 118.65925833471847 105.31182236039388 78.99999924876964
  endloop
endfacet
facet normal 0.991444861374603 -0.1305261922140325 0.0
  outer loop
    vertex 118.65925833471847 105.31182236039388 87.00000019569063
    vertex 119.00000007181208 107.90001281142116 78.99999924876964
    vertex 119.00000007181208 107.90001281142116 87.00000019569063
  endloop
endfacet
facet normal 0.6087614290039077 0.7933533402949282 0.0
  outer loop
    vertex 114.00000007175953 116.56026684923519 87.00000019569063
    vertex 116.07106788363464 114.97108062326885 78.99999924876964
    vertex 114.00000007175953 116.56026684923519 78.99999924876964
  endloop
endfacet
facet normal 0.6087614290039077 0.7933533402949282 0.0
  outer loop
    vertex 116.07106788363464 114.97108062326885 78.99999924876964
    vertex 114.00000007175953 116.56026684923519 87.00000019569063
    vertex 116.07106788363464 114.97108062326885 87.00000019569063
  endloop
endfacet
facet normal 0.9238795325089632 0.3826834323706993 0.0
  outer loop
    vertex 117.66025410962611 112.90001281141302 78.99999924876964
    vertex 118.65925833468705 110.48820326244432 87.00000019569063
    vertex 118.65925833468705 110.48820326244432 78.99999924876964
  endloop
endfacet
facet normal 0.9238795325089632 0.3826834323706993 0.0
  outer loop
    vertex 118.65925833468705 110.48820326244432 87.00000019569063
    vertex 117.66025410962611 112.90001281141302 78.99999924876964
    vertex 117.66025410962611 112.90001281141302 87.00000019569063
  endloop
endfacet
facet normal 0.7933533402875405 0.6087614290135356 0.0
  outer loop
    vertex 116.07106788363464 114.97108062326885 78.99999924876964
    vertex 117.66025410962611 112.90001281141302 87.00000019569063
    vertex 117.66025410962611 112.90001281141302 78.99999924876964
  endloop
endfacet
facet normal 0.7933533402875405 0.6087614290135356 0.0
  outer loop
    vertex 117.66025410962611 112.90001281141302 87.00000019569063
    vertex 116.07106788363464 114.97108062326885 78.99999924876964
    vertex 116.07106788363464 114.97108062326885 87.00000019569063
  endloop
endfacet
facet normal 0.38268343235948854 0.9238795325136069 0.0
  outer loop
    vertex 111.58819052277867 117.55927107426687 87.00000019569063
    vertex 114.00000007175953 116.56026684923519 78.99999924876964
    vertex 111.58819052277867 117.55927107426687 78.99999924876964
  endloop
endfacet
facet normal 0.38268343235948854 0.9238795325136069 0.0
  outer loop
    vertex 114.00000007175953 116.56026684923519 78.99999924876964
    vertex 111.58819052277867 117.55927107426687 87.00000019569063
    vertex 114.00000007175953 116.56026684923519 87.00000019569063
  endloop
endfacet
facet normal -0.7933533402912226 -0.6087614290087372 -0.0
  outer loop
    vertex 112.18198058715153 111.08199332669992 87.00000019569063
    vertex 112.89711438884204 110.15001281136048 78.99999924876971
    vertex 112.89711438884204 110.15001281136048 87.00000019569063
  endloop
endfacet
facet normal -0.7933533402912226 -0.6087614290087372 -0.0
  outer loop
    vertex 112.89711438884204 110.15001281136048 78.99999924876971
    vertex 112.18198058715153 111.08199332669992 87.00000019569063
    vertex 112.18198058715153 111.08199332669992 78.99999924876971
  endloop
endfacet
facet normal -0.6087614290087279 -0.7933533402912296 -0.0
  outer loop
    vertex 112.18198058715153 111.08199332669992 87.00000019569063
    vertex 111.25000007181205 111.79712712839044 78.99999924876971
    vertex 112.18198058715153 111.08199332669992 78.99999924876971
  endloop
endfacet
facet normal -0.6087614290087279 -0.7933533402912296 -0.0
  outer loop
    vertex 111.25000007181205 111.79712712839044 78.99999924876971
    vertex 112.18198058715153 111.08199332669992 87.00000019569063
    vertex 111.25000007181205 111.79712712839044 87.00000019569063
  endloop
endfacet
facet normal -0.38268343236509234 -0.9238795325112856 -0.0
  outer loop
    vertex 111.25000007181205 111.79712712839044 87.00000019569063
    vertex 110.1646857747734 112.24667902966128 78.99999924876971
    vertex 111.25000007181205 111.79712712839044 78.99999924876971
  endloop
endfacet
facet normal -0.38268343236509234 -0.9238795325112856 -0.0
  outer loop
    vertex 110.1646857747734 112.24667902966128 78.99999924876971
    vertex 111.25000007181205 111.79712712839044 87.00000019569063
    vertex 110.1646857747734 112.24667902966128 87.00000019569063
  endloop
endfacet
facet normal -0.13052619222004555 -0.9914448613738113 -0.0
  outer loop
    vertex 110.1646857747734 112.24667902966128 87.00000019569063
    vertex 109.00000007181207 112.40001281136047 78.99999924876971
    vertex 110.1646857747734 112.24667902966128 78.99999924876971
  endloop
endfacet
facet normal -0.13052619222004555 -0.9914448613738113 -0.0
  outer loop
    vertex 109.00000007181207 112.40001281136047 78.99999924876971
    vertex 110.1646857747734 112.24667902966128 87.00000019569063
    vertex 109.00000007181207 112.40001281136047 87.00000019569063
  endloop
endfacet
facet normal 0.13052619222004555 -0.9914448613738113 0.0
  outer loop
    vertex 109.00000007181207 112.40001281136047 87.00000019569063
    vertex 107.83531436885073 112.24667902966128 78.99999924876971
    vertex 109.00000007181207 112.40001281136047 78.99999924876971
  endloop
endfacet
facet normal 0.13052619222004555 -0.9914448613738113 0.0
  outer loop
    vertex 107.83531436885073 112.24667902966128 78.99999924876971
    vertex 109.00000007181207 112.40001281136047 87.00000019569063
    vertex 107.83531436885073 112.24667902966128 87.00000019569063
  endloop
endfacet
facet normal 0.3826834323650856 -0.9238795325112885 0.0
  outer loop
    vertex 107.83531436885073 112.24667902966128 87.00000019569063
    vertex 106.75000007181207 111.79712712839044 78.99999924876971
    vertex 107.83531436885073 112.24667902966128 78.99999924876971
  endloop
endfacet
facet normal 0.3826834323650856 -0.9238795325112885 0.0
  outer loop
    vertex 106.75000007181207 111.79712712839044 78.99999924876971
    vertex 107.83531436885073 112.24667902966128 87.00000019569063
    vertex 106.75000007181207 111.79712712839044 87.00000019569063
  endloop
endfacet
facet normal 0.6087614290087372 -0.7933533402912226 0.0
  outer loop
    vertex 106.75000007181207 111.79712712839044 87.00000019569063
    vertex 105.81801955647262 111.08199332669992 78.99999924876971
    vertex 106.75000007181207 111.79712712839044 78.99999924876971
  endloop
endfacet
facet normal 0.6087614290087372 -0.7933533402912226 0.0
  outer loop
    vertex 105.81801955647262 111.08199332669992 78.99999924876971
    vertex 106.75000007181207 111.79712712839044 87.00000019569063
    vertex 105.81801955647262 111.08199332669992 87.00000019569063
  endloop
endfacet
facet normal 0.7933533402912296 -0.6087614290087279 0.0
  outer loop
    vertex 105.81801955647262 111.08199332669992 78.99999924876971
    vertex 105.10288575478211 110.15001281136045 87.00000019569063
    vertex 105.10288575478211 110.15001281136045 78.99999924876971
  endloop
endfacet
facet normal 0.7933533402912296 -0.6087614290087279 0.0
  outer loop
    vertex 105.10288575478211 110.15001281136045 87.00000019569063
    vertex 105.81801955647262 111.08199332669992 78.99999924876971
    vertex 105.81801955647262 111.08199332669992 87.00000019569063
  endloop
endfacet
facet normal 0.9238795325112856 -0.38268343236509234 0.0
  outer loop
    vertex 105.10288575478211 110.15001281136045 78.99999924876971
    vertex 104.65333385351127 109.0646985143218 87.00000019569063
    vertex 104.65333385351127 109.0646985143218 78.99999924876971
  endloop
endfacet
facet normal 0.9238795325112856 -0.38268343236509234 0.0
  outer loop
    vertex 104.65333385351127 109.0646985143218 87.00000019569063
    vertex 105.10288575478211 110.15001281136045 78.99999924876971
    vertex 105.10288575478211 110.15001281136045 87.00000019569063
  endloop
endfacet
facet normal 0.9914448613738113 -0.13052619222004555 0.0
  outer loop
    vertex 104.65333385351127 109.0646985143218 78.99999924876971
    vertex 104.50000007181208 107.90001281136047 87.00000019569063
    vertex 104.50000007181208 107.90001281136047 78.99999924876971
  endloop
endfacet
facet normal 0.9914448613738113 -0.13052619222004555 0.0
  outer loop
    vertex 104.50000007181208 107.90001281136047 87.00000019569063
    vertex 104.65333385351127 109.0646985143218 78.99999924876971
    vertex 104.65333385351127 109.0646985143218 87.00000019569063
  endloop
endfacet
facet normal 0.9914448613738113 0.13052619222004555 0.0
  outer loop
    vertex 104.50000007181208 107.90001281136047 78.99999924876971
    vertex 104.65333385351127 106.73532710839913 87.00000019569063
    vertex 104.65333385351127 106.73532710839913 78.99999924876971
  endloop
endfacet
facet normal 0.9914448613738113 0.13052619222004555 0.0
  outer loop
    vertex 104.65333385351127 106.73532710839913 87.00000019569063
    vertex 104.50000007181208 107.90001281136047 78.99999924876971
    vertex 104.50000007181208 107.90001281136047 87.00000019569063
  endloop
endfacet
facet normal 0.9238795325112885 0.3826834323650856 0.0
  outer loop
    vertex 104.65333385351127 106.73532710839913 78.99999924876971
    vertex 105.10288575478211 105.65001281136047 87.00000019569063
    vertex 105.10288575478211 105.65001281136047 78.99999924876971
  endloop
endfacet
facet normal 0.9238795325112885 0.3826834323650856 0.0
  outer loop
    vertex 105.10288575478211 105.65001281136047 87.00000019569063
    vertex 104.65333385351127 106.73532710839913 78.99999924876971
    vertex 104.65333385351127 106.73532710839913 87.00000019569063
  endloop
endfacet
facet normal 0.7933533402912226 0.6087614290087372 0.0
  outer loop
    vertex 105.10288575478211 105.65001281136047 78.99999924876971
    vertex 105.81801955647262 104.71803229602102 87.00000019569063
    vertex 105.81801955647262 104.71803229602102 78.99999924876971
  endloop
endfacet
facet normal 0.7933533402912226 0.6087614290087372 0.0
  outer loop
    vertex 105.81801955647262 104.71803229602102 87.00000019569063
    vertex 105.10288575478211 105.65001281136047 78.99999924876971
    vertex 105.10288575478211 105.65001281136047 87.00000019569063
  endloop
endfacet
facet normal 0.6087614290087279 0.7933533402912296 0.0
  outer loop
    vertex 105.81801955647262 104.71803229602102 87.00000019569063
    vertex 106.7500000718121 104.0028984943305 78.99999924876971
    vertex 105.81801955647262 104.71803229602102 78.99999924876971
  endloop
endfacet
facet normal 0.6087614290087279 0.7933533402912296 0.0
  outer loop
    vertex 106.7500000718121 104.0028984943305 78.99999924876971
    vertex 105.81801955647262 104.71803229602102 87.00000019569063
    vertex 106.7500000718121 104.0028984943305 87.00000019569063
  endloop
endfacet
facet normal 0.38268343236509234 0.9238795325112856 0.0
  outer loop
    vertex 106.7500000718121 104.0028984943305 87.00000019569063
    vertex 107.83531436885073 103.55334659305967 78.99999924876971
    vertex 106.7500000718121 104.0028984943305 78.99999924876971
  endloop
endfacet
facet normal 0.38268343236509234 0.9238795325112856 0.0
  outer loop
    vertex 107.83531436885073 103.55334659305967 78.99999924876971
    vertex 106.7500000718121 104.0028984943305 87.00000019569063
    vertex 107.83531436885073 103.55334659305967 87.00000019569063
  endloop
endfacet
facet normal 0.13052619222004555 0.9914448613738113 0.0
  outer loop
    vertex 107.83531436885073 103.55334659305967 87.00000019569063
    vertex 109.00000007181207 103.40001281136048 78.99999924876971
    vertex 107.83531436885073 103.55334659305967 78.99999924876971
  endloop
endfacet
facet normal 0.13052619222004555 0.9914448613738113 0.0
  outer loop
    vertex 109.00000007181207 103.40001281136048 78.99999924876971
    vertex 107.83531436885073 103.55334659305967 87.00000019569063
    vertex 109.00000007181207 103.40001281136048 87.00000019569063
  endloop
endfacet
facet normal -0.13052619222004555 0.9914448613738113 0.0
  outer loop
    vertex 109.00000007181207 103.40001281136048 87.00000019569063
    vertex 110.1646857747734 103.55334659305967 78.99999924876971
    vertex 109.00000007181207 103.40001281136048 78.99999924876971
  endloop
endfacet
facet normal -0.13052619222004555 0.9914448613738113 0.0
  outer loop
    vertex 110.1646857747734 103.55334659305967 78.99999924876971
    vertex 109.00000007181207 103.40001281136048 87.00000019569063
    vertex 110.1646857747734 103.55334659305967 87.00000019569063
  endloop
endfacet
facet normal -0.3826834323650856 0.9238795325112885 0.0
  outer loop
    vertex 110.1646857747734 103.55334659305967 87.00000019569063
    vertex 111.25000007181208 104.0028984943305 78.99999924876971
    vertex 110.1646857747734 103.55334659305967 78.99999924876971
  endloop
endfacet
facet normal -0.3826834323650856 0.9238795325112885 0.0
  outer loop
    vertex 111.25000007181208 104.0028984943305 78.99999924876971
    vertex 110.1646857747734 103.55334659305967 87.00000019569063
    vertex 111.25000007181208 104.0028984943305 87.00000019569063
  endloop
endfacet
facet normal -0.6087614290087372 0.7933533402912226 0.0
  outer loop
    vertex 111.25000007181208 104.0028984943305 87.00000019569063
    vertex 112.18198058715153 104.71803229602102 78.99999924876971
    vertex 111.25000007181208 104.0028984943305 78.99999924876971
  endloop
endfacet
facet normal -0.6087614290087372 0.7933533402912226 0.0
  outer loop
    vertex 112.18198058715153 104.71803229602102 78.99999924876971
    vertex 111.25000007181208 104.0028984943305 87.00000019569063
    vertex 112.18198058715153 104.71803229602102 87.00000019569063
  endloop
endfacet
facet normal -0.7933533402912296 0.6087614290087279 0.0
  outer loop
    vertex 112.89711438884204 105.65001281136048 87.00000019569063
    vertex 112.18198058715153 104.71803229602102 78.99999924876971
    vertex 112.18198058715153 104.71803229602102 87.00000019569063
  endloop
endfacet
facet normal -0.7933533402912296 0.6087614290087279 0.0
  outer loop
    vertex 112.18198058715153 104.71803229602102 78.99999924876971
    vertex 112.89711438884204 105.65001281136048 87.00000019569063
    vertex 112.89711438884204 105.65001281136048 78.99999924876971
  endloop
endfacet
facet normal -0.9238795325112856 0.38268343236509234 0.0
  outer loop
    vertex 113.34666629011288 106.73532710839913 87.00000019569063
    vertex 112.89711438884204 105.65001281136048 78.99999924876971
    vertex 112.89711438884204 105.65001281136048 87.00000019569063
  endloop
endfacet
facet normal -0.9238795325112856 0.38268343236509234 0.0
  outer loop
    vertex 112.89711438884204 105.65001281136048 78.99999924876971
    vertex 113.34666629011288 106.73532710839913 87.00000019569063
    vertex 113.34666629011288 106.73532710839913 78.99999924876971
  endloop
endfacet
facet normal -0.9914448613738113 0.13052619222004555 0.0
  outer loop
    vertex 113.50000007181207 107.90001281136047 87.00000019569063
    vertex 113.34666629011288 106.73532710839913 78.99999924876971
    vertex 113.34666629011288 106.73532710839913 87.00000019569063
  endloop
endfacet
facet normal -0.9914448613738113 0.13052619222004555 0.0
  outer loop
    vertex 113.34666629011288 106.73532710839913 78.99999924876971
    vertex 113.50000007181207 107.90001281136047 87.00000019569063
    vertex 113.50000007181207 107.90001281136047 78.99999924876971
  endloop
endfacet
facet normal -0.9914448613738113 -0.13052619222004555 -0.0
  outer loop
    vertex 113.34666629011288 109.0646985143218 87.00000019569063
    vertex 113.50000007181207 107.90001281136047 78.99999924876971
    vertex 113.50000007181207 107.90001281136047 87.00000019569063
  endloop
endfacet
facet normal -0.9914448613738113 -0.13052619222004555 -0.0
  outer loop
    vertex 113.50000007181207 107.90001281136047 78.99999924876971
    vertex 113.34666629011288 109.0646985143218 87.00000019569063
    vertex 113.34666629011288 109.0646985143218 78.99999924876971
  endloop
endfacet
facet normal -0.9238795325112885 -0.3826834323650856 -0.0
  outer loop
    vertex 112.89711438884204 110.15001281136048 87.00000019569063
    vertex 113.34666629011288 109.0646985143218 78.99999924876971
    vertex 113.34666629011288 109.0646985143218 87.00000019569063
  endloop
endfacet
facet normal -0.9238795325112885 -0.3826834323650856 -0.0
  outer loop
    vertex 113.34666629011288 109.0646985143218 78.99999924876971
    vertex 112.89711438884204 110.15001281136048 87.00000019569063
    vertex 112.89711438884204 110.15001281136048 78.99999924876971
  endloop
endfacet
endsolid AutomaticCoiler
