solid AutomaticCoiler
facet normal 1.0 0.0 0.0
  outer loop
    vertex 278.7583687236622 60.54612815676228 2.999999999999955
    vertex 278.7583687236622 34.56536604322909 4.999999999999955
    vertex 278.7583687236622 34.56536604322909 2.999999999999955
  endloop
endfacet
facet normal 1.0 0.0 0.0
  outer loop
    vertex 278.7583687236622 34.56536604322909 4.999999999999955
    vertex 278.7583687236622 60.54612815676228 2.999999999999955
    vertex 278.7583687236622 60.54612815676228 4.999999999999955
  endloop
endfacet
facet normal 0.0 0.0 1.0
  outer loop
    vertex 282.3760830471244 33.066859705659645 2.999999999999955
    vertex 278.7583687236622 60.54612815676228 2.999999999999955
    vertex 278.7583687236622 34.56536604322909 2.999999999999955
  endloop
endfacet
facet normal 0.0 0.0 1.0
  outer loop
    vertex 278.7583687236622 60.54612815676228 2.999999999999955
    vertex 282.3760830471244 33.066859705659645 2.999999999999955
    vertex 282.3760830471244 62.04463449433173 2.999999999999955
  endloop
endfacet
facet normal 0.0 0.0 1.0
  outer loop
    vertex 282.3760830471244 62.04463449433173 2.999999999999955
    vertex 282.3760830471244 33.066859705659645 2.999999999999955
    vertex 286.2583687236622 32.55574709999566 2.999999999999955
  endloop
endfacet
facet normal 0.0 0.0 1.0
  outer loop
    vertex 282.3760830471244 62.04463449433173 2.999999999999955
    vertex 286.2583687236622 32.55574709999566 2.999999999999955
    vertex 286.2583687236622 62.5557470999957 2.999999999999955
  endloop
endfacet
facet normal 0.0 0.0 1.0
  outer loop
    vertex 286.2583687236622 62.5557470999957 2.999999999999955
    vertex 286.2583687236622 32.55574709999566 2.999999999999955
    vertex 290.14065440020005 33.06685970565964 2.999999999999955
  endloop
endfacet
facet normal 0.0 0.0 1.0
  outer loop
    vertex 286.2583687236622 62.5557470999957 2.999999999999955
    vertex 290.14065440020005 33.06685970565964 2.999999999999955
    vertex 290.14065440020005 62.04463449433173 2.999999999999955
  endloop
endfacet
facet normal 0.0 0.0 1.0
  outer loop
    vertex 290.14065440020005 62.04463449433173 2.999999999999955
    vertex 290.14065440020005 33.06685970565964 2.999999999999955
    vertex 293.7583687236622 34.565366043229076 2.999999999999955
  endloop
endfacet
facet normal 0.0 0.0 1.0
  outer loop
    vertex 290.14065440020005 62.04463449433173 2.999999999999955
    vertex 293.7583687236622 34.565366043229076 2.999999999999955
    vertex 293.7583687236622 60.54612815676228 2.999999999999955
  endloop
endfacet
facet normal -1.0 0.0 0.0
  outer loop
    vertex 293.7583687236622 60.54612815676228 4.999999999999955
    vertex 293.7583687236622 34.565366043229076 2.999999999999955
    vertex 293.7583687236622 34.565366043229076 4.999999999999955
  endloop
endfacet
facet normal -1.0 0.0 0.0
  outer loop
    vertex 293.7583687236622 34.565366043229076 2.999999999999955
    vertex 293.7583687236622 60.54612815676228 4.999999999999955
    vertex 293.7583687236622 60.54612815676228 2.999999999999955
  endloop
endfacet
facet normal 0.7933533402912368 -0.6087614290087184 0.0
  outer loop
    vertex 299.24874978042885 40.05574709999567 -4.511946372076636e-14
    vertex 296.86497044146046 36.94914538219746 4.999999999999955
    vertex 296.86497044146046 36.94914538219746 -4.511946372076636e-14
  endloop
endfacet
facet normal 0.7933533402912368 -0.6087614290087184 0.0
  outer loop
    vertex 296.86497044146046 36.94914538219746 4.999999999999955
    vertex 299.24874978042885 40.05574709999567 -4.511946372076636e-14
    vertex 299.24874978042885 40.05574709999567 4.999999999999955
  endloop
endfacet
facet normal 0.3826834323651033 -0.9238795325112812 0.0
  outer loop
    vertex 298.37014015600846 49.004635839429305 4.999999999999955
    vertex 298.0083687236622 48.85478520567236 -4.934941344458821e-14
    vertex 298.37014015600846 49.004635839429305 -4.934941344458821e-14
  endloop
endfacet
facet normal 0.3826834323651033 -0.9238795325112812 0.0
  outer loop
    vertex 298.0083687236622 48.85478520567236 -4.934941344458821e-14
    vertex 298.37014015600846 49.004635839429305 4.999999999999955
    vertex 298.0083687236622 48.85478520567236 4.999999999999955
  endloop
endfacet
facet normal 0.3826834323651033 -0.9238795325112812 0.0
  outer loop
    vertex 273.37014015600846 49.004635839429305 4.999999999999955
    vertex 273.0083687236622 48.85478520567236 -4.6529446962040307e-14
    vertex 273.37014015600846 49.004635839429305 -4.6529446962040307e-14
  endloop
endfacet
facet normal 0.3826834323651033 -0.9238795325112812 0.0
  outer loop
    vertex 273.0083687236622 48.85478520567236 -4.6529446962040307e-14
    vertex 273.37014015600846 49.004635839429305 4.999999999999955
    vertex 273.0083687236622 48.85478520567236 4.999999999999955
  endloop
endfacet
facet normal 0.1305261922200522 -0.9914448613738103 0.0
  outer loop
    vertex 273.7583687236622 49.055747099995706 4.999999999999955
    vertex 273.37014015600846 49.004635839429305 -4.6529446962040307e-14
    vertex 273.7583687236622 49.055747099995706 -4.6529446962040307e-14
  endloop
endfacet
facet normal 0.1305261922200522 -0.9914448613738103 0.0
  outer loop
    vertex 273.37014015600846 49.004635839429305 -4.6529446962040307e-14
    vertex 273.7583687236622 49.055747099995706 4.999999999999955
    vertex 273.37014015600846 49.004635839429305 4.999999999999955
  endloop
endfacet
facet normal -0.6087614290087033 0.7933533402912485 0.0
  outer loop
    vertex 274.5083687236623 46.25670899431901 4.999999999999955
    vertex 274.8190288954421 46.49508692821585 -4.6529446962040307e-14
    vertex 274.5083687236623 46.25670899431901 -4.6529446962040307e-14
  endloop
endfacet
facet normal -0.6087614290087033 0.7933533402912485 0.0
  outer loop
    vertex 274.8190288954421 46.49508692821585 -4.6529446962040307e-14
    vertex 274.5083687236623 46.25670899431901 4.999999999999955
    vertex 274.8190288954421 46.49508692821585 4.999999999999955
  endloop
endfacet
facet normal -0.1305261922200522 0.9914448613738103 0.0
  outer loop
    vertex 273.7583687236622 46.05574709999566 4.999999999999955
    vertex 274.146597291316 46.106858360562065 -4.6529446962040307e-14
    vertex 273.7583687236622 46.05574709999566 -4.6529446962040307e-14
  endloop
endfacet
facet normal -0.1305261922200522 0.9914448613738103 0.0
  outer loop
    vertex 274.146597291316 46.106858360562065 -4.6529446962040307e-14
    vertex 273.7583687236622 46.05574709999566 4.999999999999955
    vertex 274.146597291316 46.106858360562065 4.999999999999955
  endloop
endfacet
facet normal -0.7933533402912517 0.6087614290086991 0.0
  outer loop
    vertex 300.0574068293389 46.80574709999568 4.999999999999955
    vertex 299.8190288954421 46.49508692821585 -4.934941344458821e-14
    vertex 299.8190288954421 46.49508692821585 4.999999999999955
  endloop
endfacet
facet normal -0.7933533402912517 0.6087614290086991 0.0
  outer loop
    vertex 299.8190288954421 46.49508692821585 -4.934941344458821e-14
    vertex 300.0574068293389 46.80574709999568 4.999999999999955
    vertex 300.0574068293389 46.80574709999568 -4.934941344458821e-14
  endloop
endfacet
facet normal 0.1305261922200522 0.9914448613738103 0.0
  outer loop
    vertex 273.37014015600846 46.106858360562065 4.999999999999955
    vertex 273.7583687236622 46.05574709999566 -4.6529446962040307e-14
    vertex 273.37014015600846 46.106858360562065 -4.6529446962040307e-14
  endloop
endfacet
facet normal 0.1305261922200522 0.9914448613738103 0.0
  outer loop
    vertex 273.7583687236622 46.05574709999566 -4.6529446962040307e-14
    vertex 273.37014015600846 46.106858360562065 4.999999999999955
    vertex 273.7583687236622 46.05574709999566 4.999999999999955
  endloop
endfacet
facet normal 0.9238795325113027 -0.38268343236505115 0.0
  outer loop
    vertex 272.4593306179856 48.30574709999569 -4.6529446962040307e-14
    vertex 272.30947998422863 47.94397566764947 4.999999999999955
    vertex 272.30947998422863 47.94397566764947 -4.6529446962040307e-14
  endloop
endfacet
facet normal 0.9238795325113027 -0.38268343236505115 0.0
  outer loop
    vertex 272.30947998422863 47.94397566764947 4.999999999999955
    vertex 272.4593306179856 48.30574709999569 -4.6529446962040307e-14
    vertex 272.4593306179856 48.30574709999569 4.999999999999955
  endloop
endfacet
facet normal 0.9914448613738039 -0.13052619222010028 0.0
  outer loop
    vertex 272.30947998422863 47.94397566764947 -4.6529446962040307e-14
    vertex 272.2583687236622 47.555747099995685 4.999999999999955
    vertex 272.2583687236622 47.555747099995685 -4.6529446962040307e-14
  endloop
endfacet
facet normal 0.9914448613738039 -0.13052619222010028 0.0
  outer loop
    vertex 272.2583687236622 47.555747099995685 4.999999999999955
    vertex 272.30947998422863 47.94397566764947 -4.6529446962040307e-14
    vertex 272.30947998422863 47.94397566764947 4.999999999999955
  endloop
endfacet
facet normal -0.9914448613738039 0.13052619222010028 0.0
  outer loop
    vertex 300.2583687236623 47.555747099995685 4.999999999999955
    vertex 300.20725746309586 47.1675185323419 -4.934941344458821e-14
    vertex 300.20725746309586 47.1675185323419 4.999999999999955
  endloop
endfacet
facet normal -0.9914448613738039 0.13052619222010028 0.0
  outer loop
    vertex 300.20725746309586 47.1675185323419 -4.934941344458821e-14
    vertex 300.2583687236623 47.555747099995685 4.999999999999955
    vertex 300.2583687236623 47.555747099995685 -4.934941344458821e-14
  endloop
endfacet
facet normal 0.7933533402912517 0.6087614290086991 0.0
  outer loop
    vertex 272.4593306179856 46.80574709999568 -4.6529446962040307e-14
    vertex 272.6977085518824 46.49508692821585 4.999999999999955
    vertex 272.6977085518824 46.49508692821585 -4.6529446962040307e-14
  endloop
endfacet
facet normal 0.7933533402912517 0.6087614290086991 0.0
  outer loop
    vertex 272.6977085518824 46.49508692821585 4.999999999999955
    vertex 272.4593306179856 46.80574709999568 -4.6529446962040307e-14
    vertex 272.4593306179856 46.80574709999568 4.999999999999955
  endloop
endfacet
facet normal 0.3826834323651033 0.9238795325112812 0.0
  outer loop
    vertex 273.0083687236622 46.25670899431901 4.999999999999955
    vertex 273.37014015600846 46.106858360562065 -4.6529446962040307e-14
    vertex 273.0083687236622 46.25670899431901 -4.6529446962040307e-14
  endloop
endfacet
facet normal 0.3826834323651033 0.9238795325112812 0.0
  outer loop
    vertex 273.37014015600846 46.106858360562065 -4.6529446962040307e-14
    vertex 273.0083687236622 46.25670899431901 4.999999999999955
    vertex 273.37014015600846 46.106858360562065 4.999999999999955
  endloop
endfacet
facet normal -0.3826834323651033 -0.9238795325112812 -0.0
  outer loop
    vertex 274.5083687236623 48.85478520567236 4.999999999999955
    vertex 274.146597291316 49.004635839429305 -4.6529446962040307e-14
    vertex 274.5083687236623 48.85478520567236 -4.6529446962040307e-14
  endloop
endfacet
facet normal -0.3826834323651033 -0.9238795325112812 -0.0
  outer loop
    vertex 274.146597291316 49.004635839429305 -4.6529446962040307e-14
    vertex 274.5083687236623 48.85478520567236 4.999999999999955
    vertex 274.146597291316 49.004635839429305 4.999999999999955
  endloop
endfacet
facet normal -0.7933533402912517 -0.6087614290086991 -0.0
  outer loop
    vertex 299.8190288954421 48.61640727177552 4.999999999999955
    vertex 300.0574068293389 48.30574709999569 -4.934941344458821e-14
    vertex 300.0574068293389 48.30574709999569 4.999999999999955
  endloop
endfacet
facet normal -0.7933533402912517 -0.6087614290086991 -0.0
  outer loop
    vertex 300.0574068293389 48.30574709999569 -4.934941344458821e-14
    vertex 299.8190288954421 48.61640727177552 4.999999999999955
    vertex 299.8190288954421 48.61640727177552 -4.934941344458821e-14
  endloop
endfacet
facet normal 0.7933533402912517 -0.6087614290086991 0.0
  outer loop
    vertex 272.6977085518824 48.61640727177552 -4.6529446962040307e-14
    vertex 272.4593306179856 48.30574709999569 4.999999999999955
    vertex 272.4593306179856 48.30574709999569 -4.6529446962040307e-14
  endloop
endfacet
facet normal 0.7933533402912517 -0.6087614290086991 0.0
  outer loop
    vertex 272.4593306179856 48.30574709999569 4.999999999999955
    vertex 272.6977085518824 48.61640727177552 -4.6529446962040307e-14
    vertex 272.6977085518824 48.61640727177552 4.999999999999955
  endloop
endfacet
facet normal 0.1305261922200522 -0.9914448613738103 0.0
  outer loop
    vertex 298.7583687236622 49.055747099995706 4.999999999999955
    vertex 298.37014015600846 49.004635839429305 -4.934941344458821e-14
    vertex 298.7583687236622 49.055747099995706 -4.934941344458821e-14
  endloop
endfacet
facet normal 0.1305261922200522 -0.9914448613738103 0.0
  outer loop
    vertex 298.37014015600846 49.004635839429305 -4.934941344458821e-14
    vertex 298.7583687236622 49.055747099995706 4.999999999999955
    vertex 298.37014015600846 49.004635839429305 4.999999999999955
  endloop
endfacet
facet normal -0.7933533402912517 0.6087614290086991 0.0
  outer loop
    vertex 275.0574068293389 46.80574709999568 4.999999999999955
    vertex 274.8190288954421 46.49508692821585 -4.6529446962040307e-14
    vertex 274.8190288954421 46.49508692821585 4.999999999999955
  endloop
endfacet
facet normal -0.7933533402912517 0.6087614290086991 0.0
  outer loop
    vertex 274.8190288954421 46.49508692821585 -4.6529446962040307e-14
    vertex 275.0574068293389 46.80574709999568 4.999999999999955
    vertex 275.0574068293389 46.80574709999568 -4.6529446962040307e-14
  endloop
endfacet
facet normal -0.9914448613738039 0.13052619222010028 0.0
  outer loop
    vertex 275.2583687236623 47.555747099995685 4.999999999999955
    vertex 275.20725746309586 47.1675185323419 -4.6529446962040307e-14
    vertex 275.20725746309586 47.1675185323419 4.999999999999955
  endloop
endfacet
facet normal -0.9914448613738039 0.13052619222010028 0.0
  outer loop
    vertex 275.20725746309586 47.1675185323419 -4.6529446962040307e-14
    vertex 275.2583687236623 47.555747099995685 4.999999999999955
    vertex 275.2583687236623 47.555747099995685 -4.6529446962040307e-14
  endloop
endfacet
facet normal -0.9914448613738039 -0.13052619222010028 -0.0
  outer loop
    vertex 275.20725746309586 47.94397566764947 4.999999999999955
    vertex 275.2583687236623 47.555747099995685 -4.6529446962040307e-14
    vertex 275.2583687236623 47.555747099995685 4.999999999999955
  endloop
endfacet
facet normal -0.9914448613738039 -0.13052619222010028 -0.0
  outer loop
    vertex 275.2583687236623 47.555747099995685 -4.6529446962040307e-14
    vertex 275.20725746309586 47.94397566764947 4.999999999999955
    vertex 275.20725746309586 47.94397566764947 -4.6529446962040307e-14
  endloop
endfacet
facet normal 0.6087614290087033 -0.7933533402912485 0.0
  outer loop
    vertex 273.0083687236622 48.85478520567236 4.999999999999955
    vertex 272.6977085518824 48.61640727177552 -4.6529446962040307e-14
    vertex 273.0083687236622 48.85478520567236 -4.6529446962040307e-14
  endloop
endfacet
facet normal 0.6087614290087033 -0.7933533402912485 0.0
  outer loop
    vertex 272.6977085518824 48.61640727177552 -4.6529446962040307e-14
    vertex 273.0083687236622 48.85478520567236 4.999999999999955
    vertex 272.6977085518824 48.61640727177552 4.999999999999955
  endloop
endfacet
facet normal -0.9238795325113027 -0.38268343236505115 -0.0
  outer loop
    vertex 275.0574068293389 48.30574709999569 4.999999999999955
    vertex 275.20725746309586 47.94397566764947 -4.6529446962040307e-14
    vertex 275.20725746309586 47.94397566764947 4.999999999999955
  endloop
endfacet
facet normal -0.9238795325113027 -0.38268343236505115 -0.0
  outer loop
    vertex 275.20725746309586 47.94397566764947 -4.6529446962040307e-14
    vertex 275.0574068293389 48.30574709999569 4.999999999999955
    vertex 275.0574068293389 48.30574709999569 -4.6529446962040307e-14
  endloop
endfacet
facet normal 0.6087614290087033 0.7933533402912485 0.0
  outer loop
    vertex 272.6977085518824 46.49508692821585 4.999999999999955
    vertex 273.0083687236622 46.25670899431901 -4.6529446962040307e-14
    vertex 272.6977085518824 46.49508692821585 -4.6529446962040307e-14
  endloop
endfacet
facet normal 0.6087614290087033 0.7933533402912485 0.0
  outer loop
    vertex 273.0083687236622 46.25670899431901 -4.6529446962040307e-14
    vertex 272.6977085518824 46.49508692821585 4.999999999999955
    vertex 273.0083687236622 46.25670899431901 4.999999999999955
  endloop
endfacet
facet normal 0.9238795325113007 0.38268343236505625 0.0
  outer loop
    vertex 272.30947998422863 47.167518532341894 -4.6529446962040307e-14
    vertex 272.4593306179856 46.80574709999568 4.999999999999955
    vertex 272.4593306179856 46.80574709999568 -4.6529446962040307e-14
  endloop
endfacet
facet normal 0.9238795325113007 0.38268343236505625 0.0
  outer loop
    vertex 272.4593306179856 46.80574709999568 4.999999999999955
    vertex 272.30947998422863 47.167518532341894 -4.6529446962040307e-14
    vertex 272.30947998422863 47.167518532341894 4.999999999999955
  endloop
endfacet
facet normal -0.6087614290087033 0.7933533402912485 0.0
  outer loop
    vertex 299.5083687236623 46.25670899431901 4.999999999999955
    vertex 299.8190288954421 46.49508692821585 -4.934941344458821e-14
    vertex 299.5083687236623 46.25670899431901 -4.934941344458821e-14
  endloop
endfacet
facet normal -0.6087614290087033 0.7933533402912485 0.0
  outer loop
    vertex 299.8190288954421 46.49508692821585 -4.934941344458821e-14
    vertex 299.5083687236623 46.25670899431901 4.999999999999955
    vertex 299.8190288954421 46.49508692821585 4.999999999999955
  endloop
endfacet
facet normal -0.9238795325113007 -0.38268343236505625 -0.0
  outer loop
    vertex 300.0574068293389 48.30574709999569 4.999999999999955
    vertex 300.20725746309586 47.943975667649475 -4.934941344458821e-14
    vertex 300.20725746309586 47.943975667649475 4.999999999999955
  endloop
endfacet
facet normal -0.9238795325113007 -0.38268343236505625 -0.0
  outer loop
    vertex 300.20725746309586 47.943975667649475 -4.934941344458821e-14
    vertex 300.0574068293389 48.30574709999569 4.999999999999955
    vertex 300.0574068293389 48.30574709999569 -4.934941344458821e-14
  endloop
endfacet
facet normal -0.1305261922200522 -0.9914448613738103 -0.0
  outer loop
    vertex 274.146597291316 49.004635839429305 4.999999999999955
    vertex 273.7583687236622 49.055747099995706 -4.6529446962040307e-14
    vertex 274.146597291316 49.004635839429305 -4.6529446962040307e-14
  endloop
endfacet
facet normal -0.1305261922200522 -0.9914448613738103 -0.0
  outer loop
    vertex 273.7583687236622 49.055747099995706 -4.6529446962040307e-14
    vertex 274.146597291316 49.004635839429305 4.999999999999955
    vertex 273.7583687236622 49.055747099995706 4.999999999999955
  endloop
endfacet
facet normal -0.6087614290087033 -0.7933533402912485 -0.0
  outer loop
    vertex 299.8190288954421 48.61640727177552 4.999999999999955
    vertex 299.5083687236623 48.85478520567236 -4.934941344458821e-14
    vertex 299.8190288954421 48.61640727177552 -4.934941344458821e-14
  endloop
endfacet
facet normal -0.6087614290087033 -0.7933533402912485 -0.0
  outer loop
    vertex 299.5083687236623 48.85478520567236 -4.934941344458821e-14
    vertex 299.8190288954421 48.61640727177552 4.999999999999955
    vertex 299.5083687236623 48.85478520567236 4.999999999999955
  endloop
endfacet
facet normal -0.3826834323651033 -0.9238795325112812 -0.0
  outer loop
    vertex 299.5083687236623 48.85478520567236 4.999999999999955
    vertex 299.146597291316 49.004635839429305 -4.934941344458821e-14
    vertex 299.5083687236623 48.85478520567236 -4.934941344458821e-14
  endloop
endfacet
facet normal -0.3826834323651033 -0.9238795325112812 -0.0
  outer loop
    vertex 299.146597291316 49.004635839429305 -4.934941344458821e-14
    vertex 299.5083687236623 48.85478520567236 4.999999999999955
    vertex 299.146597291316 49.004635839429305 4.999999999999955
  endloop
endfacet
facet normal -0.7933533402912517 -0.6087614290086991 -0.0
  outer loop
    vertex 274.8190288954421 48.61640727177552 4.999999999999955
    vertex 275.0574068293389 48.30574709999569 -4.6529446962040307e-14
    vertex 275.0574068293389 48.30574709999569 4.999999999999955
  endloop
endfacet
facet normal -0.7933533402912517 -0.6087614290086991 -0.0
  outer loop
    vertex 275.0574068293389 48.30574709999569 -4.6529446962040307e-14
    vertex 274.8190288954421 48.61640727177552 4.999999999999955
    vertex 274.8190288954421 48.61640727177552 -4.6529446962040307e-14
  endloop
endfacet
facet normal -0.3826834323651033 0.9238795325112812 0.0
  outer loop
    vertex 274.146597291316 46.106858360562065 4.999999999999955
    vertex 274.5083687236623 46.25670899431901 -4.6529446962040307e-14
    vertex 274.146597291316 46.106858360562065 -4.6529446962040307e-14
  endloop
endfacet
facet normal -0.3826834323651033 0.9238795325112812 0.0
  outer loop
    vertex 274.5083687236623 46.25670899431901 -4.6529446962040307e-14
    vertex 274.146597291316 46.106858360562065 4.999999999999955
    vertex 274.5083687236623 46.25670899431901 4.999999999999955
  endloop
endfacet
facet normal -0.9238795325113027 0.38268343236505115 0.0
  outer loop
    vertex 275.20725746309586 47.1675185323419 4.999999999999955
    vertex 275.0574068293389 46.80574709999568 -4.6529446962040307e-14
    vertex 275.0574068293389 46.80574709999568 4.999999999999955
  endloop
endfacet
facet normal -0.9238795325113027 0.38268343236505115 0.0
  outer loop
    vertex 275.0574068293389 46.80574709999568 -4.6529446962040307e-14
    vertex 275.20725746309586 47.1675185323419 4.999999999999955
    vertex 275.20725746309586 47.1675185323419 -4.6529446962040307e-14
  endloop
endfacet
facet normal 0.9914448613738043 0.13052619222009842 0.0
  outer loop
    vertex 272.2583687236622 47.555747099995685 -4.6529446962040307e-14
    vertex 272.30947998422863 47.167518532341894 4.999999999999955
    vertex 272.30947998422863 47.167518532341894 -4.6529446962040307e-14
  endloop
endfacet
facet normal 0.9914448613738043 0.13052619222009842 0.0
  outer loop
    vertex 272.30947998422863 47.167518532341894 4.999999999999955
    vertex 272.2583687236622 47.555747099995685 -4.6529446962040307e-14
    vertex 272.2583687236622 47.555747099995685 4.999999999999955
  endloop
endfacet
facet normal -0.9238795325113027 0.38268343236505115 0.0
  outer loop
    vertex 300.20725746309586 47.1675185323419 4.999999999999955
    vertex 300.0574068293389 46.80574709999568 -4.934941344458821e-14
    vertex 300.0574068293389 46.80574709999568 4.999999999999955
  endloop
endfacet
facet normal -0.9238795325113027 0.38268343236505115 0.0
  outer loop
    vertex 300.0574068293389 46.80574709999568 -4.934941344458821e-14
    vertex 300.20725746309586 47.1675185323419 4.999999999999955
    vertex 300.20725746309586 47.1675185323419 -4.934941344458821e-14
  endloop
endfacet
facet normal -0.9914448613738043 -0.13052619222009842 -0.0
  outer loop
    vertex 300.20725746309586 47.943975667649475 4.999999999999955
    vertex 300.2583687236623 47.555747099995685 -4.934941344458821e-14
    vertex 300.2583687236623 47.555747099995685 4.999999999999955
  endloop
endfacet
facet normal -0.9914448613738043 -0.13052619222009842 -0.0
  outer loop
    vertex 300.2583687236623 47.555747099995685 -4.934941344458821e-14
    vertex 300.20725746309586 47.943975667649475 4.999999999999955
    vertex 300.20725746309586 47.943975667649475 -4.934941344458821e-14
  endloop
endfacet
facet normal -0.6087614290087033 -0.7933533402912485 -0.0
  outer loop
    vertex 274.8190288954421 48.61640727177552 4.999999999999955
    vertex 274.5083687236623 48.85478520567236 -4.6529446962040307e-14
    vertex 274.8190288954421 48.61640727177552 -4.6529446962040307e-14
  endloop
endfacet
facet normal -0.6087614290087033 -0.7933533402912485 -0.0
  outer loop
    vertex 274.5083687236623 48.85478520567236 -4.6529446962040307e-14
    vertex 274.8190288954421 48.61640727177552 4.999999999999955
    vertex 274.5083687236623 48.85478520567236 4.999999999999955
  endloop
endfacet
facet normal -0.1305261922200522 -0.9914448613738103 -0.0
  outer loop
    vertex 299.146597291316 49.004635839429305 4.999999999999955
    vertex 298.7583687236622 49.055747099995706 -4.934941344458821e-14
    vertex 299.146597291316 49.004635839429305 -4.934941344458821e-14
  endloop
endfacet
facet normal -0.1305261922200522 -0.9914448613738103 -0.0
  outer loop
    vertex 298.7583687236622 49.055747099995706 -4.934941344458821e-14
    vertex 299.146597291316 49.004635839429305 4.999999999999955
    vertex 298.7583687236622 49.055747099995706 4.999999999999955
  endloop
endfacet
facet normal 0.6087614290087033 -0.7933533402912485 0.0
  outer loop
    vertex 298.0083687236622 48.85478520567236 4.999999999999955
    vertex 297.6977085518824 48.61640727177552 -4.934941344458821e-14
    vertex 298.0083687236622 48.85478520567236 -4.934941344458821e-14
  endloop
endfacet
facet normal 0.6087614290087033 -0.7933533402912485 0.0
  outer loop
    vertex 297.6977085518824 48.61640727177552 -4.934941344458821e-14
    vertex 298.0083687236622 48.85478520567236 4.999999999999955
    vertex 297.6977085518824 48.61640727177552 4.999999999999955
  endloop
endfacet
facet normal -0.1305261922200522 0.9914448613738103 0.0
  outer loop
    vertex 298.7583687236622 46.05574709999566 4.999999999999955
    vertex 299.146597291316 46.106858360562065 -4.934941344458821e-14
    vertex 298.7583687236622 46.05574709999566 -4.934941344458821e-14
  endloop
endfacet
facet normal -0.1305261922200522 0.9914448613738103 0.0
  outer loop
    vertex 299.146597291316 46.106858360562065 -4.934941344458821e-14
    vertex 298.7583687236622 46.05574709999566 4.999999999999955
    vertex 299.146597291316 46.106858360562065 4.999999999999955
  endloop
endfacet
facet normal 0.3826834323651033 0.9238795325112812 0.0
  outer loop
    vertex 298.0083687236622 46.25670899431901 4.999999999999955
    vertex 298.37014015600846 46.106858360562065 -4.934941344458821e-14
    vertex 298.0083687236622 46.25670899431901 -4.934941344458821e-14
  endloop
endfacet
facet normal 0.3826834323651033 0.9238795325112812 0.0
  outer loop
    vertex 298.37014015600846 46.106858360562065 -4.934941344458821e-14
    vertex 298.0083687236622 46.25670899431901 4.999999999999955
    vertex 298.37014015600846 46.106858360562065 4.999999999999955
  endloop
endfacet
facet normal 0.1305261922200522 0.9914448613738103 0.0
  outer loop
    vertex 298.37014015600846 46.106858360562065 4.999999999999955
    vertex 298.7583687236622 46.05574709999566 -4.934941344458821e-14
    vertex 298.37014015600846 46.106858360562065 -4.934941344458821e-14
  endloop
endfacet
facet normal 0.1305261922200522 0.9914448613738103 0.0
  outer loop
    vertex 298.7583687236622 46.05574709999566 -4.934941344458821e-14
    vertex 298.37014015600846 46.106858360562065 4.999999999999955
    vertex 298.7583687236622 46.05574709999566 4.999999999999955
  endloop
endfacet
facet normal 0.7933533402912517 -0.6087614290086991 0.0
  outer loop
    vertex 297.6977085518824 48.61640727177552 -4.934941344458821e-14
    vertex 297.4593306179856 48.30574709999569 4.999999999999955
    vertex 297.4593306179856 48.30574709999569 -4.934941344458821e-14
  endloop
endfacet
facet normal 0.7933533402912517 -0.6087614290086991 0.0
  outer loop
    vertex 297.4593306179856 48.30574709999569 4.999999999999955
    vertex 297.6977085518824 48.61640727177552 -4.934941344458821e-14
    vertex 297.6977085518824 48.61640727177552 4.999999999999955
  endloop
endfacet
facet normal 0.9914448613738039 0.13052619222010028 0.0
  outer loop
    vertex 297.2583687236622 47.555747099995685 -4.934941344458821e-14
    vertex 297.30947998422863 47.1675185323419 4.999999999999955
    vertex 297.30947998422863 47.1675185323419 -4.934941344458821e-14
  endloop
endfacet
facet normal 0.9914448613738039 0.13052619222010028 0.0
  outer loop
    vertex 297.30947998422863 47.1675185323419 4.999999999999955
    vertex 297.2583687236622 47.555747099995685 -4.934941344458821e-14
    vertex 297.2583687236622 47.555747099995685 4.999999999999955
  endloop
endfacet
facet normal 0.9914448613738039 -0.13052619222010028 0.0
  outer loop
    vertex 297.30947998422863 47.94397566764947 -4.934941344458821e-14
    vertex 297.2583687236622 47.555747099995685 4.999999999999955
    vertex 297.2583687236622 47.555747099995685 -4.934941344458821e-14
  endloop
endfacet
facet normal 0.9914448613738039 -0.13052619222010028 0.0
  outer loop
    vertex 297.2583687236622 47.555747099995685 4.999999999999955
    vertex 297.30947998422863 47.94397566764947 -4.934941344458821e-14
    vertex 297.30947998422863 47.94397566764947 4.999999999999955
  endloop
endfacet
facet normal 0.6087614290087033 0.7933533402912485 0.0
  outer loop
    vertex 297.6977085518824 46.49508692821585 4.999999999999955
    vertex 298.0083687236622 46.25670899431901 -4.934941344458821e-14
    vertex 297.6977085518824 46.49508692821585 -4.934941344458821e-14
  endloop
endfacet
facet normal 0.6087614290087033 0.7933533402912485 0.0
  outer loop
    vertex 298.0083687236622 46.25670899431901 -4.934941344458821e-14
    vertex 297.6977085518824 46.49508692821585 4.999999999999955
    vertex 298.0083687236622 46.25670899431901 4.999999999999955
  endloop
endfacet
facet normal -0.3826834323651033 0.9238795325112812 0.0
  outer loop
    vertex 299.146597291316 46.106858360562065 4.999999999999955
    vertex 299.5083687236623 46.25670899431901 -4.934941344458821e-14
    vertex 299.146597291316 46.106858360562065 -4.934941344458821e-14
  endloop
endfacet
facet normal -0.3826834323651033 0.9238795325112812 0.0
  outer loop
    vertex 299.5083687236623 46.25670899431901 -4.934941344458821e-14
    vertex 299.146597291316 46.106858360562065 4.999999999999955
    vertex 299.5083687236623 46.25670899431901 4.999999999999955
  endloop
endfacet
facet normal 0.9238795325113027 0.38268343236505115 0.0
  outer loop
    vertex 297.30947998422863 47.1675185323419 -4.934941344458821e-14
    vertex 297.4593306179856 46.80574709999568 4.999999999999955
    vertex 297.4593306179856 46.80574709999568 -4.934941344458821e-14
  endloop
endfacet
facet normal 0.9238795325113027 0.38268343236505115 0.0
  outer loop
    vertex 297.4593306179856 46.80574709999568 4.999999999999955
    vertex 297.30947998422863 47.1675185323419 -4.934941344458821e-14
    vertex 297.30947998422863 47.1675185323419 4.999999999999955
  endloop
endfacet
facet normal 0.9238795325113027 -0.38268343236505115 0.0
  outer loop
    vertex 297.4593306179856 48.30574709999569 -4.934941344458821e-14
    vertex 297.30947998422863 47.94397566764947 4.999999999999955
    vertex 297.30947998422863 47.94397566764947 -4.934941344458821e-14
  endloop
endfacet
facet normal 0.9238795325113027 -0.38268343236505115 0.0
  outer loop
    vertex 297.30947998422863 47.94397566764947 4.999999999999955
    vertex 297.4593306179856 48.30574709999569 -4.934941344458821e-14
    vertex 297.4593306179856 48.30574709999569 4.999999999999955
  endloop
endfacet
facet normal 0.7933533402912517 0.6087614290086991 0.0
  outer loop
    vertex 297.4593306179856 46.80574709999568 -4.934941344458821e-14
    vertex 297.6977085518824 46.49508692821585 4.999999999999955
    vertex 297.6977085518824 46.49508692821585 -4.934941344458821e-14
  endloop
endfacet
facet normal 0.7933533402912517 0.6087614290086991 0.0
  outer loop
    vertex 297.6977085518824 46.49508692821585 4.999999999999955
    vertex 297.4593306179856 46.80574709999568 -4.934941344458821e-14
    vertex 297.4593306179856 46.80574709999568 4.999999999999955
  endloop
endfacet
facet normal -0.7933533402912374 0.6087614290087178 0.0
  outer loop
    vertex 275.651767005864 58.16234881779391 4.999999999999955
    vertex 273.26798766689564 55.05574709999569 -4.511946372076636e-14
    vertex 273.26798766689564 55.05574709999569 4.999999999999955
  endloop
endfacet
facet normal -0.7933533402912374 0.6087614290087178 0.0
  outer loop
    vertex 273.26798766689564 55.05574709999569 -4.511946372076636e-14
    vertex 275.651767005864 58.16234881779391 4.999999999999955
    vertex 275.651767005864 58.16234881779391 -4.511946372076636e-14
  endloop
endfacet
facet normal 0.3826834323650902 -0.9238795325112866 0.0
  outer loop
    vertex 293.7583687236622 34.565366043229076 2.999999999999955
    vertex 290.14065440020005 33.06685970565964 -4.511946372076636e-14
    vertex 293.7583687236622 34.565366043229076 -4.511946372076636e-14
  endloop
endfacet
facet normal 0.3826834323650902 -0.9238795325112866 0.0
  outer loop
    vertex 290.14065440020005 33.06685970565964 -4.511946372076636e-14
    vertex 293.7583687236622 34.565366043229076 2.999999999999955
    vertex 290.14065440020005 33.06685970565964 2.999999999999955
  endloop
endfacet
facet normal 0.13052619222004969 -0.9914448613738106 0.0
  outer loop
    vertex 290.14065440020005 33.06685970565964 2.999999999999955
    vertex 286.2583687236622 32.55574709999566 -4.511946372076636e-14
    vertex 290.14065440020005 33.06685970565964 -4.511946372076636e-14
  endloop
endfacet
facet normal 0.13052619222004969 -0.9914448613738106 0.0
  outer loop
    vertex 286.2583687236622 32.55574709999566 -4.511946372076636e-14
    vertex 290.14065440020005 33.06685970565964 2.999999999999955
    vertex 286.2583687236622 32.55574709999566 2.999999999999955
  endloop
endfacet
facet normal -0.13052619222005252 -0.9914448613738103 -0.0
  outer loop
    vertex 286.2583687236622 32.55574709999566 2.999999999999955
    vertex 282.3760830471244 33.066859705659645 -4.511946372076636e-14
    vertex 286.2583687236622 32.55574709999566 -4.511946372076636e-14
  endloop
endfacet
facet normal -0.13052619222005252 -0.9914448613738103 -0.0
  outer loop
    vertex 282.3760830471244 33.066859705659645 -4.511946372076636e-14
    vertex 286.2583687236622 32.55574709999566 2.999999999999955
    vertex 282.3760830471244 33.066859705659645 2.999999999999955
  endloop
endfacet
facet normal -0.3826834323650902 -0.9238795325112866 -0.0
  outer loop
    vertex 282.3760830471244 33.066859705659645 2.999999999999955
    vertex 278.7583687236622 34.56536604322909 -4.511946372076636e-14
    vertex 282.3760830471244 33.066859705659645 -4.511946372076636e-14
  endloop
endfacet
facet normal -0.3826834323650902 -0.9238795325112866 -0.0
  outer loop
    vertex 278.7583687236622 34.56536604322909 -4.511946372076636e-14
    vertex 282.3760830471244 33.066859705659645 2.999999999999955
    vertex 278.7583687236622 34.56536604322909 2.999999999999955
  endloop
endfacet
facet normal -0.7933533402912368 -0.6087614290087184 0.0
  outer loop
    vertex 273.26798766689564 40.05574709999568 4.999999999999955
    vertex 275.651767005864 36.949145382197464 -4.511946372076636e-14
    vertex 275.651767005864 36.949145382197464 4.999999999999955
  endloop
endfacet
facet normal -0.7933533402912368 -0.6087614290087184 0.0
  outer loop
    vertex 275.651767005864 36.949145382197464 -4.511946372076636e-14
    vertex 273.26798766689564 40.05574709999568 4.999999999999955
    vertex 273.26798766689564 40.05574709999568 -4.511946372076636e-14
  endloop
endfacet
facet normal 0.60876142900872 -0.7933533402912356 0.0
  outer loop
    vertex 296.86497044146046 36.94914538219746 4.999999999999955
    vertex 293.7583687236622 34.565366043229076 -4.511946372076636e-14
    vertex 296.86497044146046 36.94914538219746 -4.511946372076636e-14
  endloop
endfacet
facet normal 0.60876142900872 -0.7933533402912356 0.0
  outer loop
    vertex 293.7583687236622 34.565366043229076 -4.511946372076636e-14
    vertex 296.86497044146046 36.94914538219746 4.999999999999955
    vertex 293.7583687236622 34.565366043229076 2.999999999999955
  endloop
endfacet
facet normal 0.60876142900872 -0.7933533402912356 0.0
  outer loop
    vertex 293.7583687236622 34.565366043229076 2.999999999999955
    vertex 296.86497044146046 36.94914538219746 4.999999999999955
    vertex 293.7583687236622 34.565366043229076 4.999999999999955
  endloop
endfacet
facet normal -0.13052619222004969 0.9914448613738106 0.0
  outer loop
    vertex 282.3760830471244 62.04463449433173 2.999999999999955
    vertex 286.2583687236622 62.5557470999957 -4.511946372076636e-14
    vertex 282.3760830471244 62.04463449433173 -4.511946372076636e-14
  endloop
endfacet
facet normal -0.13052619222004969 0.9914448613738106 0.0
  outer loop
    vertex 286.2583687236622 62.5557470999957 -4.511946372076636e-14
    vertex 282.3760830471244 62.04463449433173 2.999999999999955
    vertex 286.2583687236622 62.5557470999957 2.999999999999955
  endloop
endfacet
facet normal -0.60876142900872 -0.7933533402912356 -0.0
  outer loop
    vertex 278.7583687236622 34.56536604322909 2.999999999999955
    vertex 275.651767005864 36.949145382197464 -4.511946372076636e-14
    vertex 278.7583687236622 34.56536604322909 -4.511946372076636e-14
  endloop
endfacet
facet normal -0.60876142900872 -0.7933533402912356 -0.0
  outer loop
    vertex 275.651767005864 36.949145382197464 -4.511946372076636e-14
    vertex 278.7583687236622 34.56536604322909 2.999999999999955
    vertex 275.651767005864 36.949145382197464 4.999999999999955
  endloop
endfacet
facet normal -0.60876142900872 -0.7933533402912356 -0.0
  outer loop
    vertex 275.651767005864 36.949145382197464 4.999999999999955
    vertex 278.7583687236622 34.56536604322909 2.999999999999955
    vertex 278.7583687236622 34.56536604322909 4.999999999999955
  endloop
endfacet
facet normal 0.13052619222004969 0.9914448613738106 0.0
  outer loop
    vertex 286.2583687236622 62.5557470999957 2.999999999999955
    vertex 290.14065440020005 62.04463449433173 -4.511946372076636e-14
    vertex 286.2583687236622 62.5557470999957 -4.511946372076636e-14
  endloop
endfacet
facet normal 0.13052619222004969 0.9914448613738106 0.0
  outer loop
    vertex 290.14065440020005 62.04463449433173 -4.511946372076636e-14
    vertex 286.2583687236622 62.5557470999957 2.999999999999955
    vertex 290.14065440020005 62.04463449433173 2.999999999999955
  endloop
endfacet
facet normal 0.6087614290087182 0.7933533402912372 0.0
  outer loop
    vertex 293.7583687236622 60.54612815676228 2.999999999999955
    vertex 296.86497044146046 58.16234881779391 -4.511946372076636e-14
    vertex 293.7583687236622 60.54612815676228 -4.511946372076636e-14
  endloop
endfacet
facet normal 0.6087614290087182 0.7933533402912372 0.0
  outer loop
    vertex 296.86497044146046 58.16234881779391 -4.511946372076636e-14
    vertex 293.7583687236622 60.54612815676228 2.999999999999955
    vertex 296.86497044146046 58.16234881779391 4.999999999999955
  endloop
endfacet
facet normal 0.6087614290087182 0.7933533402912372 0.0
  outer loop
    vertex 296.86497044146046 58.16234881779391 4.999999999999955
    vertex 293.7583687236622 60.54612815676228 2.999999999999955
    vertex 293.7583687236622 60.54612815676228 4.999999999999955
  endloop
endfacet
facet normal 0.7933533402912374 0.6087614290087178 0.0
  outer loop
    vertex 296.86497044146046 58.16234881779391 -4.511946372076636e-14
    vertex 299.24874978042885 55.05574709999569 4.999999999999955
    vertex 299.24874978042885 55.05574709999569 -4.511946372076636e-14
  endloop
endfacet
facet normal 0.7933533402912374 0.6087614290087178 0.0
  outer loop
    vertex 299.24874978042885 55.05574709999569 4.999999999999955
    vertex 296.86497044146046 58.16234881779391 -4.511946372076636e-14
    vertex 296.86497044146046 58.16234881779391 4.999999999999955
  endloop
endfacet
facet normal -0.6087614290087182 0.7933533402912372 0.0
  outer loop
    vertex 275.651767005864 58.16234881779391 4.999999999999955
    vertex 278.7583687236622 60.54612815676228 -4.511946372076636e-14
    vertex 275.651767005864 58.16234881779391 -4.511946372076636e-14
  endloop
endfacet
facet normal -0.6087614290087182 0.7933533402912372 0.0
  outer loop
    vertex 278.7583687236622 60.54612815676228 -4.511946372076636e-14
    vertex 275.651767005864 58.16234881779391 4.999999999999955
    vertex 278.7583687236622 60.54612815676228 2.999999999999955
  endloop
endfacet
facet normal -0.6087614290087182 0.7933533402912372 0.0
  outer loop
    vertex 278.7583687236622 60.54612815676228 2.999999999999955
    vertex 275.651767005864 58.16234881779391 4.999999999999955
    vertex 278.7583687236622 60.54612815676228 4.999999999999955
  endloop
endfacet
facet normal -0.3826834323650927 0.9238795325112856 0.0
  outer loop
    vertex 278.7583687236622 60.54612815676228 2.999999999999955
    vertex 282.3760830471244 62.04463449433173 -4.511946372076636e-14
    vertex 278.7583687236622 60.54612815676228 -4.511946372076636e-14
  endloop
endfacet
facet normal -0.3826834323650927 0.9238795325112856 0.0
  outer loop
    vertex 282.3760830471244 62.04463449433173 -4.511946372076636e-14
    vertex 278.7583687236622 60.54612815676228 2.999999999999955
    vertex 282.3760830471244 62.04463449433173 2.999999999999955
  endloop
endfacet
facet normal 0.3826834323650927 0.9238795325112856 0.0
  outer loop
    vertex 290.14065440020005 62.04463449433173 2.999999999999955
    vertex 293.7583687236622 60.54612815676228 -4.511946372076636e-14
    vertex 290.14065440020005 62.04463449433173 -4.511946372076636e-14
  endloop
endfacet
facet normal 0.3826834323650927 0.9238795325112856 0.0
  outer loop
    vertex 293.7583687236622 60.54612815676228 -4.511946372076636e-14
    vertex 290.14065440020005 62.04463449433173 2.999999999999955
    vertex 293.7583687236622 60.54612815676228 2.999999999999955
  endloop
endfacet
facet normal -1.0 0.0 0.0
  outer loop
    vertex 270.26798766689564 55.05574709999569 4.999999999999963
    vertex 270.26798766689564 40.05574709999568 -4.511946372076636e-14
    vertex 270.26798766689564 40.05574709999568 4.999999999999963
  endloop
endfacet
facet normal -1.0 0.0 0.0
  outer loop
    vertex 270.26798766689564 40.05574709999568 -4.511946372076636e-14
    vertex 270.26798766689564 55.05574709999569 4.999999999999963
    vertex 270.26798766689564 55.05574709999569 -4.511946372076636e-14
  endloop
endfacet
facet normal 0.0 1.0 0.0
  outer loop
    vertex 270.26798766689564 55.05574709999569 4.999999999999963
    vertex 273.26798766689564 55.05574709999569 -4.511946372076636e-14
    vertex 270.26798766689564 55.05574709999569 -4.511946372076636e-14
  endloop
endfacet
facet normal 0.0 1.0 0.0
  outer loop
    vertex 273.26798766689564 55.05574709999569 -4.511946372076636e-14
    vertex 270.26798766689564 55.05574709999569 4.999999999999963
    vertex 273.26798766689564 55.05574709999569 4.999999999999955
  endloop
endfacet
facet normal 8.4126092356076905e-16 2.4178267668687077e-32 1.0
  outer loop
    vertex 273.26798766689564 40.05574709999568 4.999999999999955
    vertex 270.26798766689564 55.05574709999569 4.999999999999963
    vertex 270.26798766689564 40.05574709999568 4.999999999999963
  endloop
endfacet
facet normal 8.4126092356076905e-16 2.4178267668687077e-32 1.0
  outer loop
    vertex 270.26798766689564 55.05574709999569 4.999999999999963
    vertex 273.26798766689564 40.05574709999568 4.999999999999955
    vertex 272.30947998422863 47.167518532341894 4.999999999999955
  endloop
endfacet
facet normal 8.4126092356076905e-16 2.4178267668687077e-32 1.0
  outer loop
    vertex 270.26798766689564 55.05574709999569 4.999999999999963
    vertex 272.30947998422863 47.167518532341894 4.999999999999955
    vertex 272.2583687236622 47.555747099995685 4.999999999999955
  endloop
endfacet
facet normal 8.4126092356076905e-16 2.4178267668687077e-32 1.0
  outer loop
    vertex 272.30947998422863 47.167518532341894 4.999999999999955
    vertex 273.26798766689564 40.05574709999568 4.999999999999955
    vertex 272.4593306179856 46.80574709999568 4.999999999999955
  endloop
endfacet
facet normal 8.4126092356076905e-16 2.4178267668687077e-32 1.0
  outer loop
    vertex 272.4593306179856 46.80574709999568 4.999999999999955
    vertex 273.26798766689564 40.05574709999568 4.999999999999955
    vertex 272.6977085518824 46.49508692821585 4.999999999999955
  endloop
endfacet
facet normal 8.4126092356076905e-16 2.4178267668687077e-32 1.0
  outer loop
    vertex 272.6977085518824 46.49508692821585 4.999999999999955
    vertex 273.26798766689564 40.05574709999568 4.999999999999955
    vertex 273.0083687236622 46.25670899431901 4.999999999999955
  endloop
endfacet
facet normal 8.4126092356076905e-16 2.4178267668687077e-32 1.0
  outer loop
    vertex 273.0083687236622 46.25670899431901 4.999999999999955
    vertex 273.26798766689564 40.05574709999568 4.999999999999955
    vertex 273.37014015600846 46.106858360562065 4.999999999999955
  endloop
endfacet
facet normal 8.4126092356076905e-16 2.4178267668687077e-32 1.0
  outer loop
    vertex 273.37014015600846 46.106858360562065 4.999999999999955
    vertex 273.26798766689564 40.05574709999568 4.999999999999955
    vertex 275.651767005864 36.949145382197464 4.999999999999955
  endloop
endfacet
facet normal 8.4126092356076905e-16 2.4178267668687077e-32 1.0
  outer loop
    vertex 273.37014015600846 46.106858360562065 4.999999999999955
    vertex 275.651767005864 36.949145382197464 4.999999999999955
    vertex 273.7583687236622 46.05574709999566 4.999999999999955
  endloop
endfacet
facet normal 8.4126092356076905e-16 2.4178267668687077e-32 1.0
  outer loop
    vertex 273.7583687236622 46.05574709999566 4.999999999999955
    vertex 275.651767005864 36.949145382197464 4.999999999999955
    vertex 274.146597291316 46.106858360562065 4.999999999999955
  endloop
endfacet
facet normal 8.4126092356076905e-16 2.4178267668687077e-32 1.0
  outer loop
    vertex 274.146597291316 46.106858360562065 4.999999999999955
    vertex 275.651767005864 36.949145382197464 4.999999999999955
    vertex 274.5083687236623 46.25670899431901 4.999999999999955
  endloop
endfacet
facet normal 8.4126092356076905e-16 2.4178267668687077e-32 1.0
  outer loop
    vertex 274.5083687236623 46.25670899431901 4.999999999999955
    vertex 275.651767005864 36.949145382197464 4.999999999999955
    vertex 274.8190288954421 46.49508692821585 4.999999999999955
  endloop
endfacet
facet normal 8.4126092356076905e-16 2.4178267668687077e-32 1.0
  outer loop
    vertex 274.8190288954421 46.49508692821585 4.999999999999955
    vertex 275.651767005864 36.949145382197464 4.999999999999955
    vertex 275.0574068293389 46.80574709999568 4.999999999999955
  endloop
endfacet
facet normal 8.4126092356076905e-16 2.4178267668687077e-32 1.0
  outer loop
    vertex 275.0574068293389 46.80574709999568 4.999999999999955
    vertex 275.651767005864 36.949145382197464 4.999999999999955
    vertex 275.20725746309586 47.1675185323419 4.999999999999955
  endloop
endfacet
facet normal 8.4126092356076905e-16 2.4178267668687077e-32 1.0
  outer loop
    vertex 275.20725746309586 47.1675185323419 4.999999999999955
    vertex 275.651767005864 36.949145382197464 4.999999999999955
    vertex 275.2583687236623 47.555747099995685 4.999999999999955
  endloop
endfacet
facet normal 8.4126092356076905e-16 2.4178267668687077e-32 1.0
  outer loop
    vertex 270.26798766689564 55.05574709999569 4.999999999999963
    vertex 272.30947998422863 47.94397566764947 4.999999999999955
    vertex 273.26798766689564 55.05574709999569 4.999999999999955
  endloop
endfacet
facet normal 8.4126092356076905e-16 2.4178267668687077e-32 1.0
  outer loop
    vertex 272.30947998422863 47.94397566764947 4.999999999999955
    vertex 270.26798766689564 55.05574709999569 4.999999999999963
    vertex 272.2583687236622 47.555747099995685 4.999999999999955
  endloop
endfacet
facet normal 8.4126092356076905e-16 2.4178267668687077e-32 1.0
  outer loop
    vertex 273.26798766689564 55.05574709999569 4.999999999999955
    vertex 272.30947998422863 47.94397566764947 4.999999999999955
    vertex 272.4593306179856 48.30574709999569 4.999999999999955
  endloop
endfacet
facet normal 8.4126092356076905e-16 2.4178267668687077e-32 1.0
  outer loop
    vertex 273.26798766689564 55.05574709999569 4.999999999999955
    vertex 272.4593306179856 48.30574709999569 4.999999999999955
    vertex 272.6977085518824 48.61640727177552 4.999999999999955
  endloop
endfacet
facet normal 8.4126092356076905e-16 2.4178267668687077e-32 1.0
  outer loop
    vertex 273.26798766689564 55.05574709999569 4.999999999999955
    vertex 272.6977085518824 48.61640727177552 4.999999999999955
    vertex 273.0083687236622 48.85478520567236 4.999999999999955
  endloop
endfacet
facet normal 8.4126092356076905e-16 2.4178267668687077e-32 1.0
  outer loop
    vertex 273.26798766689564 55.05574709999569 4.999999999999955
    vertex 273.0083687236622 48.85478520567236 4.999999999999955
    vertex 273.37014015600846 49.004635839429305 4.999999999999955
  endloop
endfacet
facet normal 8.4126092356076905e-16 2.4178267668687077e-32 1.0
  outer loop
    vertex 273.26798766689564 55.05574709999569 4.999999999999955
    vertex 273.37014015600846 49.004635839429305 4.999999999999955
    vertex 275.651767005864 58.16234881779391 4.999999999999955
  endloop
endfacet
facet normal 8.4126092356076905e-16 2.4178267668687077e-32 1.0
  outer loop
    vertex 275.651767005864 58.16234881779391 4.999999999999955
    vertex 273.37014015600846 49.004635839429305 4.999999999999955
    vertex 273.7583687236622 49.055747099995706 4.999999999999955
  endloop
endfacet
facet normal 8.4126092356076905e-16 2.4178267668687077e-32 1.0
  outer loop
    vertex 275.651767005864 58.16234881779391 4.999999999999955
    vertex 273.7583687236622 49.055747099995706 4.999999999999955
    vertex 274.146597291316 49.004635839429305 4.999999999999955
  endloop
endfacet
facet normal 8.4126092356076905e-16 2.4178267668687077e-32 1.0
  outer loop
    vertex 275.651767005864 58.16234881779391 4.999999999999955
    vertex 274.146597291316 49.004635839429305 4.999999999999955
    vertex 274.5083687236623 48.85478520567236 4.999999999999955
  endloop
endfacet
facet normal 8.4126092356076905e-16 2.4178267668687077e-32 1.0
  outer loop
    vertex 275.651767005864 58.16234881779391 4.999999999999955
    vertex 274.5083687236623 48.85478520567236 4.999999999999955
    vertex 274.8190288954421 48.61640727177552 4.999999999999955
  endloop
endfacet
facet normal 8.4126092356076905e-16 2.4178267668687077e-32 1.0
  outer loop
    vertex 275.651767005864 58.16234881779391 4.999999999999955
    vertex 274.8190288954421 48.61640727177552 4.999999999999955
    vertex 275.0574068293389 48.30574709999569 4.999999999999955
  endloop
endfacet
facet normal 8.4126092356076905e-16 2.4178267668687077e-32 1.0
  outer loop
    vertex 275.651767005864 58.16234881779391 4.999999999999955
    vertex 275.0574068293389 48.30574709999569 4.999999999999955
    vertex 275.20725746309586 47.94397566764947 4.999999999999955
  endloop
endfacet
facet normal 8.4126092356076905e-16 2.4178267668687077e-32 1.0
  outer loop
    vertex 275.651767005864 58.16234881779391 4.999999999999955
    vertex 275.20725746309586 47.94397566764947 4.999999999999955
    vertex 275.2583687236623 47.555747099995685 4.999999999999955
  endloop
endfacet
facet normal 8.4126092356076905e-16 2.4178267668687077e-32 1.0
  outer loop
    vertex 275.651767005864 58.16234881779391 4.999999999999955
    vertex 275.2583687236623 47.555747099995685 4.999999999999955
    vertex 275.651767005864 36.949145382197464 4.999999999999955
  endloop
endfacet
facet normal 8.4126092356076905e-16 2.4178267668687077e-32 1.0
  outer loop
    vertex 275.651767005864 58.16234881779391 4.999999999999955
    vertex 275.651767005864 36.949145382197464 4.999999999999955
    vertex 278.7583687236622 34.56536604322909 4.999999999999955
  endloop
endfacet
facet normal 8.4126092356076905e-16 2.4178267668687077e-32 1.0
  outer loop
    vertex 275.651767005864 58.16234881779391 4.999999999999955
    vertex 278.7583687236622 34.56536604322909 4.999999999999955
    vertex 278.7583687236622 60.54612815676228 4.999999999999955
  endloop
endfacet
facet normal 0.0 -1.0 0.0
  outer loop
    vertex 273.26798766689564 40.05574709999568 4.999999999999955
    vertex 270.26798766689564 40.05574709999568 -4.511946372076636e-14
    vertex 273.26798766689564 40.05574709999568 -4.511946372076636e-14
  endloop
endfacet
facet normal 0.0 -1.0 0.0
  outer loop
    vertex 270.26798766689564 40.05574709999568 -4.511946372076636e-14
    vertex 273.26798766689564 40.05574709999568 4.999999999999955
    vertex 270.26798766689564 40.05574709999568 4.999999999999963
  endloop
endfacet
facet normal 0.0 0.0 -1.0
  outer loop
    vertex 270.26798766689564 40.05574709999568 -4.511946372076636e-14
    vertex 272.30947998422863 47.167518532341894 -4.6529446962040307e-14
    vertex 273.26798766689564 40.05574709999568 -4.511946372076636e-14
  endloop
endfacet
facet normal 0.0 0.0 -1.0
  outer loop
    vertex 272.30947998422863 47.167518532341894 -4.6529446962040307e-14
    vertex 270.26798766689564 40.05574709999568 -4.511946372076636e-14
    vertex 272.2583687236622 47.555747099995685 -4.6529446962040307e-14
  endloop
endfacet
facet normal 0.0 0.0 -1.0
  outer loop
    vertex 273.26798766689564 40.05574709999568 -4.511946372076636e-14
    vertex 272.30947998422863 47.167518532341894 -4.6529446962040307e-14
    vertex 272.4593306179856 46.80574709999568 -4.6529446962040307e-14
  endloop
endfacet
facet normal 0.0 0.0 -1.0
  outer loop
    vertex 273.26798766689564 40.05574709999568 -4.511946372076636e-14
    vertex 272.4593306179856 46.80574709999568 -4.6529446962040307e-14
    vertex 272.6977085518824 46.49508692821585 -4.6529446962040307e-14
  endloop
endfacet
facet normal 0.0 0.0 -1.0
  outer loop
    vertex 273.26798766689564 40.05574709999568 -4.511946372076636e-14
    vertex 272.6977085518824 46.49508692821585 -4.6529446962040307e-14
    vertex 273.0083687236622 46.25670899431901 -4.6529446962040307e-14
  endloop
endfacet
facet normal 0.0 0.0 -1.0
  outer loop
    vertex 273.26798766689564 40.05574709999568 -4.511946372076636e-14
    vertex 273.0083687236622 46.25670899431901 -4.6529446962040307e-14
    vertex 273.37014015600846 46.106858360562065 -4.6529446962040307e-14
  endloop
endfacet
facet normal 0.0 0.0 -1.0
  outer loop
    vertex 273.26798766689564 40.05574709999568 -4.511946372076636e-14
    vertex 273.37014015600846 46.106858360562065 -4.6529446962040307e-14
    vertex 275.651767005864 36.949145382197464 -4.511946372076636e-14
  endloop
endfacet
facet normal 0.0 0.0 -1.0
  outer loop
    vertex 275.651767005864 36.949145382197464 -4.511946372076636e-14
    vertex 273.37014015600846 46.106858360562065 -4.6529446962040307e-14
    vertex 273.7583687236622 46.05574709999566 -4.6529446962040307e-14
  endloop
endfacet
facet normal 0.0 0.0 -1.0
  outer loop
    vertex 275.651767005864 36.949145382197464 -4.511946372076636e-14
    vertex 273.7583687236622 46.05574709999566 -4.6529446962040307e-14
    vertex 274.146597291316 46.106858360562065 -4.6529446962040307e-14
  endloop
endfacet
facet normal 0.0 0.0 -1.0
  outer loop
    vertex 275.651767005864 36.949145382197464 -4.511946372076636e-14
    vertex 274.146597291316 46.106858360562065 -4.6529446962040307e-14
    vertex 274.5083687236623 46.25670899431901 -4.6529446962040307e-14
  endloop
endfacet
facet normal 0.0 0.0 -1.0
  outer loop
    vertex 275.651767005864 36.949145382197464 -4.511946372076636e-14
    vertex 274.5083687236623 46.25670899431901 -4.6529446962040307e-14
    vertex 274.8190288954421 46.49508692821585 -4.6529446962040307e-14
  endloop
endfacet
facet normal 0.0 0.0 -1.0
  outer loop
    vertex 275.651767005864 36.949145382197464 -4.511946372076636e-14
    vertex 274.8190288954421 46.49508692821585 -4.6529446962040307e-14
    vertex 275.0574068293389 46.80574709999568 -4.6529446962040307e-14
  endloop
endfacet
facet normal 0.0 0.0 -1.0
  outer loop
    vertex 275.651767005864 36.949145382197464 -4.511946372076636e-14
    vertex 275.0574068293389 46.80574709999568 -4.6529446962040307e-14
    vertex 275.20725746309586 47.1675185323419 -4.6529446962040307e-14
  endloop
endfacet
facet normal 0.0 0.0 -1.0
  outer loop
    vertex 275.651767005864 36.949145382197464 -4.511946372076636e-14
    vertex 275.20725746309586 47.1675185323419 -4.6529446962040307e-14
    vertex 275.2583687236623 47.555747099995685 -4.6529446962040307e-14
  endloop
endfacet
facet normal 0.0 0.0 -1.0
  outer loop
    vertex 275.651767005864 36.949145382197464 -4.511946372076636e-14
    vertex 275.2583687236623 47.555747099995685 -4.6529446962040307e-14
    vertex 275.651767005864 58.16234881779391 -4.511946372076636e-14
  endloop
endfacet
facet normal 0.0 0.0 -1.0
  outer loop
    vertex 275.651767005864 36.949145382197464 -4.511946372076636e-14
    vertex 275.651767005864 58.16234881779391 -4.511946372076636e-14
    vertex 278.7583687236622 60.54612815676228 -4.511946372076636e-14
  endloop
endfacet
facet normal 0.0 0.0 -1.0
  outer loop
    vertex 275.651767005864 36.949145382197464 -4.511946372076636e-14
    vertex 278.7583687236622 60.54612815676228 -4.511946372076636e-14
    vertex 278.7583687236622 34.56536604322909 -4.511946372076636e-14
  endloop
endfacet
facet normal 0.0 0.0 -1.0
  outer loop
    vertex 278.7583687236622 34.56536604322909 -4.511946372076636e-14
    vertex 278.7583687236622 60.54612815676228 -4.511946372076636e-14
    vertex 282.3760830471244 62.04463449433173 -4.511946372076636e-14
  endloop
endfacet
facet normal 0.0 0.0 -1.0
  outer loop
    vertex 278.7583687236622 34.56536604322909 -4.511946372076636e-14
    vertex 282.3760830471244 62.04463449433173 -4.511946372076636e-14
    vertex 282.3760830471244 33.066859705659645 -4.511946372076636e-14
  endloop
endfacet
facet normal 0.0 0.0 -1.0
  outer loop
    vertex 282.3760830471244 33.066859705659645 -4.511946372076636e-14
    vertex 282.3760830471244 62.04463449433173 -4.511946372076636e-14
    vertex 286.2583687236622 62.5557470999957 -4.511946372076636e-14
  endloop
endfacet
facet normal 0.0 0.0 -1.0
  outer loop
    vertex 282.3760830471244 33.066859705659645 -4.511946372076636e-14
    vertex 286.2583687236622 62.5557470999957 -4.511946372076636e-14
    vertex 286.2583687236622 32.55574709999566 -4.511946372076636e-14
  endloop
endfacet
facet normal 0.0 0.0 -1.0
  outer loop
    vertex 286.2583687236622 32.55574709999566 -4.511946372076636e-14
    vertex 286.2583687236622 62.5557470999957 -4.511946372076636e-14
    vertex 290.14065440020005 62.04463449433173 -4.511946372076636e-14
  endloop
endfacet
facet normal 0.0 0.0 -1.0
  outer loop
    vertex 286.2583687236622 32.55574709999566 -4.511946372076636e-14
    vertex 290.14065440020005 62.04463449433173 -4.511946372076636e-14
    vertex 290.14065440020005 33.06685970565964 -4.511946372076636e-14
  endloop
endfacet
facet normal 0.0 0.0 -1.0
  outer loop
    vertex 290.14065440020005 33.06685970565964 -4.511946372076636e-14
    vertex 290.14065440020005 62.04463449433173 -4.511946372076636e-14
    vertex 293.7583687236622 60.54612815676228 -4.511946372076636e-14
  endloop
endfacet
facet normal 0.0 0.0 -1.0
  outer loop
    vertex 290.14065440020005 33.06685970565964 -4.511946372076636e-14
    vertex 293.7583687236622 60.54612815676228 -4.511946372076636e-14
    vertex 293.7583687236622 34.565366043229076 -4.511946372076636e-14
  endloop
endfacet
facet normal 0.0 0.0 -1.0
  outer loop
    vertex 293.7583687236622 34.565366043229076 -4.511946372076636e-14
    vertex 293.7583687236622 60.54612815676228 -4.511946372076636e-14
    vertex 296.86497044146046 58.16234881779391 -4.511946372076636e-14
  endloop
endfacet
facet normal 0.0 0.0 -1.0
  outer loop
    vertex 293.7583687236622 34.565366043229076 -4.511946372076636e-14
    vertex 296.86497044146046 58.16234881779391 -4.511946372076636e-14
    vertex 296.86497044146046 36.94914538219746 -4.511946372076636e-14
  endloop
endfacet
facet normal 0.0 0.0 -1.0
  outer loop
    vertex 296.86497044146046 36.94914538219746 -4.511946372076636e-14
    vertex 296.86497044146046 58.16234881779391 -4.511946372076636e-14
    vertex 297.2583687236622 47.555747099995685 -4.934941344458821e-14
  endloop
endfacet
facet normal 0.0 0.0 -1.0
  outer loop
    vertex 297.2583687236622 47.555747099995685 -4.934941344458821e-14
    vertex 296.86497044146046 58.16234881779391 -4.511946372076636e-14
    vertex 297.30947998422863 47.94397566764947 -4.934941344458821e-14
  endloop
endfacet
facet normal 0.0 0.0 -1.0
  outer loop
    vertex 297.30947998422863 47.94397566764947 -4.934941344458821e-14
    vertex 296.86497044146046 58.16234881779391 -4.511946372076636e-14
    vertex 299.24874978042885 55.05574709999569 -4.511946372076636e-14
  endloop
endfacet
facet normal 0.0 0.0 -1.0
  outer loop
    vertex 297.30947998422863 47.94397566764947 -4.934941344458821e-14
    vertex 299.24874978042885 55.05574709999569 -4.511946372076636e-14
    vertex 297.4593306179856 48.30574709999569 -4.934941344458821e-14
  endloop
endfacet
facet normal 0.0 0.0 -1.0
  outer loop
    vertex 297.4593306179856 48.30574709999569 -4.934941344458821e-14
    vertex 299.24874978042885 55.05574709999569 -4.511946372076636e-14
    vertex 297.6977085518824 48.61640727177552 -4.934941344458821e-14
  endloop
endfacet
facet normal 0.0 0.0 -1.0
  outer loop
    vertex 297.6977085518824 48.61640727177552 -4.934941344458821e-14
    vertex 299.24874978042885 55.05574709999569 -4.511946372076636e-14
    vertex 298.0083687236622 48.85478520567236 -4.934941344458821e-14
  endloop
endfacet
facet normal 0.0 0.0 -1.0
  outer loop
    vertex 298.0083687236622 48.85478520567236 -4.934941344458821e-14
    vertex 299.24874978042885 55.05574709999569 -4.511946372076636e-14
    vertex 298.37014015600846 49.004635839429305 -4.934941344458821e-14
  endloop
endfacet
facet normal 0.0 0.0 -1.0
  outer loop
    vertex 298.37014015600846 49.004635839429305 -4.934941344458821e-14
    vertex 299.24874978042885 55.05574709999569 -4.511946372076636e-14
    vertex 298.7583687236622 49.055747099995706 -4.934941344458821e-14
  endloop
endfacet
facet normal 0.0 0.0 -1.0
  outer loop
    vertex 298.7583687236622 49.055747099995706 -4.934941344458821e-14
    vertex 299.24874978042885 55.05574709999569 -4.511946372076636e-14
    vertex 299.146597291316 49.004635839429305 -4.934941344458821e-14
  endloop
endfacet
facet normal 0.0 0.0 -1.0
  outer loop
    vertex 299.146597291316 49.004635839429305 -4.934941344458821e-14
    vertex 299.24874978042885 55.05574709999569 -4.511946372076636e-14
    vertex 299.5083687236623 48.85478520567236 -4.934941344458821e-14
  endloop
endfacet
facet normal 0.0 0.0 -1.0
  outer loop
    vertex 299.5083687236623 48.85478520567236 -4.934941344458821e-14
    vertex 299.24874978042885 55.05574709999569 -4.511946372076636e-14
    vertex 302.2487497804288 55.05574709999569 -4.511946372076636e-14
  endloop
endfacet
facet normal 0.0 0.0 -1.0
  outer loop
    vertex 299.5083687236623 48.85478520567236 -4.934941344458821e-14
    vertex 302.2487497804288 55.05574709999569 -4.511946372076636e-14
    vertex 299.8190288954421 48.61640727177552 -4.934941344458821e-14
  endloop
endfacet
facet normal 0.0 0.0 -1.0
  outer loop
    vertex 299.8190288954421 48.61640727177552 -4.934941344458821e-14
    vertex 302.2487497804288 55.05574709999569 -4.511946372076636e-14
    vertex 300.0574068293389 48.30574709999569 -4.934941344458821e-14
  endloop
endfacet
facet normal 0.0 0.0 -1.0
  outer loop
    vertex 300.0574068293389 48.30574709999569 -4.934941344458821e-14
    vertex 302.2487497804288 55.05574709999569 -4.511946372076636e-14
    vertex 300.20725746309586 47.943975667649475 -4.934941344458821e-14
  endloop
endfacet
facet normal 0.0 0.0 -1.0
  outer loop
    vertex 300.20725746309586 47.943975667649475 -4.934941344458821e-14
    vertex 302.2487497804288 55.05574709999569 -4.511946372076636e-14
    vertex 300.2583687236623 47.555747099995685 -4.934941344458821e-14
  endloop
endfacet
facet normal 0.0 0.0 -1.0
  outer loop
    vertex 296.86497044146046 36.94914538219746 -4.511946372076636e-14
    vertex 297.30947998422863 47.1675185323419 -4.934941344458821e-14
    vertex 299.24874978042885 40.05574709999567 -4.511946372076636e-14
  endloop
endfacet
facet normal 0.0 0.0 -1.0
  outer loop
    vertex 297.30947998422863 47.1675185323419 -4.934941344458821e-14
    vertex 296.86497044146046 36.94914538219746 -4.511946372076636e-14
    vertex 297.2583687236622 47.555747099995685 -4.934941344458821e-14
  endloop
endfacet
facet normal 0.0 0.0 -1.0
  outer loop
    vertex 299.24874978042885 40.05574709999567 -4.511946372076636e-14
    vertex 297.30947998422863 47.1675185323419 -4.934941344458821e-14
    vertex 297.4593306179856 46.80574709999568 -4.934941344458821e-14
  endloop
endfacet
facet normal 0.0 0.0 -1.0
  outer loop
    vertex 299.24874978042885 40.05574709999567 -4.511946372076636e-14
    vertex 297.4593306179856 46.80574709999568 -4.934941344458821e-14
    vertex 297.6977085518824 46.49508692821585 -4.934941344458821e-14
  endloop
endfacet
facet normal 0.0 0.0 -1.0
  outer loop
    vertex 299.24874978042885 40.05574709999567 -4.511946372076636e-14
    vertex 297.6977085518824 46.49508692821585 -4.934941344458821e-14
    vertex 298.0083687236622 46.25670899431901 -4.934941344458821e-14
  endloop
endfacet
facet normal 0.0 0.0 -1.0
  outer loop
    vertex 299.24874978042885 40.05574709999567 -4.511946372076636e-14
    vertex 298.0083687236622 46.25670899431901 -4.934941344458821e-14
    vertex 298.37014015600846 46.106858360562065 -4.934941344458821e-14
  endloop
endfacet
facet normal 0.0 0.0 -1.0
  outer loop
    vertex 299.24874978042885 40.05574709999567 -4.511946372076636e-14
    vertex 298.37014015600846 46.106858360562065 -4.934941344458821e-14
    vertex 298.7583687236622 46.05574709999566 -4.934941344458821e-14
  endloop
endfacet
facet normal 0.0 0.0 -1.0
  outer loop
    vertex 299.24874978042885 40.05574709999567 -4.511946372076636e-14
    vertex 298.7583687236622 46.05574709999566 -4.934941344458821e-14
    vertex 299.146597291316 46.106858360562065 -4.934941344458821e-14
  endloop
endfacet
facet normal 0.0 0.0 -1.0
  outer loop
    vertex 299.24874978042885 40.05574709999567 -4.511946372076636e-14
    vertex 299.146597291316 46.106858360562065 -4.934941344458821e-14
    vertex 299.5083687236623 46.25670899431901 -4.934941344458821e-14
  endloop
endfacet
facet normal 0.0 0.0 -1.0
  outer loop
    vertex 299.24874978042885 40.05574709999567 -4.511946372076636e-14
    vertex 299.5083687236623 46.25670899431901 -4.934941344458821e-14
    vertex 302.2487497804288 40.05574709999567 -4.511946372076636e-14
  endloop
endfacet
facet normal 0.0 0.0 -1.0
  outer loop
    vertex 302.2487497804288 40.05574709999567 -4.511946372076636e-14
    vertex 299.5083687236623 46.25670899431901 -4.934941344458821e-14
    vertex 299.8190288954421 46.49508692821585 -4.934941344458821e-14
  endloop
endfacet
facet normal 0.0 0.0 -1.0
  outer loop
    vertex 302.2487497804288 40.05574709999567 -4.511946372076636e-14
    vertex 299.8190288954421 46.49508692821585 -4.934941344458821e-14
    vertex 300.0574068293389 46.80574709999568 -4.934941344458821e-14
  endloop
endfacet
facet normal 0.0 0.0 -1.0
  outer loop
    vertex 302.2487497804288 40.05574709999567 -4.511946372076636e-14
    vertex 300.0574068293389 46.80574709999568 -4.934941344458821e-14
    vertex 300.20725746309586 47.1675185323419 -4.934941344458821e-14
  endloop
endfacet
facet normal 0.0 0.0 -1.0
  outer loop
    vertex 302.2487497804288 40.05574709999567 -4.511946372076636e-14
    vertex 300.20725746309586 47.1675185323419 -4.934941344458821e-14
    vertex 300.2583687236623 47.555747099995685 -4.934941344458821e-14
  endloop
endfacet
facet normal 0.0 0.0 -1.0
  outer loop
    vertex 302.2487497804288 40.05574709999567 -4.511946372076636e-14
    vertex 300.2583687236623 47.555747099995685 -4.934941344458821e-14
    vertex 302.2487497804288 55.05574709999569 -4.511946372076636e-14
  endloop
endfacet
facet normal 0.0 0.0 -1.0
  outer loop
    vertex 273.26798766689564 55.05574709999569 -4.511946372076636e-14
    vertex 270.26798766689564 40.05574709999568 -4.511946372076636e-14
    vertex 270.26798766689564 55.05574709999569 -4.511946372076636e-14
  endloop
endfacet
facet normal 0.0 0.0 -1.0
  outer loop
    vertex 270.26798766689564 40.05574709999568 -4.511946372076636e-14
    vertex 273.26798766689564 55.05574709999569 -4.511946372076636e-14
    vertex 272.30947998422863 47.94397566764947 -4.6529446962040307e-14
  endloop
endfacet
facet normal 0.0 0.0 -1.0
  outer loop
    vertex 270.26798766689564 40.05574709999568 -4.511946372076636e-14
    vertex 272.30947998422863 47.94397566764947 -4.6529446962040307e-14
    vertex 272.2583687236622 47.555747099995685 -4.6529446962040307e-14
  endloop
endfacet
facet normal 0.0 0.0 -1.0
  outer loop
    vertex 272.30947998422863 47.94397566764947 -4.6529446962040307e-14
    vertex 273.26798766689564 55.05574709999569 -4.511946372076636e-14
    vertex 272.4593306179856 48.30574709999569 -4.6529446962040307e-14
  endloop
endfacet
facet normal 0.0 0.0 -1.0
  outer loop
    vertex 272.4593306179856 48.30574709999569 -4.6529446962040307e-14
    vertex 273.26798766689564 55.05574709999569 -4.511946372076636e-14
    vertex 272.6977085518824 48.61640727177552 -4.6529446962040307e-14
  endloop
endfacet
facet normal 0.0 0.0 -1.0
  outer loop
    vertex 272.6977085518824 48.61640727177552 -4.6529446962040307e-14
    vertex 273.26798766689564 55.05574709999569 -4.511946372076636e-14
    vertex 273.0083687236622 48.85478520567236 -4.6529446962040307e-14
  endloop
endfacet
facet normal 0.0 0.0 -1.0
  outer loop
    vertex 273.0083687236622 48.85478520567236 -4.6529446962040307e-14
    vertex 273.26798766689564 55.05574709999569 -4.511946372076636e-14
    vertex 273.37014015600846 49.004635839429305 -4.6529446962040307e-14
  endloop
endfacet
facet normal 0.0 0.0 -1.0
  outer loop
    vertex 273.37014015600846 49.004635839429305 -4.6529446962040307e-14
    vertex 273.26798766689564 55.05574709999569 -4.511946372076636e-14
    vertex 275.651767005864 58.16234881779391 -4.511946372076636e-14
  endloop
endfacet
facet normal 0.0 0.0 -1.0
  outer loop
    vertex 273.37014015600846 49.004635839429305 -4.6529446962040307e-14
    vertex 275.651767005864 58.16234881779391 -4.511946372076636e-14
    vertex 273.7583687236622 49.055747099995706 -4.6529446962040307e-14
  endloop
endfacet
facet normal 0.0 0.0 -1.0
  outer loop
    vertex 273.7583687236622 49.055747099995706 -4.6529446962040307e-14
    vertex 275.651767005864 58.16234881779391 -4.511946372076636e-14
    vertex 274.146597291316 49.004635839429305 -4.6529446962040307e-14
  endloop
endfacet
facet normal 0.0 0.0 -1.0
  outer loop
    vertex 274.146597291316 49.004635839429305 -4.6529446962040307e-14
    vertex 275.651767005864 58.16234881779391 -4.511946372076636e-14
    vertex 274.5083687236623 48.85478520567236 -4.6529446962040307e-14
  endloop
endfacet
facet normal 0.0 0.0 -1.0
  outer loop
    vertex 274.5083687236623 48.85478520567236 -4.6529446962040307e-14
    vertex 275.651767005864 58.16234881779391 -4.511946372076636e-14
    vertex 274.8190288954421 48.61640727177552 -4.6529446962040307e-14
  endloop
endfacet
facet normal 0.0 0.0 -1.0
  outer loop
    vertex 274.8190288954421 48.61640727177552 -4.6529446962040307e-14
    vertex 275.651767005864 58.16234881779391 -4.511946372076636e-14
    vertex 275.0574068293389 48.30574709999569 -4.6529446962040307e-14
  endloop
endfacet
facet normal 0.0 0.0 -1.0
  outer loop
    vertex 275.0574068293389 48.30574709999569 -4.6529446962040307e-14
    vertex 275.651767005864 58.16234881779391 -4.511946372076636e-14
    vertex 275.20725746309586 47.94397566764947 -4.6529446962040307e-14
  endloop
endfacet
facet normal 0.0 0.0 -1.0
  outer loop
    vertex 275.20725746309586 47.94397566764947 -4.6529446962040307e-14
    vertex 275.651767005864 58.16234881779391 -4.511946372076636e-14
    vertex 275.2583687236623 47.555747099995685 -4.6529446962040307e-14
  endloop
endfacet
facet normal 0.0 -1.0 0.0
  outer loop
    vertex 302.2487497804288 40.05574709999567 4.999999999999955
    vertex 299.24874978042885 40.05574709999567 -4.511946372076636e-14
    vertex 302.2487497804288 40.05574709999567 -4.511946372076636e-14
  endloop
endfacet
facet normal 0.0 -1.0 0.0
  outer loop
    vertex 299.24874978042885 40.05574709999567 -4.511946372076636e-14
    vertex 302.2487497804288 40.05574709999567 4.999999999999955
    vertex 299.24874978042885 40.05574709999567 4.999999999999955
  endloop
endfacet
facet normal 0.0 1.0 0.0
  outer loop
    vertex 299.24874978042885 55.05574709999569 4.999999999999955
    vertex 302.2487497804288 55.05574709999569 -4.511946372076636e-14
    vertex 299.24874978042885 55.05574709999569 -4.511946372076636e-14
  endloop
endfacet
facet normal 0.0 1.0 0.0
  outer loop
    vertex 302.2487497804288 55.05574709999569 -4.511946372076636e-14
    vertex 299.24874978042885 55.05574709999569 4.999999999999955
    vertex 302.2487497804288 55.05574709999569 4.999999999999955
  endloop
endfacet
facet normal 0.0 0.0 1.0
  outer loop
    vertex 296.86497044146046 36.94914538219746 4.999999999999955
    vertex 293.7583687236622 60.54612815676228 4.999999999999955
    vertex 293.7583687236622 34.565366043229076 4.999999999999955
  endloop
endfacet
facet normal 0.0 0.0 1.0
  outer loop
    vertex 293.7583687236622 60.54612815676228 4.999999999999955
    vertex 296.86497044146046 36.94914538219746 4.999999999999955
    vertex 296.86497044146046 58.16234881779391 4.999999999999955
  endloop
endfacet
facet normal 0.0 0.0 1.0
  outer loop
    vertex 296.86497044146046 58.16234881779391 4.999999999999955
    vertex 296.86497044146046 36.94914538219746 4.999999999999955
    vertex 297.2583687236622 47.555747099995685 4.999999999999955
  endloop
endfacet
facet normal 0.0 0.0 1.0
  outer loop
    vertex 297.2583687236622 47.555747099995685 4.999999999999955
    vertex 296.86497044146046 36.94914538219746 4.999999999999955
    vertex 297.30947998422863 47.1675185323419 4.999999999999955
  endloop
endfacet
facet normal 0.0 0.0 1.0
  outer loop
    vertex 297.30947998422863 47.1675185323419 4.999999999999955
    vertex 296.86497044146046 36.94914538219746 4.999999999999955
    vertex 299.24874978042885 40.05574709999567 4.999999999999955
  endloop
endfacet
facet normal 0.0 0.0 1.0
  outer loop
    vertex 297.30947998422863 47.1675185323419 4.999999999999955
    vertex 299.24874978042885 40.05574709999567 4.999999999999955
    vertex 297.4593306179856 46.80574709999568 4.999999999999955
  endloop
endfacet
facet normal 0.0 0.0 1.0
  outer loop
    vertex 297.4593306179856 46.80574709999568 4.999999999999955
    vertex 299.24874978042885 40.05574709999567 4.999999999999955
    vertex 297.6977085518824 46.49508692821585 4.999999999999955
  endloop
endfacet
facet normal 0.0 0.0 1.0
  outer loop
    vertex 297.6977085518824 46.49508692821585 4.999999999999955
    vertex 299.24874978042885 40.05574709999567 4.999999999999955
    vertex 298.0083687236622 46.25670899431901 4.999999999999955
  endloop
endfacet
facet normal 0.0 0.0 1.0
  outer loop
    vertex 298.0083687236622 46.25670899431901 4.999999999999955
    vertex 299.24874978042885 40.05574709999567 4.999999999999955
    vertex 298.37014015600846 46.106858360562065 4.999999999999955
  endloop
endfacet
facet normal 0.0 0.0 1.0
  outer loop
    vertex 298.37014015600846 46.106858360562065 4.999999999999955
    vertex 299.24874978042885 40.05574709999567 4.999999999999955
    vertex 298.7583687236622 46.05574709999566 4.999999999999955
  endloop
endfacet
facet normal 0.0 0.0 1.0
  outer loop
    vertex 298.7583687236622 46.05574709999566 4.999999999999955
    vertex 299.24874978042885 40.05574709999567 4.999999999999955
    vertex 299.146597291316 46.106858360562065 4.999999999999955
  endloop
endfacet
facet normal 0.0 0.0 1.0
  outer loop
    vertex 299.146597291316 46.106858360562065 4.999999999999955
    vertex 299.24874978042885 40.05574709999567 4.999999999999955
    vertex 299.5083687236623 46.25670899431901 4.999999999999955
  endloop
endfacet
facet normal 0.0 0.0 1.0
  outer loop
    vertex 299.5083687236623 46.25670899431901 4.999999999999955
    vertex 299.24874978042885 40.05574709999567 4.999999999999955
    vertex 302.2487497804288 40.05574709999567 4.999999999999955
  endloop
endfacet
facet normal 0.0 0.0 1.0
  outer loop
    vertex 299.5083687236623 46.25670899431901 4.999999999999955
    vertex 302.2487497804288 40.05574709999567 4.999999999999955
    vertex 299.8190288954421 46.49508692821585 4.999999999999955
  endloop
endfacet
facet normal 0.0 0.0 1.0
  outer loop
    vertex 299.8190288954421 46.49508692821585 4.999999999999955
    vertex 302.2487497804288 40.05574709999567 4.999999999999955
    vertex 300.0574068293389 46.80574709999568 4.999999999999955
  endloop
endfacet
facet normal 0.0 0.0 1.0
  outer loop
    vertex 300.0574068293389 46.80574709999568 4.999999999999955
    vertex 302.2487497804288 40.05574709999567 4.999999999999955
    vertex 300.20725746309586 47.1675185323419 4.999999999999955
  endloop
endfacet
facet normal 0.0 0.0 1.0
  outer loop
    vertex 300.20725746309586 47.1675185323419 4.999999999999955
    vertex 302.2487497804288 40.05574709999567 4.999999999999955
    vertex 300.2583687236623 47.555747099995685 4.999999999999955
  endloop
endfacet
facet normal 0.0 0.0 1.0
  outer loop
    vertex 296.86497044146046 58.16234881779391 4.999999999999955
    vertex 297.30947998422863 47.94397566764947 4.999999999999955
    vertex 299.24874978042885 55.05574709999569 4.999999999999955
  endloop
endfacet
facet normal 0.0 0.0 1.0
  outer loop
    vertex 297.30947998422863 47.94397566764947 4.999999999999955
    vertex 296.86497044146046 58.16234881779391 4.999999999999955
    vertex 297.2583687236622 47.555747099995685 4.999999999999955
  endloop
endfacet
facet normal 0.0 0.0 1.0
  outer loop
    vertex 299.24874978042885 55.05574709999569 4.999999999999955
    vertex 297.30947998422863 47.94397566764947 4.999999999999955
    vertex 297.4593306179856 48.30574709999569 4.999999999999955
  endloop
endfacet
facet normal 0.0 0.0 1.0
  outer loop
    vertex 299.24874978042885 55.05574709999569 4.999999999999955
    vertex 297.4593306179856 48.30574709999569 4.999999999999955
    vertex 297.6977085518824 48.61640727177552 4.999999999999955
  endloop
endfacet
facet normal 0.0 0.0 1.0
  outer loop
    vertex 299.24874978042885 55.05574709999569 4.999999999999955
    vertex 297.6977085518824 48.61640727177552 4.999999999999955
    vertex 298.0083687236622 48.85478520567236 4.999999999999955
  endloop
endfacet
facet normal 0.0 0.0 1.0
  outer loop
    vertex 299.24874978042885 55.05574709999569 4.999999999999955
    vertex 298.0083687236622 48.85478520567236 4.999999999999955
    vertex 298.37014015600846 49.004635839429305 4.999999999999955
  endloop
endfacet
facet normal 0.0 0.0 1.0
  outer loop
    vertex 299.24874978042885 55.05574709999569 4.999999999999955
    vertex 298.37014015600846 49.004635839429305 4.999999999999955
    vertex 298.7583687236622 49.055747099995706 4.999999999999955
  endloop
endfacet
facet normal 0.0 0.0 1.0
  outer loop
    vertex 299.24874978042885 55.05574709999569 4.999999999999955
    vertex 298.7583687236622 49.055747099995706 4.999999999999955
    vertex 299.146597291316 49.004635839429305 4.999999999999955
  endloop
endfacet
facet normal 0.0 0.0 1.0
  outer loop
    vertex 299.24874978042885 55.05574709999569 4.999999999999955
    vertex 299.146597291316 49.004635839429305 4.999999999999955
    vertex 299.5083687236623 48.85478520567236 4.999999999999955
  endloop
endfacet
facet normal 0.0 0.0 1.0
  outer loop
    vertex 299.24874978042885 55.05574709999569 4.999999999999955
    vertex 299.5083687236623 48.85478520567236 4.999999999999955
    vertex 302.2487497804288 55.05574709999569 4.999999999999955
  endloop
endfacet
facet normal 0.0 0.0 1.0
  outer loop
    vertex 302.2487497804288 55.05574709999569 4.999999999999955
    vertex 299.5083687236623 48.85478520567236 4.999999999999955
    vertex 299.8190288954421 48.61640727177552 4.999999999999955
  endloop
endfacet
facet normal 0.0 0.0 1.0
  outer loop
    vertex 302.2487497804288 55.05574709999569 4.999999999999955
    vertex 299.8190288954421 48.61640727177552 4.999999999999955
    vertex 300.0574068293389 48.30574709999569 4.999999999999955
  endloop
endfacet
facet normal 0.0 0.0 1.0
  outer loop
    vertex 302.2487497804288 55.05574709999569 4.999999999999955
    vertex 300.0574068293389 48.30574709999569 4.999999999999955
    vertex 300.20725746309586 47.943975667649475 4.999999999999955
  endloop
endfacet
facet normal 0.0 0.0 1.0
  outer loop
    vertex 302.2487497804288 55.05574709999569 4.999999999999955
    vertex 300.20725746309586 47.943975667649475 4.999999999999955
    vertex 300.2583687236623 47.555747099995685 4.999999999999955
  endloop
endfacet
facet normal 0.0 0.0 1.0
  outer loop
    vertex 302.2487497804288 55.05574709999569 4.999999999999955
    vertex 300.2583687236623 47.555747099995685 4.999999999999955
    vertex 302.2487497804288 40.05574709999567 4.999999999999955
  endloop
endfacet
facet normal 1.0 0.0 0.0
  outer loop
    vertex 302.2487497804288 55.05574709999569 -4.511946372076636e-14
    vertex 302.2487497804288 40.05574709999567 4.999999999999955
    vertex 302.2487497804288 40.05574709999567 -4.511946372076636e-14
  endloop
endfacet
facet normal 1.0 0.0 0.0
  outer loop
    vertex 302.2487497804288 40.05574709999567 4.999999999999955
    vertex 302.2487497804288 55.05574709999569 -4.511946372076636e-14
    vertex 302.2487497804288 55.05574709999569 4.999999999999955
  endloop
endfacet
endsolid AutomaticCoiler
