solid AutomaticCoiler
facet normal -0.555570233019599 -3.921391091479462e-12 -0.8314696123025475
  outer loop
    vertex 343.2660286428833 157.89298651312924 96.35222329031204
    vertex 342.17841435284663 147.89298651312475 97.0789439252575
    vertex 342.17841435279615 157.89298651312475 97.07894392524408
  endloop
endfacet
facet normal -0.555570233019599 -3.921391091479462e-12 -0.8314696123025475
  outer loop
    vertex 342.17841435284663 147.89298651312475 97.0789439252575
    vertex 343.2660286428833 157.89298651312924 96.35222329031204
    vertex 343.26602864293386 147.89298651312924 96.35222329032547
  endloop
endfacet
facet normal -0.9469301294951044 -5.21111998399176e-12 -0.32143946530316586
  outer loop
    vertex 338.60677037999267 157.89298651311393 102.42428687713121
    vertex 339.027233317821 147.89298651311435 101.18564300451895
    vertex 338.6067703800432 147.89298651311393 102.42428687714465
  endloop
endfacet
facet normal -0.9469301294951044 -5.21111998399176e-12 -0.32143946530316586
  outer loop
    vertex 339.027233317821 147.89298651311435 101.18564300451895
    vertex 338.60677037999267 157.89298651311393 102.42428687713121
    vertex 339.0272333177705 157.89298651311438 101.18564300450551
  endloop
endfacet
facet normal 0.19509032201612986 -3.3350465248372763e-13 -0.9807852804032302
  outer loop
    vertex 350.85421909390857 157.89298651316622 95.35321906526575
    vertex 349.57129056513435 147.8929865131594 95.09802871443176
    vertex 349.57129056508387 157.8929865131594 95.09802871441833
  endloop
endfacet
facet normal 0.19509032201612986 -3.3350465248372763e-13 -0.9807852804032302
  outer loop
    vertex 349.57129056513435 147.8929865131594 95.09802871443176
    vertex 350.85421909390857 157.89298651316622 95.35321906526575
    vertex 350.85421909395905 147.89298651316622 95.35321906527918
  endloop
endfacet
facet normal -0.6593458151000622 -2.317266404896528e-12 0.7518398074789833
  outer loop
    vertex 341.19496083106833 147.89298651313996 112.0835451400353
    vertex 342.17841435279615 157.8929865131461 112.94601073106874
    vertex 341.19496083101785 157.89298651313996 112.08354514002185
  endloop
endfacet
facet normal -0.6593458151000622 -2.317266404896528e-12 0.7518398074789833
  outer loop
    vertex 342.17841435279615 157.8929865131461 112.94601073106874
    vertex 341.19496083106833 147.89298651313996 112.0835451400353
    vertex 342.17841435284663 147.89298651314607 112.94601073108218
  endloop
endfacet
facet normal -0.5555702330195982 -1.6864967383074915e-12 0.8314696123025479
  outer loop
    vertex 342.17841435284663 147.89298651314607 112.94601073108218
    vertex 343.2660286428833 157.89298651315255 113.67273136600076
    vertex 342.17841435279615 157.8929865131461 112.94601073106874
  endloop
endfacet
facet normal -0.5555702330195982 -1.6864967383074915e-12 0.8314696123025479
  outer loop
    vertex 343.2660286428833 157.89298651315255 113.67273136600076
    vertex 342.17841435284663 147.89298651314607 112.94601073108218
    vertex 343.26602864293386 147.89298651315252 113.67273136601422
  endloop
endfacet
facet normal 0.5555702330195952 3.9213910914794455e-12 0.8314696123025499
  outer loop
    vertex 353.2660286429338 147.892986513203 113.67273136601423
    vertex 354.3536429329705 157.89298651320755 112.94601073106875
    vertex 353.26602864288327 157.892986513203 113.67273136600079
  endloop
endfacet
facet normal 0.5555702330195952 3.9213910914794455e-12 0.8314696123025499
  outer loop
    vertex 354.3536429329705 157.89298651320755 112.94601073106875
    vertex 353.2660286429338 147.892986513203 113.67273136601423
    vertex 354.353642933021 147.89298651320755 112.9460107310822
  endloop
endfacet
facet normal -0.9807852804032297 -4.687799543374008e-12 0.19509032201613297
  outer loop
    vertex 338.6067703800432 147.89298651312086 107.60066777919504
    vertex 338.3515800291453 157.89298651311788 106.31773925035692
    vertex 338.35158002919576 147.89298651311785 106.31773925037034
  endloop
endfacet
facet normal -0.9807852804032297 -4.687799543374008e-12 0.19509032201613297
  outer loop
    vertex 338.3515800291453 157.89298651311788 106.31773925035692
    vertex 338.6067703800432 147.89298651312086 107.60066777919504
    vertex 338.60677037999267 157.89298651312086 107.60066777918159
  endloop
endfacet
facet normal 0.06540312923014246 -1.01097745803531e-12 -0.9978589232386036
  outer loop
    vertex 349.57129056508387 157.8929865131594 95.09802871441833
    vertex 348.2660286429338 147.8929865131527 95.01247732816988
    vertex 348.2660286428833 157.8929865131527 95.01247732815642
  endloop
endfacet
facet normal 0.06540312923014246 -1.01097745803531e-12 -0.9978589232386036
  outer loop
    vertex 348.2660286429338 147.8929865131527 95.01247732816988
    vertex 349.57129056508387 157.8929865131594 95.09802871441833
    vertex 349.57129056513435 147.8929865131594 95.09802871443176
  endloop
endfacet
facet normal -0.3214394653031554 -3.496745101367563e-13 0.9469301294951079
  outer loop
    vertex 344.43919431928293 147.89298651315923 114.25127265328268
    vertex 345.67783819185814 157.89298651316605 114.67173559104707
    vertex 344.4391943192324 157.89298651315923 114.25127265326924
  endloop
endfacet
facet normal -0.3214394653031554 -3.496745101367563e-13 0.9469301294951079
  outer loop
    vertex 345.67783819185814 157.89298651316605 114.67173559104707
    vertex 344.43919431928293 147.89298651315923 114.25127265328268
    vertex 345.6778381919086 147.89298651316605 114.67173559106051
  endloop
endfacet
facet normal 0.6593458151000599 4.338125033237193e-12 0.7518398074789854
  outer loop
    vertex 354.353642933021 147.89298651320755 112.9460107310822
    vertex 355.3370964547488 157.89298651321133 112.0835451400219
    vertex 354.3536429329705 157.89298651320755 112.94601073106875
  endloop
endfacet
facet normal 0.6593458151000599 4.338125033237193e-12 0.7518398074789854
  outer loop
    vertex 355.3370964547488 157.89298651321133 112.0835451400219
    vertex 354.353642933021 147.89298651320755 112.9460107310822
    vertex 355.3370964547993 147.89298651321133 112.08354514003535
  endloop
endfacet
facet normal -0.9807852804032297 -5.2121798124555746e-12 -0.19509032201613297
  outer loop
    vertex 338.35158002919576 147.89298651311435 103.70721540596932
    vertex 338.60677037999267 157.89298651311393 102.42428687713121
    vertex 338.6067703800432 147.89298651311393 102.42428687714465
  endloop
endfacet
facet normal -0.9807852804032297 -5.2121798124555746e-12 -0.19509032201613297
  outer loop
    vertex 338.60677037999267 157.89298651311393 102.42428687713121
    vertex 338.35158002919576 147.89298651311435 103.70721540596932
    vertex 338.3515800291453 157.89298651311435 103.70721540595588
  endloop
endfacet
facet normal 0.32143946530315154 2.8949134075589563e-12 0.9469301294951091
  outer loop
    vertex 350.854219093959 147.89298651319217 114.67173559106052
    vertex 352.0928629665342 157.89298651319785 114.25127265326928
    vertex 350.8542190939085 157.89298651319217 114.67173559104708
  endloop
endfacet
facet normal 0.32143946530315154 2.8949134075589563e-12 0.9469301294951091
  outer loop
    vertex 352.0928629665342 157.89298651319785 114.25127265326928
    vertex 350.854219093959 147.89298651319217 114.67173559106052
    vertex 352.09286296658473 147.89298651319785 114.25127265328271
  endloop
endfacet
facet normal -0.3214394653031659 -2.894913407559022e-12 -0.9469301294951042
  outer loop
    vertex 345.67783819185814 157.8929865131401 95.35321906526575
    vertex 344.43919431928293 147.89298651313442 95.773682003057
    vertex 344.43919431923246 157.89298651313442 95.77368200304356
  endloop
endfacet
facet normal -0.3214394653031659 -2.894913407559022e-12 -0.9469301294951042
  outer loop
    vertex 344.43919431928293 147.89298651313442 95.773682003057
    vertex 345.67783819185814 157.8929865131401 95.35321906526575
    vertex 345.6778381919086 147.8929865131401 95.35321906527918
  endloop
endfacet
facet normal 0.7518398074789825 4.680632452920823e-12 0.6593458151000632
  outer loop
    vertex 356.1995620458461 147.89298651321437 111.10009161825708
    vertex 355.3370964547488 157.89298651321133 112.0835451400219
    vertex 355.3370964547993 147.89298651321133 112.08354514003535
  endloop
endfacet
facet normal 0.7518398074789825 4.680632452920823e-12 0.6593458151000632
  outer loop
    vertex 355.3370964547488 157.89298651321133 112.0835451400219
    vertex 356.1995620458461 147.89298651321437 111.10009161825708
    vertex 356.19956204579563 157.89298651321437 111.10009161824364
  endloop
endfacet
facet normal 0.8968727415326821 5.1208964478064225e-12 0.4422886902190139
  outer loop
    vertex 357.50482396804665 147.89298651321792 108.83931165182078
    vertex 356.9262826807277 157.89298651321656 110.01247732815645
    vertex 356.9262826807782 147.89298651321656 110.01247732816987
  endloop
endfacet
facet normal 0.8968727415326821 5.1208964478064225e-12 0.4422886902190139
  outer loop
    vertex 356.9262826807277 157.89298651321656 110.01247732815645
    vertex 357.50482396804665 147.89298651321792 108.83931165182078
    vertex 357.5048239679962 157.89298651321792 108.83931165180734
  endloop
endfacet
facet normal 0.9469301294951044 5.21111998399176e-12 0.32143946530316586
  outer loop
    vertex 357.92528690582446 147.89298651321837 107.6006677791951
    vertex 357.5048239679962 157.89298651321792 108.83931165180734
    vertex 357.50482396804665 147.89298651321792 108.83931165182078
  endloop
endfacet
facet normal 0.9469301294951044 5.21111998399176e-12 0.32143946530316586
  outer loop
    vertex 357.5048239679962 157.89298651321792 108.83931165180734
    vertex 357.92528690582446 147.89298651321837 107.6006677791951
    vertex 357.925286905774 157.89298651321837 107.60066777918166
  endloop
endfacet
facet normal -0.9978589232386034 -5.12405779923902e-12 -0.06540312923014775
  outer loop
    vertex 338.26602864293386 147.89298651311566 105.01247732816984
    vertex 338.3515800291453 157.89298651311435 103.70721540595588
    vertex 338.35158002919576 147.89298651311435 103.70721540596932
  endloop
endfacet
facet normal -0.9978589232386034 -5.12405779923902e-12 -0.06540312923014775
  outer loop
    vertex 338.3515800291453 157.89298651311435 103.70721540595588
    vertex 338.26602864293386 147.89298651311566 105.01247732816984
    vertex 338.2660286428834 157.8929865131157 105.01247732815641
  endloop
endfacet
facet normal -0.19509032201613083 3.335046524837221e-13 0.9807852804032299
  outer loop
    vertex 345.6778381919086 147.89298651316605 114.67173559106051
    vertex 346.9607667206828 157.8929865131729 114.9269259418945
    vertex 345.67783819185814 157.89298651316605 114.67173559104707
  endloop
endfacet
facet normal -0.19509032201613083 3.335046524837221e-13 0.9807852804032299
  outer loop
    vertex 346.9607667206828 157.8929865131729 114.9269259418945
    vertex 345.6778381919086 147.89298651316605 114.67173559106051
    vertex 346.9607667207333 147.89298651317287 114.92692594190794
  endloop
endfacet
facet normal 0.8968727415326966 3.932075495583181e-12 -0.4422886902189844
  outer loop
    vertex 356.9262826807277 157.8929865132031 100.01247732815642
    vertex 357.50482396804665 147.89298651320763 101.18564300451895
    vertex 356.92628268077823 147.8929865132031 100.01247732816987
  endloop
endfacet
facet normal 0.8968727415326966 3.932075495583181e-12 -0.4422886902189844
  outer loop
    vertex 357.50482396804665 147.89298651320763 101.18564300451895
    vertex 356.9262826807277 157.8929865132031 100.01247732815642
    vertex 357.5048239679962 157.89298651320763 101.18564300450551
  endloop
endfacet
facet normal -0.7518398074789682 -4.680632452920772e-12 -0.6593458151000794
  outer loop
    vertex 340.33249523997097 157.8929865131179 98.92486303806922
    vertex 341.1949608310684 147.89298651312095 97.94140951630439
    vertex 340.3324952400215 147.8929865131179 98.92486303808265
  endloop
endfacet
facet normal -0.7518398074789682 -4.680632452920772e-12 -0.6593458151000794
  outer loop
    vertex 341.1949608310684 147.89298651312095 97.94140951630439
    vertex 340.33249523997097 157.8929865131179 98.92486303806922
    vertex 341.1949608310179 157.89298651312095 97.94140951629095
  endloop
endfacet
facet normal 0.3214394653031659 3.49674510136814e-13 -0.9469301294951042
  outer loop
    vertex 352.0928629665342 157.89298651317304 95.77368200304356
    vertex 350.85421909395905 147.89298651316622 95.35321906527918
    vertex 350.85421909390857 157.89298651316622 95.35321906526575
  endloop
endfacet
facet normal 0.3214394653031659 3.49674510136814e-13 -0.9469301294951042
  outer loop
    vertex 350.85421909395905 147.89298651316622 95.35321906527918
    vertex 352.0928629665342 157.89298651317304 95.77368200304356
    vertex 352.09286296658473 147.89298651317304 95.773682003057
  endloop
endfacet
facet normal -0.6593458151000768 -4.338125033237257e-12 -0.7518398074789703
  outer loop
    vertex 342.17841435279615 157.89298651312475 97.07894392524408
    vertex 341.1949608310684 147.89298651312095 97.94140951630439
    vertex 341.1949608310179 157.89298651312095 97.94140951629095
  endloop
endfacet
facet normal -0.6593458151000768 -4.338125033237257e-12 -0.7518398074789703
  outer loop
    vertex 341.1949608310684 147.89298651312095 97.94140951630439
    vertex 342.17841435279615 157.89298651312475 97.07894392524408
    vertex 342.17841435284663 147.89298651312475 97.0789439252575
  endloop
endfacet
facet normal -0.8968727415326962 -5.120896447806456e-12 -0.4422886902189853
  outer loop
    vertex 339.0272333177705 157.89298651311438 101.18564300450551
    vertex 339.60577460508944 147.89298651311572 100.01247732816985
    vertex 339.027233317821 147.89298651311435 101.18564300451895
  endloop
endfacet
facet normal -0.8968727415326962 -5.120896447806456e-12 -0.4422886902189853
  outer loop
    vertex 339.60577460508944 147.89298651311572 100.01247732816985
    vertex 339.0272333177705 157.89298651311438 101.18564300450551
    vertex 339.60577460503896 157.89298651311572 100.01247732815642
  endloop
endfacet
facet normal -0.896872741532683 -3.932075495583075e-12 0.44228869021901224
  outer loop
    vertex 339.60577460508944 147.89298651312916 110.01247732816982
    vertex 339.0272333177705 157.89298651312464 108.83931165180728
    vertex 339.02723331782096 147.89298651312464 108.83931165182074
  endloop
endfacet
facet normal -0.896872741532683 -3.932075495583075e-12 0.44228869021901224
  outer loop
    vertex 339.0272333177705 157.89298651312464 108.83931165180728
    vertex 339.60577460508944 147.89298651312916 110.01247732816982
    vertex 339.60577460503896 157.89298651312916 110.01247732815638
  endloop
endfacet
facet normal -0.831469612302546 -3.4497442888224553e-12 0.5555702330196013
  outer loop
    vertex 340.3324952400215 147.89298651313428 111.10009161825704
    vertex 339.60577460503896 157.89298651312916 110.01247732815638
    vertex 339.60577460508944 147.89298651312916 110.01247732816982
  endloop
endfacet
facet normal -0.831469612302546 -3.4497442888224553e-12 0.5555702330196013
  outer loop
    vertex 339.60577460503896 157.89298651312916 110.01247732815638
    vertex 340.3324952400215 147.89298651313428 111.10009161825704
    vertex 340.33249523997097 157.89298651313428 111.1000916182436
  endloop
endfacet
facet normal 0.06540312923013816 1.6711521589839636e-12 0.9978589232386038
  outer loop
    vertex 348.2660286429338 147.89298651317958 115.01247732816984
    vertex 349.5712905650838 157.89298651318606 114.9269259418945
    vertex 348.26602864288327 157.89298651317958 115.0124773281564
  endloop
endfacet
facet normal 0.06540312923013816 1.6711521589839636e-12 0.9978589232386038
  outer loop
    vertex 349.5712905650838 157.89298651318606 114.9269259418945
    vertex 348.2660286429338 147.89298651317958 115.01247732816984
    vertex 349.5712905651343 147.89298651318606 114.92692594190794
  endloop
endfacet
facet normal -5.0469657088243694e-12 1.0 -1.3439422921199636e-12
  outer loop
    vertex 346.9607667206828 157.8929865131462 95.09802871441833
    vertex 349.57129056508387 157.8929865131594 95.09802871441833
    vertex 348.2660286428833 157.8929865131527 95.01247732815642
  endloop
endfacet
facet normal -5.0469657088243694e-12 1.0 -1.3439422921199636e-12
  outer loop
    vertex 349.57129056508387 157.8929865131594 95.09802871441833
    vertex 346.9607667206828 157.8929865131462 95.09802871441833
    vertex 345.67783819185814 157.8929865131401 95.35321906526575
  endloop
endfacet
facet normal -5.0469657088243694e-12 1.0 -1.3439422921199636e-12
  outer loop
    vertex 349.57129056508387 157.8929865131594 95.09802871441833
    vertex 345.67783819185814 157.8929865131401 95.35321906526575
    vertex 350.85421909390857 157.89298651316622 95.35321906526575
  endloop
endfacet
facet normal -5.0469657088243694e-12 1.0 -1.3439422921199636e-12
  outer loop
    vertex 350.85421909390857 157.89298651316622 95.35321906526575
    vertex 345.67783819185814 157.8929865131401 95.35321906526575
    vertex 352.0928629665342 157.89298651317304 95.77368200304356
  endloop
endfacet
facet normal -5.0469657088243694e-12 1.0 -1.3439422921199636e-12
  outer loop
    vertex 352.0928629665342 157.89298651317304 95.77368200304356
    vertex 345.67783819185814 157.8929865131401 95.35321906526575
    vertex 344.43919431923246 157.89298651313442 95.77368200304356
  endloop
endfacet
facet normal -5.0469657088243694e-12 1.0 -1.3439422921199636e-12
  outer loop
    vertex 352.0928629665342 157.89298651317304 95.77368200304356
    vertex 344.43919431923246 157.89298651313442 95.77368200304356
    vertex 353.2660286428833 157.89298651317975 96.35222329031204
  endloop
endfacet
facet normal -5.0469657088243694e-12 1.0 -1.3439422921199636e-12
  outer loop
    vertex 353.2660286428833 157.89298651317975 96.35222329031204
    vertex 344.43919431923246 157.89298651313442 95.77368200304356
    vertex 343.2660286428833 157.89298651312924 96.35222329031204
  endloop
endfacet
facet normal -5.0469657088243694e-12 1.0 -1.3439422921199636e-12
  outer loop
    vertex 353.2660286428833 157.89298651317975 96.35222329031204
    vertex 343.2660286428833 157.89298651312924 96.35222329031204
    vertex 342.17841435279615 157.89298651312475 97.07894392524408
  endloop
endfacet
facet normal -5.0469657088243694e-12 1.0 -1.3439422921199636e-12
  outer loop
    vertex 353.2660286428833 157.89298651317975 96.35222329031204
    vertex 342.17841435279615 157.89298651312475 97.07894392524408
    vertex 354.35364293297056 157.8929865131862 97.07894392524408
  endloop
endfacet
facet normal -5.0469657088243694e-12 1.0 -1.3439422921199636e-12
  outer loop
    vertex 354.35364293297056 157.8929865131862 97.07894392524408
    vertex 342.17841435279615 157.89298651312475 97.07894392524408
    vertex 341.1949608310179 157.89298651312095 97.94140951629095
  endloop
endfacet
facet normal -5.0469657088243694e-12 1.0 -1.3439422921199636e-12
  outer loop
    vertex 354.35364293297056 157.8929865131862 97.07894392524408
    vertex 341.1949608310179 157.89298651312095 97.94140951629095
    vertex 355.3370964547488 157.89298651319234 97.94140951629095
  endloop
endfacet
facet normal -5.0469657088243694e-12 1.0 -1.3439422921199636e-12
  outer loop
    vertex 355.3370964547488 157.89298651319234 97.94140951629095
    vertex 341.1949608310179 157.89298651312095 97.94140951629095
    vertex 340.33249523997097 157.8929865131179 98.92486303806922
  endloop
endfacet
facet normal -5.0469657088243694e-12 1.0 -1.3439422921199636e-12
  outer loop
    vertex 355.3370964547488 157.89298651319234 97.94140951629095
    vertex 340.33249523997097 157.8929865131179 98.92486303806922
    vertex 356.1995620457957 157.892986513198 98.92486303806922
  endloop
endfacet
facet normal -5.0469657088243694e-12 1.0 -1.3439422921199636e-12
  outer loop
    vertex 356.1995620457957 157.892986513198 98.92486303806922
    vertex 340.33249523997097 157.8929865131179 98.92486303806922
    vertex 339.60577460503896 157.89298651311572 100.01247732815642
  endloop
endfacet
facet normal -5.0469657088243694e-12 1.0 -1.3439422921199636e-12
  outer loop
    vertex 356.1995620457957 157.892986513198 98.92486303806922
    vertex 339.60577460503896 157.89298651311572 100.01247732815642
    vertex 356.9262826807277 157.8929865132031 100.01247732815642
  endloop
endfacet
facet normal -5.0469657088243694e-12 1.0 -1.3439422921199636e-12
  outer loop
    vertex 356.9262826807277 157.8929865132031 100.01247732815642
    vertex 339.60577460503896 157.89298651311572 100.01247732815642
    vertex 339.0272333177705 157.89298651311438 101.18564300450551
  endloop
endfacet
facet normal -5.0469657088243694e-12 1.0 -1.3439422921199636e-12
  outer loop
    vertex 356.9262826807277 157.8929865132031 100.01247732815642
    vertex 339.0272333177705 157.89298651311438 101.18564300450551
    vertex 357.5048239679962 157.89298651320763 101.18564300450551
  endloop
endfacet
facet normal -5.0469657088243694e-12 1.0 -1.3439422921199636e-12
  outer loop
    vertex 357.5048239679962 157.89298651320763 101.18564300450551
    vertex 339.0272333177705 157.89298651311438 101.18564300450551
    vertex 338.60677037999267 157.89298651311393 102.42428687713121
  endloop
endfacet
facet normal -5.0469657088243694e-12 1.0 -1.3439422921199636e-12
  outer loop
    vertex 357.5048239679962 157.89298651320763 101.18564300450551
    vertex 338.60677037999267 157.89298651311393 102.42428687713121
    vertex 348.266028642883 157.892986513162 102.0124773281564
  endloop
endfacet
facet normal -5.0469657088243694e-12 1.0 -1.3439422921199636e-12
  outer loop
    vertex 348.266028642883 157.892986513162 102.0124773281564
    vertex 338.60677037999267 157.89298651311393 102.42428687713121
    vertex 347.4895715075754 157.8929865131582 102.11469984928918
  endloop
endfacet
facet normal -5.0469657088243694e-12 1.0 -1.3439422921199636e-12
  outer loop
    vertex 347.4895715075754 157.8929865131582 102.11469984928918
    vertex 338.60677037999267 157.89298651311393 102.42428687713121
    vertex 346.766028642883 157.89298651315494 102.41440111680306
  endloop
endfacet
facet normal -5.0469657088243694e-12 1.0 -1.3439422921199636e-12
  outer loop
    vertex 346.766028642883 157.89298651315494 102.41440111680306
    vertex 338.60677037999267 157.89298651311393 102.42428687713121
    vertex 346.1447082993233 157.89298651315247 102.89115698459673
  endloop
endfacet
facet normal -5.0469657088243694e-12 1.0 -1.3439422921199636e-12
  outer loop
    vertex 346.1447082993233 157.89298651315247 102.89115698459673
    vertex 338.60677037999267 157.89298651311393 102.42428687713121
    vertex 338.3515800291453 157.89298651311435 103.70721540595588
  endloop
endfacet
facet normal -5.0469657088243694e-12 1.0 -1.3439422921199636e-12
  outer loop
    vertex 346.1447082993233 157.89298651315247 102.89115698459673
    vertex 338.3515800291453 157.89298651311435 103.70721540595588
    vertex 345.66795243152967 157.8929865131509 103.5124773281564
  endloop
endfacet
facet normal -5.0469657088243694e-12 1.0 -1.3439422921199636e-12
  outer loop
    vertex 345.66795243152967 157.8929865131509 103.5124773281564
    vertex 338.3515800291453 157.89298651311435 103.70721540595588
    vertex 345.36825116401576 157.89298651315036 104.23602019284883
  endloop
endfacet
facet normal -5.0469657088243694e-12 1.0 -1.3439422921199636e-12
  outer loop
    vertex 345.36825116401576 157.89298651315036 104.23602019284883
    vertex 338.3515800291453 157.89298651311435 103.70721540595588
    vertex 338.2660286428834 157.8929865131157 105.01247732815641
  endloop
endfacet
facet normal -5.0469657088243694e-12 1.0 -1.3439422921199636e-12
  outer loop
    vertex 345.36825116401576 157.89298651315036 104.23602019284883
    vertex 338.2660286428834 157.8929865131157 105.01247732815641
    vertex 345.266028642883 157.8929865131509 105.0124773281564
  endloop
endfacet
facet normal -5.0469657088243694e-12 1.0 -1.3439422921199636e-12
  outer loop
    vertex 345.266028642883 157.8929865131509 105.0124773281564
    vertex 338.2660286428834 157.8929865131157 105.01247732815641
    vertex 345.36825116401576 157.89298651315244 105.78893446346395
  endloop
endfacet
facet normal -5.0469657088243694e-12 1.0 -1.3439422921199636e-12
  outer loop
    vertex 345.36825116401576 157.89298651315244 105.78893446346395
    vertex 338.2660286428834 157.8929865131157 105.01247732815641
    vertex 338.3515800291453 157.89298651311788 106.31773925035692
  endloop
endfacet
facet normal -5.0469657088243694e-12 1.0 -1.3439422921199636e-12
  outer loop
    vertex 345.36825116401576 157.89298651315244 105.78893446346395
    vertex 338.3515800291453 157.89298651311788 106.31773925035692
    vertex 345.66795243152967 157.8929865131549 106.51247732815638
  endloop
endfacet
facet normal -5.0469657088243694e-12 1.0 -1.3439422921199636e-12
  outer loop
    vertex 345.66795243152967 157.8929865131549 106.51247732815638
    vertex 338.3515800291453 157.89298651311788 106.31773925035692
    vertex 338.60677037999267 157.89298651312086 107.60066777918159
  endloop
endfacet
facet normal -5.0469657088243694e-12 1.0 -1.3439422921199636e-12
  outer loop
    vertex 345.66795243152967 157.8929865131549 106.51247732815638
    vertex 338.60677037999267 157.89298651312086 107.60066777918159
    vertex 346.1447082993233 157.89298651315815 107.13379767171604
  endloop
endfacet
facet normal -5.0469657088243694e-12 1.0 -1.3439422921199636e-12
  outer loop
    vertex 346.1447082993233 157.89298651315815 107.13379767171604
    vertex 338.60677037999267 157.89298651312086 107.60066777918159
    vertex 346.766028642883 157.89298651316193 107.61055353950971
  endloop
endfacet
facet normal -5.0469657088243694e-12 1.0 -1.3439422921199636e-12
  outer loop
    vertex 346.766028642883 157.89298651316193 107.61055353950971
    vertex 338.60677037999267 157.89298651312086 107.60066777918159
    vertex 339.0272333177705 157.89298651312464 108.83931165180728
  endloop
endfacet
facet normal -5.0469657088243694e-12 1.0 -1.3439422921199636e-12
  outer loop
    vertex 346.766028642883 157.89298651316193 107.61055353950971
    vertex 339.0272333177705 157.89298651312464 108.83931165180728
    vertex 347.4895715075754 157.892986513166 107.91025480702359
  endloop
endfacet
facet normal -5.0469657088243694e-12 1.0 -1.3439422921199636e-12
  outer loop
    vertex 347.4895715075754 157.892986513166 107.91025480702359
    vertex 339.0272333177705 157.89298651312464 108.83931165180728
    vertex 348.266028642883 157.89298651317006 108.01247732815638
  endloop
endfacet
facet normal -5.0469657088243694e-12 1.0 -1.3439422921199636e-12
  outer loop
    vertex 348.266028642883 157.892986513162 102.0124773281564
    vertex 357.925286905774 157.8929865132114 102.42428687713121
    vertex 357.5048239679962 157.89298651320763 101.18564300450551
  endloop
endfacet
facet normal -5.0469657088243694e-12 1.0 -1.3439422921199636e-12
  outer loop
    vertex 357.925286905774 157.8929865132114 102.42428687713121
    vertex 348.266028642883 157.892986513162 102.0124773281564
    vertex 349.04248577819055 157.89298651316605 102.11469984928918
  endloop
endfacet
facet normal -5.0469657088243694e-12 1.0 -1.3439422921199636e-12
  outer loop
    vertex 357.925286905774 157.8929865132114 102.42428687713121
    vertex 349.04248577819055 157.89298651316605 102.11469984928918
    vertex 349.766028642883 157.89298651317011 102.41440111680306
  endloop
endfacet
facet normal -5.0469657088243694e-12 1.0 -1.3439422921199636e-12
  outer loop
    vertex 357.925286905774 157.8929865132114 102.42428687713121
    vertex 349.766028642883 157.89298651317011 102.41440111680306
    vertex 350.38734898644265 157.89298651317387 102.89115698459673
  endloop
endfacet
facet normal -5.0469657088243694e-12 1.0 -1.3439422921199636e-12
  outer loop
    vertex 357.925286905774 157.8929865132114 102.42428687713121
    vertex 350.38734898644265 157.89298651317387 102.89115698459673
    vertex 358.18047725662143 157.89298651321442 103.7072154059559
  endloop
endfacet
facet normal -5.0469657088243694e-12 1.0 -1.3439422921199636e-12
  outer loop
    vertex 358.18047725662143 157.89298651321442 103.7072154059559
    vertex 350.38734898644265 157.89298651317387 102.89115698459673
    vertex 350.8641048542363 157.8929865131771 103.5124773281564
  endloop
endfacet
facet normal -5.0469657088243694e-12 1.0 -1.3439422921199636e-12
  outer loop
    vertex 358.18047725662143 157.89298651321442 103.7072154059559
    vertex 350.8641048542363 157.8929865131771 103.5124773281564
    vertex 351.1638061217502 157.89298651317958 104.23602019284883
  endloop
endfacet
facet normal -5.0469657088243694e-12 1.0 -1.3439422921199636e-12
  outer loop
    vertex 358.18047725662143 157.89298651321442 103.7072154059559
    vertex 351.1638061217502 157.89298651317958 104.23602019284883
    vertex 358.2660286428833 157.8929865132166 105.01247732815641
  endloop
endfacet
facet normal -5.0469657088243694e-12 1.0 -1.3439422921199636e-12
  outer loop
    vertex 358.2660286428833 157.8929865132166 105.01247732815641
    vertex 351.1638061217502 157.89298651317958 104.23602019284883
    vertex 351.266028642883 157.89298651318117 105.0124773281564
  endloop
endfacet
facet normal -5.0469657088243694e-12 1.0 -1.3439422921199636e-12
  outer loop
    vertex 358.2660286428833 157.8929865132166 105.01247732815641
    vertex 351.266028642883 157.89298651318117 105.0124773281564
    vertex 351.1638061217502 157.8929865131817 105.78893446346395
  endloop
endfacet
facet normal -5.0469657088243694e-12 1.0 -1.3439422921199636e-12
  outer loop
    vertex 358.2660286428833 157.8929865132166 105.01247732815641
    vertex 351.1638061217502 157.8929865131817 105.78893446346395
    vertex 358.18047725662143 157.89298651321795 106.31773925035696
  endloop
endfacet
facet normal -5.0469657088243694e-12 1.0 -1.3439422921199636e-12
  outer loop
    vertex 358.18047725662143 157.89298651321795 106.31773925035696
    vertex 351.1638061217502 157.8929865131817 105.78893446346395
    vertex 350.8641048542363 157.89298651318117 106.51247732815638
  endloop
endfacet
facet normal -5.0469657088243694e-12 1.0 -1.3439422921199636e-12
  outer loop
    vertex 358.18047725662143 157.89298651321795 106.31773925035696
    vertex 350.8641048542363 157.89298651318117 106.51247732815638
    vertex 357.925286905774 157.89298651321837 107.60066777918166
  endloop
endfacet
facet normal -5.0469657088243694e-12 1.0 -1.3439422921199636e-12
  outer loop
    vertex 357.925286905774 157.89298651321837 107.60066777918166
    vertex 350.8641048542363 157.89298651318117 106.51247732815638
    vertex 350.38734898644265 157.89298651317958 107.13379767171604
  endloop
endfacet
facet normal -5.0469657088243694e-12 1.0 -1.3439422921199636e-12
  outer loop
    vertex 357.925286905774 157.89298651321837 107.60066777918166
    vertex 350.38734898644265 157.89298651317958 107.13379767171604
    vertex 349.766028642883 157.89298651317705 107.61055353950971
  endloop
endfacet
facet normal -5.0469657088243694e-12 1.0 -1.3439422921199636e-12
  outer loop
    vertex 357.925286905774 157.89298651321837 107.60066777918166
    vertex 349.766028642883 157.89298651317705 107.61055353950971
    vertex 357.5048239679962 157.89298651321792 108.83931165180734
  endloop
endfacet
facet normal -5.0469657088243694e-12 1.0 -1.3439422921199636e-12
  outer loop
    vertex 357.5048239679962 157.89298651321792 108.83931165180734
    vertex 349.766028642883 157.89298651317705 107.61055353950971
    vertex 349.04248577819055 157.8929865131738 107.91025480702359
  endloop
endfacet
facet normal -5.0469657088243694e-12 1.0 -1.3439422921199636e-12
  outer loop
    vertex 357.5048239679962 157.89298651321792 108.83931165180734
    vertex 349.04248577819055 157.8929865131738 107.91025480702359
    vertex 348.266028642883 157.89298651317006 108.01247732815638
  endloop
endfacet
facet normal -5.0469657088243694e-12 1.0 -1.3439422921199636e-12
  outer loop
    vertex 357.5048239679962 157.89298651321792 108.83931165180734
    vertex 348.266028642883 157.89298651317006 108.01247732815638
    vertex 339.0272333177705 157.89298651312464 108.83931165180728
  endloop
endfacet
facet normal -5.0469657088243694e-12 1.0 -1.3439422921199636e-12
  outer loop
    vertex 357.5048239679962 157.89298651321792 108.83931165180734
    vertex 339.0272333177705 157.89298651312464 108.83931165180728
    vertex 339.60577460503896 157.89298651312916 110.01247732815638
  endloop
endfacet
facet normal -5.0469657088243694e-12 1.0 -1.3439422921199636e-12
  outer loop
    vertex 357.5048239679962 157.89298651321792 108.83931165180734
    vertex 339.60577460503896 157.89298651312916 110.01247732815638
    vertex 356.9262826807277 157.89298651321656 110.01247732815645
  endloop
endfacet
facet normal -5.0469657088243694e-12 1.0 -1.3439422921199636e-12
  outer loop
    vertex 356.9262826807277 157.89298651321656 110.01247732815645
    vertex 339.60577460503896 157.89298651312916 110.01247732815638
    vertex 340.33249523997097 157.89298651313428 111.1000916182436
  endloop
endfacet
facet normal -5.0469657088243694e-12 1.0 -1.3439422921199636e-12
  outer loop
    vertex 356.9262826807277 157.89298651321656 110.01247732815645
    vertex 340.33249523997097 157.89298651313428 111.1000916182436
    vertex 356.19956204579563 157.89298651321437 111.10009161824364
  endloop
endfacet
facet normal -5.0469657088243694e-12 1.0 -1.3439422921199636e-12
  outer loop
    vertex 356.19956204579563 157.89298651321437 111.10009161824364
    vertex 340.33249523997097 157.89298651313428 111.1000916182436
    vertex 341.19496083101785 157.89298651313996 112.08354514002185
  endloop
endfacet
facet normal -5.0469657088243694e-12 1.0 -1.3439422921199636e-12
  outer loop
    vertex 356.19956204579563 157.89298651321437 111.10009161824364
    vertex 341.19496083101785 157.89298651313996 112.08354514002185
    vertex 355.3370964547488 157.89298651321133 112.0835451400219
  endloop
endfacet
facet normal -5.0469657088243694e-12 1.0 -1.3439422921199636e-12
  outer loop
    vertex 355.3370964547488 157.89298651321133 112.0835451400219
    vertex 341.19496083101785 157.89298651313996 112.08354514002185
    vertex 342.17841435279615 157.8929865131461 112.94601073106874
  endloop
endfacet
facet normal -5.0469657088243694e-12 1.0 -1.3439422921199636e-12
  outer loop
    vertex 355.3370964547488 157.89298651321133 112.0835451400219
    vertex 342.17841435279615 157.8929865131461 112.94601073106874
    vertex 354.3536429329705 157.89298651320755 112.94601073106875
  endloop
endfacet
facet normal -5.0469657088243694e-12 1.0 -1.3439422921199636e-12
  outer loop
    vertex 354.3536429329705 157.89298651320755 112.94601073106875
    vertex 342.17841435279615 157.8929865131461 112.94601073106874
    vertex 343.2660286428833 157.89298651315255 113.67273136600076
  endloop
endfacet
facet normal -5.0469657088243694e-12 1.0 -1.3439422921199636e-12
  outer loop
    vertex 354.3536429329705 157.89298651320755 112.94601073106875
    vertex 343.2660286428833 157.89298651315255 113.67273136600076
    vertex 353.26602864288327 157.892986513203 113.67273136600079
  endloop
endfacet
facet normal -5.0469657088243694e-12 1.0 -1.3439422921199636e-12
  outer loop
    vertex 353.26602864288327 157.892986513203 113.67273136600079
    vertex 343.2660286428833 157.89298651315255 113.67273136600076
    vertex 344.4391943192324 157.89298651315923 114.25127265326924
  endloop
endfacet
facet normal -5.0469657088243694e-12 1.0 -1.3439422921199636e-12
  outer loop
    vertex 353.26602864288327 157.892986513203 113.67273136600079
    vertex 344.4391943192324 157.89298651315923 114.25127265326924
    vertex 352.0928629665342 157.89298651319785 114.25127265326928
  endloop
endfacet
facet normal -5.0469657088243694e-12 1.0 -1.3439422921199636e-12
  outer loop
    vertex 352.0928629665342 157.89298651319785 114.25127265326928
    vertex 344.4391943192324 157.89298651315923 114.25127265326924
    vertex 345.67783819185814 157.89298651316605 114.67173559104707
  endloop
endfacet
facet normal -5.0469657088243694e-12 1.0 -1.3439422921199636e-12
  outer loop
    vertex 352.0928629665342 157.89298651319785 114.25127265326928
    vertex 345.67783819185814 157.89298651316605 114.67173559104707
    vertex 350.8542190939085 157.89298651319217 114.67173559104708
  endloop
endfacet
facet normal -5.0469657088243694e-12 1.0 -1.3439422921199636e-12
  outer loop
    vertex 350.8542190939085 157.89298651319217 114.67173559104708
    vertex 345.67783819185814 157.89298651316605 114.67173559104707
    vertex 346.9607667206828 157.8929865131729 114.9269259418945
  endloop
endfacet
facet normal -5.0469657088243694e-12 1.0 -1.3439422921199636e-12
  outer loop
    vertex 350.8542190939085 157.89298651319217 114.67173559104708
    vertex 346.9607667206828 157.8929865131729 114.9269259418945
    vertex 349.5712905650838 157.89298651318606 114.9269259418945
  endloop
endfacet
facet normal -5.0469657088243694e-12 1.0 -1.3439422921199636e-12
  outer loop
    vertex 349.5712905650838 157.89298651318606 114.9269259418945
    vertex 346.9607667206828 157.8929865131729 114.9269259418945
    vertex 348.26602864288327 157.89298651317958 115.0124773281564
  endloop
endfacet
facet normal 0.19509032201612672 2.3027329831615337e-12 0.9807852804032308
  outer loop
    vertex 349.5712905651343 147.89298651318606 114.92692594190794
    vertex 350.8542190939085 157.89298651319217 114.67173559104708
    vertex 349.5712905650838 157.89298651318606 114.9269259418945
  endloop
endfacet
facet normal 0.19509032201612672 2.3027329831615337e-12 0.9807852804032308
  outer loop
    vertex 350.8542190939085 157.89298651319217 114.67173559104708
    vertex 349.5712905651343 147.89298651318606 114.92692594190794
    vertex 350.854219093959 147.89298651319217 114.67173559106052
  endloop
endfacet
facet normal -0.19509032201613083 -2.3027329831615535e-12 -0.9807852804032299
  outer loop
    vertex 346.9607667206828 157.8929865131462 95.09802871441833
    vertex 345.6778381919086 147.8929865131401 95.35321906527918
    vertex 345.67783819185814 157.8929865131401 95.35321906526575
  endloop
endfacet
facet normal -0.19509032201613083 -2.3027329831615535e-12 -0.9807852804032299
  outer loop
    vertex 345.6778381919086 147.8929865131401 95.35321906527918
    vertex 346.9607667206828 157.8929865131462 95.09802871441833
    vertex 346.9607667207333 147.8929865131462 95.09802871443176
  endloop
endfacet
facet normal -0.4422886902189958 -3.437561060931475e-12 -0.896872741532691
  outer loop
    vertex 344.43919431923246 157.89298651313442 95.77368200304356
    vertex 343.26602864293386 147.89298651312924 96.35222329032547
    vertex 343.2660286428833 157.89298651312924 96.35222329031204
  endloop
endfacet
facet normal -0.4422886902189958 -3.437561060931475e-12 -0.896872741532691
  outer loop
    vertex 343.26602864293386 147.89298651312924 96.35222329032547
    vertex 344.43919431923246 157.89298651313442 95.77368200304356
    vertex 344.43919431928293 147.89298651313442 95.773682003057
  endloop
endfacet
facet normal -0.7518398074789843 -2.9083870008302658e-12 0.659345815100061
  outer loop
    vertex 341.19496083106833 147.89298651313996 112.0835451400353
    vertex 340.33249523997097 157.89298651313428 111.1000916182436
    vertex 340.3324952400215 147.89298651313428 111.10009161825704
  endloop
endfacet
facet normal -0.7518398074789843 -2.9083870008302658e-12 0.659345815100061
  outer loop
    vertex 340.33249523997097 157.89298651313428 111.1000916182436
    vertex 341.19496083106833 147.89298651313996 112.0835451400353
    vertex 341.19496083101785 157.89298651313996 112.08354514002185
  endloop
endfacet
facet normal -0.065403129230149 1.0109774580352762e-12 0.9978589232386031
  outer loop
    vertex 346.9607667207333 147.89298651317287 114.92692594190794
    vertex 348.26602864288327 157.89298651317958 115.0124773281564
    vertex 346.9607667206828 157.8929865131729 114.9269259418945
  endloop
endfacet
facet normal -0.065403129230149 1.0109774580352762e-12 0.9978589232386031
  outer loop
    vertex 348.26602864288327 157.89298651317958 115.0124773281564
    vertex 346.9607667207333 147.89298651317287 114.92692594190794
    vertex 348.2660286429338 147.89298651317958 115.01247732816984
  endloop
endfacet
facet normal 0.4422886902190104 3.437561060931539e-12 0.8968727415326839
  outer loop
    vertex 352.09286296658473 147.89298651319785 114.25127265328271
    vertex 353.26602864288327 157.892986513203 113.67273136600079
    vertex 352.0928629665342 157.89298651319785 114.25127265326928
  endloop
endfacet
facet normal 0.4422886902190104 3.437561060931539e-12 0.8968727415326839
  outer loop
    vertex 353.26602864288327 157.892986513203 113.67273136600079
    vertex 352.09286296658473 147.89298651319785 114.25127265328271
    vertex 353.2660286429338 147.892986513203 113.67273136601423
  endloop
endfacet
facet normal 0.9469301294951045 4.347127800437057e-12 -0.32143946530316514
  outer loop
    vertex 357.5048239679962 157.89298651320763 101.18564300450551
    vertex 357.92528690582446 147.8929865132114 102.42428687714465
    vertex 357.50482396804665 147.89298651320763 101.18564300451895
  endloop
endfacet
facet normal 0.9469301294951045 4.347127800437057e-12 -0.32143946530316514
  outer loop
    vertex 357.92528690582446 147.8929865132114 102.42428687714465
    vertex 357.5048239679962 157.89298651320763 101.18564300450551
    vertex 357.925286905774 157.8929865132114 102.42428687713121
  endloop
endfacet
facet normal -0.8314696123025452 -4.9430529536184225e-12 -0.5555702330196022
  outer loop
    vertex 339.60577460503896 157.89298651311572 100.01247732815642
    vertex 340.3324952400215 147.8929865131179 98.92486303808265
    vertex 339.60577460508944 147.89298651311572 100.01247732816985
  endloop
endfacet
facet normal -0.8314696123025452 -4.9430529536184225e-12 -0.5555702330196022
  outer loop
    vertex 340.3324952400215 147.8929865131179 98.92486303808265
    vertex 339.60577460503896 157.89298651311572 100.01247732815642
    vertex 340.33249523997097 157.8929865131179 98.92486303806922
  endloop
endfacet
facet normal 0.9807852804032297 4.687799543374008e-12 -0.19509032201613297
  outer loop
    vertex 357.925286905774 157.8929865132114 102.42428687713121
    vertex 358.1804772566719 147.89298651321442 103.70721540596932
    vertex 357.92528690582446 147.8929865132114 102.42428687714465
  endloop
endfacet
facet normal 0.9807852804032297 4.687799543374008e-12 -0.19509032201613297
  outer loop
    vertex 358.1804772566719 147.89298651321442 103.70721540596932
    vertex 357.925286905774 157.8929865132114 102.42428687713121
    vertex 358.18047725662143 157.89298651321442 103.7072154059559
  endloop
endfacet
facet normal 0.8314696123025452 4.9430529536184225e-12 0.5555702330196022
  outer loop
    vertex 356.9262826807782 147.89298651321656 110.01247732816987
    vertex 356.19956204579563 157.89298651321437 111.10009161824364
    vertex 356.1995620458461 147.89298651321437 111.10009161825708
  endloop
endfacet
facet normal 0.8314696123025452 4.9430529536184225e-12 0.5555702330196022
  outer loop
    vertex 356.19956204579563 157.89298651321437 111.10009161824364
    vertex 356.9262826807782 147.89298651321656 110.01247732816987
    vertex 356.9262826807277 157.89298651321656 110.01247732815645
  endloop
endfacet
facet normal 0.6593458151000782 2.3172664048966275e-12 -0.7518398074789694
  outer loop
    vertex 355.3370964547488 157.89298651319234 97.94140951629095
    vertex 354.35364293302104 147.8929865131862 97.0789439252575
    vertex 354.35364293297056 157.8929865131862 97.07894392524408
  endloop
endfacet
facet normal 0.6593458151000782 2.3172664048966275e-12 -0.7518398074789694
  outer loop
    vertex 354.35364293302104 147.8929865131862 97.0789439252575
    vertex 355.3370964547488 157.89298651319234 97.94140951629095
    vertex 355.3370964547993 147.89298651319234 97.94140951630439
  endloop
endfacet
facet normal 0.555570233019599 1.686496738307496e-12 -0.8314696123025475
  outer loop
    vertex 354.35364293297056 157.8929865131862 97.07894392524408
    vertex 353.2660286429338 147.89298651317975 96.35222329032547
    vertex 353.2660286428833 157.89298651317975 96.35222329031204
  endloop
endfacet
facet normal 0.555570233019599 1.686496738307496e-12 -0.8314696123025475
  outer loop
    vertex 353.2660286429338 147.89298651317975 96.35222329032547
    vertex 354.35364293297056 157.8929865131862 97.07894392524408
    vertex 354.35364293302104 147.8929865131862 97.0789439252575
  endloop
endfacet
facet normal 0.7518398074789682 2.908387000830159e-12 -0.6593458151000794
  outer loop
    vertex 355.3370964547488 157.89298651319234 97.94140951629095
    vertex 356.19956204584616 147.892986513198 98.92486303808265
    vertex 355.3370964547993 147.89298651319234 97.94140951630439
  endloop
endfacet
facet normal 0.7518398074789682 2.908387000830159e-12 -0.6593458151000794
  outer loop
    vertex 356.19956204584616 147.892986513198 98.92486303808265
    vertex 355.3370964547488 157.89298651319234 97.94140951629095
    vertex 356.1995620457957 157.892986513198 98.92486303806922
  endloop
endfacet
facet normal 0.8314696123025452 3.449744288822449e-12 -0.5555702330196022
  outer loop
    vertex 356.1995620457957 157.892986513198 98.92486303806922
    vertex 356.92628268077823 147.8929865132031 100.01247732816987
    vertex 356.19956204584616 147.892986513198 98.92486303808265
  endloop
endfacet
facet normal 0.8314696123025452 3.449744288822449e-12 -0.5555702330196022
  outer loop
    vertex 356.92628268077823 147.8929865132031 100.01247732816987
    vertex 356.1995620457957 157.892986513198 98.92486303806922
    vertex 356.9262826807277 157.8929865132031 100.01247732815642
  endloop
endfacet
facet normal 0.44228869021899664 1.0268706449407592e-12 -0.8968727415326905
  outer loop
    vertex 353.2660286428833 157.89298651317975 96.35222329031204
    vertex 352.09286296658473 147.89298651317304 95.773682003057
    vertex 352.0928629665342 157.89298651317304 95.77368200304356
  endloop
endfacet
facet normal 0.44228869021899664 1.0268706449407592e-12 -0.8968727415326905
  outer loop
    vertex 352.09286296658473 147.89298651317304 95.773682003057
    vertex 353.2660286428833 157.89298651317975 96.35222329031204
    vertex 353.2660286429338 147.89298651317975 96.35222329032547
  endloop
endfacet
facet normal -0.9469301294951148 -4.347127800437151e-12 0.3214394653031349
  outer loop
    vertex 339.02723331782096 147.89298651312464 108.83931165182074
    vertex 338.60677037999267 157.89298651312086 107.60066777918159
    vertex 338.6067703800432 147.89298651312086 107.60066777919504
  endloop
endfacet
facet normal -0.9469301294951148 -4.347127800437151e-12 0.3214394653031349
  outer loop
    vertex 338.60677037999267 157.89298651312086 107.60066777918159
    vertex 339.02723331782096 147.89298651312464 108.83931165182074
    vertex 339.0272333177705 157.89298651312464 108.83931165180728
  endloop
endfacet
facet normal -0.9978589232386034 -4.948261736420254e-12 0.0654031292301476
  outer loop
    vertex 338.35158002919576 147.89298651311785 106.31773925037034
    vertex 338.2660286428834 157.8929865131157 105.01247732815641
    vertex 338.26602864293386 147.89298651311566 105.01247732816984
  endloop
endfacet
facet normal -0.9978589232386034 -4.948261736420254e-12 0.0654031292301476
  outer loop
    vertex 338.2660286428834 157.8929865131157 105.01247732815641
    vertex 338.35158002919576 147.89298651311785 106.31773925037034
    vertex 338.3515800291453 157.89298651311788 106.31773925035692
  endloop
endfacet
facet normal -0.4422886902190139 -1.0268706449408574e-12 0.8968727415326823
  outer loop
    vertex 343.26602864293386 147.89298651315252 113.67273136601422
    vertex 344.4391943192324 157.89298651315923 114.25127265326924
    vertex 343.2660286428833 157.89298651315255 113.67273136600076
  endloop
endfacet
facet normal -0.4422886902190139 -1.0268706449408574e-12 0.8968727415326823
  outer loop
    vertex 344.4391943192324 157.89298651315923 114.25127265326924
    vertex 343.26602864293386 147.89298651315252 113.67273136601422
    vertex 344.43919431928293 147.89298651315923 114.25127265328268
  endloop
endfacet
facet normal 0.9807852804032295 5.212179812455574e-12 0.19509032201613338
  outer loop
    vertex 358.18047725662143 157.89298651321795 106.31773925035696
    vertex 357.92528690582446 147.89298651321837 107.6006677791951
    vertex 358.1804772566719 147.89298651321792 106.31773925037041
  endloop
endfacet
facet normal 0.9807852804032295 5.212179812455574e-12 0.19509032201613338
  outer loop
    vertex 357.92528690582446 147.89298651321837 107.6006677791951
    vertex 358.18047725662143 157.89298651321795 106.31773925035696
    vertex 357.925286905774 157.89298651321837 107.60066777918166
  endloop
endfacet
facet normal 0.9978589232386035 5.124057799239017e-12 0.06540312923014535
  outer loop
    vertex 358.2660286428833 157.8929865132166 105.01247732815641
    vertex 358.1804772566719 147.89298651321792 106.31773925037041
    vertex 358.2660286429338 147.8929865132166 105.01247732816985
  endloop
endfacet
facet normal 0.9978589232386035 5.124057799239017e-12 0.06540312923014535
  outer loop
    vertex 358.1804772566719 147.89298651321792 106.31773925037041
    vertex 358.2660286428833 157.8929865132166 105.01247732815641
    vertex 358.18047725662143 157.89298651321795 106.31773925035696
  endloop
endfacet
facet normal 0.9978589232386034 4.948261736420254e-12 -0.0654031292301476
  outer loop
    vertex 358.18047725662143 157.89298651321442 103.7072154059559
    vertex 358.2660286429338 147.8929865132166 105.01247732816985
    vertex 358.1804772566719 147.89298651321442 103.70721540596932
  endloop
endfacet
facet normal 0.9978589232386034 4.948261736420254e-12 -0.0654031292301476
  outer loop
    vertex 358.2660286429338 147.8929865132166 105.01247732816985
    vertex 358.18047725662143 157.89298651321442 103.7072154059559
    vertex 358.2660286428833 157.8929865132166 105.01247732815641
  endloop
endfacet
facet normal -0.06540312923014246 -1.671152158983985e-12 -0.9978589232386036
  outer loop
    vertex 348.2660286428833 157.8929865131527 95.01247732815642
    vertex 346.9607667207333 147.8929865131462 95.09802871443176
    vertex 346.9607667206828 157.8929865131462 95.09802871441833
  endloop
endfacet
facet normal -0.06540312923014246 -1.671152158983985e-12 -0.9978589232386036
  outer loop
    vertex 346.9607667207333 147.8929865131462 95.09802871443176
    vertex 348.2660286428833 157.8929865131527 95.01247732815642
    vertex 348.2660286429338 147.8929865131527 95.01247732816988
  endloop
endfacet
facet normal 5.046965708824369e-12 -1.0 1.3439422921199638e-12
  outer loop
    vertex 357.92528690582446 147.8929865132114 102.42428687714465
    vertex 348.2660286429338 147.8929865131621 102.01247732816987
    vertex 357.50482396804665 147.89298651320763 101.18564300451895
  endloop
endfacet
facet normal 5.046965708824369e-12 -1.0 1.3439422921199638e-12
  outer loop
    vertex 348.2660286429338 147.8929865131621 102.01247732816987
    vertex 357.92528690582446 147.8929865132114 102.42428687714465
    vertex 349.04248577824137 147.89298651316616 102.11469984930265
  endloop
endfacet
facet normal 5.046965708824369e-12 -1.0 1.3439422921199638e-12
  outer loop
    vertex 349.04248577824137 147.89298651316616 102.11469984930265
    vertex 357.92528690582446 147.8929865132114 102.42428687714465
    vertex 349.76602864293386 147.89298651317023 102.41440111681653
  endloop
endfacet
facet normal 5.046965708824369e-12 -1.0 1.3439422921199638e-12
  outer loop
    vertex 349.76602864293386 147.89298651317023 102.41440111681653
    vertex 357.92528690582446 147.8929865132114 102.42428687714465
    vertex 350.38734898649346 147.89298651317398 102.8911569846102
  endloop
endfacet
facet normal 5.046965708824369e-12 -1.0 1.3439422921199638e-12
  outer loop
    vertex 350.38734898649346 147.89298651317398 102.8911569846102
    vertex 357.92528690582446 147.8929865132114 102.42428687714465
    vertex 358.1804772566719 147.89298651321442 103.70721540596932
  endloop
endfacet
facet normal 5.046965708824369e-12 -1.0 1.3439422921199638e-12
  outer loop
    vertex 350.38734898649346 147.89298651317398 102.8911569846102
    vertex 358.1804772566719 147.89298651321442 103.70721540596932
    vertex 350.8641048542871 147.89298651317725 103.51247732816985
  endloop
endfacet
facet normal 5.046965708824369e-12 -1.0 1.3439422921199638e-12
  outer loop
    vertex 350.8641048542871 147.89298651317725 103.51247732816985
    vertex 358.1804772566719 147.89298651321442 103.70721540596932
    vertex 351.16380612180103 147.89298651317972 104.2360201928623
  endloop
endfacet
facet normal 5.046965708824369e-12 -1.0 1.3439422921199638e-12
  outer loop
    vertex 351.16380612180103 147.89298651317972 104.2360201928623
    vertex 358.1804772566719 147.89298651321442 103.70721540596932
    vertex 358.2660286429338 147.8929865132166 105.01247732816985
  endloop
endfacet
facet normal 5.046965708824369e-12 -1.0 1.3439422921199638e-12
  outer loop
    vertex 351.16380612180103 147.89298651317972 104.2360201928623
    vertex 358.2660286429338 147.8929865132166 105.01247732816985
    vertex 351.2660286429338 147.89298651318128 105.01247732816985
  endloop
endfacet
facet normal 5.046965708824369e-12 -1.0 1.3439422921199638e-12
  outer loop
    vertex 351.2660286429338 147.89298651318128 105.01247732816985
    vertex 358.2660286429338 147.8929865132166 105.01247732816985
    vertex 358.1804772566719 147.89298651321792 106.31773925037041
  endloop
endfacet
facet normal 5.046965708824369e-12 -1.0 1.3439422921199638e-12
  outer loop
    vertex 351.2660286429338 147.89298651318128 105.01247732816985
    vertex 358.1804772566719 147.89298651321792 106.31773925037041
    vertex 351.16380612180103 147.89298651318182 105.78893446347742
  endloop
endfacet
facet normal 5.046965708824369e-12 -1.0 1.3439422921199638e-12
  outer loop
    vertex 351.16380612180103 147.89298651318182 105.78893446347742
    vertex 358.1804772566719 147.89298651321792 106.31773925037041
    vertex 350.8641048542871 147.89298651318128 106.51247732816985
  endloop
endfacet
facet normal 5.046965708824369e-12 -1.0 1.3439422921199638e-12
  outer loop
    vertex 350.8641048542871 147.89298651318128 106.51247732816985
    vertex 358.1804772566719 147.89298651321792 106.31773925037041
    vertex 357.92528690582446 147.89298651321837 107.6006677791951
  endloop
endfacet
facet normal 5.046965708824369e-12 -1.0 1.3439422921199638e-12
  outer loop
    vertex 350.8641048542871 147.89298651318128 106.51247732816985
    vertex 357.92528690582446 147.89298651321837 107.6006677791951
    vertex 350.38734898649346 147.8929865131797 107.1337976717295
  endloop
endfacet
facet normal 5.046965708824369e-12 -1.0 1.3439422921199638e-12
  outer loop
    vertex 350.38734898649346 147.8929865131797 107.1337976717295
    vertex 357.92528690582446 147.89298651321837 107.6006677791951
    vertex 338.6067703800432 147.89298651312086 107.60066777919504
  endloop
endfacet
facet normal 5.046965708824369e-12 -1.0 1.3439422921199638e-12
  outer loop
    vertex 338.6067703800432 147.89298651312086 107.60066777919504
    vertex 357.92528690582446 147.89298651321837 107.6006677791951
    vertex 339.02723331782096 147.89298651312464 108.83931165182074
  endloop
endfacet
facet normal 5.046965708824369e-12 -1.0 1.3439422921199638e-12
  outer loop
    vertex 339.02723331782096 147.89298651312464 108.83931165182074
    vertex 357.92528690582446 147.89298651321837 107.6006677791951
    vertex 357.50482396804665 147.89298651321792 108.83931165182078
  endloop
endfacet
facet normal 5.046965708824369e-12 -1.0 1.3439422921199638e-12
  outer loop
    vertex 339.02723331782096 147.89298651312464 108.83931165182074
    vertex 357.50482396804665 147.89298651321792 108.83931165182078
    vertex 339.60577460508944 147.89298651312916 110.01247732816982
  endloop
endfacet
facet normal 5.046965708824369e-12 -1.0 1.3439422921199638e-12
  outer loop
    vertex 339.60577460508944 147.89298651312916 110.01247732816982
    vertex 357.50482396804665 147.89298651321792 108.83931165182078
    vertex 356.9262826807782 147.89298651321656 110.01247732816987
  endloop
endfacet
facet normal 5.046965708824369e-12 -1.0 1.3439422921199638e-12
  outer loop
    vertex 339.60577460508944 147.89298651312916 110.01247732816982
    vertex 356.9262826807782 147.89298651321656 110.01247732816987
    vertex 340.3324952400215 147.89298651313428 111.10009161825704
  endloop
endfacet
facet normal 5.046965708824369e-12 -1.0 1.3439422921199638e-12
  outer loop
    vertex 340.3324952400215 147.89298651313428 111.10009161825704
    vertex 356.9262826807782 147.89298651321656 110.01247732816987
    vertex 356.1995620458461 147.89298651321437 111.10009161825708
  endloop
endfacet
facet normal 5.046965708824369e-12 -1.0 1.3439422921199638e-12
  outer loop
    vertex 340.3324952400215 147.89298651313428 111.10009161825704
    vertex 356.1995620458461 147.89298651321437 111.10009161825708
    vertex 341.19496083106833 147.89298651313996 112.0835451400353
  endloop
endfacet
facet normal 5.046965708824369e-12 -1.0 1.3439422921199638e-12
  outer loop
    vertex 341.19496083106833 147.89298651313996 112.0835451400353
    vertex 356.1995620458461 147.89298651321437 111.10009161825708
    vertex 355.3370964547993 147.89298651321133 112.08354514003535
  endloop
endfacet
facet normal 5.046965708824369e-12 -1.0 1.3439422921199638e-12
  outer loop
    vertex 341.19496083106833 147.89298651313996 112.0835451400353
    vertex 355.3370964547993 147.89298651321133 112.08354514003535
    vertex 342.17841435284663 147.89298651314607 112.94601073108218
  endloop
endfacet
facet normal 5.046965708824369e-12 -1.0 1.3439422921199638e-12
  outer loop
    vertex 342.17841435284663 147.89298651314607 112.94601073108218
    vertex 355.3370964547993 147.89298651321133 112.08354514003535
    vertex 354.353642933021 147.89298651320755 112.9460107310822
  endloop
endfacet
facet normal 5.046965708824369e-12 -1.0 1.3439422921199638e-12
  outer loop
    vertex 342.17841435284663 147.89298651314607 112.94601073108218
    vertex 354.353642933021 147.89298651320755 112.9460107310822
    vertex 343.26602864293386 147.89298651315252 113.67273136601422
  endloop
endfacet
facet normal 5.046965708824369e-12 -1.0 1.3439422921199638e-12
  outer loop
    vertex 343.26602864293386 147.89298651315252 113.67273136601422
    vertex 354.353642933021 147.89298651320755 112.9460107310822
    vertex 353.2660286429338 147.892986513203 113.67273136601423
  endloop
endfacet
facet normal 5.046965708824369e-12 -1.0 1.3439422921199638e-12
  outer loop
    vertex 343.26602864293386 147.89298651315252 113.67273136601422
    vertex 353.2660286429338 147.892986513203 113.67273136601423
    vertex 344.43919431928293 147.89298651315923 114.25127265328268
  endloop
endfacet
facet normal 5.046965708824369e-12 -1.0 1.3439422921199638e-12
  outer loop
    vertex 344.43919431928293 147.89298651315923 114.25127265328268
    vertex 353.2660286429338 147.892986513203 113.67273136601423
    vertex 352.09286296658473 147.89298651319785 114.25127265328271
  endloop
endfacet
facet normal 5.046965708824369e-12 -1.0 1.3439422921199638e-12
  outer loop
    vertex 344.43919431928293 147.89298651315923 114.25127265328268
    vertex 352.09286296658473 147.89298651319785 114.25127265328271
    vertex 345.6778381919086 147.89298651316605 114.67173559106051
  endloop
endfacet
facet normal 5.046965708824369e-12 -1.0 1.3439422921199638e-12
  outer loop
    vertex 345.6778381919086 147.89298651316605 114.67173559106051
    vertex 352.09286296658473 147.89298651319785 114.25127265328271
    vertex 350.854219093959 147.89298651319217 114.67173559106052
  endloop
endfacet
facet normal 5.046965708824369e-12 -1.0 1.3439422921199638e-12
  outer loop
    vertex 345.6778381919086 147.89298651316605 114.67173559106051
    vertex 350.854219093959 147.89298651319217 114.67173559106052
    vertex 346.9607667207333 147.89298651317287 114.92692594190794
  endloop
endfacet
facet normal 5.046965708824369e-12 -1.0 1.3439422921199638e-12
  outer loop
    vertex 346.9607667207333 147.89298651317287 114.92692594190794
    vertex 350.854219093959 147.89298651319217 114.67173559106052
    vertex 349.5712905651343 147.89298651318606 114.92692594190794
  endloop
endfacet
facet normal 5.046965708824369e-12 -1.0 1.3439422921199638e-12
  outer loop
    vertex 346.9607667207333 147.89298651317287 114.92692594190794
    vertex 349.5712905651343 147.89298651318606 114.92692594190794
    vertex 348.2660286429338 147.89298651317958 115.01247732816984
  endloop
endfacet
facet normal 5.046965708824369e-12 -1.0 1.3439422921199638e-12
  outer loop
    vertex 349.57129056513435 147.8929865131594 95.09802871443176
    vertex 346.9607667207333 147.8929865131462 95.09802871443176
    vertex 348.2660286429338 147.8929865131527 95.01247732816988
  endloop
endfacet
facet normal 5.046965708824369e-12 -1.0 1.3439422921199638e-12
  outer loop
    vertex 346.9607667207333 147.8929865131462 95.09802871443176
    vertex 349.57129056513435 147.8929865131594 95.09802871443176
    vertex 350.85421909395905 147.89298651316622 95.35321906527918
  endloop
endfacet
facet normal 5.046965708824369e-12 -1.0 1.3439422921199638e-12
  outer loop
    vertex 346.9607667207333 147.8929865131462 95.09802871443176
    vertex 350.85421909395905 147.89298651316622 95.35321906527918
    vertex 345.6778381919086 147.8929865131401 95.35321906527918
  endloop
endfacet
facet normal 5.046965708824369e-12 -1.0 1.3439422921199638e-12
  outer loop
    vertex 345.6778381919086 147.8929865131401 95.35321906527918
    vertex 350.85421909395905 147.89298651316622 95.35321906527918
    vertex 352.09286296658473 147.89298651317304 95.773682003057
  endloop
endfacet
facet normal 5.046965708824369e-12 -1.0 1.3439422921199638e-12
  outer loop
    vertex 345.6778381919086 147.8929865131401 95.35321906527918
    vertex 352.09286296658473 147.89298651317304 95.773682003057
    vertex 344.43919431928293 147.89298651313442 95.773682003057
  endloop
endfacet
facet normal 5.046965708824369e-12 -1.0 1.3439422921199638e-12
  outer loop
    vertex 344.43919431928293 147.89298651313442 95.773682003057
    vertex 352.09286296658473 147.89298651317304 95.773682003057
    vertex 353.2660286429338 147.89298651317975 96.35222329032547
  endloop
endfacet
facet normal 5.046965708824369e-12 -1.0 1.3439422921199638e-12
  outer loop
    vertex 344.43919431928293 147.89298651313442 95.773682003057
    vertex 353.2660286429338 147.89298651317975 96.35222329032547
    vertex 343.26602864293386 147.89298651312924 96.35222329032547
  endloop
endfacet
facet normal 5.046965708824369e-12 -1.0 1.3439422921199638e-12
  outer loop
    vertex 343.26602864293386 147.89298651312924 96.35222329032547
    vertex 353.2660286429338 147.89298651317975 96.35222329032547
    vertex 354.35364293302104 147.8929865131862 97.0789439252575
  endloop
endfacet
facet normal 5.046965708824369e-12 -1.0 1.3439422921199638e-12
  outer loop
    vertex 343.26602864293386 147.89298651312924 96.35222329032547
    vertex 354.35364293302104 147.8929865131862 97.0789439252575
    vertex 342.17841435284663 147.89298651312475 97.0789439252575
  endloop
endfacet
facet normal 5.046965708824369e-12 -1.0 1.3439422921199638e-12
  outer loop
    vertex 342.17841435284663 147.89298651312475 97.0789439252575
    vertex 354.35364293302104 147.8929865131862 97.0789439252575
    vertex 355.3370964547993 147.89298651319234 97.94140951630439
  endloop
endfacet
facet normal 5.046965708824369e-12 -1.0 1.3439422921199638e-12
  outer loop
    vertex 342.17841435284663 147.89298651312475 97.0789439252575
    vertex 355.3370964547993 147.89298651319234 97.94140951630439
    vertex 341.1949608310684 147.89298651312095 97.94140951630439
  endloop
endfacet
facet normal 5.046965708824369e-12 -1.0 1.3439422921199638e-12
  outer loop
    vertex 341.1949608310684 147.89298651312095 97.94140951630439
    vertex 355.3370964547993 147.89298651319234 97.94140951630439
    vertex 340.3324952400215 147.8929865131179 98.92486303808265
  endloop
endfacet
facet normal 5.046965708824369e-12 -1.0 1.3439422921199638e-12
  outer loop
    vertex 340.3324952400215 147.8929865131179 98.92486303808265
    vertex 355.3370964547993 147.89298651319234 97.94140951630439
    vertex 356.19956204584616 147.892986513198 98.92486303808265
  endloop
endfacet
facet normal 5.046965708824369e-12 -1.0 1.3439422921199638e-12
  outer loop
    vertex 340.3324952400215 147.8929865131179 98.92486303808265
    vertex 356.19956204584616 147.892986513198 98.92486303808265
    vertex 339.60577460508944 147.89298651311572 100.01247732816985
  endloop
endfacet
facet normal 5.046965708824369e-12 -1.0 1.3439422921199638e-12
  outer loop
    vertex 339.60577460508944 147.89298651311572 100.01247732816985
    vertex 356.19956204584616 147.892986513198 98.92486303808265
    vertex 356.92628268077823 147.8929865132031 100.01247732816987
  endloop
endfacet
facet normal 5.046965708824369e-12 -1.0 1.3439422921199638e-12
  outer loop
    vertex 339.60577460508944 147.89298651311572 100.01247732816985
    vertex 356.92628268077823 147.8929865132031 100.01247732816987
    vertex 339.027233317821 147.89298651311435 101.18564300451895
  endloop
endfacet
facet normal 5.046965708824369e-12 -1.0 1.3439422921199638e-12
  outer loop
    vertex 339.027233317821 147.89298651311435 101.18564300451895
    vertex 356.92628268077823 147.8929865132031 100.01247732816987
    vertex 357.50482396804665 147.89298651320763 101.18564300451895
  endloop
endfacet
facet normal 5.046965708824369e-12 -1.0 1.3439422921199638e-12
  outer loop
    vertex 339.027233317821 147.89298651311435 101.18564300451895
    vertex 357.50482396804665 147.89298651320763 101.18564300451895
    vertex 338.6067703800432 147.89298651311393 102.42428687714465
  endloop
endfacet
facet normal 5.046965708824369e-12 -1.0 1.3439422921199638e-12
  outer loop
    vertex 338.6067703800432 147.89298651311393 102.42428687714465
    vertex 357.50482396804665 147.89298651320763 101.18564300451895
    vertex 348.2660286429338 147.8929865131621 102.01247732816987
  endloop
endfacet
facet normal 5.046965708824369e-12 -1.0 1.3439422921199638e-12
  outer loop
    vertex 338.6067703800432 147.89298651311393 102.42428687714465
    vertex 348.2660286429338 147.8929865131621 102.01247732816987
    vertex 347.4895715076263 147.89298651315832 102.11469984930265
  endloop
endfacet
facet normal 5.046965708824369e-12 -1.0 1.3439422921199638e-12
  outer loop
    vertex 338.6067703800432 147.89298651311393 102.42428687714465
    vertex 347.4895715076263 147.89298651315832 102.11469984930265
    vertex 346.7660286429338 147.89298651315508 102.41440111681653
  endloop
endfacet
facet normal 5.046965708824369e-12 -1.0 1.3439422921199638e-12
  outer loop
    vertex 338.6067703800432 147.89298651311393 102.42428687714465
    vertex 346.7660286429338 147.89298651315508 102.41440111681653
    vertex 346.1447082993742 147.89298651315258 102.8911569846102
  endloop
endfacet
facet normal 5.046965708824369e-12 -1.0 1.3439422921199638e-12
  outer loop
    vertex 338.6067703800432 147.89298651311393 102.42428687714465
    vertex 346.1447082993742 147.89298651315258 102.8911569846102
    vertex 338.35158002919576 147.89298651311435 103.70721540596932
  endloop
endfacet
facet normal 5.046965708824369e-12 -1.0 1.3439422921199638e-12
  outer loop
    vertex 338.35158002919576 147.89298651311435 103.70721540596932
    vertex 346.1447082993742 147.89298651315258 102.8911569846102
    vertex 345.66795243158055 147.892986513151 103.51247732816985
  endloop
endfacet
facet normal 5.046965708824369e-12 -1.0 1.3439422921199638e-12
  outer loop
    vertex 338.35158002919576 147.89298651311435 103.70721540596932
    vertex 345.66795243158055 147.892986513151 103.51247732816985
    vertex 345.36825116406663 147.89298651315045 104.2360201928623
  endloop
endfacet
facet normal 5.046965708824369e-12 -1.0 1.3439422921199638e-12
  outer loop
    vertex 338.35158002919576 147.89298651311435 103.70721540596932
    vertex 345.36825116406663 147.89298651315045 104.2360201928623
    vertex 338.26602864293386 147.89298651311566 105.01247732816984
  endloop
endfacet
facet normal 5.046965708824369e-12 -1.0 1.3439422921199638e-12
  outer loop
    vertex 338.26602864293386 147.89298651311566 105.01247732816984
    vertex 345.36825116406663 147.89298651315045 104.2360201928623
    vertex 345.26602864293386 147.892986513151 105.01247732816985
  endloop
endfacet
facet normal 5.046965708824369e-12 -1.0 1.3439422921199638e-12
  outer loop
    vertex 338.26602864293386 147.89298651311566 105.01247732816984
    vertex 345.26602864293386 147.892986513151 105.01247732816985
    vertex 338.35158002919576 147.89298651311785 106.31773925037034
  endloop
endfacet
facet normal 5.046965708824369e-12 -1.0 1.3439422921199638e-12
  outer loop
    vertex 338.35158002919576 147.89298651311785 106.31773925037034
    vertex 345.26602864293386 147.892986513151 105.01247732816985
    vertex 345.36825116406663 147.89298651315255 105.78893446347742
  endloop
endfacet
facet normal 5.046965708824369e-12 -1.0 1.3439422921199638e-12
  outer loop
    vertex 338.35158002919576 147.89298651311785 106.31773925037034
    vertex 345.36825116406663 147.89298651315255 105.78893446347742
    vertex 345.66795243158055 147.89298651315505 106.51247732816985
  endloop
endfacet
facet normal 5.046965708824369e-12 -1.0 1.3439422921199638e-12
  outer loop
    vertex 338.35158002919576 147.89298651311785 106.31773925037034
    vertex 345.66795243158055 147.89298651315505 106.51247732816985
    vertex 338.6067703800432 147.89298651312086 107.60066777919504
  endloop
endfacet
facet normal 5.046965708824369e-12 -1.0 1.3439422921199638e-12
  outer loop
    vertex 338.6067703800432 147.89298651312086 107.60066777919504
    vertex 345.66795243158055 147.89298651315505 106.51247732816985
    vertex 346.1447082993742 147.8929865131583 107.1337976717295
  endloop
endfacet
facet normal 5.046965708824369e-12 -1.0 1.3439422921199638e-12
  outer loop
    vertex 338.6067703800432 147.89298651312086 107.60066777919504
    vertex 346.1447082993742 147.8929865131583 107.1337976717295
    vertex 350.38734898649346 147.8929865131797 107.1337976717295
  endloop
endfacet
facet normal -0.7933533402912489 -4.853889551855042e-12 -0.6087614290087027
  outer loop
    vertex 350.3873489864477 156.89298651317958 107.13379767171736
    vertex 350.8641048542871 147.89298651318128 106.51247732816985
    vertex 350.38734898649346 147.8929865131797 107.1337976717295
  endloop
endfacet
facet normal -0.7933533402912489 -4.853889551855042e-12 -0.6087614290087027
  outer loop
    vertex 350.8641048542871 147.89298651318128 106.51247732816985
    vertex 350.3873489864477 156.89298651317958 107.13379767171736
    vertex 350.8641048542363 157.89298651318117 106.51247732815638
  endloop
endfacet
facet normal -0.7933533402912489 -4.853889551855042e-12 -0.6087614290087027
  outer loop
    vertex 350.8641048542363 157.89298651318117 106.51247732815638
    vertex 350.3873489864477 156.89298651317958 107.13379767171736
    vertex 350.38734898644265 157.89298651317958 107.13379767171604
  endloop
endfacet
facet normal 6.64672480974515e-16 -1.3465339954166336e-12 -1.0
  outer loop
    vertex 350.3873489864477 156.89298651317958 107.13379767171736
    vertex 346.1447082993742 147.8929865131583 107.1337976717295
    vertex 346.1447082993284 156.89298651315815 107.13379767171736
  endloop
endfacet
facet normal 6.64672480974515e-16 -1.3465339954166336e-12 -1.0
  outer loop
    vertex 346.1447082993742 147.8929865131583 107.1337976717295
    vertex 350.3873489864477 156.89298651317958 107.13379767171736
    vertex 350.38734898649346 147.8929865131797 107.1337976717295
  endloop
endfacet
facet normal 0.7933533402912477 3.2144547582936875e-12 -0.6087614290087043
  outer loop
    vertex 345.66795243152967 157.8929865131549 106.51247732815638
    vertex 346.1447082993742 147.8929865131583 107.1337976717295
    vertex 345.66795243158055 147.89298651315505 106.51247732816985
  endloop
endfacet
facet normal 0.7933533402912477 3.2144547582936875e-12 -0.6087614290087043
  outer loop
    vertex 346.1447082993742 147.8929865131583 107.1337976717295
    vertex 345.66795243152967 157.8929865131549 106.51247732815638
    vertex 346.1447082993284 156.89298651315815 107.13379767171736
  endloop
endfacet
facet normal 0.7933533402912477 3.2144547582936875e-12 -0.6087614290087043
  outer loop
    vertex 346.1447082993284 156.89298651315815 107.13379767171736
    vertex 345.66795243152967 157.8929865131549 106.51247732815638
    vertex 346.1447082993233 157.89298651315815 107.13379767171604
  endloop
endfacet
facet normal 0.9238795325112797 4.182596260774341e-12 -0.38268343236510666
  outer loop
    vertex 345.36825116401576 157.89298651315244 105.78893446346395
    vertex 345.66795243158055 147.89298651315505 106.51247732816985
    vertex 345.36825116406663 147.89298651315255 105.78893446347742
  endloop
endfacet
facet normal 0.9238795325112797 4.182596260774341e-12 -0.38268343236510666
  outer loop
    vertex 345.66795243158055 147.89298651315505 106.51247732816985
    vertex 345.36825116401576 157.89298651315244 105.78893446346395
    vertex 345.66795243152967 157.8929865131549 106.51247732815638
  endloop
endfacet
facet normal 0.9914448613738114 4.865703278356407e-12 -0.13052619222004463
  outer loop
    vertex 345.266028642883 157.8929865131509 105.0124773281564
    vertex 345.36825116406663 147.89298651315255 105.78893446347742
    vertex 345.26602864293386 147.892986513151 105.01247732816985
  endloop
endfacet
facet normal 0.9914448613738114 4.865703278356407e-12 -0.13052619222004463
  outer loop
    vertex 345.36825116406663 147.89298651315255 105.78893446347742
    vertex 345.266028642883 157.8929865131509 105.0124773281564
    vertex 345.36825116401576 157.89298651315244 105.78893446346395
  endloop
endfacet
facet normal 0.9914448613738114 5.217219235336495e-12 0.13052619222004463
  outer loop
    vertex 345.36825116401576 157.89298651315036 104.23602019284883
    vertex 345.26602864293386 147.892986513151 105.01247732816985
    vertex 345.36825116406663 147.89298651315045 104.2360201928623
  endloop
endfacet
facet normal 0.9914448613738114 5.217219235336495e-12 0.13052619222004463
  outer loop
    vertex 345.26602864293386 147.892986513151 105.01247732816985
    vertex 345.36825116401576 157.89298651315036 104.23602019284883
    vertex 345.266028642883 157.8929865131509 105.0124773281564
  endloop
endfacet
facet normal 0.9238795325112797 5.213188817430995e-12 0.38268343236510666
  outer loop
    vertex 345.66795243158055 147.892986513151 103.51247732816985
    vertex 345.36825116401576 157.89298651315036 104.23602019284883
    vertex 345.36825116406663 147.89298651315045 104.2360201928623
  endloop
endfacet
facet normal 0.9238795325112797 5.213188817430995e-12 0.38268343236510666
  outer loop
    vertex 345.36825116401576 157.89298651315036 104.23602019284883
    vertex 345.66795243158055 147.892986513151 103.51247732816985
    vertex 345.66795243152967 157.8929865131509 103.5124773281564
  endloop
endfacet
facet normal 0.7933533402912477 4.853889551855039e-12 0.6087614290087043
  outer loop
    vertex 346.1447082993742 147.89298651315258 102.8911569846102
    vertex 345.66795243152967 157.8929865131509 103.5124773281564
    vertex 345.66795243158055 147.892986513151 103.51247732816985
  endloop
endfacet
facet normal 0.7933533402912477 4.853889551855039e-12 0.6087614290087043
  outer loop
    vertex 345.66795243152967 157.8929865131509 103.5124773281564
    vertex 346.1447082993742 147.89298651315258 102.8911569846102
    vertex 346.1447082993233 157.89298651315247 102.89115698459673
  endloop
endfacet
facet normal 0.6087614290087312 4.163807318556314e-12 0.7933533402912272
  outer loop
    vertex 346.1447082993742 147.89298651315258 102.8911569846102
    vertex 346.766028642883 157.89298651315494 102.41440111680306
    vertex 346.1447082993233 157.89298651315247 102.89115698459673
  endloop
endfacet
facet normal 0.6087614290087312 4.163807318556314e-12 0.7933533402912272
  outer loop
    vertex 346.766028642883 157.89298651315494 102.41440111680306
    vertex 346.1447082993742 147.89298651315258 102.8911569846102
    vertex 346.7660286429338 147.89298651315508 102.41440111681653
  endloop
endfacet
facet normal 0.38268343236507674 3.1899656625870344e-12 0.9238795325112922
  outer loop
    vertex 346.7660286429338 147.89298651315508 102.41440111681653
    vertex 347.4895715075754 157.8929865131582 102.11469984928918
    vertex 346.766028642883 157.89298651315494 102.41440111680306
  endloop
endfacet
facet normal 0.38268343236507674 3.1899656625870344e-12 0.9238795325112922
  outer loop
    vertex 347.4895715075754 157.8929865131582 102.11469984928918
    vertex 346.7660286429338 147.89298651315508 102.41440111681653
    vertex 347.4895715076263 147.89298651315832 102.11469984930265
  endloop
endfacet
facet normal 0.13052619222005263 1.9987346888313054e-12 0.9914448613738103
  outer loop
    vertex 347.4895715076263 147.89298651315832 102.11469984930265
    vertex 348.266028642883 157.892986513162 102.0124773281564
    vertex 347.4895715075754 157.8929865131582 102.11469984928918
  endloop
endfacet
facet normal 0.13052619222005263 1.9987346888313054e-12 0.9914448613738103
  outer loop
    vertex 348.266028642883 157.892986513162 102.0124773281564
    vertex 347.4895715076263 147.89298651315832 102.11469984930265
    vertex 348.2660286429338 147.8929865131621 102.01247732816987
  endloop
endfacet
facet normal -0.1305261922200526 6.712930678078567e-13 0.9914448613738103
  outer loop
    vertex 348.2660286429338 147.8929865131621 102.01247732816987
    vertex 349.04248577819055 157.89298651316605 102.11469984928918
    vertex 348.266028642883 157.892986513162 102.0124773281564
  endloop
endfacet
facet normal -0.1305261922200526 6.712930678078567e-13 0.9914448613738103
  outer loop
    vertex 349.04248577819055 157.89298651316605 102.11469984928918
    vertex 348.2660286429338 147.8929865131621 102.01247732816987
    vertex 349.04248577824137 147.89298651316616 102.11469984930265
  endloop
endfacet
facet normal -0.38268343236507685 -7.018937729819965e-13 0.9238795325112923
  outer loop
    vertex 349.04248577824137 147.89298651316616 102.11469984930265
    vertex 349.766028642883 157.89298651317011 102.41440111680306
    vertex 349.04248577819055 157.89298651316605 102.11469984928918
  endloop
endfacet
facet normal -0.38268343236507685 -7.018937729819965e-13 0.9238795325112923
  outer loop
    vertex 349.766028642883 157.89298651317011 102.41440111680306
    vertex 349.04248577824137 147.89298651316616 102.11469984930265
    vertex 349.76602864293386 147.89298651317023 102.41440111681653
  endloop
endfacet
facet normal -0.6087614290087312 -2.0272518679399534e-12 0.793353340291227
  outer loop
    vertex 349.76602864293386 147.89298651317023 102.41440111681653
    vertex 350.38734898644265 157.89298651317387 102.89115698459673
    vertex 349.766028642883 157.89298651317011 102.41440111680306
  endloop
endfacet
facet normal -0.6087614290087312 -2.0272518679399534e-12 0.793353340291227
  outer loop
    vertex 350.38734898644265 157.89298651317387 102.89115698459673
    vertex 349.76602864293386 147.89298651317023 102.41440111681653
    vertex 350.38734898649346 147.89298651317398 102.8911569846102
  endloop
endfacet
facet normal -0.7933533402912477 -3.2144547582936875e-12 0.6087614290087043
  outer loop
    vertex 350.8641048542871 147.89298651317725 103.51247732816985
    vertex 350.38734898644265 157.89298651317387 102.89115698459673
    vertex 350.38734898649346 147.89298651317398 102.8911569846102
  endloop
endfacet
facet normal -0.7933533402912477 -3.2144547582936875e-12 0.6087614290087043
  outer loop
    vertex 350.38734898644265 157.89298651317387 102.89115698459673
    vertex 350.8641048542871 147.89298651317725 103.51247732816985
    vertex 350.8641048542363 157.8929865131771 103.5124773281564
  endloop
endfacet
facet normal -0.9238795325112797 -4.1825962607743415e-12 0.38268343236510666
  outer loop
    vertex 351.16380612180103 147.89298651317972 104.2360201928623
    vertex 350.8641048542363 157.8929865131771 103.5124773281564
    vertex 350.8641048542871 147.89298651317725 103.51247732816985
  endloop
endfacet
facet normal -0.9238795325112797 -4.1825962607743415e-12 0.38268343236510666
  outer loop
    vertex 350.8641048542363 157.8929865131771 103.5124773281564
    vertex 351.16380612180103 147.89298651317972 104.2360201928623
    vertex 351.1638061217502 157.89298651317958 104.23602019284883
  endloop
endfacet
facet normal -0.9914448613738114 -4.865703400710137e-12 0.13052619222004416
  outer loop
    vertex 351.2660286429338 147.89298651318128 105.01247732816985
    vertex 351.1638061217502 157.89298651317958 104.23602019284883
    vertex 351.16380612180103 147.89298651317972 104.2360201928623
  endloop
endfacet
facet normal -0.9914448613738114 -4.865703400710137e-12 0.13052619222004416
  outer loop
    vertex 351.1638061217502 157.89298651317958 104.23602019284883
    vertex 351.2660286429338 147.89298651318128 105.01247732816985
    vertex 351.266028642883 157.89298651318117 105.0124773281564
  endloop
endfacet
facet normal -0.9914448613738114 -5.217219235336496e-12 -0.1305261922200451
  outer loop
    vertex 351.16380612180103 147.89298651318182 105.78893446347742
    vertex 351.266028642883 157.89298651318117 105.0124773281564
    vertex 351.2660286429338 147.89298651318128 105.01247732816985
  endloop
endfacet
facet normal -0.9914448613738114 -5.217219235336496e-12 -0.1305261922200451
  outer loop
    vertex 351.266028642883 157.89298651318117 105.0124773281564
    vertex 351.16380612180103 147.89298651318182 105.78893446347742
    vertex 351.1638061217502 157.8929865131817 105.78893446346395
  endloop
endfacet
facet normal -0.9238795325112797 -5.213188817430995e-12 -0.38268343236510666
  outer loop
    vertex 350.8641048542363 157.89298651318117 106.51247732815638
    vertex 351.16380612180103 147.89298651318182 105.78893446347742
    vertex 350.8641048542871 147.89298651318128 106.51247732816985
  endloop
endfacet
facet normal -0.9238795325112797 -5.213188817430995e-12 -0.38268343236510666
  outer loop
    vertex 351.16380612180103 147.89298651318182 105.78893446347742
    vertex 350.8641048542363 157.89298651318117 106.51247732815638
    vertex 351.1638061217502 157.8929865131817 105.78893446346395
  endloop
endfacet
facet normal -5.048919106653234e-12 1.0 -1.3278711280617146e-12
  outer loop
    vertex 346.766028642888 156.89298651316193 107.61055353951102
    vertex 350.3873489864477 156.89298651317958 107.13379767171736
    vertex 346.1447082993284 156.89298651315815 107.13379767171736
  endloop
endfacet
facet normal -5.048919106653234e-12 1.0 -1.3278711280617146e-12
  outer loop
    vertex 350.3873489864477 156.89298651317958 107.13379767171736
    vertex 346.766028642888 156.89298651316193 107.61055353951102
    vertex 349.76602864288805 156.89298651317705 107.61055353951102
  endloop
endfacet
facet normal -5.048919106653234e-12 1.0 -1.3278711280617146e-12
  outer loop
    vertex 349.76602864288805 156.89298651317705 107.61055353951102
    vertex 346.766028642888 156.89298651316193 107.61055353951102
    vertex 347.4895715075805 156.892986513166 107.91025480702493
  endloop
endfacet
facet normal -5.048919106653234e-12 1.0 -1.3278711280617146e-12
  outer loop
    vertex 349.76602864288805 156.89298651317705 107.61055353951102
    vertex 347.4895715075805 156.892986513166 107.91025480702493
    vertex 349.0424857781956 156.8929865131738 107.91025480702493
  endloop
endfacet
facet normal -5.048919106653234e-12 1.0 -1.3278711280617146e-12
  outer loop
    vertex 349.0424857781956 156.8929865131738 107.91025480702493
    vertex 347.4895715075805 156.892986513166 107.91025480702493
    vertex 348.26602864288805 156.89298651317006 108.01247732815771
  endloop
endfacet
facet normal 0.6087614290087312 2.0201162153916682e-12 -0.7933533402912273
  outer loop
    vertex 346.766028642883 157.89298651316193 107.61055353950971
    vertex 346.1447082993284 156.89298651315815 107.13379767171736
    vertex 346.1447082993233 157.89298651315815 107.13379767171604
  endloop
endfacet
facet normal 0.6087614290087312 2.0201162153916682e-12 -0.7933533402912273
  outer loop
    vertex 346.1447082993284 156.89298651315815 107.13379767171736
    vertex 346.766028642883 157.89298651316193 107.61055353950971
    vertex 346.766028642888 156.89298651316193 107.61055353951102
  endloop
endfacet
facet normal 0.3826834323650768 7.053447364387778e-13 -0.9238795325112923
  outer loop
    vertex 347.4895715075754 157.892986513166 107.91025480702359
    vertex 346.766028642888 156.89298651316193 107.61055353951102
    vertex 346.766028642883 157.89298651316193 107.61055353950971
  endloop
endfacet
facet normal 0.3826834323650768 7.053447364387778e-13 -0.9238795325112923
  outer loop
    vertex 346.766028642888 156.89298651316193 107.61055353951102
    vertex 347.4895715075754 157.892986513166 107.91025480702359
    vertex 347.4895715075805 156.892986513166 107.91025480702493
  endloop
endfacet
facet normal 0.13052619222005263 -6.574948206649154e-13 -0.9914448613738104
  outer loop
    vertex 348.266028642883 157.89298651317006 108.01247732815638
    vertex 347.4895715075805 156.892986513166 107.91025480702493
    vertex 347.4895715075754 157.892986513166 107.91025480702359
  endloop
endfacet
facet normal 0.13052619222005263 -6.574948206649154e-13 -0.9914448613738104
  outer loop
    vertex 347.4895715075805 156.892986513166 107.91025480702493
    vertex 348.266028642883 157.89298651317006 108.01247732815638
    vertex 348.26602864288805 156.89298651317006 108.01247732815771
  endloop
endfacet
facet normal -0.13052619222005263 -1.9755271923019484e-12 -0.9914448613738104
  outer loop
    vertex 349.04248577819055 157.8929865131738 107.91025480702359
    vertex 348.26602864288805 156.89298651317006 108.01247732815771
    vertex 348.266028642883 157.89298651317006 108.01247732815638
  endloop
endfacet
facet normal -0.13052619222005263 -1.9755271923019484e-12 -0.9914448613738104
  outer loop
    vertex 348.26602864288805 156.89298651317006 108.01247732815771
    vertex 349.04248577819055 157.8929865131738 107.91025480702359
    vertex 349.0424857781956 156.8929865131738 107.91025480702493
  endloop
endfacet
facet normal -0.3826834323650768 -3.158930650496576e-12 -0.9238795325112923
  outer loop
    vertex 349.766028642883 157.89298651317705 107.61055353950971
    vertex 349.0424857781956 156.8929865131738 107.91025480702493
    vertex 349.04248577819055 157.8929865131738 107.91025480702359
  endloop
endfacet
facet normal -0.3826834323650768 -3.158930650496576e-12 -0.9238795325112923
  outer loop
    vertex 349.0424857781956 156.8929865131738 107.91025480702493
    vertex 349.766028642883 157.89298651317705 107.61055353950971
    vertex 349.76602864288805 156.89298651317705 107.61055353951102
  endloop
endfacet
facet normal -0.608761429008729 -4.127058205239742e-12 -0.793353340291229
  outer loop
    vertex 350.38734898644265 157.89298651317958 107.13379767171604
    vertex 349.76602864288805 156.89298651317705 107.61055353951102
    vertex 349.766028642883 157.89298651317705 107.61055353950971
  endloop
endfacet
facet normal -0.608761429008729 -4.127058205239742e-12 -0.793353340291229
  outer loop
    vertex 349.76602864288805 156.89298651317705 107.61055353951102
    vertex 350.38734898644265 157.89298651317958 107.13379767171604
    vertex 350.3873489864477 156.89298651317958 107.13379767171736
  endloop
endfacet
endsolid AutomaticCoiler
