solid AutomaticCoiler
facet normal 5.656137048608222e-18 1.0 4.389905216228838e-09
  outer loop
    vertex 135.30000043798307 25.000000652642303 4.0040400375307426e-07
    vertex 175.3000005976502 25.000000652642303 3.488663301576267e-07
    vertex 175.300000608282 25.000000762389934 -24.99999965113367
  endloop
endfacet
facet normal -0.5299989391662471 3.7226321833991757e-09 -0.8479983045281709
  outer loop
    vertex 175.300000608282 25.000000762389934 -24.99999965113367
    vertex 135.30000043798307 6.461835912352498e-07 2.9065637334735324e-07
    vertex 135.30000043798307 25.000000652642303 4.0040400375307426e-07
  endloop
endfacet
facet normal -0.5299989391662471 3.7226321833991757e-09 -0.8479983045281709
  outer loop
    vertex 135.30000043798307 6.461835912352498e-07 2.9065637334735324e-07
    vertex 175.300000608282 25.000000762389934 -24.99999965113367
    vertex 175.300000608282 7.559312216409708e-07 -24.99999976088129
  endloop
endfacet
facet normal 4.2527088255483584e-10 4.389905201998548e-09 -1.0
  outer loop
    vertex 193.00000054913625 42.700000703245664 -24.999999337784605
    vertex 175.300000608282 7.559312216409708e-07 -24.99999976088129
    vertex 175.300000608282 25.000000762389934 -24.99999965113367
  endloop
endfacet
facet normal 4.2527088255483584e-10 4.389905201998548e-09 -1.0
  outer loop
    vertex 175.300000608282 7.559312216409708e-07 -24.99999976088129
    vertex 193.00000054913625 42.700000703245664 -24.999999337784605
    vertex 185.30000046060627 7.134383843249851e-07 -24.999999740567347
  endloop
endfacet
facet normal 4.2527088255483584e-10 4.389905201998548e-09 -1.0
  outer loop
    vertex 185.30000046060627 7.134383843249851e-07 -24.999999740567347
    vertex 193.00000054913625 42.700000703245664 -24.999999337784605
    vertex 218.00000046060615 32.70000071343934 -24.999999478755342
  endloop
endfacet
facet normal 4.2527088255483584e-10 4.389905201998548e-09 -1.0
  outer loop
    vertex 218.00000046060615 32.70000071343934 -24.999999478755342
    vertex 193.00000054913625 42.700000703245664 -24.999999337784605
    vertex 218.00000050327162 42.70000070324574 -24.999999327152842
  endloop
endfacet
facet normal -8.4985669281895e-10 -1.0 -4.389905202359967e-09
  outer loop
    vertex 185.30000046060627 7.134383843249851e-07 -24.999999740567347
    vertex 135.30000043798307 6.461835912352498e-07 2.9065637334735324e-07
    vertex 175.300000608282 7.559312216409708e-07 -24.99999976088129
  endloop
endfacet
facet normal -8.4985669281895e-10 -1.0 -4.389905202359967e-09
  outer loop
    vertex 135.30000043798307 6.461835912352498e-07 2.9065637334735324e-07
    vertex 185.30000046060627 7.134383843249851e-07 -24.999999740567347
    vertex 185.3000004499745 6.036907542750214e-07 2.5943265260508495e-07
  endloop
endfacet
facet normal -4.2527088255483584e-10 -4.389905201998548e-09 1.0
  outer loop
    vertex 185.3000004499745 6.036907542750214e-07 2.5943265260508495e-07
    vertex 135.30000043798307 25.000000652642303 4.0040400375307426e-07
    vertex 135.30000043798307 6.461835912352498e-07 2.9065637334735324e-07
  endloop
endfacet
facet normal -4.2527088255483584e-10 -4.389905201998548e-09 1.0
  outer loop
    vertex 135.30000043798307 25.000000652642303 4.0040400375307426e-07
    vertex 185.3000004499745 6.036907542750214e-07 2.5943265260508495e-07
    vertex 175.3000005976502 25.000000652642303 3.488663301576267e-07
  endloop
endfacet
facet normal -4.2527088255483584e-10 -4.389905201998548e-09 1.0
  outer loop
    vertex 175.3000005976502 25.000000652642303 3.488663301576267e-07
    vertex 185.3000004499745 6.036907542750214e-07 2.5943265260508495e-07
    vertex 193.00000053850448 42.70000059349803 6.622153939650488e-07
  endloop
endfacet
facet normal -4.2527088255483584e-10 -4.389905201998548e-09 1.0
  outer loop
    vertex 193.00000053850448 42.70000059349803 6.622153939650488e-07
    vertex 185.3000004499745 6.036907542750214e-07 2.5943265260508495e-07
    vertex 218.00000044997438 32.70000060369171 5.212446575697527e-07
  endloop
endfacet
facet normal -4.2527088255483584e-10 -4.389905201998548e-09 1.0
  outer loop
    vertex 193.00000053850448 42.70000059349803 6.622153939650488e-07
    vertex 218.00000049263977 82.70000059349803 6.728471639183553e-07
    vertex 193.00000053850434 82.700000593498 6.622153939650488e-07
  endloop
endfacet
facet normal -4.2527088255483584e-10 -4.389905201998548e-09 1.0
  outer loop
    vertex 218.00000049263977 82.70000059349803 6.728471639183553e-07
    vertex 193.00000053850448 42.70000059349803 6.622153939650488e-07
    vertex 218.00000044997438 32.70000060369171 5.212446575697527e-07
  endloop
endfacet
facet normal -0.7071067811865768 0.7071067811865183 2.8034198122034206e-09
  outer loop
    vertex 193.00000053850448 42.70000059349803 6.622153939650488e-07
    vertex 175.300000608282 25.000000762389934 -24.99999965113367
    vertex 175.3000005976502 25.000000652642303 3.488663301576267e-07
  endloop
endfacet
facet normal -0.7071067811865768 0.7071067811865183 2.8034198122034206e-09
  outer loop
    vertex 175.300000608282 25.000000762389934 -24.99999965113367
    vertex 193.00000053850448 42.70000059349803 6.622153939650488e-07
    vertex 193.00000054913625 42.700000703245664 -24.999999337784605
  endloop
endfacet
facet normal 1.0 -4.26655244312639e-09 4.252708638250751e-10
  outer loop
    vertex 218.00000046060615 32.70000071343934 -24.999999478755342
    vertex 218.00000049263977 82.70000059349803 6.728471639183553e-07
    vertex 218.00000044997438 32.70000060369171 5.212446575697527e-07
  endloop
endfacet
facet normal 1.0 -4.26655244312639e-09 4.252708638250751e-10
  outer loop
    vertex 218.00000049263977 82.70000059349803 6.728471639183553e-07
    vertex 218.00000046060615 32.70000071343934 -24.999999478755342
    vertex 218.00000050327162 42.70000070324574 -24.999999327152842
  endloop
endfacet
facet normal 0.707106781186559 -0.707106781186536 -2.8034198122035066e-09
  outer loop
    vertex 185.30000046060627 7.134383843249851e-07 -24.999999740567347
    vertex 218.00000044997438 32.70000060369171 5.212446575697527e-07
    vertex 185.3000004499745 6.036907542750214e-07 2.5943265260508495e-07
  endloop
endfacet
facet normal 0.707106781186559 -0.707106781186536 -2.8034198122035066e-09
  outer loop
    vertex 218.00000044997438 32.70000060369171 5.212446575697527e-07
    vertex 185.30000046060627 7.134383843249851e-07 -24.999999740567347
    vertex 218.00000046060615 32.70000071343934 -24.999999478755342
  endloop
endfacet
facet normal -1.0 -3.3839597791046298e-15 -4.252707981322749e-10
  outer loop
    vertex 193.00000053850434 82.700000593498 6.622153939650488e-07
    vertex 193.00000054913625 42.700000703245664 -24.999999337784605
    vertex 193.00000053850448 42.70000059349803 6.622153939650488e-07
  endloop
endfacet
facet normal 3.606271217860231e-10 0.5299989410488635 -0.8479983033515358
  outer loop
    vertex 218.00000049263977 82.70000059349803 6.728471639183553e-07
    vertex 193.00000054913625 42.700000703245664 -24.999999337784605
    vertex 193.00000053850434 82.700000593498 6.622153939650488e-07
  endloop
endfacet
facet normal 3.606271217860231e-10 0.5299989410488635 -0.8479983033515358
  outer loop
    vertex 193.00000054913625 42.700000703245664 -24.999999337784605
    vertex 218.00000049263977 82.70000059349803 6.728471639183553e-07
    vertex 218.00000050327162 42.70000070324574 -24.999999327152842
  endloop
endfacet
endsolid AutomaticCoiler
