solid AutomaticCoiler
facet normal 0.9914448613738109 0.13052619222004835 -7.304076646094108e-19
  outer loop
    vertex 155.25757676390248 63.72320655540891 73.99999901696816
    vertex 155.35128074160752 63.011454181376976 78.99999924876964
    vertex 155.35128074160752 63.011454181376976 73.99999901696816
  endloop
endfacet
facet normal 0.9914448613738109 0.13052619222004835 -7.304076646094108e-19
  outer loop
    vertex 155.35128074160752 63.011454181376976 78.99999924876964
    vertex 155.25757676390248 63.72320655540891 73.99999901696816
    vertex 155.25757676390248 63.72320655540891 78.99999924876964
  endloop
endfacet
facet normal -0.13052619222005138 -0.9914448613738105 0.0
  outer loop
    vertex 152.60128074160752 60.26145418137697 78.99999924876964
    vertex 151.8895283675756 60.35515815908203 73.99999901696816
    vertex 152.60128074160752 60.26145418137697 73.99999901696816
  endloop
endfacet
facet normal -0.13052619222005138 -0.9914448613738105 0.0
  outer loop
    vertex 151.8895283675756 60.35515815908203 73.99999901696816
    vertex 152.60128074160752 60.26145418137697 78.99999924876964
    vertex 151.8895283675756 60.35515815908203 78.99999924876964
  endloop
endfacet
facet normal 0.7933533402912336 0.6087614290087227 -3.0982392707634474e-30
  outer loop
    vertex 154.54582438987052 64.95599782963998 73.99999901696816
    vertex 154.98285060201474 64.38645418137698 78.99999924876964
    vertex 154.98285060201474 64.38645418137698 73.99999901696816
  endloop
endfacet
facet normal 0.7933533402912336 0.6087614290087227 -3.0982392707634474e-30
  outer loop
    vertex 154.98285060201474 64.38645418137698 78.99999924876964
    vertex 154.54582438987052 64.95599782963998 73.99999901696816
    vertex 154.54582438987052 64.95599782963998 78.99999924876964
  endloop
endfacet
facet normal 0.3826834323650829 0.9238795325112897 -4.702005929879698e-30
  outer loop
    vertex 153.31303311563946 65.66775020367191 78.99999924876964
    vertex 153.97628074160752 65.39302404178417 73.99999901696816
    vertex 153.31303311563946 65.66775020367191 73.99999901696816
  endloop
endfacet
facet normal 0.3826834323650829 0.9238795325112897 -4.702005929879698e-30
  outer loop
    vertex 153.97628074160752 65.39302404178417 73.99999901696816
    vertex 153.31303311563946 65.66775020367191 78.99999924876964
    vertex 153.97628074160752 65.39302404178417 78.99999924876964
  endloop
endfacet
facet normal -0.7933533402912336 0.6087614290087227 -3.0982392707634467e-30
  outer loop
    vertex 150.65673709334453 64.95599782963998 78.99999924876964
    vertex 150.2197108812003 64.38645418137698 73.99999901696816
    vertex 150.2197108812003 64.38645418137698 78.99999924876964
  endloop
endfacet
facet normal -0.7933533402912336 0.6087614290087227 -3.0982392707634467e-30
  outer loop
    vertex 150.2197108812003 64.38645418137698 73.99999901696816
    vertex 150.65673709334453 64.95599782963998 78.99999924876964
    vertex 150.65673709334453 64.95599782963998 73.99999901696816
  endloop
endfacet
facet normal -0.6087614290087204 0.7933533402912354 -4.037704028791946e-30
  outer loop
    vertex 150.65673709334453 64.95599782963998 78.99999924876964
    vertex 151.22628074160752 65.39302404178417 73.99999901696816
    vertex 150.65673709334453 64.95599782963998 73.99999901696816
  endloop
endfacet
facet normal -0.6087614290087204 0.7933533402912354 -4.037704028791946e-30
  outer loop
    vertex 151.22628074160752 65.39302404178417 73.99999901696816
    vertex 150.65673709334453 64.95599782963998 78.99999924876964
    vertex 151.22628074160752 65.39302404178417 78.99999924876964
  endloop
endfacet
facet normal -0.13052619222005138 0.9914448613738105 0.0
  outer loop
    vertex 151.8895283675756 65.66775020367191 78.99999924876964
    vertex 152.60128074160752 65.76145418137696 73.99999901696816
    vertex 151.8895283675756 65.66775020367191 73.99999901696816
  endloop
endfacet
facet normal -0.13052619222005138 0.9914448613738105 0.0
  outer loop
    vertex 152.60128074160752 65.76145418137696 73.99999901696816
    vertex 151.8895283675756 65.66775020367191 78.99999924876964
    vertex 152.60128074160752 65.76145418137696 78.99999924876964
  endloop
endfacet
facet normal -0.9238795325112817 -0.3826834323651019 -4.435081783634956e-19
  outer loop
    vertex 149.94498471931257 62.29970180734504 78.99999924876964
    vertex 150.2197108812003 61.63645418137697 73.99999901696816
    vertex 150.2197108812003 61.63645418137697 78.99999924876964
  endloop
endfacet
facet normal -0.9238795325112817 -0.3826834323651019 -4.435081783634956e-19
  outer loop
    vertex 150.2197108812003 61.63645418137697 73.99999901696816
    vertex 149.94498471931257 62.29970180734504 78.99999924876964
    vertex 149.94498471931257 62.29970180734504 73.99999901696816
  endloop
endfacet
facet normal 0.13052619222005138 0.9914448613738105 0.0
  outer loop
    vertex 152.60128074160752 65.76145418137696 78.99999924876964
    vertex 153.31303311563946 65.66775020367191 73.99999901696816
    vertex 152.60128074160752 65.76145418137696 73.99999901696816
  endloop
endfacet
facet normal 0.13052619222005138 0.9914448613738105 0.0
  outer loop
    vertex 153.31303311563946 65.66775020367191 73.99999901696816
    vertex 152.60128074160752 65.76145418137696 78.99999924876964
    vertex 153.31303311563946 65.66775020367191 78.99999924876964
  endloop
endfacet
facet normal 0.1305261922200525 -0.9914448613738103 0.0
  outer loop
    vertex 153.76596644456887 58.66478796307616 132.99999924876965
    vertex 152.60128074160752 58.51145418137696 78.99999924876964
    vertex 153.76596644456887 58.66478796307616 78.99999924876964
  endloop
endfacet
facet normal 0.1305261922200525 -0.9914448613738103 0.0
  outer loop
    vertex 152.60128074160752 58.51145418137696 78.99999924876964
    vertex 153.76596644456887 58.66478796307616 132.99999924876965
    vertex 152.60128074160752 58.51145418137696 132.99999924876965
  endloop
endfacet
facet normal -0.1305261922200525 -0.9914448613738103 -0.0
  outer loop
    vertex 152.60128074160752 58.51145418137696 132.99999924876965
    vertex 151.43659503864617 58.66478796307616 78.99999924876964
    vertex 152.60128074160752 58.51145418137696 78.99999924876964
  endloop
endfacet
facet normal -0.1305261922200525 -0.9914448613738103 -0.0
  outer loop
    vertex 151.43659503864617 58.66478796307616 78.99999924876964
    vertex 152.60128074160752 58.51145418137696 132.99999924876965
    vertex 151.43659503864617 58.66478796307616 132.99999924876965
  endloop
endfacet
facet normal 0.9914448613738089 -0.13052619222006318 0.0
  outer loop
    vertex 157.10128074160752 63.011454181376976 78.99999924876964
    vertex 156.94794695990834 61.846768478415626 132.99999924876965
    vertex 156.94794695990834 61.846768478415626 78.99999924876964
  endloop
endfacet
facet normal 0.9914448613738089 -0.13052619222006318 0.0
  outer loop
    vertex 156.94794695990834 61.846768478415626 132.99999924876965
    vertex 157.10128074160752 63.011454181376976 78.99999924876964
    vertex 157.10128074160752 63.011454181376976 132.99999924876965
  endloop
endfacet
facet normal 0.0 0.0 1.0
  outer loop
    vertex 148.2546145233067 61.846768478415626 132.99999924876965
    vertex 148.2546145233067 64.17613988433833 132.99999924876965
    vertex 148.1012807416075 63.011454181376976 132.99999924876965
  endloop
endfacet
facet normal 0.0 0.0 1.0
  outer loop
    vertex 148.2546145233067 64.17613988433833 132.99999924876965
    vertex 148.2546145233067 61.846768478415626 132.99999924876965
    vertex 148.70416642457755 60.76145418137697 132.99999924876965
  endloop
endfacet
facet normal 0.0 0.0 1.0
  outer loop
    vertex 148.2546145233067 64.17613988433833 132.99999924876965
    vertex 148.70416642457755 60.76145418137697 132.99999924876965
    vertex 148.70416642457755 65.26145418137698 132.99999924876965
  endloop
endfacet
facet normal 0.0 0.0 1.0
  outer loop
    vertex 148.70416642457755 65.26145418137698 132.99999924876965
    vertex 148.70416642457755 60.76145418137697 132.99999924876965
    vertex 149.41930022626804 59.8294736660375 132.99999924876965
  endloop
endfacet
facet normal 0.0 0.0 1.0
  outer loop
    vertex 148.70416642457755 65.26145418137698 132.99999924876965
    vertex 149.41930022626804 59.8294736660375 132.99999924876965
    vertex 149.41930022626804 66.19343469671645 132.99999924876965
  endloop
endfacet
facet normal 0.0 0.0 1.0
  outer loop
    vertex 149.41930022626804 66.19343469671645 132.99999924876965
    vertex 149.41930022626804 59.8294736660375 132.99999924876965
    vertex 150.3512807416075 59.11433986434699 132.99999924876965
  endloop
endfacet
facet normal 0.0 0.0 1.0
  outer loop
    vertex 149.41930022626804 66.19343469671645 132.99999924876965
    vertex 150.3512807416075 59.11433986434699 132.99999924876965
    vertex 150.35128074160752 66.90856849840696 132.99999924876965
  endloop
endfacet
facet normal 0.0 0.0 1.0
  outer loop
    vertex 150.35128074160752 66.90856849840696 132.99999924876965
    vertex 150.3512807416075 59.11433986434699 132.99999924876965
    vertex 151.43659503864617 58.66478796307616 132.99999924876965
  endloop
endfacet
facet normal 0.0 0.0 1.0
  outer loop
    vertex 150.35128074160752 66.90856849840696 132.99999924876965
    vertex 151.43659503864617 58.66478796307616 132.99999924876965
    vertex 151.43659503864617 67.35812039967779 132.99999924876965
  endloop
endfacet
facet normal 0.0 0.0 1.0
  outer loop
    vertex 151.43659503864617 67.35812039967779 132.99999924876965
    vertex 151.43659503864617 58.66478796307616 132.99999924876965
    vertex 152.60128074160752 58.51145418137696 132.99999924876965
  endloop
endfacet
facet normal 0.0 0.0 1.0
  outer loop
    vertex 151.43659503864617 67.35812039967779 132.99999924876965
    vertex 152.60128074160752 58.51145418137696 132.99999924876965
    vertex 152.60128074160752 67.51145418137699 132.99999924876965
  endloop
endfacet
facet normal 0.0 0.0 1.0
  outer loop
    vertex 152.60128074160752 67.51145418137699 132.99999924876965
    vertex 152.60128074160752 58.51145418137696 132.99999924876965
    vertex 153.76596644456887 58.66478796307616 132.99999924876965
  endloop
endfacet
facet normal 0.0 0.0 1.0
  outer loop
    vertex 152.60128074160752 67.51145418137699 132.99999924876965
    vertex 153.76596644456887 58.66478796307616 132.99999924876965
    vertex 153.76596644456887 67.35812039967779 132.99999924876965
  endloop
endfacet
facet normal 0.0 0.0 1.0
  outer loop
    vertex 153.76596644456887 67.35812039967779 132.99999924876965
    vertex 153.76596644456887 58.66478796307616 132.99999924876965
    vertex 154.8512807416075 59.11433986434699 132.99999924876965
  endloop
endfacet
facet normal 0.0 0.0 1.0
  outer loop
    vertex 153.76596644456887 67.35812039967779 132.99999924876965
    vertex 154.8512807416075 59.11433986434699 132.99999924876965
    vertex 154.85128074160755 66.90856849840696 132.99999924876965
  endloop
endfacet
facet normal 0.0 0.0 1.0
  outer loop
    vertex 154.85128074160755 66.90856849840696 132.99999924876965
    vertex 154.8512807416075 59.11433986434699 132.99999924876965
    vertex 155.78326125694701 59.8294736660375 132.99999924876965
  endloop
endfacet
facet normal 0.0 0.0 1.0
  outer loop
    vertex 154.85128074160755 66.90856849840696 132.99999924876965
    vertex 155.78326125694701 59.8294736660375 132.99999924876965
    vertex 155.78326125694701 66.19343469671645 132.99999924876965
  endloop
endfacet
facet normal 0.0 0.0 1.0
  outer loop
    vertex 155.78326125694701 66.19343469671645 132.99999924876965
    vertex 155.78326125694701 59.8294736660375 132.99999924876965
    vertex 156.4983950586375 60.76145418137697 132.99999924876965
  endloop
endfacet
facet normal 0.0 0.0 1.0
  outer loop
    vertex 155.78326125694701 66.19343469671645 132.99999924876965
    vertex 156.4983950586375 60.76145418137697 132.99999924876965
    vertex 156.4983950586375 65.26145418137698 132.99999924876965
  endloop
endfacet
facet normal 0.0 0.0 1.0
  outer loop
    vertex 156.4983950586375 65.26145418137698 132.99999924876965
    vertex 156.4983950586375 60.76145418137697 132.99999924876965
    vertex 156.94794695990834 61.846768478415626 132.99999924876965
  endloop
endfacet
facet normal 0.0 0.0 1.0
  outer loop
    vertex 156.4983950586375 65.26145418137698 132.99999924876965
    vertex 156.94794695990834 61.846768478415626 132.99999924876965
    vertex 156.94794695990834 64.17613988433833 132.99999924876965
  endloop
endfacet
facet normal 0.0 0.0 1.0
  outer loop
    vertex 156.94794695990834 64.17613988433833 132.99999924876965
    vertex 156.94794695990834 61.846768478415626 132.99999924876965
    vertex 157.10128074160752 63.011454181376976 132.99999924876965
  endloop
endfacet
facet normal -0.3826834323650856 -0.9238795325112885 -0.0
  outer loop
    vertex 151.43659503864617 58.66478796307616 132.99999924876965
    vertex 150.3512807416075 59.11433986434699 78.99999924876964
    vertex 151.43659503864617 58.66478796307616 78.99999924876964
  endloop
endfacet
facet normal -0.3826834323650856 -0.9238795325112885 -0.0
  outer loop
    vertex 150.3512807416075 59.11433986434699 78.99999924876964
    vertex 151.43659503864617 58.66478796307616 132.99999924876965
    vertex 150.3512807416075 59.11433986434699 132.99999924876965
  endloop
endfacet
facet normal -0.6087614290087033 0.7933533402912485 0.0
  outer loop
    vertex 149.41930022626804 66.19343469671645 132.99999924876965
    vertex 150.35128074160752 66.90856849840696 78.99999924876964
    vertex 149.41930022626804 66.19343469671645 78.99999924876964
  endloop
endfacet
facet normal -0.6087614290087033 0.7933533402912485 0.0
  outer loop
    vertex 150.35128074160752 66.90856849840696 78.99999924876964
    vertex 149.41930022626804 66.19343469671645 132.99999924876965
    vertex 150.35128074160752 66.90856849840696 132.99999924876965
  endloop
endfacet
facet normal 0.7933533402912482 0.6087614290087037 0.0
  outer loop
    vertex 155.78326125694701 66.19343469671645 78.99999924876964
    vertex 156.4983950586375 65.26145418137698 132.99999924876965
    vertex 156.4983950586375 65.26145418137698 78.99999924876964
  endloop
endfacet
facet normal 0.7933533402912482 0.6087614290087037 0.0
  outer loop
    vertex 156.4983950586375 65.26145418137698 132.99999924876965
    vertex 155.78326125694701 66.19343469671645 78.99999924876964
    vertex 155.78326125694701 66.19343469671645 132.99999924876965
  endloop
endfacet
facet normal -0.9914448613738089 -0.13052619222006318 -0.0
  outer loop
    vertex 148.1012807416075 63.011454181376976 132.99999924876965
    vertex 148.2546145233067 61.846768478415626 78.99999924876964
    vertex 148.2546145233067 61.846768478415626 132.99999924876965
  endloop
endfacet
facet normal -0.9914448613738089 -0.13052619222006318 -0.0
  outer loop
    vertex 148.2546145233067 61.846768478415626 78.99999924876964
    vertex 148.1012807416075 63.011454181376976 132.99999924876965
    vertex 148.1012807416075 63.011454181376976 78.99999924876964
  endloop
endfacet
facet normal 0.9238795325112872 -0.382683432365089 0.0
  outer loop
    vertex 156.94794695990834 61.846768478415626 78.99999924876964
    vertex 156.4983950586375 60.76145418137697 132.99999924876965
    vertex 156.4983950586375 60.76145418137697 78.99999924876964
  endloop
endfacet
facet normal 0.9238795325112872 -0.382683432365089 0.0
  outer loop
    vertex 156.4983950586375 60.76145418137697 132.99999924876965
    vertex 156.94794695990834 61.846768478415626 78.99999924876964
    vertex 156.94794695990834 61.846768478415626 132.99999924876965
  endloop
endfacet
facet normal -0.9238795325112872 -0.382683432365089 -0.0
  outer loop
    vertex 148.2546145233067 61.846768478415626 132.99999924876965
    vertex 148.70416642457755 60.76145418137697 78.99999924876964
    vertex 148.70416642457755 60.76145418137697 132.99999924876965
  endloop
endfacet
facet normal -0.9238795325112872 -0.382683432365089 -0.0
  outer loop
    vertex 148.70416642457755 60.76145418137697 78.99999924876964
    vertex 148.2546145233067 61.846768478415626 132.99999924876965
    vertex 148.2546145233067 61.846768478415626 78.99999924876964
  endloop
endfacet
facet normal 0.6087614290087219 0.7933533402912343 0.0
  outer loop
    vertex 154.85128074160755 66.90856849840696 132.99999924876965
    vertex 155.78326125694701 66.19343469671645 78.99999924876964
    vertex 154.85128074160755 66.90856849840696 78.99999924876964
  endloop
endfacet
facet normal 0.6087614290087219 0.7933533402912343 0.0
  outer loop
    vertex 155.78326125694701 66.19343469671645 78.99999924876964
    vertex 154.85128074160755 66.90856849840696 132.99999924876965
    vertex 155.78326125694701 66.19343469671645 132.99999924876965
  endloop
endfacet
facet normal 0.6087614290087033 -0.7933533402912485 0.0
  outer loop
    vertex 155.78326125694701 59.8294736660375 132.99999924876965
    vertex 154.8512807416075 59.11433986434699 78.99999924876964
    vertex 155.78326125694701 59.8294736660375 78.99999924876964
  endloop
endfacet
facet normal 0.6087614290087033 -0.7933533402912485 0.0
  outer loop
    vertex 154.8512807416075 59.11433986434699 78.99999924876964
    vertex 155.78326125694701 59.8294736660375 132.99999924876965
    vertex 154.8512807416075 59.11433986434699 132.99999924876965
  endloop
endfacet
facet normal -0.6087614290087219 -0.7933533402912343 -0.0
  outer loop
    vertex 150.3512807416075 59.11433986434699 132.99999924876965
    vertex 149.41930022626804 59.8294736660375 78.99999924876964
    vertex 150.3512807416075 59.11433986434699 78.99999924876964
  endloop
endfacet
facet normal -0.6087614290087219 -0.7933533402912343 -0.0
  outer loop
    vertex 149.41930022626804 59.8294736660375 78.99999924876964
    vertex 150.3512807416075 59.11433986434699 132.99999924876965
    vertex 149.41930022626804 59.8294736660375 132.99999924876965
  endloop
endfacet
facet normal -0.9238795325112872 0.382683432365089 0.0
  outer loop
    vertex 148.70416642457755 65.26145418137698 132.99999924876965
    vertex 148.2546145233067 64.17613988433833 78.99999924876964
    vertex 148.2546145233067 64.17613988433833 132.99999924876965
  endloop
endfacet
facet normal -0.9238795325112872 0.382683432365089 0.0
  outer loop
    vertex 148.2546145233067 64.17613988433833 78.99999924876964
    vertex 148.70416642457755 65.26145418137698 132.99999924876965
    vertex 148.70416642457755 65.26145418137698 78.99999924876964
  endloop
endfacet
facet normal -0.9914448613738089 0.13052619222006318 0.0
  outer loop
    vertex 148.2546145233067 64.17613988433833 132.99999924876965
    vertex 148.1012807416075 63.011454181376976 78.99999924876964
    vertex 148.1012807416075 63.011454181376976 132.99999924876965
  endloop
endfacet
facet normal -0.9914448613738089 0.13052619222006318 0.0
  outer loop
    vertex 148.1012807416075 63.011454181376976 78.99999924876964
    vertex 148.2546145233067 64.17613988433833 132.99999924876965
    vertex 148.2546145233067 64.17613988433833 78.99999924876964
  endloop
endfacet
facet normal 0.3826834323650856 0.9238795325112885 0.0
  outer loop
    vertex 153.76596644456887 67.35812039967779 132.99999924876965
    vertex 154.85128074160755 66.90856849840696 78.99999924876964
    vertex 153.76596644456887 67.35812039967779 78.99999924876964
  endloop
endfacet
facet normal 0.3826834323650856 0.9238795325112885 0.0
  outer loop
    vertex 154.85128074160755 66.90856849840696 78.99999924876964
    vertex 153.76596644456887 67.35812039967779 132.99999924876965
    vertex 154.85128074160755 66.90856849840696 132.99999924876965
  endloop
endfacet
facet normal -0.3826834323650993 0.923879532511283 0.0
  outer loop
    vertex 150.35128074160752 66.90856849840696 132.99999924876965
    vertex 151.43659503864617 67.35812039967779 78.99999924876964
    vertex 150.35128074160752 66.90856849840696 78.99999924876964
  endloop
endfacet
facet normal -0.3826834323650993 0.923879532511283 0.0
  outer loop
    vertex 151.43659503864617 67.35812039967779 78.99999924876964
    vertex 150.35128074160752 66.90856849840696 132.99999924876965
    vertex 151.43659503864617 67.35812039967779 132.99999924876965
  endloop
endfacet
facet normal -0.7933533402912482 -0.6087614290087037 -0.0
  outer loop
    vertex 148.70416642457755 60.76145418137697 132.99999924876965
    vertex 149.41930022626804 59.8294736660375 78.99999924876964
    vertex 149.41930022626804 59.8294736660375 132.99999924876965
  endloop
endfacet
facet normal -0.7933533402912482 -0.6087614290087037 -0.0
  outer loop
    vertex 149.41930022626804 59.8294736660375 78.99999924876964
    vertex 148.70416642457755 60.76145418137697 132.99999924876965
    vertex 148.70416642457755 60.76145418137697 78.99999924876964
  endloop
endfacet
facet normal 0.9238795325112872 0.382683432365089 0.0
  outer loop
    vertex 156.4983950586375 65.26145418137698 78.99999924876964
    vertex 156.94794695990834 64.17613988433833 132.99999924876965
    vertex 156.94794695990834 64.17613988433833 78.99999924876964
  endloop
endfacet
facet normal 0.9238795325112872 0.382683432365089 0.0
  outer loop
    vertex 156.94794695990834 64.17613988433833 132.99999924876965
    vertex 156.4983950586375 65.26145418137698 78.99999924876964
    vertex 156.4983950586375 65.26145418137698 132.99999924876965
  endloop
endfacet
facet normal -0.7933533402912482 0.6087614290087037 0.0
  outer loop
    vertex 149.41930022626804 66.19343469671645 132.99999924876965
    vertex 148.70416642457755 65.26145418137698 78.99999924876964
    vertex 148.70416642457755 65.26145418137698 132.99999924876965
  endloop
endfacet
facet normal -0.7933533402912482 0.6087614290087037 0.0
  outer loop
    vertex 148.70416642457755 65.26145418137698 78.99999924876964
    vertex 149.41930022626804 66.19343469671645 132.99999924876965
    vertex 149.41930022626804 66.19343469671645 78.99999924876964
  endloop
endfacet
facet normal 0.7933533402912482 -0.6087614290087037 0.0
  outer loop
    vertex 156.4983950586375 60.76145418137697 78.99999924876964
    vertex 155.78326125694701 59.8294736660375 132.99999924876965
    vertex 155.78326125694701 59.8294736660375 78.99999924876964
  endloop
endfacet
facet normal 0.7933533402912482 -0.6087614290087037 0.0
  outer loop
    vertex 155.78326125694701 59.8294736660375 132.99999924876965
    vertex 156.4983950586375 60.76145418137697 78.99999924876964
    vertex 156.4983950586375 60.76145418137697 132.99999924876965
  endloop
endfacet
facet normal 0.1305261922200525 0.9914448613738103 0.0
  outer loop
    vertex 152.60128074160752 67.51145418137699 132.99999924876965
    vertex 153.76596644456887 67.35812039967779 78.99999924876964
    vertex 152.60128074160752 67.51145418137699 78.99999924876964
  endloop
endfacet
facet normal 0.1305261922200525 0.9914448613738103 0.0
  outer loop
    vertex 153.76596644456887 67.35812039967779 78.99999924876964
    vertex 152.60128074160752 67.51145418137699 132.99999924876965
    vertex 153.76596644456887 67.35812039967779 132.99999924876965
  endloop
endfacet
facet normal 0.3826834323650993 -0.923879532511283 0.0
  outer loop
    vertex 154.8512807416075 59.11433986434699 132.99999924876965
    vertex 153.76596644456887 58.66478796307616 78.99999924876964
    vertex 154.8512807416075 59.11433986434699 78.99999924876964
  endloop
endfacet
facet normal 0.3826834323650993 -0.923879532511283 0.0
  outer loop
    vertex 153.76596644456887 58.66478796307616 78.99999924876964
    vertex 154.8512807416075 59.11433986434699 132.99999924876965
    vertex 153.76596644456887 58.66478796307616 132.99999924876965
  endloop
endfacet
facet normal 0.9914448613738089 0.13052619222006318 0.0
  outer loop
    vertex 156.94794695990834 64.17613988433833 78.99999924876964
    vertex 157.10128074160752 63.011454181376976 132.99999924876965
    vertex 157.10128074160752 63.011454181376976 78.99999924876964
  endloop
endfacet
facet normal 0.9914448613738089 0.13052619222006318 0.0
  outer loop
    vertex 157.10128074160752 63.011454181376976 132.99999924876965
    vertex 156.94794695990834 64.17613988433833 78.99999924876964
    vertex 156.94794695990834 64.17613988433833 132.99999924876965
  endloop
endfacet
facet normal -0.1305261922200525 0.9914448613738103 0.0
  outer loop
    vertex 151.43659503864617 67.35812039967779 132.99999924876965
    vertex 152.60128074160752 67.51145418137699 78.99999924876964
    vertex 151.43659503864617 67.35812039967779 78.99999924876964
  endloop
endfacet
facet normal -0.1305261922200525 0.9914448613738103 0.0
  outer loop
    vertex 152.60128074160752 67.51145418137699 78.99999924876964
    vertex 151.43659503864617 67.35812039967779 132.99999924876965
    vertex 152.60128074160752 67.51145418137699 132.99999924876965
  endloop
endfacet
facet normal 0.3826834323650829 -0.9238795325112897 0.0
  outer loop
    vertex 153.97628074160752 60.62988432096977 78.99999924876964
    vertex 153.31303311563946 60.35515815908203 73.99999901696816
    vertex 153.97628074160752 60.62988432096977 73.99999901696816
  endloop
endfacet
facet normal 0.3826834323650829 -0.9238795325112897 0.0
  outer loop
    vertex 153.31303311563946 60.35515815908203 73.99999901696816
    vertex 153.97628074160752 60.62988432096977 78.99999924876964
    vertex 153.31303311563946 60.35515815908203 78.99999924876964
  endloop
endfacet
facet normal 0.9914448613738107 -0.13052619222005038 -7.304076645899031e-19
  outer loop
    vertex 155.35128074160752 63.011454181376976 73.99999901696816
    vertex 155.25757676390248 62.29970180734504 78.99999924876964
    vertex 155.25757676390248 62.29970180734504 73.99999901696816
  endloop
endfacet
facet normal 0.9914448613738107 -0.13052619222005038 -7.304076645899031e-19
  outer loop
    vertex 155.25757676390248 62.29970180734504 78.99999924876964
    vertex 155.35128074160752 63.011454181376976 73.99999901696816
    vertex 155.35128074160752 63.011454181376976 78.99999924876964
  endloop
endfacet
facet normal -0.9914448613738107 -0.13052619222004933 -1.0091747794556637e-29
  outer loop
    vertex 149.85128074160752 63.011454181376976 78.99999924876964
    vertex 149.94498471931257 62.29970180734504 73.99999901696816
    vertex 149.94498471931257 62.29970180734504 78.99999924876964
  endloop
endfacet
facet normal -0.9914448613738107 -0.13052619222004933 -1.0091747794556637e-29
  outer loop
    vertex 149.94498471931257 62.29970180734504 73.99999901696816
    vertex 149.85128074160752 63.011454181376976 78.99999924876964
    vertex 149.85128074160752 63.011454181376976 73.99999901696816
  endloop
endfacet
facet normal 0.7933533402912336 -0.6087614290087227 3.0982392707634474e-30
  outer loop
    vertex 154.98285060201474 61.63645418137697 73.99999901696816
    vertex 154.54582438987052 61.06691053311396 78.99999924876964
    vertex 154.54582438987052 61.06691053311396 73.99999901696816
  endloop
endfacet
facet normal 0.7933533402912336 -0.6087614290087227 3.0982392707634474e-30
  outer loop
    vertex 154.54582438987052 61.06691053311396 78.99999924876964
    vertex 154.98285060201474 61.63645418137697 73.99999901696816
    vertex 154.98285060201474 61.63645418137697 78.99999924876964
  endloop
endfacet
facet normal -0.3826834323650829 0.9238795325112897 -4.702005929879698e-30
  outer loop
    vertex 151.22628074160752 65.39302404178417 78.99999924876964
    vertex 151.8895283675756 65.66775020367191 73.99999901696816
    vertex 151.22628074160752 65.39302404178417 73.99999901696816
  endloop
endfacet
facet normal -0.3826834323650829 0.9238795325112897 -4.702005929879698e-30
  outer loop
    vertex 151.8895283675756 65.66775020367191 73.99999901696816
    vertex 151.22628074160752 65.39302404178417 78.99999924876964
    vertex 151.8895283675756 65.66775020367191 78.99999924876964
  endloop
endfacet
facet normal 0.9238795325112817 -0.3826834323651019 -2.5849550968777892e-18
  outer loop
    vertex 155.25757676390248 62.29970180734504 73.99999901696816
    vertex 154.98285060201474 61.63645418137697 78.99999924876964
    vertex 154.98285060201474 61.63645418137697 73.99999901696816
  endloop
endfacet
facet normal 0.9238795325112817 -0.3826834323651019 -2.5849550968777892e-18
  outer loop
    vertex 154.98285060201474 61.63645418137697 78.99999924876964
    vertex 155.25757676390248 62.29970180734504 73.99999901696816
    vertex 155.25757676390248 62.29970180734504 78.99999924876964
  endloop
endfacet
facet normal -0.7933533402912307 -0.6087614290087264 -1.5491196353817332e-30
  outer loop
    vertex 150.2197108812003 61.63645418137697 78.99999924876964
    vertex 150.65673709334453 61.066910533113976 73.99999901696816
    vertex 150.65673709334453 61.066910533113976 78.99999924876964
  endloop
endfacet
facet normal -0.7933533402912307 -0.6087614290087264 -1.5491196353817332e-30
  outer loop
    vertex 150.65673709334453 61.066910533113976 73.99999901696816
    vertex 150.2197108812003 61.63645418137697 78.99999924876964
    vertex 150.2197108812003 61.63645418137697 73.99999901696816
  endloop
endfacet
facet normal 0.6087614290087253 -0.7933533402912315 2.0188520143959634e-30
  outer loop
    vertex 154.54582438987052 61.06691053311396 78.99999924876964
    vertex 153.97628074160752 60.62988432096977 73.99999901696816
    vertex 154.54582438987052 61.06691053311396 73.99999901696816
  endloop
endfacet
facet normal 0.6087614290087253 -0.7933533402912315 2.0188520143959634e-30
  outer loop
    vertex 153.97628074160752 60.62988432096977 73.99999901696816
    vertex 154.54582438987052 61.06691053311396 78.99999924876964
    vertex 153.97628074160752 60.62988432096977 78.99999924876964
  endloop
endfacet
facet normal 0.6087614290087204 0.7933533402912355 -4.037704028791946e-30
  outer loop
    vertex 153.97628074160752 65.39302404178417 78.99999924876964
    vertex 154.54582438987052 64.95599782963998 73.99999901696816
    vertex 153.97628074160752 65.39302404178417 73.99999901696816
  endloop
endfacet
facet normal 0.6087614290087204 0.7933533402912355 -4.037704028791946e-30
  outer loop
    vertex 154.54582438987052 64.95599782963998 73.99999901696816
    vertex 153.97628074160752 65.39302404178417 78.99999924876964
    vertex 154.54582438987052 64.95599782963998 78.99999924876964
  endloop
endfacet
facet normal 0.13052619222005138 -0.9914448613738105 0.0
  outer loop
    vertex 153.31303311563946 60.35515815908203 78.99999924876964
    vertex 152.60128074160752 60.26145418137697 73.99999901696816
    vertex 153.31303311563946 60.35515815908203 73.99999901696816
  endloop
endfacet
facet normal 0.13052619222005138 -0.9914448613738105 0.0
  outer loop
    vertex 152.60128074160752 60.26145418137697 73.99999901696816
    vertex 153.31303311563946 60.35515815908203 78.99999924876964
    vertex 152.60128074160752 60.26145418137697 78.99999924876964
  endloop
endfacet
facet normal -0.923879532511283 0.38268343236509905 -4.726402015391096e-18
  outer loop
    vertex 150.2197108812003 64.38645418137698 78.99999924876964
    vertex 149.94498471931257 63.7232065554089 73.99999901696816
    vertex 149.94498471931257 63.7232065554089 78.99999924876964
  endloop
endfacet
facet normal -0.923879532511283 0.38268343236509905 -4.726402015391096e-18
  outer loop
    vertex 149.94498471931257 63.7232065554089 73.99999901696816
    vertex 150.2197108812003 64.38645418137698 78.99999924876964
    vertex 150.2197108812003 64.38645418137698 73.99999901696816
  endloop
endfacet
facet normal -0.30708991424112775 0.7413806358289321 -0.5966997045325775
  outer loop
    vertex 151.22628074160752 65.39302404178417 73.99999901696816
    vertex 152.08364265140247 64.94330583395511 72.99999924876964
    vertex 151.6012807416075 64.74350498894584 72.99999924876964
  endloop
endfacet
facet normal -0.30708991424112775 0.7413806358289321 -0.5966997045325775
  outer loop
    vertex 152.08364265140247 64.94330583395511 72.99999924876964
    vertex 151.22628074160752 65.39302404178417 73.99999901696816
    vertex 151.8895283675756 65.66775020367191 73.99999901696816
  endloop
endfacet
facet normal -0.7955994216222767 0.10474265093565384 -0.5966997045325819
  outer loop
    vertex 149.85128074160752 63.011454181376976 73.99999901696816
    vertex 150.6694290890294 63.529092271581995 72.99999924876964
    vertex 150.60128074160752 63.01145418137696 72.99999924876964
  endloop
endfacet
facet normal -0.7955994216222767 0.10474265093565384 -0.5966997045325819
  outer loop
    vertex 150.6694290890294 63.529092271581995 72.99999924876964
    vertex 149.85128074160752 63.011454181376976 73.99999901696816
    vertex 149.94498471931257 63.7232065554089 73.99999901696816
  endloop
endfacet
facet normal -0.10474265093566006 -0.7955994216222777 -0.5966997045325795
  outer loop
    vertex 152.60128074160752 60.26145418137697 73.99999901696816
    vertex 152.0836426514025 61.07960252879883 72.99999924876964
    vertex 152.60128074160755 61.011454181376976 72.99999924876964
  endloop
endfacet
facet normal -0.10474265093566006 -0.7955994216222777 -0.5966997045325795
  outer loop
    vertex 152.0836426514025 61.07960252879883 72.99999924876964
    vertex 152.60128074160752 60.26145418137697 73.99999901696816
    vertex 151.8895283675756 60.35515815908203 73.99999901696816
  endloop
endfacet
facet normal -0.6366379848932636 -0.48850950738115234 -0.5966997045325803
  outer loop
    vertex 150.2197108812003 61.63645418137697 73.99999901696816
    vertex 151.18706717923445 61.59724061900388 72.99999924876964
    vertex 150.65673709334453 61.066910533113976 73.99999901696816
  endloop
endfacet
facet normal -0.6366379848932636 -0.48850950738115234 -0.5966997045325803
  outer loop
    vertex 151.18706717923445 61.59724061900388 72.99999924876964
    vertex 150.2197108812003 61.63645418137697 73.99999901696816
    vertex 150.86922993403866 62.01145418137696 72.99999924876964
  endloop
endfacet
facet normal -0.1047426509356619 0.7955994216222793 -0.5966997045325771
  outer loop
    vertex 151.8895283675756 65.66775020367191 73.99999901696816
    vertex 152.6012807416075 65.01145418137698 72.99999924876964
    vertex 152.08364265140247 64.94330583395511 72.99999924876964
  endloop
endfacet
facet normal -0.1047426509356619 0.7955994216222793 -0.5966997045325771
  outer loop
    vertex 152.6012807416075 65.01145418137698 72.99999924876964
    vertex 151.8895283675756 65.66775020367191 73.99999901696816
    vertex 152.60128074160752 65.76145418137696 73.99999901696816
  endloop
endfacet
facet normal 0.7955994216222781 0.10474265093565255 -0.5966997045325801
  outer loop
    vertex 154.60128074160752 63.01145418137698 72.99999924876964
    vertex 155.25757676390248 63.72320655540891 73.99999901696816
    vertex 155.35128074160752 63.011454181376976 73.99999901696816
  endloop
endfacet
facet normal 0.7955994216222781 0.10474265093565255 -0.5966997045325801
  outer loop
    vertex 155.25757676390248 63.72320655540891 73.99999901696816
    vertex 154.60128074160752 63.01145418137698 72.99999924876964
    vertex 154.53313239418566 63.52909227158203 72.99999924876964
  endloop
endfacet
facet normal 0.3070899142411248 -0.7413806358289322 -0.5966997045325788
  outer loop
    vertex 153.97628074160752 60.62988432096977 73.99999901696816
    vertex 153.11891883181258 61.079602528798844 72.99999924876964
    vertex 153.60128074160755 61.27940337380811 72.99999924876964
  endloop
endfacet
facet normal 0.3070899142411248 -0.7413806358289322 -0.5966997045325788
  outer loop
    vertex 153.11891883181258 61.079602528798844 72.99999924876964
    vertex 153.97628074160752 60.62988432096977 73.99999901696816
    vertex 153.31303311563946 60.35515815908203 73.99999901696816
  endloop
endfacet
facet normal 0.7413806358289282 -0.3070899142411356 -0.5966997045325784
  outer loop
    vertex 154.33333154917642 62.01145418137699 72.99999924876964
    vertex 155.25757676390248 62.29970180734504 73.99999901696816
    vertex 154.98285060201474 61.63645418137697 73.99999901696816
  endloop
endfacet
facet normal 0.7413806358289282 -0.3070899142411356 -0.5966997045325784
  outer loop
    vertex 155.25757676390248 62.29970180734504 73.99999901696816
    vertex 154.33333154917642 62.01145418137699 72.99999924876964
    vertex 154.53313239418566 62.49381609117195 72.99999924876964
  endloop
endfacet
facet normal 0.0 0.0 -1.0
  outer loop
    vertex 148.2546145233067 64.17613988433833 78.99999924876964
    vertex 148.2546145233067 61.846768478415626 78.99999924876964
    vertex 148.1012807416075 63.011454181376976 78.99999924876964
  endloop
endfacet
facet normal 0.0 0.0 -1.0
  outer loop
    vertex 148.2546145233067 61.846768478415626 78.99999924876964
    vertex 148.2546145233067 64.17613988433833 78.99999924876964
    vertex 148.70416642457755 65.26145418137698 78.99999924876964
  endloop
endfacet
facet normal 0.0 0.0 -1.0
  outer loop
    vertex 148.2546145233067 61.846768478415626 78.99999924876964
    vertex 148.70416642457755 65.26145418137698 78.99999924876964
    vertex 148.70416642457755 60.76145418137697 78.99999924876964
  endloop
endfacet
facet normal 0.0 0.0 -1.0
  outer loop
    vertex 148.70416642457755 60.76145418137697 78.99999924876964
    vertex 148.70416642457755 65.26145418137698 78.99999924876964
    vertex 149.41930022626804 66.19343469671645 78.99999924876964
  endloop
endfacet
facet normal 0.0 0.0 -1.0
  outer loop
    vertex 148.70416642457755 60.76145418137697 78.99999924876964
    vertex 149.41930022626804 66.19343469671645 78.99999924876964
    vertex 149.41930022626804 59.8294736660375 78.99999924876964
  endloop
endfacet
facet normal 0.0 0.0 -1.0
  outer loop
    vertex 149.41930022626804 59.8294736660375 78.99999924876964
    vertex 149.41930022626804 66.19343469671645 78.99999924876964
    vertex 150.35128074160752 66.90856849840696 78.99999924876964
  endloop
endfacet
facet normal 0.0 0.0 -1.0
  outer loop
    vertex 149.41930022626804 59.8294736660375 78.99999924876964
    vertex 150.35128074160752 66.90856849840696 78.99999924876964
    vertex 149.85128074160752 63.011454181376976 78.99999924876964
  endloop
endfacet
facet normal 0.0 0.0 -1.0
  outer loop
    vertex 149.85128074160752 63.011454181376976 78.99999924876964
    vertex 150.35128074160752 66.90856849840696 78.99999924876964
    vertex 149.94498471931257 63.7232065554089 78.99999924876964
  endloop
endfacet
facet normal 0.0 0.0 -1.0
  outer loop
    vertex 149.94498471931257 63.7232065554089 78.99999924876964
    vertex 150.35128074160752 66.90856849840696 78.99999924876964
    vertex 150.2197108812003 64.38645418137698 78.99999924876964
  endloop
endfacet
facet normal 0.0 0.0 -1.0
  outer loop
    vertex 150.2197108812003 64.38645418137698 78.99999924876964
    vertex 150.35128074160752 66.90856849840696 78.99999924876964
    vertex 150.65673709334453 64.95599782963998 78.99999924876964
  endloop
endfacet
facet normal 0.0 0.0 -1.0
  outer loop
    vertex 150.65673709334453 64.95599782963998 78.99999924876964
    vertex 150.35128074160752 66.90856849840696 78.99999924876964
    vertex 151.43659503864617 67.35812039967779 78.99999924876964
  endloop
endfacet
facet normal 0.0 0.0 -1.0
  outer loop
    vertex 150.65673709334453 64.95599782963998 78.99999924876964
    vertex 151.43659503864617 67.35812039967779 78.99999924876964
    vertex 151.22628074160752 65.39302404178417 78.99999924876964
  endloop
endfacet
facet normal 0.0 0.0 -1.0
  outer loop
    vertex 151.22628074160752 65.39302404178417 78.99999924876964
    vertex 151.43659503864617 67.35812039967779 78.99999924876964
    vertex 151.8895283675756 65.66775020367191 78.99999924876964
  endloop
endfacet
facet normal 0.0 0.0 -1.0
  outer loop
    vertex 151.8895283675756 65.66775020367191 78.99999924876964
    vertex 151.43659503864617 67.35812039967779 78.99999924876964
    vertex 152.60128074160752 67.51145418137699 78.99999924876964
  endloop
endfacet
facet normal 0.0 0.0 -1.0
  outer loop
    vertex 151.8895283675756 65.66775020367191 78.99999924876964
    vertex 152.60128074160752 67.51145418137699 78.99999924876964
    vertex 152.60128074160752 65.76145418137696 78.99999924876964
  endloop
endfacet
facet normal 0.0 0.0 -1.0
  outer loop
    vertex 152.60128074160752 65.76145418137696 78.99999924876964
    vertex 152.60128074160752 67.51145418137699 78.99999924876964
    vertex 153.76596644456887 67.35812039967779 78.99999924876964
  endloop
endfacet
facet normal 0.0 0.0 -1.0
  outer loop
    vertex 152.60128074160752 65.76145418137696 78.99999924876964
    vertex 153.76596644456887 67.35812039967779 78.99999924876964
    vertex 153.31303311563946 65.66775020367191 78.99999924876964
  endloop
endfacet
facet normal 0.0 0.0 -1.0
  outer loop
    vertex 153.31303311563946 65.66775020367191 78.99999924876964
    vertex 153.76596644456887 67.35812039967779 78.99999924876964
    vertex 153.97628074160752 65.39302404178417 78.99999924876964
  endloop
endfacet
facet normal 0.0 0.0 -1.0
  outer loop
    vertex 153.97628074160752 65.39302404178417 78.99999924876964
    vertex 153.76596644456887 67.35812039967779 78.99999924876964
    vertex 154.85128074160755 66.90856849840696 78.99999924876964
  endloop
endfacet
facet normal 0.0 0.0 -1.0
  outer loop
    vertex 153.97628074160752 65.39302404178417 78.99999924876964
    vertex 154.85128074160755 66.90856849840696 78.99999924876964
    vertex 154.54582438987052 64.95599782963998 78.99999924876964
  endloop
endfacet
facet normal 0.0 0.0 -1.0
  outer loop
    vertex 154.54582438987052 64.95599782963998 78.99999924876964
    vertex 154.85128074160755 66.90856849840696 78.99999924876964
    vertex 154.98285060201474 64.38645418137698 78.99999924876964
  endloop
endfacet
facet normal 0.0 0.0 -1.0
  outer loop
    vertex 154.98285060201474 64.38645418137698 78.99999924876964
    vertex 154.85128074160755 66.90856849840696 78.99999924876964
    vertex 155.78326125694701 66.19343469671645 78.99999924876964
  endloop
endfacet
facet normal 0.0 0.0 -1.0
  outer loop
    vertex 154.98285060201474 64.38645418137698 78.99999924876964
    vertex 155.78326125694701 66.19343469671645 78.99999924876964
    vertex 155.25757676390248 63.72320655540891 78.99999924876964
  endloop
endfacet
facet normal 0.0 0.0 -1.0
  outer loop
    vertex 155.25757676390248 63.72320655540891 78.99999924876964
    vertex 155.78326125694701 66.19343469671645 78.99999924876964
    vertex 155.35128074160752 63.011454181376976 78.99999924876964
  endloop
endfacet
facet normal 0.0 0.0 -1.0
  outer loop
    vertex 149.85128074160752 63.011454181376976 78.99999924876964
    vertex 150.3512807416075 59.11433986434699 78.99999924876964
    vertex 149.41930022626804 59.8294736660375 78.99999924876964
  endloop
endfacet
facet normal 0.0 0.0 -1.0
  outer loop
    vertex 150.3512807416075 59.11433986434699 78.99999924876964
    vertex 149.85128074160752 63.011454181376976 78.99999924876964
    vertex 149.94498471931257 62.29970180734504 78.99999924876964
  endloop
endfacet
facet normal 0.0 0.0 -1.0
  outer loop
    vertex 150.3512807416075 59.11433986434699 78.99999924876964
    vertex 149.94498471931257 62.29970180734504 78.99999924876964
    vertex 150.2197108812003 61.63645418137697 78.99999924876964
  endloop
endfacet
facet normal 0.0 0.0 -1.0
  outer loop
    vertex 150.3512807416075 59.11433986434699 78.99999924876964
    vertex 150.2197108812003 61.63645418137697 78.99999924876964
    vertex 150.65673709334453 61.066910533113976 78.99999924876964
  endloop
endfacet
facet normal 0.0 0.0 -1.0
  outer loop
    vertex 150.3512807416075 59.11433986434699 78.99999924876964
    vertex 150.65673709334453 61.066910533113976 78.99999924876964
    vertex 151.43659503864617 58.66478796307616 78.99999924876964
  endloop
endfacet
facet normal 0.0 0.0 -1.0
  outer loop
    vertex 151.43659503864617 58.66478796307616 78.99999924876964
    vertex 150.65673709334453 61.066910533113976 78.99999924876964
    vertex 151.22628074160752 60.62988432096977 78.99999924876964
  endloop
endfacet
facet normal 0.0 0.0 -1.0
  outer loop
    vertex 151.43659503864617 58.66478796307616 78.99999924876964
    vertex 151.22628074160752 60.62988432096977 78.99999924876964
    vertex 151.8895283675756 60.35515815908203 78.99999924876964
  endloop
endfacet
facet normal 0.0 0.0 -1.0
  outer loop
    vertex 151.43659503864617 58.66478796307616 78.99999924876964
    vertex 151.8895283675756 60.35515815908203 78.99999924876964
    vertex 152.60128074160752 58.51145418137696 78.99999924876964
  endloop
endfacet
facet normal 0.0 0.0 -1.0
  outer loop
    vertex 152.60128074160752 58.51145418137696 78.99999924876964
    vertex 151.8895283675756 60.35515815908203 78.99999924876964
    vertex 152.60128074160752 60.26145418137697 78.99999924876964
  endloop
endfacet
facet normal 0.0 0.0 -1.0
  outer loop
    vertex 152.60128074160752 58.51145418137696 78.99999924876964
    vertex 152.60128074160752 60.26145418137697 78.99999924876964
    vertex 153.31303311563946 60.35515815908203 78.99999924876964
  endloop
endfacet
facet normal 0.0 0.0 -1.0
  outer loop
    vertex 152.60128074160752 58.51145418137696 78.99999924876964
    vertex 153.31303311563946 60.35515815908203 78.99999924876964
    vertex 153.76596644456887 58.66478796307616 78.99999924876964
  endloop
endfacet
facet normal 0.0 0.0 -1.0
  outer loop
    vertex 153.76596644456887 58.66478796307616 78.99999924876964
    vertex 153.31303311563946 60.35515815908203 78.99999924876964
    vertex 153.97628074160752 60.62988432096977 78.99999924876964
  endloop
endfacet
facet normal 0.0 0.0 -1.0
  outer loop
    vertex 153.76596644456887 58.66478796307616 78.99999924876964
    vertex 153.97628074160752 60.62988432096977 78.99999924876964
    vertex 154.8512807416075 59.11433986434699 78.99999924876964
  endloop
endfacet
facet normal 0.0 0.0 -1.0
  outer loop
    vertex 154.8512807416075 59.11433986434699 78.99999924876964
    vertex 153.97628074160752 60.62988432096977 78.99999924876964
    vertex 154.54582438987052 61.06691053311396 78.99999924876964
  endloop
endfacet
facet normal 0.0 0.0 -1.0
  outer loop
    vertex 154.8512807416075 59.11433986434699 78.99999924876964
    vertex 154.54582438987052 61.06691053311396 78.99999924876964
    vertex 154.98285060201474 61.63645418137697 78.99999924876964
  endloop
endfacet
facet normal 0.0 0.0 -1.0
  outer loop
    vertex 154.8512807416075 59.11433986434699 78.99999924876964
    vertex 154.98285060201474 61.63645418137697 78.99999924876964
    vertex 155.78326125694701 59.8294736660375 78.99999924876964
  endloop
endfacet
facet normal 0.0 0.0 -1.0
  outer loop
    vertex 155.78326125694701 59.8294736660375 78.99999924876964
    vertex 154.98285060201474 61.63645418137697 78.99999924876964
    vertex 155.25757676390248 62.29970180734504 78.99999924876964
  endloop
endfacet
facet normal 0.0 0.0 -1.0
  outer loop
    vertex 155.78326125694701 59.8294736660375 78.99999924876964
    vertex 155.25757676390248 62.29970180734504 78.99999924876964
    vertex 155.35128074160752 63.011454181376976 78.99999924876964
  endloop
endfacet
facet normal 0.0 0.0 -1.0
  outer loop
    vertex 155.78326125694701 59.8294736660375 78.99999924876964
    vertex 155.35128074160752 63.011454181376976 78.99999924876964
    vertex 155.78326125694701 66.19343469671645 78.99999924876964
  endloop
endfacet
facet normal 0.0 0.0 -1.0
  outer loop
    vertex 155.78326125694701 59.8294736660375 78.99999924876964
    vertex 155.78326125694701 66.19343469671645 78.99999924876964
    vertex 156.4983950586375 65.26145418137698 78.99999924876964
  endloop
endfacet
facet normal 0.0 0.0 -1.0
  outer loop
    vertex 155.78326125694701 59.8294736660375 78.99999924876964
    vertex 156.4983950586375 65.26145418137698 78.99999924876964
    vertex 156.4983950586375 60.76145418137697 78.99999924876964
  endloop
endfacet
facet normal 0.0 0.0 -1.0
  outer loop
    vertex 156.4983950586375 60.76145418137697 78.99999924876964
    vertex 156.4983950586375 65.26145418137698 78.99999924876964
    vertex 156.94794695990834 64.17613988433833 78.99999924876964
  endloop
endfacet
facet normal 0.0 0.0 -1.0
  outer loop
    vertex 156.4983950586375 60.76145418137697 78.99999924876964
    vertex 156.94794695990834 64.17613988433833 78.99999924876964
    vertex 156.94794695990834 61.846768478415626 78.99999924876964
  endloop
endfacet
facet normal 0.0 0.0 -1.0
  outer loop
    vertex 156.94794695990834 61.846768478415626 78.99999924876964
    vertex 156.94794695990834 64.17613988433833 78.99999924876964
    vertex 157.10128074160752 63.011454181376976 78.99999924876964
  endloop
endfacet
facet normal 0.6366379848932663 0.488509507381149 -0.5966997045325803
  outer loop
    vertex 154.0154943039806 64.42566774375008 72.99999924876964
    vertex 154.98285060201474 64.38645418137698 73.99999901696816
    vertex 154.3333315491764 64.01145418137699 72.99999924876964
  endloop
endfacet
facet normal 0.6366379848932663 0.488509507381149 -0.5966997045325803
  outer loop
    vertex 154.98285060201474 64.38645418137698 73.99999901696816
    vertex 154.0154943039806 64.42566774375008 72.99999924876964
    vertex 154.54582438987052 64.95599782963998 73.99999901696816
  endloop
endfacet
facet normal 0.10474265093566472 -0.7955994216222778 -0.5966997045325786
  outer loop
    vertex 153.31303311563946 60.35515815908203 73.99999901696816
    vertex 152.60128074160755 61.011454181376976 72.99999924876964
    vertex 153.11891883181258 61.079602528798844 72.99999924876964
  endloop
endfacet
facet normal 0.10474265093566472 -0.7955994216222778 -0.5966997045325786
  outer loop
    vertex 152.60128074160755 61.011454181376976 72.99999924876964
    vertex 153.31303311563946 60.35515815908203 73.99999901696816
    vertex 152.60128074160752 60.26145418137697 73.99999901696816
  endloop
endfacet
facet normal 0.636637984893266 -0.4885095073811509 -0.5966997045325789
  outer loop
    vertex 154.01549430398063 61.5972406190039 72.99999924876964
    vertex 154.98285060201474 61.63645418137697 73.99999901696816
    vertex 154.54582438987052 61.06691053311396 73.99999901696816
  endloop
endfacet
facet normal 0.636637984893266 -0.4885095073811509 -0.5966997045325789
  outer loop
    vertex 154.98285060201474 61.63645418137697 73.99999901696816
    vertex 154.01549430398063 61.5972406190039 72.99999924876964
    vertex 154.33333154917642 62.01145418137699 72.99999924876964
  endloop
endfacet
facet normal 0.4885095073811565 -0.6366379848932611 -0.5966997045325796
  outer loop
    vertex 154.54582438987052 61.06691053311396 73.99999901696816
    vertex 153.60128074160755 61.27940337380811 72.99999924876964
    vertex 154.01549430398063 61.5972406190039 72.99999924876964
  endloop
endfacet
facet normal 0.4885095073811565 -0.6366379848932611 -0.5966997045325796
  outer loop
    vertex 153.60128074160755 61.27940337380811 72.99999924876964
    vertex 154.54582438987052 61.06691053311396 73.99999901696816
    vertex 153.97628074160752 60.62988432096977 73.99999901696816
  endloop
endfacet
facet normal -0.4885095073811506 0.6366379848932666 -0.5966997045325784
  outer loop
    vertex 150.65673709334453 64.95599782963998 73.99999901696816
    vertex 151.6012807416075 64.74350498894584 72.99999924876964
    vertex 151.18706717923442 64.42566774375005 72.99999924876964
  endloop
endfacet
facet normal -0.4885095073811506 0.6366379848932666 -0.5966997045325784
  outer loop
    vertex 151.6012807416075 64.74350498894584 72.99999924876964
    vertex 150.65673709334453 64.95599782963998 73.99999901696816
    vertex 151.22628074160752 65.39302404178417 73.99999901696816
  endloop
endfacet
facet normal -0.7413806358289234 -0.3070899142411468 -0.5966997045325786
  outer loop
    vertex 149.94498471931257 62.29970180734504 73.99999901696816
    vertex 150.86922993403866 62.01145418137696 72.99999924876964
    vertex 150.2197108812003 61.63645418137697 73.99999901696816
  endloop
endfacet
facet normal -0.7413806358289234 -0.3070899142411468 -0.5966997045325786
  outer loop
    vertex 150.86922993403866 62.01145418137696 72.99999924876964
    vertex 149.94498471931257 62.29970180734504 73.99999901696816
    vertex 150.6694290890294 62.493816091171915 72.99999924876964
  endloop
endfacet
facet normal 0.7955994216222765 -0.10474265093565382 -0.5966997045325823
  outer loop
    vertex 154.53313239418566 62.49381609117195 72.99999924876964
    vertex 155.35128074160752 63.011454181376976 73.99999901696816
    vertex 155.25757676390248 62.29970180734504 73.99999901696816
  endloop
endfacet
facet normal 0.7955994216222765 -0.10474265093565382 -0.5966997045325823
  outer loop
    vertex 155.35128074160752 63.011454181376976 73.99999901696816
    vertex 154.53313239418566 62.49381609117195 72.99999924876964
    vertex 154.60128074160752 63.01145418137698 72.99999924876964
  endloop
endfacet
facet normal 0.48850950738113935 0.6366379848932717 -0.5966997045325821
  outer loop
    vertex 153.97628074160752 65.39302404178417 73.99999901696816
    vertex 154.0154943039806 64.42566774375008 72.99999924876964
    vertex 153.6012807416075 64.74350498894586 72.99999924876964
  endloop
endfacet
facet normal 0.48850950738113935 0.6366379848932717 -0.5966997045325821
  outer loop
    vertex 154.0154943039806 64.42566774375008 72.99999924876964
    vertex 153.97628074160752 65.39302404178417 73.99999901696816
    vertex 154.54582438987052 64.95599782963998 73.99999901696816
  endloop
endfacet
facet normal 0.10474265093566006 0.7955994216222777 -0.5966997045325795
  outer loop
    vertex 152.60128074160752 65.76145418137696 73.99999901696816
    vertex 153.11891883181255 64.94330583395511 72.99999924876964
    vertex 152.6012807416075 65.01145418137698 72.99999924876964
  endloop
endfacet
facet normal 0.10474265093566006 0.7955994216222777 -0.5966997045325795
  outer loop
    vertex 153.11891883181255 64.94330583395511 72.99999924876964
    vertex 152.60128074160752 65.76145418137696 73.99999901696816
    vertex 153.31303311563946 65.66775020367191 73.99999901696816
  endloop
endfacet
facet normal -0.6366379848932675 0.4885095073811498 -0.596699704532578
  outer loop
    vertex 150.2197108812003 64.38645418137698 73.99999901696816
    vertex 151.18706717923442 64.42566774375005 72.99999924876964
    vertex 150.86922993403863 64.01145418137696 72.99999924876964
  endloop
endfacet
facet normal -0.6366379848932675 0.4885095073811498 -0.596699704532578
  outer loop
    vertex 151.18706717923442 64.42566774375005 72.99999924876964
    vertex 150.2197108812003 64.38645418137698 73.99999901696816
    vertex 150.65673709334453 64.95599782963998 73.99999901696816
  endloop
endfacet
facet normal 0.0 0.0 -1.0
  outer loop
    vertex 150.6694290890294 63.529092271581995 72.99999924876964
    vertex 150.6694290890294 62.493816091171915 72.99999924876964
    vertex 150.60128074160752 63.01145418137696 72.99999924876964
  endloop
endfacet
facet normal 0.0 0.0 -1.0
  outer loop
    vertex 150.6694290890294 62.493816091171915 72.99999924876964
    vertex 150.6694290890294 63.529092271581995 72.99999924876964
    vertex 150.86922993403863 64.01145418137696 72.99999924876964
  endloop
endfacet
facet normal 0.0 0.0 -1.0
  outer loop
    vertex 150.6694290890294 62.493816091171915 72.99999924876964
    vertex 150.86922993403863 64.01145418137696 72.99999924876964
    vertex 150.86922993403866 62.01145418137696 72.99999924876964
  endloop
endfacet
facet normal 0.0 0.0 -1.0
  outer loop
    vertex 150.86922993403866 62.01145418137696 72.99999924876964
    vertex 150.86922993403863 64.01145418137696 72.99999924876964
    vertex 151.18706717923442 64.42566774375005 72.99999924876964
  endloop
endfacet
facet normal 0.0 0.0 -1.0
  outer loop
    vertex 150.86922993403866 62.01145418137696 72.99999924876964
    vertex 151.18706717923442 64.42566774375005 72.99999924876964
    vertex 151.18706717923445 61.59724061900388 72.99999924876964
  endloop
endfacet
facet normal 0.0 0.0 -1.0
  outer loop
    vertex 151.18706717923445 61.59724061900388 72.99999924876964
    vertex 151.18706717923442 64.42566774375005 72.99999924876964
    vertex 151.6012807416075 64.74350498894584 72.99999924876964
  endloop
endfacet
facet normal 0.0 0.0 -1.0
  outer loop
    vertex 151.18706717923445 61.59724061900388 72.99999924876964
    vertex 151.6012807416075 64.74350498894584 72.99999924876964
    vertex 151.60128074160755 61.27940337380809 72.99999924876964
  endloop
endfacet
facet normal 0.0 0.0 -1.0
  outer loop
    vertex 151.60128074160755 61.27940337380809 72.99999924876964
    vertex 151.6012807416075 64.74350498894584 72.99999924876964
    vertex 152.08364265140247 64.94330583395511 72.99999924876964
  endloop
endfacet
facet normal 0.0 0.0 -1.0
  outer loop
    vertex 151.60128074160755 61.27940337380809 72.99999924876964
    vertex 152.08364265140247 64.94330583395511 72.99999924876964
    vertex 152.0836426514025 61.07960252879883 72.99999924876964
  endloop
endfacet
facet normal 0.0 0.0 -1.0
  outer loop
    vertex 152.0836426514025 61.07960252879883 72.99999924876964
    vertex 152.08364265140247 64.94330583395511 72.99999924876964
    vertex 152.6012807416075 65.01145418137698 72.99999924876964
  endloop
endfacet
facet normal 0.0 0.0 -1.0
  outer loop
    vertex 152.0836426514025 61.07960252879883 72.99999924876964
    vertex 152.6012807416075 65.01145418137698 72.99999924876964
    vertex 152.60128074160755 61.011454181376976 72.99999924876964
  endloop
endfacet
facet normal 0.0 0.0 -1.0
  outer loop
    vertex 152.60128074160755 61.011454181376976 72.99999924876964
    vertex 152.6012807416075 65.01145418137698 72.99999924876964
    vertex 153.11891883181255 64.94330583395511 72.99999924876964
  endloop
endfacet
facet normal 0.0 0.0 -1.0
  outer loop
    vertex 152.60128074160755 61.011454181376976 72.99999924876964
    vertex 153.11891883181255 64.94330583395511 72.99999924876964
    vertex 153.11891883181258 61.079602528798844 72.99999924876964
  endloop
endfacet
facet normal 0.0 0.0 -1.0
  outer loop
    vertex 153.11891883181258 61.079602528798844 72.99999924876964
    vertex 153.11891883181255 64.94330583395511 72.99999924876964
    vertex 153.6012807416075 64.74350498894586 72.99999924876964
  endloop
endfacet
facet normal 0.0 0.0 -1.0
  outer loop
    vertex 153.11891883181258 61.079602528798844 72.99999924876964
    vertex 153.6012807416075 64.74350498894586 72.99999924876964
    vertex 153.60128074160755 61.27940337380811 72.99999924876964
  endloop
endfacet
facet normal 0.0 0.0 -1.0
  outer loop
    vertex 153.60128074160755 61.27940337380811 72.99999924876964
    vertex 153.6012807416075 64.74350498894586 72.99999924876964
    vertex 154.0154943039806 64.42566774375008 72.99999924876964
  endloop
endfacet
facet normal 0.0 0.0 -1.0
  outer loop
    vertex 153.60128074160755 61.27940337380811 72.99999924876964
    vertex 154.0154943039806 64.42566774375008 72.99999924876964
    vertex 154.01549430398063 61.5972406190039 72.99999924876964
  endloop
endfacet
facet normal 0.0 0.0 -1.0
  outer loop
    vertex 154.01549430398063 61.5972406190039 72.99999924876964
    vertex 154.0154943039806 64.42566774375008 72.99999924876964
    vertex 154.3333315491764 64.01145418137699 72.99999924876964
  endloop
endfacet
facet normal 0.0 0.0 -1.0
  outer loop
    vertex 154.01549430398063 61.5972406190039 72.99999924876964
    vertex 154.3333315491764 64.01145418137699 72.99999924876964
    vertex 154.33333154917642 62.01145418137699 72.99999924876964
  endloop
endfacet
facet normal 0.0 0.0 -1.0
  outer loop
    vertex 154.33333154917642 62.01145418137699 72.99999924876964
    vertex 154.3333315491764 64.01145418137699 72.99999924876964
    vertex 154.53313239418566 63.52909227158203 72.99999924876964
  endloop
endfacet
facet normal 0.0 0.0 -1.0
  outer loop
    vertex 154.33333154917642 62.01145418137699 72.99999924876964
    vertex 154.53313239418566 63.52909227158203 72.99999924876964
    vertex 154.53313239418566 62.49381609117195 72.99999924876964
  endloop
endfacet
facet normal 0.0 0.0 -1.0
  outer loop
    vertex 154.53313239418566 62.49381609117195 72.99999924876964
    vertex 154.53313239418566 63.52909227158203 72.99999924876964
    vertex 154.60128074160752 63.01145418137698 72.99999924876964
  endloop
endfacet
facet normal 0.7413806358289234 0.3070899142411466 -0.5966997045325786
  outer loop
    vertex 154.3333315491764 64.01145418137699 72.99999924876964
    vertex 155.25757676390248 63.72320655540891 73.99999901696816
    vertex 154.53313239418566 63.52909227158203 72.99999924876964
  endloop
endfacet
facet normal 0.7413806358289234 0.3070899142411466 -0.5966997045325786
  outer loop
    vertex 155.25757676390248 63.72320655540891 73.99999901696816
    vertex 154.3333315491764 64.01145418137699 72.99999924876964
    vertex 154.98285060201474 64.38645418137698 73.99999901696816
  endloop
endfacet
facet normal -0.7413806358289293 0.30708991424113424 -0.5966997045325777
  outer loop
    vertex 149.94498471931257 63.7232065554089 73.99999901696816
    vertex 150.86922993403863 64.01145418137696 72.99999924876964
    vertex 150.6694290890294 63.529092271581995 72.99999924876964
  endloop
endfacet
facet normal -0.7413806358289293 0.30708991424113424 -0.5966997045325777
  outer loop
    vertex 150.86922993403863 64.01145418137696 72.99999924876964
    vertex 149.94498471931257 63.7232065554089 73.99999901696816
    vertex 150.2197108812003 64.38645418137698 73.99999901696816
  endloop
endfacet
facet normal -0.795599421622278 -0.10474265093565299 -0.5966997045325804
  outer loop
    vertex 149.85128074160752 63.011454181376976 73.99999901696816
    vertex 150.6694290890294 62.493816091171915 72.99999924876964
    vertex 149.94498471931257 62.29970180734504 73.99999901696816
  endloop
endfacet
facet normal -0.795599421622278 -0.10474265093565299 -0.5966997045325804
  outer loop
    vertex 150.6694290890294 62.493816091171915 72.99999924876964
    vertex 149.85128074160752 63.011454181376976 73.99999901696816
    vertex 150.60128074160752 63.01145418137696 72.99999924876964
  endloop
endfacet
facet normal -0.4885095073811483 -0.636637984893265 -0.5966997045325821
  outer loop
    vertex 151.22628074160752 60.62988432096977 73.99999901696816
    vertex 151.18706717923445 61.59724061900388 72.99999924876964
    vertex 151.60128074160755 61.27940337380809 72.99999924876964
  endloop
endfacet
facet normal -0.4885095073811483 -0.636637984893265 -0.5966997045325821
  outer loop
    vertex 151.18706717923445 61.59724061900388 72.99999924876964
    vertex 151.22628074160752 60.62988432096977 73.99999901696816
    vertex 150.65673709334453 61.066910533113976 73.99999901696816
  endloop
endfacet
facet normal -0.3070899142411256 -0.7413806358289298 -0.5966997045325814
  outer loop
    vertex 151.8895283675756 60.35515815908203 73.99999901696816
    vertex 151.60128074160755 61.27940337380809 72.99999924876964
    vertex 152.0836426514025 61.07960252879883 72.99999924876964
  endloop
endfacet
facet normal -0.3070899142411256 -0.7413806358289298 -0.5966997045325814
  outer loop
    vertex 151.60128074160755 61.27940337380809 72.99999924876964
    vertex 151.8895283675756 60.35515815908203 73.99999901696816
    vertex 151.22628074160752 60.62988432096977 73.99999901696816
  endloop
endfacet
facet normal 0.30708991424112564 0.7413806358289297 -0.5966997045325815
  outer loop
    vertex 153.31303311563946 65.66775020367191 73.99999901696816
    vertex 153.6012807416075 64.74350498894586 72.99999924876964
    vertex 153.11891883181255 64.94330583395511 72.99999924876964
  endloop
endfacet
facet normal 0.30708991424112564 0.7413806358289297 -0.5966997045325815
  outer loop
    vertex 153.6012807416075 64.74350498894586 72.99999924876964
    vertex 153.31303311563946 65.66775020367191 73.99999901696816
    vertex 153.97628074160752 65.39302404178417 73.99999901696816
  endloop
endfacet
facet normal -0.9914448613738107 0.13052619222005038 7.304076645899032e-19
  outer loop
    vertex 149.94498471931257 63.7232065554089 78.99999924876964
    vertex 149.85128074160752 63.011454181376976 73.99999901696816
    vertex 149.85128074160752 63.011454181376976 78.99999924876964
  endloop
endfacet
facet normal -0.9914448613738107 0.13052619222005038 7.304076645899032e-19
  outer loop
    vertex 149.85128074160752 63.011454181376976 73.99999901696816
    vertex 149.94498471931257 63.7232065554089 78.99999924876964
    vertex 149.94498471931257 63.7232065554089 73.99999901696816
  endloop
endfacet
facet normal 0.9238795325112817 0.3826834323651019 4.435081783634956e-19
  outer loop
    vertex 154.98285060201474 64.38645418137698 73.99999901696816
    vertex 155.25757676390248 63.72320655540891 78.99999924876964
    vertex 155.25757676390248 63.72320655540891 73.99999901696816
  endloop
endfacet
facet normal 0.9238795325112817 0.3826834323651019 4.435081783634956e-19
  outer loop
    vertex 155.25757676390248 63.72320655540891 78.99999924876964
    vertex 154.98285060201474 64.38645418137698 73.99999901696816
    vertex 154.98285060201474 64.38645418137698 78.99999924876964
  endloop
endfacet
facet normal -0.3826834323650829 -0.9238795325112897 0.0
  outer loop
    vertex 151.8895283675756 60.35515815908203 78.99999924876964
    vertex 151.22628074160752 60.62988432096977 73.99999901696816
    vertex 151.8895283675756 60.35515815908203 73.99999901696816
  endloop
endfacet
facet normal -0.3826834323650829 -0.9238795325112897 0.0
  outer loop
    vertex 151.22628074160752 60.62988432096977 73.99999901696816
    vertex 151.8895283675756 60.35515815908203 78.99999924876964
    vertex 151.22628074160752 60.62988432096977 78.99999924876964
  endloop
endfacet
facet normal -0.6087614290087303 -0.7933533402912278 0.0
  outer loop
    vertex 151.22628074160752 60.62988432096977 78.99999924876964
    vertex 150.65673709334453 61.066910533113976 73.99999901696816
    vertex 151.22628074160752 60.62988432096977 73.99999901696816
  endloop
endfacet
facet normal -0.6087614290087303 -0.7933533402912278 0.0
  outer loop
    vertex 150.65673709334453 61.066910533113976 73.99999901696816
    vertex 151.22628074160752 60.62988432096977 78.99999924876964
    vertex 150.65673709334453 61.066910533113976 78.99999924876964
  endloop
endfacet
endsolid AutomaticCoiler
