solid SimLab_2020-06-01-10-44-45
facet normal 0.0 1.0 0.0
  outer loop
    vertex 3.2914384238738745 60.872099270900826 506.4999998986124
    vertex 8.789356895856743 60.872099270900826 513.597918391508
    vertex 16.691438423873873 60.872099270900826 506.4999998986124
  endloop
endfacet
facet normal 0.0 1.0 0.0
  outer loop
    vertex 8.789356895856743 60.872099270900826 513.597918391508
    vertex 3.2914384238738745 60.872099270900826 506.4999998986124
    vertex 8.519195237440329 60.872099270900826 513.9499999195251
  endloop
endfacet
facet normal 0.0 1.0 0.0
  outer loop
    vertex 8.519195237440329 60.872099270900826 513.9499999195251
    vertex 3.2914384238738745 60.872099270900826 506.4999998986124
    vertex 8.34936451918246 60.872099270900826 514.3600075428509
  endloop
endfacet
facet normal 0.0 1.0 0.0
  outer loop
    vertex 8.34936451918246 60.872099270900826 514.3600075428509
    vertex 3.2914384238738745 60.872099270900826 506.4999998986124
    vertex 3.2914384238738745 60.872099270900826 535.0000000337086
  endloop
endfacet
facet normal 0.0 1.0 0.0
  outer loop
    vertex 16.691438423873873 60.872099270900826 506.4999998986124
    vertex 8.789356895856743 60.872099270900826 513.597918391508
    vertex 9.141438423873876 60.872099270900826 513.3277567330915
  endloop
endfacet
facet normal 0.0 1.0 0.0
  outer loop
    vertex 16.691438423873873 60.872099270900826 506.4999998986124
    vertex 9.141438423873876 60.872099270900826 513.3277567330915
    vertex 9.55144604719959 60.872099270900826 513.1579260148337
  endloop
endfacet
facet normal 0.0 1.0 0.0
  outer loop
    vertex 16.691438423873873 60.872099270900826 506.4999998986124
    vertex 9.55144604719959 60.872099270900826 513.1579260148337
    vertex 9.991438423873875 60.872099270900826 513.0999999195252
  endloop
endfacet
facet normal 0.0 1.0 0.0
  outer loop
    vertex 8.34936451918246 60.872099270900826 514.3600075428509
    vertex 3.2914384238738745 60.872099270900826 535.0000000337086
    vertex 8.291438423873876 60.872099270900826 514.7999999195251
  endloop
endfacet
facet normal 0.0 1.0 0.0
  outer loop
    vertex 8.291438423873876 60.872099270900826 514.7999999195251
    vertex 3.2914384238738745 60.872099270900826 535.0000000337086
    vertex 8.349364519182458 60.872099270900826 515.2399922961995
  endloop
endfacet
facet normal 0.0 1.0 0.0
  outer loop
    vertex 8.349364519182458 60.872099270900826 515.2399922961995
    vertex 3.2914384238738745 60.872099270900826 535.0000000337086
    vertex 8.519195237440329 60.872099270900826 515.6499999195252
  endloop
endfacet
facet normal 0.0 1.0 0.0
  outer loop
    vertex 8.519195237440329 60.872099270900826 515.6499999195252
    vertex 3.2914384238738745 60.872099270900826 535.0000000337086
    vertex 8.789356895856743 60.872099270900826 516.0020814475423
  endloop
endfacet
facet normal 0.0 1.0 0.0
  outer loop
    vertex 8.789356895856743 60.872099270900826 516.0020814475423
    vertex 3.2914384238738745 60.872099270900826 535.0000000337086
    vertex 9.141438423873876 60.872099270900826 516.2722431059588
  endloop
endfacet
facet normal 0.0 1.0 0.0
  outer loop
    vertex 9.141438423873876 60.872099270900826 516.2722431059588
    vertex 3.2914384238738745 60.872099270900826 535.0000000337086
    vertex 9.551446047199589 60.872099270900826 516.4420738242165
  endloop
endfacet
facet normal 0.0 1.0 0.0
  outer loop
    vertex 9.551446047199589 60.872099270900826 516.4420738242165
    vertex 3.2914384238738745 60.872099270900826 535.0000000337086
    vertex 9.991438423873875 60.872099270900826 516.4999999195252
  endloop
endfacet
facet normal 0.0 1.0 0.0
  outer loop
    vertex 9.991438423873875 60.872099270900826 516.4999999195252
    vertex 3.2914384238738745 60.872099270900826 535.0000000337086
    vertex 8.519195237440329 60.87209927090081 527.3499998485509
  endloop
endfacet
facet normal 0.0 1.0 0.0
  outer loop
    vertex 9.991438423873875 60.872099270900826 516.4999999195252
    vertex 8.519195237440329 60.87209927090081 527.3499998485509
    vertex 8.789356895856743 60.87209927090081 526.9979183205337
  endloop
endfacet
facet normal 0.0 1.0 0.0
  outer loop
    vertex 9.991438423873875 60.872099270900826 516.4999999195252
    vertex 8.789356895856743 60.87209927090081 526.9979183205337
    vertex 9.141438423873876 60.87209927090081 526.7277566621173
  endloop
endfacet
facet normal 0.0 1.0 0.0
  outer loop
    vertex 9.991438423873875 60.872099270900826 516.4999999195252
    vertex 9.141438423873876 60.87209927090081 526.7277566621173
    vertex 9.55144604719959 60.87209927090081 526.5579259438593
  endloop
endfacet
facet normal 0.0 1.0 0.0
  outer loop
    vertex 9.991438423873875 60.872099270900826 516.4999999195252
    vertex 9.55144604719959 60.87209927090081 526.5579259438593
    vertex 9.991438423873875 60.87209927090081 526.4999998485508
  endloop
endfacet
facet normal 0.0 1.0 0.0
  outer loop
    vertex 8.519195237440329 60.87209927090081 527.3499998485509
    vertex 3.2914384238738745 60.872099270900826 535.0000000337086
    vertex 8.34936451918246 60.87209927090081 527.7600074718765
  endloop
endfacet
facet normal 0.0 1.0 0.0
  outer loop
    vertex 8.34936451918246 60.87209927090081 527.7600074718765
    vertex 3.2914384238738745 60.872099270900826 535.0000000337086
    vertex 8.291438423873876 60.87209927090081 528.1999998485508
  endloop
endfacet
facet normal 0.0 1.0 0.0
  outer loop
    vertex 8.291438423873876 60.87209927090081 528.1999998485508
    vertex 3.2914384238738745 60.872099270900826 535.0000000337086
    vertex 8.349364519182458 60.87209927090081 528.6399922252251
  endloop
endfacet
facet normal 0.0 1.0 0.0
  outer loop
    vertex 8.349364519182458 60.87209927090081 528.6399922252251
    vertex 3.2914384238738745 60.872099270900826 535.0000000337086
    vertex 8.519195237440329 60.87209927090081 529.0499998485508
  endloop
endfacet
facet normal 0.0 1.0 0.0
  outer loop
    vertex 8.519195237440329 60.87209927090081 529.0499998485508
    vertex 3.2914384238738745 60.872099270900826 535.0000000337086
    vertex 8.789356895856743 60.87209927090081 529.4020813765679
  endloop
endfacet
facet normal 0.0 1.0 0.0
  outer loop
    vertex 8.789356895856743 60.87209927090081 529.4020813765679
    vertex 3.2914384238738745 60.872099270900826 535.0000000337086
    vertex 9.141438423873876 60.87209927090081 529.6722430349844
  endloop
endfacet
facet normal 0.0 1.0 0.0
  outer loop
    vertex 9.141438423873876 60.87209927090081 529.6722430349844
    vertex 3.2914384238738745 60.872099270900826 535.0000000337086
    vertex 9.551446047199589 60.87209927090081 529.8420737532423
  endloop
endfacet
facet normal 0.0 1.0 0.0
  outer loop
    vertex 9.551446047199589 60.87209927090081 529.8420737532423
    vertex 3.2914384238738745 60.872099270900826 535.0000000337086
    vertex 9.991438423873875 60.87209927090081 529.8999998485508
  endloop
endfacet
facet normal 0.0 1.0 0.0
  outer loop
    vertex 16.691438423873873 60.872099270900826 506.4999998986124
    vertex 11.633512328565292 60.872099270900826 514.3600075428509
    vertex 16.691438423873866 60.872099270900826 535.0000000337086
  endloop
endfacet
facet normal 0.0 1.0 0.0
  outer loop
    vertex 11.633512328565292 60.872099270900826 514.3600075428509
    vertex 16.691438423873873 60.872099270900826 506.4999998986124
    vertex 11.46368161030742 60.872099270900826 513.9499999195251
  endloop
endfacet
facet normal 0.0 1.0 0.0
  outer loop
    vertex 11.46368161030742 60.872099270900826 513.9499999195251
    vertex 16.691438423873873 60.872099270900826 506.4999998986124
    vertex 11.193519951891005 60.872099270900826 513.597918391508
  endloop
endfacet
facet normal 0.0 1.0 0.0
  outer loop
    vertex 11.193519951891005 60.872099270900826 513.597918391508
    vertex 16.691438423873873 60.872099270900826 506.4999998986124
    vertex 10.841438423873875 60.872099270900826 513.3277567330915
  endloop
endfacet
facet normal 0.0 1.0 0.0
  outer loop
    vertex 10.841438423873875 60.872099270900826 513.3277567330915
    vertex 16.691438423873873 60.872099270900826 506.4999998986124
    vertex 10.43143080054816 60.872099270900826 513.1579260148337
  endloop
endfacet
facet normal 0.0 1.0 0.0
  outer loop
    vertex 10.43143080054816 60.872099270900826 513.1579260148337
    vertex 16.691438423873873 60.872099270900826 506.4999998986124
    vertex 9.991438423873875 60.872099270900826 513.0999999195252
  endloop
endfacet
facet normal 0.0 1.0 0.0
  outer loop
    vertex 16.691438423873866 60.872099270900826 535.0000000337086
    vertex 11.633512328565292 60.872099270900826 514.3600075428509
    vertex 11.691438423873876 60.872099270900826 514.7999999195251
  endloop
endfacet
facet normal 0.0 1.0 0.0
  outer loop
    vertex 16.691438423873866 60.872099270900826 535.0000000337086
    vertex 11.691438423873876 60.872099270900826 514.7999999195251
    vertex 11.633512328565292 60.872099270900826 515.2399922961995
  endloop
endfacet
facet normal 0.0 1.0 0.0
  outer loop
    vertex 16.691438423873866 60.872099270900826 535.0000000337086
    vertex 11.633512328565292 60.872099270900826 515.2399922961995
    vertex 11.46368161030742 60.872099270900826 515.6499999195252
  endloop
endfacet
facet normal 0.0 1.0 0.0
  outer loop
    vertex 16.691438423873866 60.872099270900826 535.0000000337086
    vertex 11.46368161030742 60.872099270900826 515.6499999195252
    vertex 11.193519951891005 60.872099270900826 516.0020814475423
  endloop
endfacet
facet normal 0.0 1.0 0.0
  outer loop
    vertex 16.691438423873866 60.872099270900826 535.0000000337086
    vertex 11.193519951891005 60.872099270900826 516.0020814475423
    vertex 10.841438423873873 60.872099270900826 516.2722431059588
  endloop
endfacet
facet normal 0.0 1.0 0.0
  outer loop
    vertex 16.691438423873866 60.872099270900826 535.0000000337086
    vertex 10.841438423873873 60.872099270900826 516.2722431059588
    vertex 10.431430800548158 60.872099270900826 516.4420738242165
  endloop
endfacet
facet normal 0.0 1.0 0.0
  outer loop
    vertex 16.691438423873866 60.872099270900826 535.0000000337086
    vertex 10.431430800548158 60.872099270900826 516.4420738242165
    vertex 9.991438423873875 60.872099270900826 516.4999999195252
  endloop
endfacet
facet normal 0.0 1.0 0.0
  outer loop
    vertex 16.691438423873866 60.872099270900826 535.0000000337086
    vertex 9.991438423873875 60.872099270900826 516.4999999195252
    vertex 11.46368161030742 60.87209927090081 527.3499998485509
  endloop
endfacet
facet normal 0.0 1.0 0.0
  outer loop
    vertex 11.46368161030742 60.87209927090081 527.3499998485509
    vertex 9.991438423873875 60.872099270900826 516.4999999195252
    vertex 11.193519951891005 60.87209927090081 526.9979183205337
  endloop
endfacet
facet normal 0.0 1.0 0.0
  outer loop
    vertex 11.193519951891005 60.87209927090081 526.9979183205337
    vertex 9.991438423873875 60.872099270900826 516.4999999195252
    vertex 10.841438423873875 60.87209927090081 526.7277566621173
  endloop
endfacet
facet normal 0.0 1.0 0.0
  outer loop
    vertex 10.841438423873875 60.87209927090081 526.7277566621173
    vertex 9.991438423873875 60.872099270900826 516.4999999195252
    vertex 10.43143080054816 60.87209927090081 526.5579259438593
  endloop
endfacet
facet normal 0.0 1.0 0.0
  outer loop
    vertex 10.43143080054816 60.87209927090081 526.5579259438593
    vertex 9.991438423873875 60.872099270900826 516.4999999195252
    vertex 9.991438423873875 60.87209927090081 526.4999998485508
  endloop
endfacet
facet normal 0.0 1.0 0.0
  outer loop
    vertex 16.691438423873866 60.872099270900826 535.0000000337086
    vertex 11.46368161030742 60.87209927090081 527.3499998485509
    vertex 11.633512328565292 60.87209927090081 527.7600074718765
  endloop
endfacet
facet normal 0.0 1.0 0.0
  outer loop
    vertex 16.691438423873866 60.872099270900826 535.0000000337086
    vertex 11.633512328565292 60.87209927090081 527.7600074718765
    vertex 11.691438423873874 60.87209927090081 528.1999998485508
  endloop
endfacet
facet normal 0.0 1.0 0.0
  outer loop
    vertex 16.691438423873866 60.872099270900826 535.0000000337086
    vertex 11.691438423873874 60.87209927090081 528.1999998485508
    vertex 11.63351232856529 60.87209927090081 528.6399922252251
  endloop
endfacet
facet normal 0.0 1.0 0.0
  outer loop
    vertex 16.691438423873866 60.872099270900826 535.0000000337086
    vertex 11.63351232856529 60.87209927090081 528.6399922252251
    vertex 11.46368161030742 60.87209927090081 529.0499998485508
  endloop
endfacet
facet normal 0.0 1.0 0.0
  outer loop
    vertex 16.691438423873866 60.872099270900826 535.0000000337086
    vertex 11.46368161030742 60.87209927090081 529.0499998485508
    vertex 11.193519951891005 60.87209927090081 529.4020813765679
  endloop
endfacet
facet normal 0.0 1.0 0.0
  outer loop
    vertex 16.691438423873866 60.872099270900826 535.0000000337086
    vertex 11.193519951891005 60.87209927090081 529.4020813765679
    vertex 10.841438423873873 60.87209927090081 529.6722430349844
  endloop
endfacet
facet normal 0.0 1.0 0.0
  outer loop
    vertex 16.691438423873866 60.872099270900826 535.0000000337086
    vertex 10.841438423873873 60.87209927090081 529.6722430349844
    vertex 10.431430800548158 60.87209927090081 529.8420737532423
  endloop
endfacet
facet normal 0.0 1.0 0.0
  outer loop
    vertex 16.691438423873866 60.872099270900826 535.0000000337086
    vertex 10.431430800548158 60.87209927090081 529.8420737532423
    vertex 9.991438423873875 60.87209927090081 529.8999998485508
  endloop
endfacet
facet normal 0.0 1.0 0.0
  outer loop
    vertex 16.691438423873866 60.872099270900826 535.0000000337086
    vertex 9.991438423873875 60.87209927090081 529.8999998485508
    vertex 3.2914384238738745 60.872099270900826 535.0000000337086
  endloop
endfacet
facet normal 0.0 -1.0 0.0
  outer loop
    vertex 16.691438423873873 57.87209927090083 506.4999998986124
    vertex 11.193519951891005 57.87209927090083 513.597918391508
    vertex 3.2914384238738745 57.87209927090083 506.4999998986124
  endloop
endfacet
facet normal 0.0 -1.0 0.0
  outer loop
    vertex 11.193519951891005 57.87209927090083 513.597918391508
    vertex 16.691438423873873 57.87209927090083 506.4999998986124
    vertex 11.46368161030742 57.87209927090083 513.9499999195251
  endloop
endfacet
facet normal 0.0 -1.0 0.0
  outer loop
    vertex 11.46368161030742 57.87209927090083 513.9499999195251
    vertex 16.691438423873873 57.87209927090083 506.4999998986124
    vertex 11.633512328565292 57.87209927090083 514.3600075428509
  endloop
endfacet
facet normal 0.0 -1.0 0.0
  outer loop
    vertex 11.633512328565292 57.87209927090083 514.3600075428509
    vertex 16.691438423873873 57.87209927090083 506.4999998986124
    vertex 16.691438423873866 57.87209927090083 535.0000000337086
  endloop
endfacet
facet normal 0.0 -1.0 0.0
  outer loop
    vertex 3.2914384238738745 57.87209927090083 506.4999998986124
    vertex 11.193519951891005 57.87209927090083 513.597918391508
    vertex 10.841438423873875 57.87209927090083 513.3277567330915
  endloop
endfacet
facet normal 0.0 -1.0 0.0
  outer loop
    vertex 3.2914384238738745 57.87209927090083 506.4999998986124
    vertex 10.841438423873875 57.87209927090083 513.3277567330915
    vertex 10.43143080054816 57.87209927090083 513.1579260148337
  endloop
endfacet
facet normal 0.0 -1.0 0.0
  outer loop
    vertex 3.2914384238738745 57.87209927090083 506.4999998986124
    vertex 10.43143080054816 57.87209927090083 513.1579260148337
    vertex 9.991438423873875 57.87209927090083 513.0999999195252
  endloop
endfacet
facet normal 0.0 -1.0 0.0
  outer loop
    vertex 11.633512328565292 57.87209927090083 514.3600075428509
    vertex 16.691438423873866 57.87209927090083 535.0000000337086
    vertex 11.691438423873876 57.87209927090083 514.7999999195251
  endloop
endfacet
facet normal 0.0 -1.0 0.0
  outer loop
    vertex 11.691438423873876 57.87209927090083 514.7999999195251
    vertex 16.691438423873866 57.87209927090083 535.0000000337086
    vertex 11.633512328565292 57.87209927090083 515.2399922961995
  endloop
endfacet
facet normal 0.0 -1.0 0.0
  outer loop
    vertex 11.633512328565292 57.87209927090083 515.2399922961995
    vertex 16.691438423873866 57.87209927090083 535.0000000337086
    vertex 11.46368161030742 57.87209927090083 515.6499999195252
  endloop
endfacet
facet normal 0.0 -1.0 0.0
  outer loop
    vertex 11.46368161030742 57.87209927090083 515.6499999195252
    vertex 16.691438423873866 57.87209927090083 535.0000000337086
    vertex 11.193519951891005 57.87209927090083 516.0020814475423
  endloop
endfacet
facet normal 0.0 -1.0 0.0
  outer loop
    vertex 11.193519951891005 57.87209927090083 516.0020814475423
    vertex 16.691438423873866 57.87209927090083 535.0000000337086
    vertex 10.841438423873873 57.87209927090083 516.2722431059588
  endloop
endfacet
facet normal 0.0 -1.0 0.0
  outer loop
    vertex 10.841438423873873 57.87209927090083 516.2722431059588
    vertex 16.691438423873866 57.87209927090083 535.0000000337086
    vertex 10.431430800548158 57.87209927090083 516.4420738242165
  endloop
endfacet
facet normal 0.0 -1.0 0.0
  outer loop
    vertex 10.431430800548158 57.87209927090083 516.4420738242165
    vertex 16.691438423873866 57.87209927090083 535.0000000337086
    vertex 9.991438423873875 57.87209927090083 516.4999999195252
  endloop
endfacet
facet normal 0.0 -1.0 0.0
  outer loop
    vertex 9.991438423873875 57.87209927090083 516.4999999195252
    vertex 16.691438423873866 57.87209927090083 535.0000000337086
    vertex 11.46368161030742 57.87209927090083 527.3499998485509
  endloop
endfacet
facet normal 0.0 -1.0 0.0
  outer loop
    vertex 9.991438423873875 57.87209927090083 516.4999999195252
    vertex 11.46368161030742 57.87209927090083 527.3499998485509
    vertex 11.193519951891005 57.87209927090083 526.9979183205337
  endloop
endfacet
facet normal 0.0 -1.0 0.0
  outer loop
    vertex 9.991438423873875 57.87209927090083 516.4999999195252
    vertex 11.193519951891005 57.87209927090083 526.9979183205337
    vertex 10.841438423873875 57.87209927090083 526.7277566621173
  endloop
endfacet
facet normal 0.0 -1.0 0.0
  outer loop
    vertex 9.991438423873875 57.87209927090083 516.4999999195252
    vertex 10.841438423873875 57.87209927090083 526.7277566621173
    vertex 10.43143080054816 57.87209927090083 526.5579259438593
  endloop
endfacet
facet normal 0.0 -1.0 0.0
  outer loop
    vertex 9.991438423873875 57.87209927090083 516.4999999195252
    vertex 10.43143080054816 57.87209927090083 526.5579259438593
    vertex 9.991438423873875 57.87209927090083 526.4999998485508
  endloop
endfacet
facet normal 0.0 -1.0 0.0
  outer loop
    vertex 11.46368161030742 57.87209927090083 527.3499998485509
    vertex 16.691438423873866 57.87209927090083 535.0000000337086
    vertex 11.633512328565292 57.87209927090083 527.7600074718765
  endloop
endfacet
facet normal 0.0 -1.0 0.0
  outer loop
    vertex 11.633512328565292 57.87209927090083 527.7600074718765
    vertex 16.691438423873866 57.87209927090083 535.0000000337086
    vertex 11.691438423873874 57.87209927090083 528.1999998485508
  endloop
endfacet
facet normal 0.0 -1.0 0.0
  outer loop
    vertex 11.691438423873874 57.87209927090083 528.1999998485508
    vertex 16.691438423873866 57.87209927090083 535.0000000337086
    vertex 11.63351232856529 57.87209927090083 528.6399922252251
  endloop
endfacet
facet normal 0.0 -1.0 0.0
  outer loop
    vertex 11.63351232856529 57.87209927090083 528.6399922252251
    vertex 16.691438423873866 57.87209927090083 535.0000000337086
    vertex 11.46368161030742 57.87209927090083 529.0499998485508
  endloop
endfacet
facet normal 0.0 -1.0 0.0
  outer loop
    vertex 11.46368161030742 57.87209927090083 529.0499998485508
    vertex 16.691438423873866 57.87209927090083 535.0000000337086
    vertex 11.193519951891005 57.87209927090083 529.4020813765679
  endloop
endfacet
facet normal 0.0 -1.0 0.0
  outer loop
    vertex 11.193519951891005 57.87209927090083 529.4020813765679
    vertex 16.691438423873866 57.87209927090083 535.0000000337086
    vertex 10.841438423873873 57.87209927090083 529.6722430349844
  endloop
endfacet
facet normal 0.0 -1.0 0.0
  outer loop
    vertex 10.841438423873873 57.87209927090083 529.6722430349844
    vertex 16.691438423873866 57.87209927090083 535.0000000337086
    vertex 10.431430800548158 57.87209927090083 529.8420737532423
  endloop
endfacet
facet normal 0.0 -1.0 0.0
  outer loop
    vertex 10.431430800548158 57.87209927090083 529.8420737532423
    vertex 16.691438423873866 57.87209927090083 535.0000000337086
    vertex 9.991438423873875 57.87209927090083 529.8999998485508
  endloop
endfacet
facet normal 0.0 -1.0 0.0
  outer loop
    vertex 3.2914384238738745 57.87209927090083 506.4999998986124
    vertex 8.34936451918246 57.87209927090083 514.3600075428509
    vertex 3.2914384238738745 57.87209927090083 535.0000000337086
  endloop
endfacet
facet normal 0.0 -1.0 0.0
  outer loop
    vertex 8.34936451918246 57.87209927090083 514.3600075428509
    vertex 3.2914384238738745 57.87209927090083 506.4999998986124
    vertex 8.519195237440329 57.87209927090083 513.9499999195251
  endloop
endfacet
facet normal 0.0 -1.0 0.0
  outer loop
    vertex 8.519195237440329 57.87209927090083 513.9499999195251
    vertex 3.2914384238738745 57.87209927090083 506.4999998986124
    vertex 8.789356895856743 57.87209927090083 513.597918391508
  endloop
endfacet
facet normal 0.0 -1.0 0.0
  outer loop
    vertex 8.789356895856743 57.87209927090083 513.597918391508
    vertex 3.2914384238738745 57.87209927090083 506.4999998986124
    vertex 9.141438423873876 57.87209927090083 513.3277567330915
  endloop
endfacet
facet normal 0.0 -1.0 0.0
  outer loop
    vertex 9.141438423873876 57.87209927090083 513.3277567330915
    vertex 3.2914384238738745 57.87209927090083 506.4999998986124
    vertex 9.55144604719959 57.87209927090083 513.1579260148337
  endloop
endfacet
facet normal 0.0 -1.0 0.0
  outer loop
    vertex 9.55144604719959 57.87209927090083 513.1579260148337
    vertex 3.2914384238738745 57.87209927090083 506.4999998986124
    vertex 9.991438423873875 57.87209927090083 513.0999999195252
  endloop
endfacet
facet normal 0.0 -1.0 0.0
  outer loop
    vertex 3.2914384238738745 57.87209927090083 535.0000000337086
    vertex 8.34936451918246 57.87209927090083 514.3600075428509
    vertex 8.291438423873876 57.87209927090083 514.7999999195251
  endloop
endfacet
facet normal 0.0 -1.0 0.0
  outer loop
    vertex 3.2914384238738745 57.87209927090083 535.0000000337086
    vertex 8.291438423873876 57.87209927090083 514.7999999195251
    vertex 8.349364519182458 57.87209927090083 515.2399922961995
  endloop
endfacet
facet normal 0.0 -1.0 0.0
  outer loop
    vertex 3.2914384238738745 57.87209927090083 535.0000000337086
    vertex 8.349364519182458 57.87209927090083 515.2399922961995
    vertex 8.519195237440329 57.87209927090083 515.6499999195252
  endloop
endfacet
facet normal 0.0 -1.0 0.0
  outer loop
    vertex 3.2914384238738745 57.87209927090083 535.0000000337086
    vertex 8.519195237440329 57.87209927090083 515.6499999195252
    vertex 8.789356895856743 57.87209927090083 516.0020814475423
  endloop
endfacet
facet normal 0.0 -1.0 0.0
  outer loop
    vertex 3.2914384238738745 57.87209927090083 535.0000000337086
    vertex 8.789356895856743 57.87209927090083 516.0020814475423
    vertex 9.141438423873876 57.87209927090083 516.2722431059588
  endloop
endfacet
facet normal 0.0 -1.0 0.0
  outer loop
    vertex 3.2914384238738745 57.87209927090083 535.0000000337086
    vertex 9.141438423873876 57.87209927090083 516.2722431059588
    vertex 9.551446047199589 57.87209927090083 516.4420738242165
  endloop
endfacet
facet normal 0.0 -1.0 0.0
  outer loop
    vertex 3.2914384238738745 57.87209927090083 535.0000000337086
    vertex 9.551446047199589 57.87209927090083 516.4420738242165
    vertex 9.991438423873875 57.87209927090083 516.4999999195252
  endloop
endfacet
facet normal 0.0 -1.0 0.0
  outer loop
    vertex 3.2914384238738745 57.87209927090083 535.0000000337086
    vertex 9.991438423873875 57.87209927090083 516.4999999195252
    vertex 8.519195237440329 57.87209927090083 527.3499998485509
  endloop
endfacet
facet normal 0.0 -1.0 0.0
  outer loop
    vertex 8.519195237440329 57.87209927090083 527.3499998485509
    vertex 9.991438423873875 57.87209927090083 516.4999999195252
    vertex 8.789356895856743 57.87209927090083 526.9979183205337
  endloop
endfacet
facet normal 0.0 -1.0 0.0
  outer loop
    vertex 8.789356895856743 57.87209927090083 526.9979183205337
    vertex 9.991438423873875 57.87209927090083 516.4999999195252
    vertex 9.141438423873876 57.87209927090083 526.7277566621173
  endloop
endfacet
facet normal 0.0 -1.0 0.0
  outer loop
    vertex 9.141438423873876 57.87209927090083 526.7277566621173
    vertex 9.991438423873875 57.87209927090083 516.4999999195252
    vertex 9.55144604719959 57.87209927090083 526.5579259438593
  endloop
endfacet
facet normal 0.0 -1.0 0.0
  outer loop
    vertex 9.55144604719959 57.87209927090083 526.5579259438593
    vertex 9.991438423873875 57.87209927090083 516.4999999195252
    vertex 9.991438423873875 57.87209927090083 526.4999998485508
  endloop
endfacet
facet normal 0.0 -1.0 0.0
  outer loop
    vertex 3.2914384238738745 57.87209927090083 535.0000000337086
    vertex 8.519195237440329 57.87209927090083 527.3499998485509
    vertex 8.34936451918246 57.87209927090083 527.7600074718765
  endloop
endfacet
facet normal 0.0 -1.0 0.0
  outer loop
    vertex 3.2914384238738745 57.87209927090083 535.0000000337086
    vertex 8.34936451918246 57.87209927090083 527.7600074718765
    vertex 8.291438423873876 57.87209927090083 528.1999998485508
  endloop
endfacet
facet normal 0.0 -1.0 0.0
  outer loop
    vertex 3.2914384238738745 57.87209927090083 535.0000000337086
    vertex 8.291438423873876 57.87209927090083 528.1999998485508
    vertex 8.349364519182458 57.87209927090083 528.6399922252251
  endloop
endfacet
facet normal 0.0 -1.0 0.0
  outer loop
    vertex 3.2914384238738745 57.87209927090083 535.0000000337086
    vertex 8.349364519182458 57.87209927090083 528.6399922252251
    vertex 8.519195237440329 57.87209927090083 529.0499998485508
  endloop
endfacet
facet normal 0.0 -1.0 0.0
  outer loop
    vertex 3.2914384238738745 57.87209927090083 535.0000000337086
    vertex 8.519195237440329 57.87209927090083 529.0499998485508
    vertex 8.789356895856743 57.87209927090083 529.4020813765679
  endloop
endfacet
facet normal 0.0 -1.0 0.0
  outer loop
    vertex 3.2914384238738745 57.87209927090083 535.0000000337086
    vertex 8.789356895856743 57.87209927090083 529.4020813765679
    vertex 9.141438423873876 57.87209927090083 529.6722430349844
  endloop
endfacet
facet normal 0.0 -1.0 0.0
  outer loop
    vertex 3.2914384238738745 57.87209927090083 535.0000000337086
    vertex 9.141438423873876 57.87209927090083 529.6722430349844
    vertex 9.551446047199589 57.87209927090083 529.8420737532423
  endloop
endfacet
facet normal 0.0 -1.0 0.0
  outer loop
    vertex 3.2914384238738745 57.87209927090083 535.0000000337086
    vertex 9.551446047199589 57.87209927090083 529.8420737532423
    vertex 9.991438423873875 57.87209927090083 529.8999998485508
  endloop
endfacet
facet normal 0.0 -1.0 0.0
  outer loop
    vertex 3.2914384238738745 57.87209927090083 535.0000000337086
    vertex 9.991438423873875 57.87209927090083 529.8999998485508
    vertex 16.691438423873866 57.87209927090083 535.0000000337086
  endloop
endfacet
facet normal -1.0 0.0 0.0
  outer loop
    vertex 3.2914384238738745 60.872099270900826 535.0000000337086
    vertex 3.2914384238738745 57.87209927090083 506.4999998986124
    vertex 3.2914384238738745 57.87209927090083 535.0000000337086
  endloop
endfacet
facet normal -1.0 0.0 0.0
  outer loop
    vertex 3.2914384238738745 57.87209927090083 506.4999998986124
    vertex 3.2914384238738745 60.872099270900826 535.0000000337086
    vertex 3.2914384238738745 60.872099270900826 506.4999998986124
  endloop
endfacet
facet normal 0.0 0.0 1.0
  outer loop
    vertex 16.691438423873866 57.87209927090083 535.0000000337086
    vertex 3.2914384238738745 60.872099270900826 535.0000000337086
    vertex 3.2914384238738745 57.87209927090083 535.0000000337086
  endloop
endfacet
facet normal 0.0 0.0 1.0
  outer loop
    vertex 3.2914384238738745 60.872099270900826 535.0000000337086
    vertex 16.691438423873866 57.87209927090083 535.0000000337086
    vertex 16.691438423873866 60.872099270900826 535.0000000337086
  endloop
endfacet
facet normal 1.0 0.0 1.9789238380214993e-16
  outer loop
    vertex 16.691438423873873 60.872099270900826 506.4999998986124
    vertex 16.691438423873866 57.87209927090083 535.0000000337086
    vertex 16.691438423873873 57.87209927090083 506.4999998986124
  endloop
endfacet
facet normal 1.0 0.0 1.9789238380214993e-16
  outer loop
    vertex 16.691438423873866 57.87209927090083 535.0000000337086
    vertex 16.691438423873873 60.872099270900826 506.4999998986124
    vertex 16.691438423873866 60.872099270900826 535.0000000337086
  endloop
endfacet
facet normal 0.0 0.0 -1.0
  outer loop
    vertex 16.691438423873873 60.872099270900826 506.4999998986124
    vertex 3.2914384238738745 57.87209927090083 506.4999998986124
    vertex 3.2914384238738745 60.872099270900826 506.4999998986124
  endloop
endfacet
facet normal 0.0 0.0 -1.0
  outer loop
    vertex 3.2914384238738745 57.87209927090083 506.4999998986124
    vertex 16.691438423873873 60.872099270900826 506.4999998986124
    vertex 16.691438423873873 57.87209927090083 506.4999998986124
  endloop
endfacet
facet normal -0.382683432365069 -1.0381276826648004e-28 0.9238795325112953
  outer loop
    vertex 10.841438423873875 57.87209927090083 526.7277566621173
    vertex 10.43143080054816 60.87209927090081 526.5579259438593
    vertex 10.43143080054816 57.87209927090083 526.5579259438593
  endloop
endfacet
facet normal -0.382683432365069 -1.0381276826648004e-28 0.9238795325112953
  outer loop
    vertex 10.43143080054816 60.87209927090081 526.5579259438593
    vertex 10.841438423873875 57.87209927090083 526.7277566621173
    vertex 10.841438423873875 60.87209927090081 526.7277566621173
  endloop
endfacet
facet normal -0.6087614290087674 0.0 0.7933533402911993
  outer loop
    vertex 11.193519951891005 57.87209927090083 526.9979183205337
    vertex 10.841438423873875 60.87209927090081 526.7277566621173
    vertex 10.841438423873875 57.87209927090083 526.7277566621173
  endloop
endfacet
facet normal -0.6087614290087674 0.0 0.7933533402911993
  outer loop
    vertex 10.841438423873875 60.87209927090081 526.7277566621173
    vertex 11.193519951891005 57.87209927090083 526.9979183205337
    vertex 11.193519951891005 60.87209927090081 526.9979183205337
  endloop
endfacet
facet normal -0.7933533402912526 -6.884976795630962e-29 0.6087614290086979
  outer loop
    vertex 11.46368161030742 60.87209927090081 527.3499998485509
    vertex 11.193519951891005 57.87209927090083 526.9979183205337
    vertex 11.46368161030742 57.87209927090083 527.3499998485509
  endloop
endfacet
facet normal -0.7933533402912526 -6.884976795630962e-29 0.6087614290086979
  outer loop
    vertex 11.193519951891005 57.87209927090083 526.9979183205337
    vertex 11.46368161030742 60.87209927090081 527.3499998485509
    vertex 11.193519951891005 60.87209927090081 526.9979183205337
  endloop
endfacet
facet normal -0.9238795325112747 4.3280773491130765e-29 0.3826834323651188
  outer loop
    vertex 11.633512328565292 60.87209927090081 527.7600074718765
    vertex 11.46368161030742 57.87209927090083 527.3499998485509
    vertex 11.633512328565292 57.87209927090083 527.7600074718765
  endloop
endfacet
facet normal -0.9238795325112747 4.3280773491130765e-29 0.3826834323651188
  outer loop
    vertex 11.46368161030742 57.87209927090083 527.3499998485509
    vertex 11.633512328565292 60.87209927090081 527.7600074718765
    vertex 11.46368161030742 60.87209927090081 527.3499998485509
  endloop
endfacet
facet normal -0.9914448613738116 -9.63194016812063e-19 0.1305261922200433
  outer loop
    vertex 11.691438423873874 60.87209927090081 528.1999998485508
    vertex 11.633512328565292 57.87209927090083 527.7600074718765
    vertex 11.691438423873874 57.87209927090083 528.1999998485508
  endloop
endfacet
facet normal -0.9914448613738116 -9.63194016812063e-19 0.1305261922200433
  outer loop
    vertex 11.633512328565292 57.87209927090083 527.7600074718765
    vertex 11.691438423873874 60.87209927090081 528.1999998485508
    vertex 11.633512328565292 60.87209927090081 527.7600074718765
  endloop
endfacet
facet normal -0.9914448613738112 -1.4762265837381858e-29 -0.13052619222004644
  outer loop
    vertex 11.63351232856529 60.87209927090081 528.6399922252251
    vertex 11.691438423873874 57.87209927090083 528.1999998485508
    vertex 11.63351232856529 57.87209927090083 528.6399922252251
  endloop
endfacet
facet normal -0.9914448613738112 -1.4762265837381858e-29 -0.13052619222004644
  outer loop
    vertex 11.691438423873874 57.87209927090083 528.1999998485508
    vertex 11.63351232856529 60.87209927090081 528.6399922252251
    vertex 11.691438423873874 60.87209927090081 528.1999998485508
  endloop
endfacet
facet normal -0.923879532511276 4.164813239187615e-29 -0.38268343236511615
  outer loop
    vertex 11.46368161030742 60.87209927090081 529.0499998485508
    vertex 11.63351232856529 57.87209927090083 528.6399922252251
    vertex 11.46368161030742 57.87209927090083 529.0499998485508
  endloop
endfacet
facet normal -0.923879532511276 4.164813239187615e-29 -0.38268343236511615
  outer loop
    vertex 11.63351232856529 57.87209927090083 528.6399922252251
    vertex 11.46368161030742 60.87209927090081 529.0499998485508
    vertex 11.63351232856529 60.87209927090081 528.6399922252251
  endloop
endfacet
facet normal -0.7933533402912512 3.082988153271569e-18 -0.6087614290086999
  outer loop
    vertex 11.193519951891005 60.87209927090081 529.4020813765679
    vertex 11.46368161030742 57.87209927090083 529.0499998485508
    vertex 11.193519951891005 57.87209927090083 529.4020813765679
  endloop
endfacet
facet normal -0.7933533402912512 3.082988153271569e-18 -0.6087614290086999
  outer loop
    vertex 11.46368161030742 57.87209927090083 529.0499998485508
    vertex 11.193519951891005 60.87209927090081 529.4020813765679
    vertex 11.46368161030742 60.87209927090081 529.0499998485508
  endloop
endfacet
facet normal -0.6087614290087674 0.0 -0.7933533402911993
  outer loop
    vertex 11.193519951891005 60.87209927090081 529.4020813765679
    vertex 10.841438423873873 57.87209927090083 529.6722430349844
    vertex 10.841438423873873 60.87209927090081 529.6722430349844
  endloop
endfacet
facet normal -0.6087614290087674 0.0 -0.7933533402911993
  outer loop
    vertex 10.841438423873873 57.87209927090083 529.6722430349844
    vertex 11.193519951891005 60.87209927090081 529.4020813765679
    vertex 11.193519951891005 57.87209927090083 529.4020813765679
  endloop
endfacet
facet normal -0.3826834323650691 -1.0381276826648004e-28 -0.9238795325112953
  outer loop
    vertex 10.841438423873873 60.87209927090081 529.6722430349844
    vertex 10.431430800548158 57.87209927090083 529.8420737532423
    vertex 10.431430800548158 60.87209927090081 529.8420737532423
  endloop
endfacet
facet normal -0.3826834323650691 -1.0381276826648004e-28 -0.9238795325112953
  outer loop
    vertex 10.431430800548158 57.87209927090083 529.8420737532423
    vertex 10.841438423873873 60.87209927090081 529.6722430349844
    vertex 10.841438423873873 57.87209927090083 529.6722430349844
  endloop
endfacet
facet normal -0.13052619221992845 -2.306604037088831e-31 -0.9914448613738267
  outer loop
    vertex 10.431430800548158 60.87209927090081 529.8420737532423
    vertex 9.991438423873875 57.87209927090083 529.8999998485508
    vertex 9.991438423873875 60.87209927090081 529.8999998485508
  endloop
endfacet
facet normal -0.13052619221992845 -2.306604037088831e-31 -0.9914448613738267
  outer loop
    vertex 9.991438423873875 57.87209927090083 529.8999998485508
    vertex 10.431430800548158 60.87209927090081 529.8420737532423
    vertex 10.431430800548158 57.87209927090083 529.8420737532423
  endloop
endfacet
facet normal 0.13052619221992764 1.0144551837814562e-18 -0.9914448613738267
  outer loop
    vertex 9.991438423873875 60.87209927090081 529.8999998485508
    vertex 9.551446047199589 57.87209927090083 529.8420737532423
    vertex 9.551446047199589 60.87209927090081 529.8420737532423
  endloop
endfacet
facet normal 0.13052619221992764 1.0144551837814562e-18 -0.9914448613738267
  outer loop
    vertex 9.551446047199589 57.87209927090083 529.8420737532423
    vertex 9.991438423873875 60.87209927090081 529.8999998485508
    vertex 9.991438423873875 57.87209927090083 529.8999998485508
  endloop
endfacet
facet normal 0.3826834323650703 -1.0448903035227882e-28 -0.9238795325112948
  outer loop
    vertex 9.551446047199589 60.87209927090081 529.8420737532423
    vertex 9.141438423873876 57.87209927090083 529.6722430349844
    vertex 9.141438423873876 60.87209927090081 529.6722430349844
  endloop
endfacet
facet normal 0.3826834323650703 -1.0448903035227882e-28 -0.9238795325112948
  outer loop
    vertex 9.141438423873876 57.87209927090083 529.6722430349844
    vertex 9.551446047199589 60.87209927090081 529.8420737532423
    vertex 9.551446047199589 57.87209927090083 529.8420737532423
  endloop
endfacet
facet normal 0.6087614290087673 2.1515552486349208e-30 -0.7933533402911993
  outer loop
    vertex 9.141438423873876 60.87209927090081 529.6722430349844
    vertex 8.789356895856743 57.87209927090083 529.4020813765679
    vertex 8.789356895856743 60.87209927090081 529.4020813765679
  endloop
endfacet
facet normal 0.6087614290087673 2.1515552486349208e-30 -0.7933533402911993
  outer loop
    vertex 8.789356895856743 57.87209927090083 529.4020813765679
    vertex 9.141438423873876 60.87209927090081 529.6722430349844
    vertex 9.141438423873876 57.87209927090083 529.6722430349844
  endloop
endfacet
facet normal 0.7933533402912526 -6.884976795630962e-29 -0.6087614290086979
  outer loop
    vertex 8.519195237440329 60.87209927090081 529.0499998485508
    vertex 8.789356895856743 57.87209927090083 529.4020813765679
    vertex 8.519195237440329 57.87209927090083 529.0499998485508
  endloop
endfacet
facet normal 0.7933533402912526 -6.884976795630962e-29 -0.6087614290086979
  outer loop
    vertex 8.789356895856743 57.87209927090083 529.4020813765679
    vertex 8.519195237440329 60.87209927090081 529.0499998485508
    vertex 8.789356895856743 60.87209927090081 529.4020813765679
  endloop
endfacet
facet normal 0.9238795325112747 4.3280773491130765e-29 -0.3826834323651188
  outer loop
    vertex 8.349364519182458 60.87209927090081 528.6399922252251
    vertex 8.519195237440329 57.87209927090083 529.0499998485508
    vertex 8.349364519182458 57.87209927090083 528.6399922252251
  endloop
endfacet
facet normal 0.9238795325112747 4.3280773491130765e-29 -0.3826834323651188
  outer loop
    vertex 8.519195237440329 57.87209927090083 529.0499998485508
    vertex 8.349364519182458 60.87209927090081 528.6399922252251
    vertex 8.519195237440329 60.87209927090081 529.0499998485508
  endloop
endfacet
facet normal 0.9914448613738116 -9.63194016812063e-19 -0.1305261922200433
  outer loop
    vertex 8.291438423873876 60.87209927090081 528.1999998485508
    vertex 8.349364519182458 57.87209927090083 528.6399922252251
    vertex 8.291438423873876 57.87209927090083 528.1999998485508
  endloop
endfacet
facet normal 0.9914448613738116 -9.63194016812063e-19 -0.1305261922200433
  outer loop
    vertex 8.349364519182458 57.87209927090083 528.6399922252251
    vertex 8.291438423873876 60.87209927090081 528.1999998485508
    vertex 8.349364519182458 60.87209927090081 528.6399922252251
  endloop
endfacet
facet normal 0.9914448613738112 -1.4762265837381858e-29 0.13052619222004644
  outer loop
    vertex 8.34936451918246 60.87209927090081 527.7600074718765
    vertex 8.291438423873876 57.87209927090083 528.1999998485508
    vertex 8.34936451918246 57.87209927090083 527.7600074718765
  endloop
endfacet
facet normal 0.9914448613738112 -1.4762265837381858e-29 0.13052619222004644
  outer loop
    vertex 8.291438423873876 57.87209927090083 528.1999998485508
    vertex 8.34936451918246 60.87209927090081 527.7600074718765
    vertex 8.291438423873876 60.87209927090081 528.1999998485508
  endloop
endfacet
facet normal 0.923879532511276 4.491341459038479e-29 0.38268343236511615
  outer loop
    vertex 8.519195237440329 60.87209927090081 527.3499998485509
    vertex 8.34936451918246 57.87209927090083 527.7600074718765
    vertex 8.519195237440329 57.87209927090083 527.3499998485509
  endloop
endfacet
facet normal 0.923879532511276 4.491341459038479e-29 0.38268343236511615
  outer loop
    vertex 8.34936451918246 57.87209927090083 527.7600074718765
    vertex 8.519195237440329 60.87209927090081 527.3499998485509
    vertex 8.34936451918246 60.87209927090081 527.7600074718765
  endloop
endfacet
facet normal 0.7933533402912526 -6.884976795630962e-29 0.6087614290086979
  outer loop
    vertex 8.789356895856743 60.87209927090081 526.9979183205337
    vertex 8.519195237440329 57.87209927090083 527.3499998485509
    vertex 8.789356895856743 57.87209927090083 526.9979183205337
  endloop
endfacet
facet normal 0.7933533402912526 -6.884976795630962e-29 0.6087614290086979
  outer loop
    vertex 8.519195237440329 57.87209927090083 527.3499998485509
    vertex 8.789356895856743 60.87209927090081 526.9979183205337
    vertex 8.519195237440329 60.87209927090081 527.3499998485509
  endloop
endfacet
facet normal 0.6087614290087674 0.0 0.7933533402911993
  outer loop
    vertex 9.141438423873876 57.87209927090083 526.7277566621173
    vertex 8.789356895856743 60.87209927090081 526.9979183205337
    vertex 8.789356895856743 57.87209927090083 526.9979183205337
  endloop
endfacet
facet normal 0.6087614290087674 0.0 0.7933533402911993
  outer loop
    vertex 8.789356895856743 60.87209927090081 526.9979183205337
    vertex 9.141438423873876 57.87209927090083 526.7277566621173
    vertex 9.141438423873876 60.87209927090081 526.7277566621173
  endloop
endfacet
facet normal 0.3826834323650691 -1.0381276826648004e-28 0.9238795325112953
  outer loop
    vertex 9.55144604719959 57.87209927090083 526.5579259438593
    vertex 9.141438423873876 60.87209927090081 526.7277566621173
    vertex 9.141438423873876 57.87209927090083 526.7277566621173
  endloop
endfacet
facet normal 0.3826834323650691 -1.0381276826648004e-28 0.9238795325112953
  outer loop
    vertex 9.141438423873876 60.87209927090081 526.7277566621173
    vertex 9.55144604719959 57.87209927090083 526.5579259438593
    vertex 9.55144604719959 60.87209927090081 526.5579259438593
  endloop
endfacet
facet normal 0.13052619221992803 0.0 0.9914448613738267
  outer loop
    vertex 9.991438423873875 57.87209927090083 526.4999998485508
    vertex 9.55144604719959 60.87209927090081 526.5579259438593
    vertex 9.55144604719959 57.87209927090083 526.5579259438593
  endloop
endfacet
facet normal 0.13052619221992803 0.0 0.9914448613738267
  outer loop
    vertex 9.55144604719959 60.87209927090081 526.5579259438593
    vertex 9.991438423873875 57.87209927090083 526.4999998485508
    vertex 9.991438423873875 60.87209927090081 526.4999998485508
  endloop
endfacet
facet normal -0.13052619221992803 0.0 0.9914448613738267
  outer loop
    vertex 10.43143080054816 57.87209927090083 526.5579259438593
    vertex 9.991438423873875 60.87209927090081 526.4999998485508
    vertex 9.991438423873875 57.87209927090083 526.4999998485508
  endloop
endfacet
facet normal -0.13052619221992803 0.0 0.9914448613738267
  outer loop
    vertex 9.991438423873875 60.87209927090081 526.4999998485508
    vertex 10.43143080054816 57.87209927090083 526.5579259438593
    vertex 10.43143080054816 60.87209927090081 526.5579259438593
  endloop
endfacet
facet normal -0.3826834323650691 0.0 0.9238795325112953
  outer loop
    vertex 10.841438423873875 57.87209927090083 513.3277567330915
    vertex 10.43143080054816 60.872099270900826 513.1579260148337
    vertex 10.43143080054816 57.87209927090083 513.1579260148337
  endloop
endfacet
facet normal -0.3826834323650691 0.0 0.9238795325112953
  outer loop
    vertex 10.43143080054816 60.872099270900826 513.1579260148337
    vertex 10.841438423873875 57.87209927090083 513.3277567330915
    vertex 10.841438423873875 60.872099270900826 513.3277567330915
  endloop
endfacet
facet normal -0.608761429008769 0.0 0.7933533402911981
  outer loop
    vertex 11.193519951891005 57.87209927090083 513.597918391508
    vertex 10.841438423873875 60.872099270900826 513.3277567330915
    vertex 10.841438423873875 57.87209927090083 513.3277567330915
  endloop
endfacet
facet normal -0.608761429008769 0.0 0.7933533402911981
  outer loop
    vertex 10.841438423873875 60.872099270900826 513.3277567330915
    vertex 11.193519951891005 57.87209927090083 513.597918391508
    vertex 11.193519951891005 60.872099270900826 513.597918391508
  endloop
endfacet
facet normal -0.7933533402912528 0.0 0.6087614290086979
  outer loop
    vertex 11.46368161030742 60.872099270900826 513.9499999195251
    vertex 11.193519951891005 57.87209927090083 513.597918391508
    vertex 11.46368161030742 57.87209927090083 513.9499999195251
  endloop
endfacet
facet normal -0.7933533402912528 0.0 0.6087614290086979
  outer loop
    vertex 11.193519951891005 57.87209927090083 513.597918391508
    vertex 11.46368161030742 60.872099270900826 513.9499999195251
    vertex 11.193519951891005 60.872099270900826 513.597918391508
  endloop
endfacet
facet normal -0.9238795325112736 0.0 0.3826834323651215
  outer loop
    vertex 11.633512328565292 60.872099270900826 514.3600075428509
    vertex 11.46368161030742 57.87209927090083 513.9499999195251
    vertex 11.633512328565292 57.87209927090083 514.3600075428509
  endloop
endfacet
facet normal -0.9238795325112736 0.0 0.3826834323651215
  outer loop
    vertex 11.46368161030742 57.87209927090083 513.9499999195251
    vertex 11.633512328565292 60.872099270900826 514.3600075428509
    vertex 11.46368161030742 60.872099270900826 513.9499999195251
  endloop
endfacet
facet normal -0.9914448613738112 0.0 0.1305261922200464
  outer loop
    vertex 11.691438423873876 60.872099270900826 514.7999999195251
    vertex 11.633512328565292 57.87209927090083 514.3600075428509
    vertex 11.691438423873876 57.87209927090083 514.7999999195251
  endloop
endfacet
facet normal -0.9914448613738112 0.0 0.1305261922200464
  outer loop
    vertex 11.633512328565292 57.87209927090083 514.3600075428509
    vertex 11.691438423873876 60.872099270900826 514.7999999195251
    vertex 11.633512328565292 60.872099270900826 514.3600075428509
  endloop
endfacet
facet normal -0.9914448613738112 0.0 -0.1305261922200464
  outer loop
    vertex 11.633512328565292 60.872099270900826 515.2399922961995
    vertex 11.691438423873876 57.87209927090083 514.7999999195251
    vertex 11.633512328565292 57.87209927090083 515.2399922961995
  endloop
endfacet
facet normal -0.9914448613738112 0.0 -0.1305261922200464
  outer loop
    vertex 11.691438423873876 57.87209927090083 514.7999999195251
    vertex 11.633512328565292 60.872099270900826 515.2399922961995
    vertex 11.691438423873876 60.872099270900826 514.7999999195251
  endloop
endfacet
facet normal -0.9238795325112736 0.0 -0.3826834323651216
  outer loop
    vertex 11.46368161030742 60.872099270900826 515.6499999195252
    vertex 11.633512328565292 57.87209927090083 515.2399922961995
    vertex 11.46368161030742 57.87209927090083 515.6499999195252
  endloop
endfacet
facet normal -0.9238795325112736 0.0 -0.3826834323651216
  outer loop
    vertex 11.633512328565292 57.87209927090083 515.2399922961995
    vertex 11.46368161030742 60.872099270900826 515.6499999195252
    vertex 11.633512328565292 60.872099270900826 515.2399922961995
  endloop
endfacet
facet normal -0.7933533402912528 0.0 -0.6087614290086979
  outer loop
    vertex 11.193519951891005 60.872099270900826 516.0020814475423
    vertex 11.46368161030742 57.87209927090083 515.6499999195252
    vertex 11.193519951891005 57.87209927090083 516.0020814475423
  endloop
endfacet
facet normal -0.7933533402912528 0.0 -0.6087614290086979
  outer loop
    vertex 11.46368161030742 57.87209927090083 515.6499999195252
    vertex 11.193519951891005 60.872099270900826 516.0020814475423
    vertex 11.46368161030742 60.872099270900826 515.6499999195252
  endloop
endfacet
facet normal -0.6087614290087674 0.0 -0.7933533402911992
  outer loop
    vertex 11.193519951891005 60.872099270900826 516.0020814475423
    vertex 10.841438423873873 57.87209927090083 516.2722431059588
    vertex 10.841438423873873 60.872099270900826 516.2722431059588
  endloop
endfacet
facet normal -0.6087614290087674 0.0 -0.7933533402911992
  outer loop
    vertex 10.841438423873873 57.87209927090083 516.2722431059588
    vertex 11.193519951891005 60.872099270900826 516.0020814475423
    vertex 11.193519951891005 57.87209927090083 516.0020814475423
  endloop
endfacet
facet normal -0.38268343236506913 0.0 -0.9238795325112953
  outer loop
    vertex 10.841438423873873 60.872099270900826 516.2722431059588
    vertex 10.431430800548158 57.87209927090083 516.4420738242165
    vertex 10.431430800548158 60.872099270900826 516.4420738242165
  endloop
endfacet
facet normal -0.38268343236506913 0.0 -0.9238795325112953
  outer loop
    vertex 10.431430800548158 57.87209927090083 516.4420738242165
    vertex 10.841438423873873 60.872099270900826 516.2722431059588
    vertex 10.841438423873873 57.87209927090083 516.2722431059588
  endloop
endfacet
facet normal -0.13052619221992848 0.0 -0.9914448613738267
  outer loop
    vertex 10.431430800548158 60.872099270900826 516.4420738242165
    vertex 9.991438423873875 57.87209927090083 516.4999999195252
    vertex 9.991438423873875 60.872099270900826 516.4999999195252
  endloop
endfacet
facet normal -0.13052619221992848 0.0 -0.9914448613738267
  outer loop
    vertex 9.991438423873875 57.87209927090083 516.4999999195252
    vertex 10.431430800548158 60.872099270900826 516.4420738242165
    vertex 10.431430800548158 57.87209927090083 516.4420738242165
  endloop
endfacet
facet normal 0.13052619221992764 0.0 -0.9914448613738267
  outer loop
    vertex 9.991438423873875 60.872099270900826 516.4999999195252
    vertex 9.551446047199589 57.87209927090083 516.4420738242165
    vertex 9.551446047199589 60.872099270900826 516.4420738242165
  endloop
endfacet
facet normal 0.13052619221992764 0.0 -0.9914448613738267
  outer loop
    vertex 9.551446047199589 57.87209927090083 516.4420738242165
    vertex 9.991438423873875 60.872099270900826 516.4999999195252
    vertex 9.991438423873875 57.87209927090083 516.4999999195252
  endloop
endfacet
facet normal 0.38268343236507024 0.0 -0.9238795325112948
  outer loop
    vertex 9.551446047199589 60.872099270900826 516.4420738242165
    vertex 9.141438423873876 57.87209927090083 516.2722431059588
    vertex 9.141438423873876 60.872099270900826 516.2722431059588
  endloop
endfacet
facet normal 0.38268343236507024 0.0 -0.9238795325112948
  outer loop
    vertex 9.141438423873876 57.87209927090083 516.2722431059588
    vertex 9.551446047199589 60.872099270900826 516.4420738242165
    vertex 9.551446047199589 57.87209927090083 516.4420738242165
  endloop
endfacet
facet normal 0.6087614290087673 0.0 -0.7933533402911993
  outer loop
    vertex 9.141438423873876 60.872099270900826 516.2722431059588
    vertex 8.789356895856743 57.87209927090083 516.0020814475423
    vertex 8.789356895856743 60.872099270900826 516.0020814475423
  endloop
endfacet
facet normal 0.6087614290087673 0.0 -0.7933533402911993
  outer loop
    vertex 8.789356895856743 57.87209927090083 516.0020814475423
    vertex 9.141438423873876 60.872099270900826 516.2722431059588
    vertex 9.141438423873876 57.87209927090083 516.2722431059588
  endloop
endfacet
facet normal 0.7933533402912528 0.0 -0.6087614290086979
  outer loop
    vertex 8.519195237440329 60.872099270900826 515.6499999195252
    vertex 8.789356895856743 57.87209927090083 516.0020814475423
    vertex 8.519195237440329 57.87209927090083 515.6499999195252
  endloop
endfacet
facet normal 0.7933533402912528 0.0 -0.6087614290086979
  outer loop
    vertex 8.789356895856743 57.87209927090083 516.0020814475423
    vertex 8.519195237440329 60.872099270900826 515.6499999195252
    vertex 8.789356895856743 60.872099270900826 516.0020814475423
  endloop
endfacet
facet normal 0.9238795325112747 0.0 -0.3826834323651188
  outer loop
    vertex 8.349364519182458 60.872099270900826 515.2399922961995
    vertex 8.519195237440329 57.87209927090083 515.6499999195252
    vertex 8.349364519182458 57.87209927090083 515.2399922961995
  endloop
endfacet
facet normal 0.9238795325112747 0.0 -0.3826834323651188
  outer loop
    vertex 8.519195237440329 57.87209927090083 515.6499999195252
    vertex 8.349364519182458 60.872099270900826 515.2399922961995
    vertex 8.519195237440329 60.872099270900826 515.6499999195252
  endloop
endfacet
facet normal 0.9914448613738116 0.0 -0.13052619222004327
  outer loop
    vertex 8.291438423873876 60.872099270900826 514.7999999195251
    vertex 8.349364519182458 57.87209927090083 515.2399922961995
    vertex 8.291438423873876 57.87209927090083 514.7999999195251
  endloop
endfacet
facet normal 0.9914448613738116 0.0 -0.13052619222004327
  outer loop
    vertex 8.349364519182458 57.87209927090083 515.2399922961995
    vertex 8.291438423873876 60.872099270900826 514.7999999195251
    vertex 8.349364519182458 60.872099270900826 515.2399922961995
  endloop
endfacet
facet normal 0.9914448613738112 0.0 0.1305261922200464
  outer loop
    vertex 8.34936451918246 60.872099270900826 514.3600075428509
    vertex 8.291438423873876 57.87209927090083 514.7999999195251
    vertex 8.34936451918246 57.87209927090083 514.3600075428509
  endloop
endfacet
facet normal 0.9914448613738112 0.0 0.1305261922200464
  outer loop
    vertex 8.291438423873876 57.87209927090083 514.7999999195251
    vertex 8.34936451918246 60.872099270900826 514.3600075428509
    vertex 8.291438423873876 60.872099270900826 514.7999999195251
  endloop
endfacet
facet normal 0.923879532511276 0.0 0.38268343236511615
  outer loop
    vertex 8.519195237440329 60.872099270900826 513.9499999195251
    vertex 8.34936451918246 57.87209927090083 514.3600075428509
    vertex 8.519195237440329 57.87209927090083 513.9499999195251
  endloop
endfacet
facet normal 0.923879532511276 0.0 0.38268343236511615
  outer loop
    vertex 8.34936451918246 57.87209927090083 514.3600075428509
    vertex 8.519195237440329 60.872099270900826 513.9499999195251
    vertex 8.34936451918246 60.872099270900826 514.3600075428509
  endloop
endfacet
facet normal 0.7933533402912528 0.0 0.6087614290086979
  outer loop
    vertex 8.789356895856743 60.872099270900826 513.597918391508
    vertex 8.519195237440329 57.87209927090083 513.9499999195251
    vertex 8.789356895856743 57.87209927090083 513.597918391508
  endloop
endfacet
facet normal 0.7933533402912528 0.0 0.6087614290086979
  outer loop
    vertex 8.519195237440329 57.87209927090083 513.9499999195251
    vertex 8.789356895856743 60.872099270900826 513.597918391508
    vertex 8.519195237440329 60.872099270900826 513.9499999195251
  endloop
endfacet
facet normal 0.6087614290087674 0.0 0.7933533402911992
  outer loop
    vertex 9.141438423873876 57.87209927090083 513.3277567330915
    vertex 8.789356895856743 60.872099270900826 513.597918391508
    vertex 8.789356895856743 57.87209927090083 513.597918391508
  endloop
endfacet
facet normal 0.6087614290087674 0.0 0.7933533402911992
  outer loop
    vertex 8.789356895856743 60.872099270900826 513.597918391508
    vertex 9.141438423873876 57.87209927090083 513.3277567330915
    vertex 9.141438423873876 60.872099270900826 513.3277567330915
  endloop
endfacet
facet normal 0.38268343236506913 0.0 0.9238795325112953
  outer loop
    vertex 9.55144604719959 57.87209927090083 513.1579260148337
    vertex 9.141438423873876 60.872099270900826 513.3277567330915
    vertex 9.141438423873876 57.87209927090083 513.3277567330915
  endloop
endfacet
facet normal 0.38268343236506913 0.0 0.9238795325112953
  outer loop
    vertex 9.141438423873876 60.872099270900826 513.3277567330915
    vertex 9.55144604719959 57.87209927090083 513.1579260148337
    vertex 9.55144604719959 60.872099270900826 513.1579260148337
  endloop
endfacet
facet normal 0.13052619221992806 0.0 0.9914448613738267
  outer loop
    vertex 9.991438423873875 57.87209927090083 513.0999999195252
    vertex 9.55144604719959 60.872099270900826 513.1579260148337
    vertex 9.55144604719959 57.87209927090083 513.1579260148337
  endloop
endfacet
facet normal 0.13052619221992806 0.0 0.9914448613738267
  outer loop
    vertex 9.55144604719959 60.872099270900826 513.1579260148337
    vertex 9.991438423873875 57.87209927090083 513.0999999195252
    vertex 9.991438423873875 60.872099270900826 513.0999999195252
  endloop
endfacet
facet normal -0.13052619221992806 0.0 0.9914448613738267
  outer loop
    vertex 10.43143080054816 57.87209927090083 513.1579260148337
    vertex 9.991438423873875 60.872099270900826 513.0999999195252
    vertex 9.991438423873875 57.87209927090083 513.0999999195252
  endloop
endfacet
facet normal -0.13052619221992806 0.0 0.9914448613738267
  outer loop
    vertex 9.991438423873875 60.872099270900826 513.0999999195252
    vertex 10.43143080054816 57.87209927090083 513.1579260148337
    vertex 10.43143080054816 60.872099270900826 513.1579260148337
  endloop
endfacet
endsolid SimLab_2020-06-01-10-44-45
